<?xml version="1.0" encoding="utf-8"?>
<!-- Generator: Adobe Illustrator 25.4.1, SVG Export Plug-In . SVG Version: 6.00 Build 0)  -->
<svg version="1.1" id="Layer_1" xmlns="http://www.w3.org/2000/svg" xmlns:xlink="http://www.w3.org/1999/xlink" x="0px" y="0px"
	 viewBox="0 0 1117 1117" style="enable-background:new 0 0 1117 1117;" xml:space="preserve">
<style type="text/css">
	.st0{fill:none;stroke:#000000;stroke-width:2;stroke-linecap:round;stroke-linejoin:round;stroke-miterlimit:10;}
</style>
<g>
	<path class="st0" d="M672.46,666.82c1.89,9.94,2.08,19.95,0.97,29.97c-0.09,0.84-0.4,1.83-0.4,2.74
		c-0.03,20.18-0.42,40.35-0.96,60.52c-0.48,18.23-2.25,36.35-3.27,54.52c-0.43,7.62-1.27,15.27-1.15,22.89
		c0.26,16.02-0.9,32-1.45,47.97c-0.69,19.99-2.24,39.96-1.88,59.98c0.14,7.82,1.52,15.59,1.06,23.44c-0.12,2.05,0.43,4.21-1.1,6"/>
	<path class="st0" d="M451.11,83.47c-1.21,10.52-0.81,21.11-0.31,31.61c0.27,5.69-0.25,11.28-0.26,16.91
		c-0.01,15.45-0.36,30.9-0.36,46.34c-0.01,25.81,0.7,51.63,2.13,77.41c0.4,7.29,0.15,14.55,0.46,21.81
		c0.08,1.94-0.31,3.72-1.11,5.45"/>
	<path class="st0" d="M451.11,368.06c0.96,2.67,0.73,5.48,0.49,8.17c-2.31,25.78-0.37,51.62-1.06,77.42
		c-0.32,11.82,2.53,23.27,3.78,34.9c0.54,5.05,2.22,10.11,0.61,15.26"/>
	<path class="st0" d="M462.01,561.06c-1.15,5.6-0.95,11.33-0.43,16.89c2.86,30.48,2.9,61.04,3.36,91.6
		c0.11,7.4-0.95,15.04,1.44,22.35c0.57,1.74-0.66,3.18-0.63,4.91c0.37,22.91-0.06,45.8-0.97,68.69c-0.14,3.62-0.1,7.35,0.64,10.87
		c0.54,2.62,0.31,4.82-0.68,7.12"/>
	<path class="st0" d="M661.55,421.49c-0.55,6.72-1.25,13.44-1.6,20.17c-0.56,10.89,0.69,21.82-1.02,32.73
		c-1.1,7.04,0.36,14.27,1.3,21.2c1.11,8.21,0.47,16.41,1.55,24.62c0.89,6.76,1.55,13.74,1.41,20.68c-0.04,1.89,0.3,3.84-1.09,5.45"
		/>
	<path class="st0" d="M467.46,889.26c-1.4,6.67-0.34,13.45-0.94,20.19c-0.79,8.85-0.25,17.81-0.76,26.7
		c-0.62,10.74-1.46,21.48-2.73,32.16c-1.45,12.15-2.54,24.33-3.13,36.54c-0.76,15.62-1.83,31.23-1.67,46.88
		c0.13,12.74-0.12,25.46-1.12,38.16"/>
	<path class="st0" d="M671.36,137.44c1.49,8.36,0.02,16.72-0.12,25.08c-0.01,0.56-0.44,1.44-0.41,2.18
		c0.73,22.58-1.83,45.05-2.41,67.6c-0.24,9.31,2.27,15.94,10.57,20.18"/>
	<path class="st0" d="M453.29,286.28c-1,3.23-0.86,6.6-0.46,9.8c2.46,19.7-0.06,39.27-1.09,58.89c-0.18,3.42-1.02,7.08,1.01,10.35"
		/>
	<path class="st0" d="M450.56,5.51c0.23,5.16,1.99,10.22,2,15.27c0.04,10.35,1.16,20.78-0.93,31.07
		c-1.51,7.41-0.93,14.89-1.09,22.36c-0.05,2.22,0.53,4.57-1.08,6.54"/>
	<path class="st0" d="M702.44,559.97c-13-0.65-23.84-8.09-36.46-11.32c-2.77,0.95-1.95,3.79-1.62,5.85
		c3.56,22.04,4.73,44.31,6.5,66.52c0.07,0.93,0.69,1.82,1.05,2.73"/>
	<path class="st0" d="M466.37,786.22c-2.44,5.13-1.41,10.56-0.97,15.8c0.42,4.93,0.49,9.83,0.38,14.73
		c-0.26,11.11,0.7,22.17,1.06,33.26c0.35,10.53,0.08,21.08,0.07,31.62c0,2.01,0.21,4.05-0.54,6"/>
	<path class="st0" d="M669.73,1049c-0.75,0.96-1.31,2.1-1.06,3.26c2,9.19,0.36,18.58,1.58,27.81c1.53,11.53,0.14,22.95-1.6,34.35
		c-0.11,0.71-0.01,1.45-0.01,2.18"/>
	<path class="st0" d="M665.91,977.58c-1.21,10.72-0.65,21.46,0.06,32.16c0.69,10.37,1,20.79,2.67,31.08
		c0.26,1.61-0.7,2.92-1.09,4.36"/>
	<path class="st0" d="M670.27,248.12c-3.35,3.85-2.61,8.78-2.55,13.08c0.24,17.47-2.04,34.87-1.27,52.34"/>
	<path class="st0" d="M663.19,353.34c2.02,3.09,1.31,6.6,0.99,9.8c-1.23,12.16-1.76,24.34-2.02,36.54c-0.09,4.28-0.2,8.48-1.7,12.54
		"/>
	<path class="st0" d="M668.64,5.51c-0.37,10.54-0.18,21.1-0.18,31.62c0,5.64,0.25,11.95,2.97,17.42c0.85,1.7,0.37,3.3,0.46,4.94
		c0.49,8.9-0.92,17.86,1.06,26.73c0.4,1.79,0.36,3.83-1.03,5.44"/>
	<path class="st0" d="M435.3,503.81c-1.66-2.68,0.05-3.04,2.18-3.29c6.44-0.75,12.07,2.27,17.95,3.97c1.24,0.36,1.91,1.96,1.91,4.23
		c0,10,0.92,19.99,1.38,29.99c0.28,6.17,2.16,12.3,0.57,18.54"/>
	<path class="st0" d="M634.84,962.86c23.4,11.64,48.32,19.2,73.06,27.26"/>
	<path class="st0" d="M497.45,1086.62c-13.71,0.36-27.3,2.06-40.89,3.82"/>
	<path class="st0" d="M677.36,623.21c-2.6-0.04-5.19-0.05-7.18,2.32c1.67,2.96,1.88,6.27,1.74,9.67
		c-0.4,10.04,0.77,20.01,1.62,29.98"/>
	<path class="st0" d="M478.91,787.85c-5.67-0.34-10.67-2.75-15.95-4.47c-10.58-3.46-21.52-7.15-33.12-5.88"/>
	<path class="st0" d="M665.37,315.18c0,9.27-0.01,18.54,0.01,27.8c0.01,2.05-0.44,4.21,1.08,6"/>
	<path class="st0" d="M669.73,625.39c-11.09,2.68-22.17,2.47-33.26,0"/>
	<path class="st0" d="M688.27,92.74c-3.34,1.48-6.88,1.17-10.36,1.05c-2.87-0.1-3.92,0.99-3.86,3.86c0.2,9.09-1.56,18.18-0.39,27.24
		c0.44,3.43-2.36,6.38-0.76,9.87c0.4,0.86-0.99,2.28-2.06,2.06c-4.98-1.03-7.26,2.44-9.83,5.53"/>
	<path class="st0" d="M706.8,127.63c-10.56,4.84-21.64,7.41-33.26,7.63"/>
	<path class="st0" d="M701.35,248.66c1.2-4.32-2.32-5.63-4.95-7.01c-5.42-2.83-11.41-3.12-17.4-2.78c-2.95,0.16-4.64,2.47-6.54,4.34
		"/>
	<path class="st0" d="M473.46,563.24c-4.54-1.15-8.81-3.02-13.16-4.7c-9.34-3.6-18.8-8.14-29.36-4.57
		c-0.19,0.06-0.36,0.18-0.55,0.27c0.09,0.09,0.18,0.18,0.27,0.27"/>
	<path class="st0" d="M468.55,860.36c2.69-0.34,4.89,1.3,7.02,2.31c6.99,3.32,14.17,4.95,21.87,4.23"/>
	<path class="st0" d="M659.92,418.76c1.23-1.61,1.07-3.64,1.78-5.59c-4.72-2.15-9.37-2.74-14.33-0.99
		c-3.05,1.07-5.91,1.15-8.28-2.05c-1.01-1.36-3.25-2.05-5.33-1.73"/>
	<path class="st0" d="M601.04,454.2c-6.61-0.24-12.97,2.25-19.63,1.69c-2.93-0.25-5.93,0.16-8.72-1.14"/>
	<path class="st0" d="M480.55,355.52c-6.82,6.15-15.79,7.1-24.02,9.71c-5.65,1.8-11.6,2.64-17.41,3.92"/>
	<path class="st0" d="M598.85,983.03c2.08,6.75,7.04,10.08,13.63,11.44c3.57,0.73,7.15,1.4,10.36,3.28"/>
	<path class="st0" d="M460.92,1001.57c8.32,0.64,16.51,2.14,24.51,4.43c4.3,1.23,6.18-1.83,8.74-3.89"/>
	<path class="st0" d="M698.08,158.16c-6.22,2.87-12.84,1.87-19.05,0.89c-8.71-1.38-17.37-2.88-26.2-3.07
		c-2.26-0.05-4.62,0.26-6-2.18"/>
	<path class="st0" d="M599.4,191.42c4.72,3.09,9.34,6.36,14.21,9.21c4.06,2.38,8.33,3.39,11.96-1.03"/>
	<path class="st0" d="M456.02,1091.52c-0.18,8.54-0.36,17.08-0.55,25.62"/>
	<path class="st0" d="M495.27,772.59c7.88,5.1,16.25,7.59,25.62,4.91"/>
	<path class="st0" d="M427.67,274.83c-0.42,1.07,0.62,1.46,1.1,1.58c10.78,2.68,20.99,6.81,31.13,11.34
		c6.26,2.79,13.31,2.08,20.1,1.25"/>
	<path class="st0" d="M582.5,1052.27c-0.35,3.61,2.74,4.07,4.89,5.47c6.22,4.05,12.86,7.54,18,13.06"/>
	<path class="st0" d="M694.81,32.77c-8.46-0.42-16.61,2.71-25.08,2.18"/>
	<path class="st0" d="M520.89,1033.73c0,4.06-2.32,6.33-6.01,7.04c-5.2,1-10.43,2.23-15.8,1.14"/>
	<path class="st0" d="M692.63,339.16c-10.46,2.91-20.31,7.23-29.4,13.15c-2.11,1.38-4.64,0.69-6.59,2.11"/>
	<path class="st0" d="M505.63,891.44c9.04,1.16,17.02,5.66,25.62,8.18"/>
	<path class="st0" d="M537.79,259.57c-2.84,4.07-6.85,3.98-10.88,2.67c-4.53-1.48-8.92-3.4-13.38-5.12"/>
	<path class="st0" d="M502.36,134.72c-7.26-0.72-14.45-3.16-21.83-0.62c-0.85,0.29-1.57,0.51-2.16,1.16"/>
	<path class="st0" d="M551.97,366.42c-6.27,0.81-11.66-2.43-17.43-3.87c-2.34-0.58-4.46-0.64-6.55,0.6"/>
	<path class="st0" d="M428.76,80.2c7.83-0.74,15.18-0.23,23.05,2.25c7.58,2.39,15.08,6.01,23.29,6.47"/>
	<path class="st0" d="M513.53,741.24c1.8,2.09,4.3,2.98,6.82,3.5c5.69,1.16,11.06,3.19,16.35,5.5"/>
	<path class="st0" d="M546.52,495.09c-5.85-0.63-10.61-4.38-16.31-5.64c-2.79-0.62-5.13-0.52-7.67,0.19"/>
	<path class="st0" d="M459.83,1002.11c-7.59-1.02-14.6,1.74-21.81,3.26c-0.64,0.14-0.19,1.27-1.09,1.1"/>
	<path class="st0" d="M513.81,65.48c-7.32,0.61-14.47-2.03-21.81-1.09"/>
	<path class="st0" d="M617.39,877.81c3.73,0.76,7.38,1.67,10.94,3.19c3.94,1.68,8.1,3.34,12.5,1.18"/>
	<path class="st0" d="M567.78,220.86c4.39,4.07,9.92,4.26,15.24,3.61c2.27-0.28,4.97-0.53,7.11-1.97"/>
	<path class="st0" d="M657.19,283.01c-7.02,2.65-14.13,2.25-21.26,0.55"/>
	<path class="st0" d="M582.5,879.45c5.98,3.65,11.8,7.55,18.51,9.88c1.76,0.61,3.01,0.23,4.38-0.61"/>
	<path class="st0" d="M638.93,793.58c3.72,5.03,9.02,7.92,14.44,10.64c2.37,1.19,4.05,0.28,5.46-1.64"/>
	<path class="st0" d="M686.08,658.64c-5.1,5.17-11.29,7.24-18.52,7.81c-5.24,0.41-10.91,0.19-15.55,3.64"/>
	<path class="st0" d="M487.09,689.99c-4.16,4.66-9.43,4.1-14.71,2.94c-1.66-0.36-3.27-0.45-4.92-0.49"/>
	<path class="st0" d="M662.1,413.31c5.89-0.21,11.06,2.52,16.31,4.49c5.14,1.93,10.33,4.05,14.77,7.5"/>
	<path class="st0" d="M669.73,245.39c-10.97,0-13.17,1.24-16.36,9.27"/>
	<path class="st0" d="M620.12,368.33c-5.66,4.49-12.88,5.65-19.08,9"/>
	<path class="st0" d="M485.46,889.8c-8.32,0.84-16.32-1.79-24.53-2.19c-5.32-0.25-10.57,0.25-15.81,1.1"/>
	<path class="st0" d="M664.82,549.06c-6.92-4.39-14.37-5.66-22.35-3.82"/>
	<path class="st0" d="M624.48,498.9c-5.75,3.93-12.79,3.77-19.08,6"/>
	<path class="st0" d="M654.46,1035.37c7.8,9.14,18.51,13.87,28.92,19.04c1.69,0.84,3.56,1.3,4.88,2.77"/>
	<path class="st0" d="M475.64,608.49c5.45,2,10.95,3.88,16.32,6.09c1.2,0.49,2.23,0.18,3.31,0.45"/>
	<path class="st0" d="M526.89,1088.25c4.75,0.79,9.55,1.29,14.18,2.72c2.06,0.64,4.12,1.05,6-0.54"/>
	<path class="st0" d="M629.93,692.17c-2.28,4.53-1.86,5.62,2.73,5.65c2.91,0.02,6.02,0.98,8.72-1.02"/>
	<path class="st0" d="M599.95,319.54c-5.69-0.05-11.25,1.24-16.9,1.64"/>
	<path class="st0" d="M538.88,1040.28c2.4,7.14,7.46,11.66,14.12,14.83c1.26,0.6,1.87-0.09,2.78-0.11"/>
	<path class="st0" d="M647.38,413.86c0.73,1.34,1.64,2.27,3.25,2.78c7.67,2.42,15.21,5.29,22.95,7.46c3.19,0.89,6.86,0.66,8.14-3.69
		"/>
	<path class="st0" d="M609.76,768.77c5.75,2.25,11.62,0.56,17.45,0.55"/>
	<path class="st0" d="M539.43,838.28c-4.51,2.79-10.36,1.36-14.72,4.63"/>
	<path class="st0" d="M603.22,607.4c-5.09,0-10.18,0-15.27,0"/>
	<path class="st0" d="M603.22,808.03c-5.1,0.21-10.03,1.2-14.72,3.27"/>
	<path class="st0" d="M524.16,656.46c-4.53,2.74-9.92,2.54-14.72,4.36"/>
	<path class="st0" d="M653.37,89.47c7.61-0.65,14.72,0.9,21.26,4.91"/>
	<path class="st0" d="M560.69,534.34c-5.84-2.16-9.85,1.6-14.18,4.36c-0.17,0.11-0.36,0.18-0.54,0.27c0.09,0.09,0.18,0.18,0.27,0.27
		"/>
	<path class="st0" d="M667.55,36.04c-4.05-0.76-6.95,3.09-10.9,2.73"/>
	<path class="st0" d="M525.25,174.79c-4.98-0.25-7.04,4.58-10.9,6.27"/>
	<path class="st0" d="M594.49,32.77c-3.21,1.26-6.83,1.31-9.82,3.27c-0.17,0.11-0.36,0.18-0.54,0.28c0.09,0.09,0.18,0.18,0.27,0.27"
		/>
	<path class="st0" d="M485.46,199.6c-3.26,3.47-8.31,2.04-11.99,4.36"/>
	<path class="st0" d="M487.64,436.21c-3.47,1.41-7.11,2.42-10.36,4.36"/>
</g>
</svg>
