<?xml version="1.0" encoding="utf-8"?>
<!-- Generator: Adobe Illustrator 25.4.1, SVG Export Plug-In . SVG Version: 6.00 Build 0)  -->
<svg version="1.1" id="Layer_1" xmlns="http://www.w3.org/2000/svg" xmlns:xlink="http://www.w3.org/1999/xlink" x="0px" y="0px"
	 viewBox="0 0 1117 1117" style="enable-background:new 0 0 1117 1117;" xml:space="preserve">
<style type="text/css">
	.st0{fill:none;stroke:#000000;stroke-width:2;stroke-linecap:round;stroke-linejoin:round;stroke-miterlimit:10;}
</style>
<g>
	<path class="st0" d="M672.28,667.04c1.62,9.04,2.41,18.12,1.04,27.25c-0.41,2.74-0.49,5.45-0.49,8.19
		c0.07,29.64-0.32,59.29-2.29,88.86c-1.47,21.98-2.66,43.94-3.34,65.97c-0.91,29.44-3.32,58.84-3.06,88.33
		c0.07,7.82,1.52,15.59,1.06,23.44c-0.12,2.05,0.43,4.21-1.1,6"/>
	<path class="st0" d="M426.4,80.97c8.69-2.16,17.02-0.99,25.4,2.43c-1.54,2.34-1.45,4.58-1.43,6.84
		c0.08,10.18,0.66,20.39,0.36,30.52c-0.57,19.63-0.39,39.27-0.66,58.89c-0.2,14.69-0.42,29.47,0.45,44.15
		c1.04,17.63,2.06,35.24,1.96,52.89c-0.07,10.94,0.9,21.81,1.11,32.71c0.32,17.11-1.22,34.17-2.1,51.25c-0.1,2-0.22,4.05,0.53,6"/>
	<path class="st0" d="M450.93,368.28c1.09,3.22,0.74,6.58,0.48,9.81c-2.32,28.15-0.71,56.34-0.82,84.51
		c-0.03,8.54,2.54,17.06,3.54,25.63c0.59,5.05,1.82,10.1,1.15,15.25c-0.26,2.01,1.06,3.12,2.2,4.36"/>
	<path class="st0" d="M470.56,564c-2.03-1.8-4.73-2.18-6.87-3.4c-1.74,0.69-2.39,1.66-2.45,3.39c-0.37,10.96,0.93,21.82,1.8,32.7
		c0.07,0.82,0.42,1.83,0.39,2.74c-0.62,21.1,1.7,42.14,1.18,63.24c-0.2,8.17,0.03,16.37,0.54,24.53c1.18,18.9,0.73,37.82,0.25,56.7
		c-0.31,12.03-1.26,24,0.25,35.99c0.23,1.8-0.53,3.32-1.1,4.91"/>
	<path class="st0" d="M661.38,422.8c-0.55,6.36-1.3,12.71-1.59,19.08c-0.52,11.26,0.69,22.56-1.06,33.81
		c-1.01,6.53,0.69,13.1,1.22,19.6c0.89,10.72,1.34,21.46,1.93,32.19c0.36,6.53,2.36,13.03,0.59,19.62"/>
	<path class="st0" d="M467.83,861.68c-1.52,1.79-1.07,3.95-1.08,6c-0.06,16.72,0.14,33.44-0.54,50.16
		c-0.84,20.6-2.12,41.14-4.77,61.63c-1.56,12.07-1.78,24.32-2.29,36.51c-0.86,20.34-1.48,40.69-1.16,61.06
		c0.07,4.36-2.07,8.65-0.29,13.74c12.72-0.91,25.52-3.25,38.48-3.38"/>
	<path class="st0" d="M671.19,138.21c1.14,8.18,0.56,16.36-0.11,24.52c-0.05,0.62-0.44,1.45-0.42,2.19
		c0.81,24.4-2.6,48.67-2.25,73.06c0.13,9.24,5.02,13.52,15.31,15.81"/>
	<path class="st0" d="M450.39,6.82c2.21,11.35,1.9,22.87,2.21,34.35c0.13,4.65-0.85,9.11-1.59,13.64
		c-1.14,7.02-0.56,14.16-0.63,21.25c-0.02,2.01,0.2,4.05-0.54,6"/>
	<path class="st0" d="M664.65,550.37c-1.67,3.9,0.07,7.69,0.63,11.44c1.92,12.86,2.32,25.86,4.09,38.75
		c0.85,6.24,0.5,12.71,1.21,19.06c0.19,1.73,0.6,3.31,1.17,4.9"/>
	<path class="st0" d="M428.58,778.26c13.19-0.27,25.78,2.22,37.94,8.05c-2.53,5.09-1.76,10.32-1.32,15.39
		c0.67,7.64,0.6,15.29,0.35,22.9c-0.3,8.96,1.18,17.8,1.21,26.72c0.01,2.27-0.03,4.48-1.11,6.54"/>
	<path class="st0" d="M654.02,1035.86c3.91,3.41,6.75,8.12,12.25,9.6c1.94,0.52,2.73,2.14,2.78,4.3
		c0.27,10.72,0.09,21.51,1.22,32.15c1.04,9.76-0.44,19.29-0.91,28.9c-0.15,3.03-0.87,6.15-0.9,9.28"/>
	<path class="st0" d="M665.74,977.8c-1.14,10.54-0.69,21.09,0.05,31.62c0.74,10.55,0.72,21.17,2.67,31.63
		c0.3,1.61-0.69,2.91-1.09,4.36"/>
	<path class="st0" d="M670.1,249.98c-3.95,3.52-2.5,8.52-2.48,12.54c0.07,17.11-2.09,34.14-1.33,51.25"/>
	<path class="st0" d="M691.91,339.93c-10.42,2.88-19.74,8.08-27.68,11.64c-1.07,21.83-2.04,41.63-3.04,62.04
		c10.82,2.18,21.74,5.64,31.26,12.46"/>
	<path class="st0" d="M694.09,33.54c-8.86,0.35-17.56,1.76-26.19,3.31c1.75,12.46,5.14,24.27,3.76,36.49
		c-0.72,6.44,2.38,12.67,0.62,19.09"/>
	<path class="st0" d="M471.11,510.03c-3.28,0.53-6.51-0.58-9.18-1.82c-4.53-2.1-5.16-0.15-4.97,3.46c0.48,9.09,1.11,18.17,1.6,27.26
		c0.34,6.35,2.01,12.67,0.56,19.08"/>
	<path class="st0" d="M634.66,963.08c10.19,6.82,21.93,10.03,33.27,14.15c11.77,4.28,23.59,8.46,35.45,12.5
		c2.39,0.81,5.07,0.79,7.61,1.16"/>
	<path class="st0" d="M677.19,623.43c-2.48-0.16-4.57,0.83-6.43,2.06c1.74,13.33,0.49,26.74,2.62,39.92"/>
	<path class="st0" d="M670.1,625.61c-11.39,3.9-22.85,3.13-34.35,0.55"/>
	<path class="st0" d="M677.19,314.31c-4.01,0-8.01,0-11.99,0c0,10-0.01,19.45,0.01,28.89c0.01,2.05-0.44,4.21,1.08,6"/>
	<path class="st0" d="M642.3,546.56c7.09-3.17,14.28-0.87,20.62,1.37c12.03,4.24,23.74,9.4,36.08,12.81"/>
	<path class="st0" d="M706.63,128.94c-5.33,0.01-9.41,3.83-14.69,4.6c-5.09,0.74-10.26,1.22-15.25,2.19
		c-5.75,1.12-12.91,0.72-15.86,7.93"/>
	<path class="st0" d="M687.55,93.51c-2.97,1.42-6.25,1.82-9.23,0.96c-3.61-1.04-4.43,0.26-4.41,3.4c0.07,9.82-1.48,19.63-0.42,29.43
		c0.28,2.63-2,5.1-0.12,7.65"/>
	<path class="st0" d="M664.1,315.4c-11.39,0.32-22.11,4.35-33.26,6"/>
	<path class="st0" d="M492.91,1003.43c-2.68,3.84-6.33,3.72-10.37,2.76c-8.42-2-16.81-4.24-25.62-3.87
		c-7.93,0.34-15.25,3.36-22.9,4.93"/>
	<path class="st0" d="M461.84,561.28c-7.7-6.14-16.64-7.78-26.16-7.03c-2.18,0.17-6-1.81-5.46,3.22"/>
	<path class="st0" d="M701.72,247.25c-6.53-8.61-21.65-10.29-29.44-3.27"/>
	<path class="st0" d="M668.46,6.82c0.32,9.81-0.67,19.65,0.55,29.44"/>
	<path class="st0" d="M456.66,853.5c8.76,6.19,18.57,10.15,28.61,13.67c4.02,1.41,7.98,0.97,12.01,0.51"/>
	<path class="st0" d="M513.09,255.43c0.33,1.04-0.7,2.11,1.56,2.93c4.58,1.66,9.18,3.38,13.7,5.25c2.28,0.94,4.61,0.91,6.49-0.61
		c1.54-1.24,3.12-1.63,4.96-1.57"/>
	<path class="st0" d="M598.68,981.62c-0.18,7.54,5.07,10.75,10.94,12.99c4.17,1.59,8.69,2.28,13.05,3.37"/>
	<path class="st0" d="M600.86,454.42c-4.72,0.73-9.49,1.26-14.16,2.24c-4.72,0.99-9.21,0.67-13.64-1.15"/>
	<path class="st0" d="M494,773.36c9.02,6.09,19.23,5.79,29.44,5.45"/>
	<path class="st0" d="M480.37,356.29c-7.75,6.42-17.53,7.66-26.73,10.3c-4.99,1.43-10.16,2.24-15.25,3.33"/>
	<path class="st0" d="M431.85,1092.29c6.71-0.84,13.46,0.71,20.18-0.51c3.39-0.62,4.07,1.53,3.81,4.33
		c-0.75,7.98-0.5,15.99-0.55,23.99"/>
	<path class="st0" d="M450.93,283.78c-4.57,0.01-8.44-2.34-12.5-3.91c-2.88-1.11-5.86-1.77-8.79-2.49
		c-1.35-0.33-4.34-1.63-4.33,2.04"/>
	<path class="st0" d="M599.23,192.19c4.91,3.09,9.89,6.07,14.7,9.3c4.16,2.8,7.88,2.62,11.47-0.85"/>
	<path class="st0" d="M670.64,158.38c-8.68-1.22-17.4-2.05-26.17-2.18"/>
	<path class="st0" d="M697.9,159.47c-8.77,2.28-17.46,0.45-26.17-0.55"/>
	<path class="st0" d="M643.39,882.94c-9.45,2.24-17.63-2.3-26.17-4.91"/>
	<path class="st0" d="M582.32,1052.49c-0.52,3.8,2.73,5.22,4.98,6.4c6.91,3.65,13.1,8.2,19.01,13.22"/>
	<path class="st0" d="M582.87,880.76c3.78,1.74,7.24,4.09,10.81,6.16c4.87,2.82,9.51,3.99,14.81,2.02"/>
	<path class="st0" d="M531.08,899.84c-4.42,0.05-8-2.53-11.98-3.86c-4.48-1.49-8.79-3.51-13.64-3.5"/>
	<path class="st0" d="M502.73,135.49c-4.54-0.55-9.07-1.26-13.63-1.58c-3.52-0.25-7.13-0.4-10.36,1.58
		c-0.17,0.11-0.36,0.18-0.54,0.27c0.09,0.09,0.18,0.18,0.27,0.27"/>
	<path class="st0" d="M454.21,287.05c1.26,0.29,2.48-0.24,3.85,0.48c6.97,3.69,14.33,3.47,21.77,1.7"/>
	<path class="st0" d="M551.79,366.65c-2.73,2.39-5.77,1.04-8.11-0.13c-5.48-2.74-10.99-3.83-16.97-2.6"/>
	<path class="st0" d="M452.02,83.69c7.03,0.67,13.23,4.4,20.15,5.58c1.09,0.19,2.22,0.14,3.29,0.41"/>
	<path class="st0" d="M637.93,791.89c2.22,5.98,12.02,12.99,17.99,13.16c1.59,0.04,1.87-1.09,2.73-1.71"/>
	<path class="st0" d="M520.72,1036.95c-2.46,4.62-6.81,5.54-11.45,5.7c-3.63,0.12-7.27,0.02-10.9,0.02"/>
	<path class="st0" d="M545.8,495.86c-4.93-1.04-9.25-3.75-14.14-5.05c-3.03-0.81-5.79-1.2-8.76-0.4"/>
	<path class="st0" d="M567.06,221.63c5.97,5.02,12.89,3.3,19.62,2.67c1.08-0.1,1.99-1.46,3.28-0.49"/>
	<path class="st0" d="M486.92,688.31c-0.98,4.4-5.82,7.4-10.9,6.5c-2.94-0.52-5.82-1.42-8.73-2.14"/>
	<path class="st0" d="M513.63,742.28c2.48,2.26,5.44,3.4,8.72,3.82c4.91,0.62,9.13,3.15,13.63,4.91"/>
	<path class="st0" d="M513.63,66.79c-4.29,0.26-8.4-0.82-12.54-1.65c-3.15-0.63-6.28-1.33-9.27,0.56"/>
	<path class="st0" d="M657.02,283.78c-6.75,4.14-13.79,1.07-20.72,0.77c-1.09-0.05-0.32-1.24-0.55-1.86"/>
	<path class="st0" d="M547.43,1089.57c-1.15,1.83-1.95,3.03-4.95,2.39c-5.16-1.1-10.31-3.03-15.77-2.39"/>
	<path class="st0" d="M685.91,659.14c-5.33,6.68-13.19,7.46-20.73,8.3c-4.78,0.54-9.39,0.99-13.61,3.42"/>
	<path class="st0" d="M454.21,504.03c-4.8,0.38-8.88-2.6-13.62-2.89c-2.33-0.14-4.26-0.51-6.01,1.26"/>
	<path class="st0" d="M538.71,1040.5c2.18,8.18,10.02,15.04,17.45,15.27"/>
	<path class="st0" d="M669.55,245.61c-10.71,0-13.69,1.98-16.36,10.9"/>
	<path class="st0" d="M495.09,616.34c-6.7-2.13-13.32-4.49-19.63-7.63"/>
	<path class="st0" d="M674.46,94.6c-6.75-3.1-13.8-4.91-21.26-4.91"/>
	<path class="st0" d="M561.61,535.11c-5.37-1.69-9.83,0.49-14.18,3.26c-1.47,0.93-1.86,2.22-1.63,3.83"/>
	<path class="st0" d="M629.76,690.49c0.17,2.27-0.86,4.34-1.21,6.68c4.08,2.68,8.36,1.89,12.66,0.96"/>
	<path class="st0" d="M670.1,1049.22c6.57,1.47,11.91,5.64,17.99,8.18"/>
	<path class="st0" d="M619.94,369.37c-4.09,2.6-8.48,4.5-13.06,6.07c-2.07,0.71-4.65,1.32-4.93,4.29"/>
	<path class="st0" d="M623.76,500.22c-5.49,3.52-12.5,2.48-17.99,6"/>
	<path class="st0" d="M524.53,657.23c-5.57,2.42-11.55,3.24-17.45,4.36"/>
	<path class="st0" d="M599.77,319.76c-5.89,0.11-11.49,2.58-17.45,2.18"/>
	<path class="st0" d="M467.83,890.03c5.82-0.7,11.63,1.53,17.45,0"/>
	<path class="st0" d="M539.25,836.6c0.51,3.02-1.59,4.34-3.81,4.23c-3.93-0.19-7.34,1.26-10.91,2.31"/>
	<path class="st0" d="M610.13,769.54c5.2,2.19,10.55,0.04,15.81,0.55"/>
	<path class="st0" d="M604.13,608.16c-5.27,0-10.54,0-15.81,0"/>
	<path class="st0" d="M634.66,415.71c3.29,0.57,5.91-0.97,8.21-2.88c10.1,6.71,21.32,9.59,32.66,12.21c3.52,0.81,5.72-0.11,7.1-3.33
		"/>
	<path class="st0" d="M660.29,412.99c-4.93-0.58-9.95-3.38-14.72,0.55"/>
	<path class="st0" d="M602.5,808.79c-4.91,0.91-9.81,1.82-14.72,2.73"/>
	<path class="st0" d="M502.18,975.62c-0.58,3.11-2.36,3.31-4.92,2.21c-2.43-1.04-4.84-2.3-7.62-2.21"/>
	<path class="st0" d="M487.46,436.43c-4.2,2.05-8.27,4.48-13.08,4.91"/>
	<path class="st0" d="M465.65,888.94c-6.91-1.33-13.81,0.06-20.72,0"/>
	<path class="st0" d="M594.86,33.81c-3.8,0.67-7.72,0.98-10.9,3.54"/>
	<path class="st0" d="M484.19,202c-3.58,0.69-7.36,0.73-10.36,3.27"/>
	<path class="st0" d="M525.08,175.56c-4.38,0.24-6.8,4-10.36,5.72c-0.18,0.09-0.36,0.18-0.55,0.27c0.09,0.09,0.18,0.18,0.27,0.27"/>
</g>
</svg>
