<?xml version="1.0" encoding="utf-8"?>
<!-- Generator: Adobe Illustrator 25.4.1, SVG Export Plug-In . SVG Version: 6.00 Build 0)  -->
<svg version="1.1" id="Layer_1" xmlns="http://www.w3.org/2000/svg" xmlns:xlink="http://www.w3.org/1999/xlink" x="0px" y="0px"
	 viewBox="0 0 1117 1117" style="enable-background:new 0 0 1117 1117;" xml:space="preserve">
<style type="text/css">
	.st0{fill:none;stroke:#000000;stroke-width:2;stroke-linecap:round;stroke-linejoin:round;stroke-miterlimit:10;}
</style>
<g>
	<path class="st0" d="M755.27,349.09c-2.38-2.84-5.66-2.27-8.72-2.14c-6.2,0.26-12.3,1.52-18.54,1.66c-9.68,0.21-18.72,3-27.29,7.52
		c-2.95,1.56-4.07,5.64-8.15,5.54c-3.12-0.08-6.28,0.79-9.27,0.84c-7.3,0.13-14.57,0.6-21.8,1.38c-8.21,0.89-16.37,2.25-24.54,3.49
		c-11.16,1.7-22.22,3.87-33.28,6.16c-10.02,2.08-20.32,2.43-30.49,3.54c-20.92,2.29-41.83,4.88-62.2,10.62
		c-3.24,0.91-6.94,0.87-10.33,1.02c-18.97,0.83-36.68,7.54-55.05,11.14c-6.32,1.24-11.3,5.35-14.57,10.42
		c-6.86,10.64-12.89,21.76-10.62,35.37c0.59,3.55-0.69,7.28-1.16,10.87c-1.49,11.41-0.86,22.52,0.99,33.89
		c1.31,8.02,1.99,16.29,2.6,24.49c0.77,10.18,1.01,20.37,1.47,30.56c0.09,2.01,0.22,4.05-0.53,6"/>
	<path class="st0" d="M1054.03,333.82c6.72,12.99,3.69,31.09-8.68,40.97c-13.45,10.74-27.76,20.16-42.58,28.83
		c-8.9,5.21-18.47,8.23-28.88,8.21c-11.01-0.03-21.81,0.81-32.79,2.83c-11.08,2.04-22.13,5.26-33.73,5.08
		c-4.23-0.06-8.7,0.7-13.08,0.81c-13.87,0.34-27.64,1.92-41.44,3.21c-5.43,0.51-10.95,0.73-16.36,0.89
		c-10.73,0.32-21.52,0.76-32.12,1.72c-11.63,1.06-23.59-1.35-34.93,2.9"/>
	<path class="st0" d="M991.88,343.09c5.09,2.18,10.02,4.93,15.3,6.43c11.29,3.19,22.14,0.75,32.07-4.9
		c6.75-3.84,12.96-8.69,16.96-15.71c2.15-3.78,1.18-5.19-3.26-5.52c-2.36-0.18-4.39,0.8-6.53,1.24c-13.58,2.83-27.33,4.97-40.81,8
		c-8.62,1.94-17.26,1.14-25.78,3.15c-8.12,1.92-16.67,1.98-25.02,2.98c-2.93,0.35-5.88,0.84-8.72,1.64
		c-17.66,4.97-35.82,6.39-53.99,6.92c-15.49,0.45-30.8,3.11-46.34,2.96c-14.61-0.14-28.95-3.61-43.62-2.98
		c-3.55,0.15-7.07-1.93-10.89-2.11c-10.05-0.47-19.95,1.51-29.99,1.33c-4.89-0.09-7.04,4.35-4.81,9.63
		c2.46,5.83,4.63,11.6,4.27,18.04c-0.09,1.59,0.89,1.84,2.18,1.64"/>
	<path class="st0" d="M411.25,550.36c4.62,1.45,9.74,0.31,13.75,2.01c-0.25,8.59,1.15,16.36,1.52,24.17
		c0.59,12.32,3.54,24.32,5.03,36.53c1.16,9.48,2.63,18.96,3.95,28.42c1.01,7.19,2.21,14.44,2.57,21.77
		c0.32,6.57,1.24,13.15,2.5,19.61c0.49,2.49,0.83,4.73-0.16,7.35c-5.47,0.41-11-1.13-16.62-1.84c-7.98-1.01-15.99-1.84-23.98-2.75"
		/>
	<path class="st0" d="M754.72,612.55c0.74-6.98-2.61-12.91-4.93-19.08c-6.4-17-17.97-28.62-35.38-34.46
		c-6.37-2.14-12.52-0.93-18.54,0.23c-13.53,2.61-25.9,9.14-39.27,12.44c-0.6,0.15-0.76,1.21-1.64,1.06"/>
	<path class="st0" d="M840.32,545.45c0.32,10.7-0.25,21.24-4.29,31.39c-1.83,4.6-4.93,7.55-8.59,10.84
		c-8.65,7.79-20.36,10.38-28.69,18.73c-10.72,10.75-21.32,21.65-31.22,33.09c-4.48,5.18-7.61,12.1-10.06,18.86
		c-5.52,15.26-10.67,30.64-14.74,46.36"/>
	<path class="st0" d="M843.59,544.91c-1.06-0.45-3.14,1.12-3.2-1.09c-0.12-4.9-3.69-7.42-6.64-10.34
		c-7.47-7.39-14.34-15.25-20.17-24.01c-0.49-0.74-0.79-1.42-2.12-1.79c-10.04-2.8-19.42-7.84-30.72-3.53
		c-3.94,1.5-7.95,2.88-11.88,4.67c-18.25,8.32-35.02,19.4-52.91,28.32c-12.09,6.03-24.26,11.85-35.92,18.68"/>
	<path class="st0" d="M573.17,532.91c0.9,5.6,6.24,6.09,9.89,7.43c12.62,4.63,25.91,6.79,39.17,9.01c9.77,1.64,19.55,3.6,29.44,3.05
		c8.11-0.45,15.93,2.5,24,1.24"/>
	<path class="st0" d="M758.54,402c0.4,6.56,1.99,13.01,1.64,19.64c-0.12,2.32,0.75,4.48,2.77,5.35c2.16,0.93,5.4,0.53,6.38,2.88
		c3.24,7.73,11.35,12.7,12.12,21.77c0.39,4.62-0.58,9.24-1.37,13.59c-1.9,10.36-3.52,20.75-5.15,31.15
		c-0.42,2.69-2.03,5.34-0.58,8.18"/>
	<path class="st0" d="M445.6,811.09c1.78-1.34,3.64-1.68,5.99-1.82c5.7-0.34,8.5-6.64,6.59-9.65c-1.68-2.65-4.72-3.03-6.56-0.51
		c-1.65,2.25-2.94,4.93-2.12,7.6c3.54,11.47,2.55,23.24,2.63,34.93c0.08,11.09,0,22.18,0.03,33.27c0.01,2.52,0.09,5-1.65,7.09"/>
	<path class="st0" d="M661.49,1030.91c0.09,1.31-0.65,2.45-0.59,3.82c0.84,20.93-1.15,41.81-1.04,62.73"/>
	<path class="st0" d="M739.46,708c-1.45,9.21-5.03,17.72-8.72,26.18c-8.02,18.38-19.04,34.97-30.6,51.23
		c-1.48,2.08-2.34,4.17-2.66,6.59"/>
	<path class="st0" d="M701.84,462c-3.75-2.03-7.36-0.97-10.9,0.56c-11.82,5.09-23.77,9.75-36.53,12.02
		c-4.82,0.86-10.05,0.31-14.18,3.79"/>
	<path class="st0" d="M573.17,513.82c15.25,7.6,31.55,12.75,46.99,19.95c4.29,2,9.48,3.3,14.61,2.95"/>
	<path class="st0" d="M442.87,692.73c-2.03,4.81,0.18,9.6,0.83,14.14c1.13,7.83,1.27,15.73,1.6,23.51
		c0.48,11.26,0.47,22.6,1.62,33.78c0.84,8.18,1.19,16.48,2.97,24.58c0.42,1.91,0.27,4.04-0.48,5.99"/>
	<path class="st0" d="M761.81,427.09c-3.55,7.67-11.31,9.22-18.04,11.88c-9.57,3.79-20.05,5.74-27.69,13.28
		c-4.78,4.71-10.7,7.87-15.04,13.37c-4.71,5.96-11.19,10.62-17.26,15.39c-4.7,3.69-8.5,8.26-12.86,12.26
		c-1.93,1.77-1.19,5.7-1.93,8.51c-1.77,6.65-4.13,13.16-6.46,19.65c-0.85,2.36-1.12,4.68-1.04,7.11"/>
	<path class="st0" d="M493.58,859.09c-2.46-7.45-1.72-15.3-2.49-22.93c-1.04-10.3-11.12-19.84-24.23-15.79"/>
	<path class="st0" d="M648.41,484.91c-2.21,16.69-6.9,32.74-12.54,48.55c-1.34,3.77-0.11,5.88,4.91,8.16
		c2.67,1.21,5.37,2.81,8.19,3.15c3.85,0.46,7.5,0.84,10.66,3.36c0.46,0.36,1.59-0.12,2.4-0.21"/>
	<path class="st0" d="M589.53,459.82c-0.11,1.22,0.41,1.84,1.63,2.21c15.63,4.73,30.25,12.41,46.33,15.86
		c0.92,0.2,1.92,0.35,2.86,1.47c3.47,4.15,8.16,5.55,13.51,4.46"/>
	<path class="st0" d="M659.86,846c2.09,1.27,2.1,3.27,2.24,5.45c0.57,9.26-1.54,18.21-2.74,27.28c-1.94,14.69-2.36,29.37-0.78,44.2
		c0.79,7.4,1.46,14.88,1.82,22.34"/>
	<path class="st0" d="M728.01,356.18c-3.68,1.14-2.83,4.51-1.51,5.87c7.56,7.81,12.9,18.31,24.93,20.92
		c5.82,1.26,8.91-0.61,9.55-6.61"/>
	<path class="st0" d="M453.23,886.36c-1.52,1.79-1.07,3.95-1.08,6c-0.03,7.64,1.03,15.46-0.27,22.86
		c-1.72,9.82,0.96,18.7,2.97,27.87c0.79,3.61,0.02,7.27,0.01,10.91c-0.09,22.74,0.11,45.47,1.44,68.19
		c0.36,6.07-0.94,12.37-1.64,18.51c-0.68,6-1.78,12-1.89,18.02c-0.26,14-0.08,28-0.08,42"/>
	<path class="st0" d="M661.49,985.09c-1.19,11.26-0.19,22.55-0.57,33.82c-0.1,3.11,0.81,6.36-1.07,9.27"/>
	<path class="st0" d="M451.6,798c-1.07-4.54-4.82-3.6-7.62-3.18c-14.92,2.26-27.48,8.32-34.36,22.81"/>
	<path class="st0" d="M689.3,798c-0.04,5.04-3.99,7.91-6.61,11.41c-6.52,8.7-13.42,17.11-20.08,25.7c-2.2,2.84-3.82,5.99-3.29,9.8"
		/>
	<path class="st0" d="M659.86,946.36c2.21,9.75,0.63,19.64,1.07,29.46c0.12,2.72,0.02,5.45,0.02,8.18"/>
	<path class="st0" d="M742.18,683.45c-10.99,3.54-22.67,2.73-33.83,5.33c-1.47,0.34-2.66,1.74-4.33,1.21"/>
	<path class="st0" d="M622.24,1018.36c15.27,1.91,29.58,7.06,43.6,13.12c0.81,0.35,1.46,1.07,2.19,1.61"/>
	<path class="st0" d="M672.4,943.64c-9.73,1.05-19.26,3.29-28.89,4.91c-6.36,1.07-12.72,2.18-19.08,3.27"/>
	<path class="st0" d="M471.77,959.45c-7.81,1.54-15.63-0.11-23.44-0.07c-8.61,0.04-16.99-2.66-25.62-2.66"/>
	<path class="st0" d="M478.31,958.36c7.2,3.27,14.92,1.29,22.37,1.95c3.66,0.33,7.61-0.14,11.43-0.32"/>
	<path class="st0" d="M421.61,870c7.44-1.39,12.7,3.54,18.5,6.61c9.48,5.03,17.64,12.47,28.37,15.25
		c5.52,1.43,10.91,1.63,16.37-0.04"/>
	<path class="st0" d="M677.3,763.64c7.48,2.58,15.45,3.23,22.94,5.9c2.66,0.95,5.23,1.63,7.05,3.92"/>
	<path class="st0" d="M445.6,753.82c-9.29,2.53-18.77,3.12-28.35,2.73"/>
	<path class="st0" d="M656.59,896.73c-9.72,2.23-19.19,5.15-27.8,10.36"/>
	<path class="st0" d="M475.58,868.36c7.58,1.33,15.23,2.14,22.9,2.69c1.56,0.11,3.03,0.27,4.36,1.12"/>
	<path class="st0" d="M633.14,1096.36c17.12,0.17,34.11,2.82,51.25,2.73"/>
	<path class="st0" d="M918.28,346.36c-1.09,4.61,2.55,7.64,3.89,11.43c2.58,7.29,3.22,14.77,3.19,22.39"/>
	<path class="st0" d="M768.35,706.36c-8.18-0.3-16.36-0.16-24.54-0.33c-9.25-0.19-18.54,1.18-27.79,2.07
		c-0.8,0.08-2.23,0.31-2.74,1.53"/>
	<path class="st0" d="M452.69,615.55c2.56-0.34,3.94,1.46,5.45,3c5.2,5.32,11.87,8.55,18.01,12.52c0.93,0.6,2.1,0.77,3.25,0.57"/>
	<path class="st0" d="M478.31,1096.91c-8.8,1.02-17.57,2.18-26.71,4.53c0,5.28,0,10.74,0,16.2"/>
	<path class="st0" d="M441.24,690.55c3.01,3.43,7.42,0.62,10.98,2.59c3.37,1.87,7.45,2.2,10.92,4.35c1.75,1.09,1.42,2.12,1.54,3.43"
		/>
	<path class="st0" d="M432.52,1003.64c7.38,1.57,14.84,1.94,22.35,1.64"/>
	<path class="st0" d="M538.28,657.82c-7.49-0.66-14.83-2.16-22.08-4.09"/>
	<path class="st0" d="M710.02,793.09c-6.42-0.72-13.04-2.11-18.49,2.78c-3.11,2.8-6.58,0.23-9.93,1.38
		c-4.65,1.61-9.57,2.94-14.65,2.92"/>
	<path class="st0" d="M653.86,530.73c1.45,0.18,3.62,1.07,4.25,0.43c3.91-3.96,7.52-0.92,10.38,0.82
		c5.84,3.56,10.68,8.5,14.82,14.02"/>
	<path class="st0" d="M672.4,988.91c0.13-3.54-2.21-3.57-4.9-3.89c-9.25-1.12-18.63-0.85-27.81-2.65"/>
	<path class="st0" d="M477.22,1020c-6.73,1.25-13.22,3.77-20.17,3.82"/>
	<path class="st0" d="M650.59,813.27c-6.49-1.27-13-2.44-19.63-2.73"/>
	<path class="st0" d="M454.87,1024.91c-6.56,1.59-13.04,3.43-19.08,6.55"/>
	<path class="st0" d="M469.04,918c5.47,4.82,12.84,5.18,19.08,8.18"/>
	<path class="st0" d="M660.4,1098.55c0,6.36,0,12.73,0,19.09"/>
	<path class="st0" d="M618.97,933.82c-6.54-0.92-11.97,2.05-17.45,4.91c-0.18,0.09-0.36,0.18-0.54,0.27
		c0.09,0.09,0.18,0.18,0.27,0.27"/>
	<path class="st0" d="M451.6,1066.36c-6.14,0.32-11.98,2.29-17.99,3.27"/>
	<path class="st0" d="M574.26,742.36c-5.59,3.05-12.71,2.62-17.45,7.64"/>
	<path class="st0" d="M912.28,363.82c4.05,4.31,5.1,11.39,11.99,13.09"/>
	<path class="st0" d="M483.76,993.82c-4.72,0-9.45,0-14.17,0"/>
	<path class="st0" d="M467.41,1064.73c-4.55,0.03-9.11-0.17-13.63,0.55"/>
	<path class="st0" d="M658.22,531.82c-1.44,4.25-0.43,9.02-2.73,13.09"/>
	<path class="st0" d="M672.4,893.45c-4.49-0.51-8.69,1.37-13.08,1.64"/>
	<path class="st0" d="M931.91,399.82c0.85,4.78,1.45,9.62,3.27,14.18"/>
	<path class="st0" d="M451.05,1101.82c-3.74-0.66-7.24,1.01-10.9,1.09"/>
	<path class="st0" d="M484.31,1073.45c3.32,1.41,7.49-0.4,10.36,2.73"/>
	<path class="st0" d="M815.24,587.45c-2.19,3.07-6.87,4.75-5.45,9.82"/>
	<path class="st0" d="M466.32,1005.82c-3.45,0-6.91,0-10.36,0"/>
</g>
</svg>
