<?xml version="1.0" encoding="utf-8"?>
<!-- Generator: Adobe Illustrator 25.4.1, SVG Export Plug-In . SVG Version: 6.00 Build 0)  -->
<svg version="1.1" id="Layer_1" xmlns="http://www.w3.org/2000/svg" xmlns:xlink="http://www.w3.org/1999/xlink" x="0px" y="0px"
	 viewBox="0 0 1117 1117" style="enable-background:new 0 0 1117 1117;" xml:space="preserve">
<style type="text/css">
	.st0{fill:none;stroke:#000000;stroke-width:2;stroke-linecap:round;stroke-linejoin:round;stroke-miterlimit:10;}
</style>
<g>
	<path class="st0" d="M694.91,552.73c-0.72-7.64-1.01-15.25,0.22-22.91c1.01-6.3,0.32-12.71,1.23-19.1
		c1.16-8.16,2.26-16.36,3.23-24.53c1.23-10.44,1.53-21.07-0.52-31.61c-1.15-5.9,0.15-12-0.86-17.98
		c-2.21-13.01-7.48-24.66-18.19-32.47c-5.88-4.29-13.91-4.98-21.11-6.72c-11.4-2.76-22.79-6.3-34.38-7.34
		c-10.17-0.91-20.05-2.63-29.98-4.65c-10.31-2.1-20.66-4.32-31.1-5.31c-7.99-0.76-15.96-1.84-23.98-2.43
		c-9.91-0.73-19.72-2.04-29.5-4.1c-8.97-1.88-17.94-4.1-27.22-4.7c-7.49-0.48-14.84-2.45-22.35-3.33c-8-0.94-15.96-2.3-24.02-1.91
		c-3.95,0.19-7.54-1.62-11.47-1.28c-1.04,0.09-2.46-0.74-3.22-1.58c-6.75-7.47-16.09-8.35-25.11-10.43
		c-8.68-2-17.67,0.45-26.24-2.52c-2.62-0.91-5.3,0.5-7.6,2.09"/>
	<path class="st0" d="M184.36,415.89c2.2,3.61,6.35,2.49,9.32,2.98c7.89,1.3,15.89,2.25,23.95,2.54c13.1,0.47,26.21,1.05,39.27,2.22
		c10.36,0.93,20.73,1.48,31.09,2.23c17.08,1.24,34.24,1.17,51.26,2.78c6.08,0.57,11.79,1.16,17.47-1.3"/>
	<path class="st0" d="M64.91,335.2c-2.53,0.67-2.79,3.16-3.17,4.93c-3.2,15.1,1.11,27.14,13.38,37.23
		c12.35,10.16,25.89,18.27,39.41,26.55c9.23,5.65,18.99,9.42,30.01,8.68c11.83-0.79,23.4,1.15,34.89,3.42
		c3.99,0.79,5.18-0.47,4.89-3.93c-0.36-4.41,2.95-8.11,2.22-12.54"/>
	<path class="st0" d="M392.18,355.92c1.43,5.72-0.76,9.75-5.38,13.19c-2.19,1.64-4.1,3.8-5.67,6.36c-3.11,5.08-8.57,7.3-14.07,8.73
		c-6.55,1.7-10.86-2.76-9.69-10.26c0.81-5.2,1.96-10.35,4.12-15.34c3.13-7.23,1.36-9.61-6.44-10.62c-7.72-1-15.62-1.65-23.43-1.72
		c-9.31-0.09-18.49,2.06-27.81,2.7c-13.64,0.94-27.2,3.5-40.91,2.5c-8.37-0.61-16.73-1.47-25.1-2.06
		c-8.18-0.58-16.36-1.47-24.55-1.52c-6.28-0.04-12.36-1.28-18.53-1.87c-13.83-1.33-27.06-6.38-40.93-7.4
		c-9.35-0.69-18.56-2.05-27.82-3.31c-2.38-0.32-5.14-0.83-7.1,1.58c-0.38,3.36,3.55,4.58,3.83,7.61"/>
	<path class="st0" d="M343.64,505.84c-3.15,0.74-5.87-0.76-8.73-1.61c-4.34-1.28-8.6-1.27-13.12-0.16
		c-4.37,1.07-8.55,2.75-12.99,3.7c-4.66,1-6.45,6.5-9.21,10.16c-4.31,5.71-9,11.01-14.34,15.67c-7.25,6.33-8.24,13.93-6.72,22.98
		c0.9,5.39,0.93,10.93,2.32,16.34c1.61,6.3,3.83,11.79,9.86,15.32c6.54,3.82,12.01,9.03,19.51,11.82
		c4.92,1.83,9.63,6.26,13.33,10.94c3.5,4.43,7.77,8.2,11.81,12.17c5.76,5.67,11.62,11.58,16.2,18.07
		c6.73,9.55,11.13,20.6,14.53,31.95c3.18,10.62,6.94,21.07,10.25,31.66c0.85,2.73,2.45,3.33,4.97,3.28
		c5.27-0.1,10.54-0.02,15.82-0.03c3.04-0.01,5.94,0.38,8.18,2.73"/>
	<path class="st0" d="M710.73,550.55c-4.38,0.44-8.55,2.06-13.1,1.74c-2.83-0.19-4.56,1.43-4.41,4.8
		c0.51,10.79-1.2,21.46-2.22,32.16c-0.68,7.12-2.23,14.17-3.35,21.24c-1.19,7.45-1.54,14.97-2.99,22.4
		c-2.08,10.61-3.14,21.43-4.23,32.17c-0.8,7.8-3.06,15.49-2.39,23.41c0.18,2.17-0.51,3.71-2.22,4.91"/>
	<path class="st0" d="M464.18,573.99c-4.79-3.18-10.31-3.92-15.8-4.99c-6.86-1.33-12.77-5.29-19.55-7.33
		c-17.11-5.15-31.01-2.22-44.51,9.88c-11.42,10.23-15.48,23.54-20.44,36.81c-0.42,1.12-0.06,2.52-0.06,3.8"/>
	<path class="st0" d="M348.55,430.61c0.69,3.53-1.56,5.68-3.84,7.6c-7.69,6.48-8.22,15.39-6.86,23.99
		c2.18,13.81,4.97,27.53,6.34,41.47c0.3,3.09,2.01,4.75,4.86,6.1c5.44,2.58,10.69,5.47,16.37,7.64
		c10.13,3.86,18.14,11.58,27.88,16.21c14.55,6.92,29.01,13.98,43.08,21.83c0.63,0.35,1.61,0.75,2.14,0.51
		c7.07-3.22,15.19,0.83,22.11-3.39c-0.23-3.94-3.26-4.05-6.26-4.19"/>
	<path class="st0" d="M428.73,798.61c0.69,5.31,4.86,8.56,7.74,12.46c5.83,7.89,12.19,15.4,18.48,22.94
		c2.21,2.65,2.84,6.05,4.77,8.82c0.57,0.81,0.4,3.21-0.25,3.63c-5.47,3.59-3.63,9.13-3.29,13.73c0.57,7.66,2.2,15.25,3.33,22.88
		c0.64,4.3,0.82,8.36,0.31,12.57"/>
	<path class="st0" d="M545.45,535.83c-8.11,6.59-18.12,8.63-27.85,10.75c-12.95,2.82-26.09,5.08-39.27,6.43
		c-5.62,0.58-11.78,2.2-17.43-0.83"/>
	<path class="st0" d="M666.55,799.16c2.39,4.32,3.02,8.64,1.74,13.66c-3.79,14.87-2.53,30.15-1.99,45.21
		c0.23,6.33,0.5,12.73,0.75,19.09c0.08,2.08,0.15,4.11,1.13,6"/>
	<path class="st0" d="M495.82,1018.87c-12.46,2.46-24.56,6.2-36.57,10.27c-1.95,0.66-2.86,1.39-2.69,3.36
		c1.75,20.32,1.78,40.69,1.66,61.06c-0.01,1.63,0.34,3.27,0.52,4.91"/>
	<path class="st0" d="M379.09,708.65c0.9,8.35,4.12,15.99,7.7,23.41c7.06,14.63,13.51,29.46,24.1,42.32
		c4.23,5.13,8.33,11.38,11,18.12c1.19,3,4.39,5.92,9.03,5.08c4.86-0.88,9.37,1.78,14.12,2.45c2.65,0.37,5.67-0.08,8.23,1.29"/>
	<path class="st0" d="M547.09,514.02c-15.01,7.6-31.19,12.46-46.29,19.78c-2.93,1.42-6,2.07-8.82,2.36
		c-8.84,0.92-14.72,8.31-23.39,9.73c-4.03,0.66-5.72,0.97-6.75-3.49c-0.63-2.74-0.71-5.52-1.45-8.22c-0.9-3.29-2.71-4.75-6.02-3.24
		c-4.34,1.97-8.44,4.16-11.54,8.09c-2.35,2.98-5.1,5.84-9.19,6.61"/>
	<path class="st0" d="M654,699.39c5.2-4.37,11.82-4.93,18.02-6.46c3.04-0.75,4.78,0.86,4.35,4.28c-2.42,19.55-3.17,39.17-3.69,58.87
		c-0.23,8.77-1.02,17.94-3.24,26.77c-0.99,3.93-0.17,8.32-0.17,12.5"/>
	<path class="st0" d="M530.73,461.68c-14.63,5.03-28.88,11.12-43.61,15.89c-3.81,1.23-6.97,1.64-11.01,0.13
		c-5.86-2.18-12.33-2.56-18.52-3.78c-7.84-1.55-15.06-4.26-22.35-7.26c-5.68-2.34-11.38-5.5-17.97-3.35"/>
	<path class="st0" d="M119.45,335.75c-4.85-3.01-10.54-2.74-15.84-3.69c-11.53-2.07-23.05-4.03-34.34-7.2
		c-2.85-0.8-5.72-1.29-8.18,1.2c1.57,7.56,7.47,11.71,13.05,16.28c7.85,6.43,17.32,9.08,26.8,9.95c7.26,0.66,14.62-2.55,21.18-6.29
		c0.9-0.51,1.96-1.05,2.78-1.81"/>
	<path class="st0" d="M360,401.71c-0.93,8.36-1.18,16.77-2.62,25.1c-0.6,3.46,1.79,6,4.81,7.6c6.8,3.6,13.89,6.48,21.25,8.77
		c9.73,3.03,18.66,7.47,25.1,15.78"/>
	<path class="st0" d="M653.45,823.69c-0.64-0.85-0.19-2.36-1.64-2.72c-13.23-3.29-23.87,5.17-24.65,19.07
		c-0.33,5.82-0.29,11.77-2.07,17.45"/>
	<path class="st0" d="M470.18,486.22c0.56,9.93,3.79,19.34,6.2,28.84c1.92,7.57,3.97,15.27,7.43,22.4"/>
	<path class="st0" d="M462,898.38c-0.38,5.47-1.77,10.81-1.68,16.36c0.18,10.08-1.84,20.08-2.2,30c-0.35,9.59-1.57,19.19-1.2,28.88
		c0.62,16.51,0.17,33.07,0.18,49.61c0,2.01-0.21,4.05,0.54,6"/>
	<path class="st0" d="M661.64,947.99c1.17-0.05,2.25,0.11,2.17,1.64c-1.19,23.44-0.28,46.89-0.54,70.33
		c-0.02,1.65,0.19,3.33-0.54,4.91"/>
	<path class="st0" d="M720.55,686.85c-12.66,0.74-25.26,1.97-37.65,4.86c-1.39,0.32-2.97,0.27-4.35-0.5"/>
	<path class="st0" d="M708.55,817.15c-7.21-13.57-19.79-18.87-33.84-21.7c-1.83-0.37-4.5-1.25-5.93,1.01
		c-1.7,2.69-4.19,2.1-6.6,2.15"/>
	<path class="st0" d="M663.82,1026.5c-1.65,6.83,0.74,13.45,1.08,20.17c0.34,6.54,1.95,13.02,1.1,19.63"/>
	<path class="st0" d="M666,886.93c2.25,7.01,0.87,14.17,0.79,21.26c-0.06,5.15-1.29,10.38,1.39,15.27"/>
	<path class="st0" d="M378,684.67c10.24,3.62,21.23,2.38,31.63,4.92c1.11,0.27,2.18,0.71,3.28,1.08"/>
	<path class="st0" d="M456,485.67c-3.06,2.34-3.96,6.35-7.01,8.82c-2.08,1.68-0.52,4.65,0.11,6.38c2.25,6.12,3.18,12.64,5.84,18.59
		c1.48,3.33,1.48,6.91,2.16,10.37"/>
	<path class="st0" d="M402,460.05c3.08,0.36,6.2-1.59,9.31,0.49c2.44,1.64,4.93,2.6,6.16,5.98c1.57,4.34,6.26,6.42,9.71,9.23
		c7.31,5.95,14.04,12.52,21.19,18.64"/>
	<path class="st0" d="M642,959.44c-11.2,2.08-22.48,2.44-33.82,1.64"/>
	<path class="st0" d="M459.27,946.9c11.45,1.82,22.91,3.63,34.36,5.45"/>
	<path class="st0" d="M652.91,1065.75c4.72-1.83,9.02,1.59,14.07,0.33c-1.18,12.2,0.43,23.68-0.98,35.11"/>
	<path class="st0" d="M695.45,870.58c-6.33,0-11.2,3.75-16.33,6.61c-8.25,4.6-15.56,10.81-24.58,14.13
		c-7.19,2.64-14.44,3.03-21.82,1.07"/>
	<path class="st0" d="M442.36,764.81c-8.84,1.72-17.65,3.51-26.23,6.39c-1.92,0.64-2.94,1.84-4.31,2.88"/>
	<path class="st0" d="M200.73,347.74c0.45,4.99-4.24,8.02-4.87,12.54c-0.84,5.98-4.52,11.62-2.22,17.99"/>
	<path class="st0" d="M693.82,957.26c-9.93,1.71-19.92,2.95-30,3.27"/>
	<path class="st0" d="M644.18,869.49c-9.82,1.09-19.64,2.18-29.45,3.27"/>
	<path class="st0" d="M667.09,616.52c-1.49,0.22-2.99-0.44-4.41,1.04c-5.67,5.89-12.63,10.11-19.66,14.1
		c-1.83,1.04-1.44,2.09-1.57,3.4"/>
	<path class="st0" d="M676.36,1103.37c-12.58-1.6-24.85-5.31-37.64-5.45"/>
	<path class="st0" d="M447.82,894.56c14.57,1.45,28.15,6,40.91,13.08"/>
	<path class="st0" d="M699.82,757.18c-8.78,0.85-17.43-1.23-26.18-1.09"/>
	<path class="st0" d="M375.82,705.93c-4.77,2.3-9.82,0.68-14.73,1.04c-3.44,0.25-6.91,0.05-10.36,0.05"/>
	<path class="st0" d="M483.82,1097.37c-12.74,0.76-25.52,0.53-38.21,2.58c-3.84,0.62-8.02,0.86-11.98-0.4"/>
	<path class="st0" d="M673.64,921.28c-4.13,0.57-5.98,3-6.61,7.08c-1.02,6.58-2.48,13.1-3.75,19.64"/>
	<path class="st0" d="M684.55,1031.95c-3.29,0.3-5.89-1.72-8.69-2.82c-9.89-3.85-20.47-4.7-30.6-7.47c-1.84-0.5-3.58-1.29-5.43-1.71
		"/>
	<path class="st0" d="M480.55,983.43c-7.35,1.99-14.96,0.37-22.36,1.64"/>
	<path class="st0" d="M660,802.97c0.71-1.58,1.83-3.03,1.63-4.95c-5.22-4.74-11.19-2.58-16.86-1.39c-1.2,0.25-2.52,0.78-3.86,0.89"
		/>
	<path class="st0" d="M603.82,654.68c-7.27,1.45-14.55,2.91-21.82,4.36"/>
	<path class="st0" d="M684.55,1004.69c-6.73,2.75-13.8,1.27-20.73,1.64"/>
	<path class="st0" d="M546,744.09c3.45,1.09,6.89,2.23,10.37,3.26c3.32,0.98,5.68,2.57,4.9,6.56"/>
	<path class="st0" d="M458.18,1099.55c0,6.54,0,13.08,0,19.63"/>
	<path class="st0" d="M485.45,811.42c-6.44,0.2-12.6,2.62-19.09,2.45"/>
	<path class="st0" d="M649.64,919.1c-5.52,4.39-12.63,4.87-18.82,7.63"/>
	<path class="st0" d="M667.09,1102.83c-1.6,5.45,0.31,10.9,0,16.36"/>
	<path class="st0" d="M667.64,1067.39c5.63,0.21,11.08,1.33,16.36,3.27"/>
	<path class="st0" d="M517.64,940.36c-4.79-3.26-9.75-6.11-15.82-6"/>
	<path class="st0" d="M206.18,365.19c-1.45,2-3.24,3.84-4.29,6.03c-1.9,3.95-4.76,6.62-8.8,8.14"/>
	<path class="st0" d="M662.73,960.53c-4.73,0.05-9.48-0.25-14.18,0.55"/>
	<path class="st0" d="M635.45,1073.39c-1.5,1.61-3.42,1.63-5.45,1.69c-1.83,0.05-3.96-0.96-5.46,1.03"/>
	<path class="st0" d="M303.82,589.26c1.98,3.4,7.45,4.49,6.55,9.81"/>
	<path class="st0" d="M658.36,802.97c1.17-0.05,2.06,0.12,2.21,1.63c0.38,3.95,2.94,4.86,6.52,5c3.08,0.12,6.27,0.77,7.64,4.27"/>
	<path class="st0" d="M457.09,985.61c-3.52-0.26-6.98,0.1-10.36,1.09"/>
	<path class="st0" d="M647.45,994.88c-3.4-1.14-6.91-0.26-10.36-0.55"/>
	<path class="st0" d="M478.91,479.68c-3.59,4.28-7.7,7.12-13.64,4.91"/>
	<path class="st0" d="M466.36,531.47c-2,0.18-4,0.36-6,0.55"/>
</g>
</svg>
