<?xml version="1.0" encoding="utf-8"?>
<!-- Generator: Adobe Illustrator 25.4.1, SVG Export Plug-In . SVG Version: 6.00 Build 0)  -->
<svg version="1.1" id="Layer_1" xmlns="http://www.w3.org/2000/svg" xmlns:xlink="http://www.w3.org/1999/xlink" x="0px" y="0px"
	 viewBox="0 0 1117 1117" style="enable-background:new 0 0 1117 1117;" xml:space="preserve">
<style type="text/css">
	.st0{fill:none;stroke:#000000;stroke-width:2;stroke-linecap:round;stroke-linejoin:round;stroke-miterlimit:10;}
</style>
<g>
	<path class="st0" d="M600.05,450.64c4.44-11.44,7.08-23.24,8.91-35.41c2.68-17.77,3.03-35.77,6.2-53.48
		c1.38-7.7-0.78-15.33-2.97-22.91c-2.61-9.05-4.57-18.31-5.66-27.75c-3.54-30.75-9.29-61.01-18.85-90.57
		c-4.32-13.36-7.23-27.19-8.52-41.36c-1.16-12.65-4.02-25.14-6.05-37.69c-1.21-7.47-1.77-15.21-2.46-22.85
		c-0.81-8.95-1.75-17.86-3.31-26.71c-0.64-3.6-0.56-7.37-0.75-10.92c-0.42-7.87-5.65-11.86-10.89-14.96
		c-5.33-3.15-12.12-3.89-18.35-1.32c-6.77,2.79-13.67,5.26-20.22,8.61c-4.03,2.06-7.42,4.64-8.64,9.06
		c-2.79,10.07-8.07,19.21-10.07,29.66c-1.92,10.08-2.37,19.88-1.1,30.05c0.69,5.54,0.81,11.25,1.29,16.88
		c0.58,6.92,0.48,14.38,2.69,20.54c2.29,6.36,3.41,13.03,5.88,19.33c2.47,6.33,2.65,13.37,3.28,20.12
		c0.68,7.19,2.59,14.13,3.74,21.2c0.97,5.99,2.12,12.06,2.79,18.06c1.55,13.79,2.64,27.63,4.16,41.43
		c0.67,6.11,0.99,12.05-2.57,18.17c-2.73,4.68-3.45,11.09-3.4,16.71c0.1,10.95-2.3,21.82-1.19,32.7
		c1.45,14.21,1.81,28.53,5.12,42.59c1.34,5.7,2.05,11.64,3.49,17.4c0.13,0.51,0.25,1.3-0.02,1.6c-5.03,5.52-6.25,13.49-11.96,18.57"
		/>
	<path class="st0" d="M684.01,470.81c-1.01,2.88-0.38,5.21,1.58,7.68c10.25,12.86,22.98,23.01,36.12,32.55
		c9.68,7.03,18.83,14.46,26.65,23.54c7.89,9.16,17.11,17.1,24.54,26.71c5.28,6.83,10.89,13.54,13.49,21.86
		c3.11,9.94,1.46,19.73-4.36,28.25c-7.05,10.33-10.85,22.05-15.67,33.34c-4.34,10.16-9.6,19.68-15.62,29.02
		c-11.64,18.06-22.58,36.59-33.04,55.41c-11.27,20.26-21.37,41.14-33.14,61.13c-8.65,14.69-15.23,30.37-18.85,46.93
		c-2.67,12.22-5.05,24.58-6.72,37.03c-0.11,0.84,0.66,1.81,1.03,2.72"/>
	<path class="st0" d="M586.42,543.86c1.93,9.11,0.23,17-7.04,23.49c-7.02,6.26-14.98,10.88-23.5,14.64
		c-4.2,1.86-7.86-0.99-11.38-2.31c-11.33-4.25-20.8-12.07-31.61-17.42c-4.92-2.44-8.19-7.36-12.53-10.86
		c-17.16-13.83-33.05-29.15-50.21-43.01c-7.71-6.23-15.21-12.7-22.51-19.46c-9.77-9.04-21.77-15.09-33.12-21.96
		c-2.37-1.44-4.9-2.81-7.25-4.05c-4-2.11-8.55,0.53-11.73,3.1c-6.79,5.49-13.25,11.39-16.59,19.99c-1.45,3.74-3.91,7.23-6.49,10.35
		c-4.35,5.25-4.91,11.41-4.15,17.49c1.32,10.6,3.68,21.07,5.2,31.65c0.43,3.03,2.51,5.06,3.08,8.12c1.6,8.63-2.74,15.76-4.67,23.47
		c-1.85,7.38-5.22,14.6-3.62,22.35c1.35,6.56,2.24,13.38,4.51,19.55c2.72,7.4,2.12,15.11,4.1,22.45c2.18,8.06,0,16.48,2.15,24.54
		c1.89,7.09,5.58,13.19,9.79,19.11c4.45,6.24,10.44,11.02,15.35,16.83c7,8.28,10.07,18.64,15.38,27.75
		c13.29,22.79,24.21,46.86,38.82,68.97c7.74,11.7,13.82,24.73,18.66,38.04c3.05,8.38,1.45,17.12-0.76,25.94
		c2.95,1.75,6.74,2.05,10.18,2.19c6.74,0.28,13.36,1.75,20.17,1.43c2.21-0.1,5.89-0.44,6.26,3.64"/>
	<path class="st0" d="M739.62,523.96c1.69-2.37,2.58-4.89,2.22-7.91c-0.72-6.04,1.04-11.94,1.2-17.98
		c0.37-13.77-3.28-26.7-6.58-39.83c-3.96-15.75-8.28-31.42-13.45-46.77c-2.99-8.88-6.25-17.82-10.58-26.29
		c-5.91-11.59-12.34-22.94-16.47-35.39c-3.25-9.78-8.53-18.16-19.6-20.05c-6.59-1.12-13.42-0.9-20.15-1.21
		c-2.77-0.13-5.45-0.18-8.2-1.02c-8.28-2.52-20.61,2.09-26.19,9.15c-2.26,2.86-3.54,6.43-6.49,8.76"/>
	<path class="st0" d="M526.99,470.26c-1.21-2.34-2.66-4.48-4.28-6.6c-14.24-18.71-29.31-36.67-45.17-54.06
		c-9.77-10.72-19.83-20.85-31.13-29.97c-12.78-10.32-37.85-6.24-45.92,7.76c-3.27,5.67-8.96,9.25-12.59,14.68
		c-7.65,11.45-12.14,23.95-12.32,37.66c-0.07,5.77,0.68,11.75,4.13,16.95c1.01,1.51,1.16,3.59,1.71,5.4"/>
	<path class="st0" d="M489.37,603.29c-4.22,14.09-16.19,19.65-27.7,26.34c-18.75,10.9-39.23,17.55-58.99,25.97
		c-8.39,3.57-16.32,8.21-25.09,10.87c-2.16,0.66-1.49,2.04-1.62,3.34"/>
	<path class="st0" d="M586.96,818.09c0.86,7.21,1.04,7.37,7.62,7.8c8.65,0.57,14.97-4.21,21.78-7.88c8.17-4.4,16.1-9.26,24.01-14.14
		c5.64-3.48,9.08-9.5,14.73-13.07c8.69-5.49,15.7-12.93,22.97-20.09c2.5-2.46,2.99-5.16,2.63-8.24c-0.44-3.75-2.37-5.99-6.51-5.46"
		/>
	<path class="st0" d="M523.72,517.15c6.89-0.77,13.23,2.88,20.18,2.26c11.8-1.04,23.1-4.08,33.72-8.97
		c8.57-3.95,11.94-16.14,10.1-26.04c-1.63-8.75-7.49-12.45-14.38-15.77"/>
	<path class="st0" d="M661.11,446.82c-16.81-1.06-32.57,4.23-48.51,8.23c-10.43,2.62-20.72,5.82-31.1,8.63
		c-2.99,0.81-5.84,1.72-8.17,3.85"/>
	<path class="st0" d="M630.58,886.79c7.87-0.73,14.68-4.99,22.28-6.85c4.61-1.13,4.66,0,5.05,3.57c1.34,12.52,0.23,25.14,1.27,37.6
		c0.75,8.94,0.49,17.83,0.85,26.73c0.17,4.2-2.14,8.28-0.55,12.54"/>
	<path class="st0" d="M646.93,571.12c-2.04,2.33-4.93,3.18-7.63,4.37c-11.79,5.22-21.44,13.6-31.7,21.15
		c-10.07,7.42-16.69,17.62-23.76,27.47c-1.4,1.95-3.22,3.4-4.52,5.34"/>
	<path class="st0" d="M506.27,462.63c0.66,5.38-1.36,9.65-4.18,14.29c-6.95,11.44-16.91,19.51-27.47,27.11
		c-0.68,0.49-1.79,0.4-2.7,0.58c-3.86-5.08-2.69-13.6,2.77-17.37c3.34-2.3,7.12-3.96,9.22-7.7"/>
	<path class="st0" d="M460.48,1028.54c1.85,3.41,2.57,7.07,2.16,10.9c-0.55,5.17,1.13,10.18,1.04,15.27
		c-0.21,11.81-1.23,23.6-1.23,35.44c0,3.54-0.87,7.23-0.88,10.9"/>
	<path class="st0" d="M521.54,314.34c4.8,3.14,10.48,3.44,15.83,4.21c9.58,1.39,19.24,2.52,28.89,3.27c9.53,0.74,19-1.1,28.34-3.12"
		/>
	<path class="st0" d="M429.95,572.21c-2.62,7.16-9.69,7.6-15.32,9.05c-13.59,3.5-27.21,7.16-41.37,7.93
		c-4.39,0.24-8.73,1.38-13.09,2.1"/>
	<path class="st0" d="M598.96,416.83c-11.85,0.64-23.65,1.93-35.44,3.27c-0.18,0.02-0.36,0.01-0.54,0
		c-11.36-0.68-22.54,1.39-33.8,2.18"/>
	<path class="st0" d="M390.15,466.45c-0.26,7.95-2.8,15.15-7.08,21.81c-4.36,6.81-9.8,12.64-15.8,18.01
		c-1.31,1.18-2.72,1.63-4.37,1.63c-3.87-5.09-3.92-8.3,1.18-12.43c3.09-2.5,5.71-5.22,8.07-8.32"/>
	<path class="st0" d="M703.63,392.85c-1.34,9.76-3.82,19.47-8.98,27.64c-5.74,9.09-8.9,19.21-13.88,28.53
		c-0.94,1.77-1.04,4.03-3.31,4.89"/>
	<path class="st0" d="M586.96,294.71c-11.8-3.11-23.86-4.34-35.96-5.64c-7.88-0.85-15.63-1.13-23.46-0.35"/>
	<path class="st0" d="M526.99,602.74c-5.44,4.87-12.15,4.01-18.53,3.68c-4.21-0.21-8.33-1.9-12.55-2.55
		c-8.86-1.37-16.35-6.21-24.54-9.27c-9.13-3.41-17.01-9.26-24.77-14.64c-6.59-4.57-13.73-7.75-20.6-11.32
		c-12.51-6.49-24.66-13.57-36.94-20.43c-4.55-2.54-9.09-5.09-13.63-7.63"/>
	<path class="st0" d="M457.21,863.89c-2.34,7.17-1.46,14.64-0.8,21.78c0.55,5.98,1.31,12.06,1.68,18.03
		c0.87,13.8,2.88,27.54,2.41,41.42c-0.03,0.9,0.34,1.82,0.52,2.72"/>
	<path class="st0" d="M685.1,349.23c-0.93,0.05-2.01,0.23-2.17-1.09c-0.65-5.54-5.28-6.79-9.31-7.49
		c-11.69-2.02-23.52-2.9-35.41-2.32"/>
	<path class="st0" d="M580.97,432.65c-1.93,0.92-3.99,0.46-6,0.54c-13.08,0.55-26.17,1.1-39.25,1.64"/>
	<path class="st0" d="M535.72,536.78c-9.88,7.24-8.69,23.23,2.19,28.87c2.27,1.18,4.84,1.8,7.04,3.08c3.51,2.03,6.88-0.02,7.98-2.08
		c3.38-6.37,8.47-11.99,9.5-19.5"/>
	<path class="st0" d="M568.43,501.88c-5.99-11.9-3.44-22.65,4.76-32.24c-2.27-2.71-4.98-2.06-6.9-1.44
		c-10.76,3.49-21.85,5.68-32.77,8.53c-1.61,0.42-2.62,1.37-3.8,2.25"/>
	<path class="st0" d="M470.29,544.41c0.61,4.62,2.53,9.2-1.03,13.68c-3.02,3.8-8.8,5.92-12.64,5.01c-2.85-0.67-3.78-2.24-4.3-4.52
		c-0.59-2.6,1.32-3.34,3.18-4.47c1.3-0.79,2.61-1.71,3.88-2.61"/>
	<path class="st0" d="M682.92,349.78c-0.26,3.04-3.23,3.25-4.94,3.66c-9.37,2.26-18.89,1.26-28.3,0.07
		c-4.15-0.52-6.38-4.98-10.37-6.18"/>
	<path class="st0" d="M630.58,1020.9c9.84-1.09,18.89,2.97,28.82,3.7c-2.14,4.59-1.95,8.66-0.92,12.63c0.39,1.5,0.55,2.95,0.41,4.38
		c-0.67,6.78,1.01,13.23,2.86,19.6c0.62,2.13,0.36,3.74-0.64,5.48"/>
	<path class="st0" d="M658.93,961.48c-0.79,4.28,1.03,8.32,1.15,12.54c0.24,8.43-0.66,16.75-1.66,25.08
		c-0.1,0.87,0.32,1.81,0.51,2.72"/>
	<path class="st0" d="M479.02,946.76c-6.28-0.55-12.39,0.74-18.52,1.55c-0.36,13.23,1.74,26.28,1.86,39.34
		c0.1,10.49-0.71,21.07-0.8,31.62c-0.02,2.27,0.02,4.48,1.11,6.54"/>
	<path class="st0" d="M641.48,524.78c-2.97,7.02-11.86,11.86-19.63,11.57c-5.7-0.22-11.34,1.22-16.89,2.62
		c-10.23,2.58-20.49,5.04-31.08,5.34c-2.01,0.06-3.46,1.19-5.44,1.31c-11,0.67-21.43-1.07-29.89-8.41
		c-6.07-5.26-12.4-10.68-14.83-18.96c-0.16-0.55-0.23-1.46-0.56-1.58c-6.93-2.56-7.66-10.1-11.89-14.85
		c-6.46-7.26-1.67-21.15,7.56-22.15c2.58-0.28,4.48-2.74,7.69-1.38c3.15,1.34,4.93,2.97,3.13,5.57c-5.31,7.66-5.12,16.51-5.8,25.14
		c-0.18,2.29-1.38,4.26-1.22,6.53"/>
	<path class="st0" d="M511.73,562.95c-1.45,1.45-2.84,2.98-4.37,4.35c-6.87,6.11-7.36,15.71-1.08,22.36
		c5.96,6.31,14.31,8.07,21.81,11.44c0.15,0.07,0.39,0.07,0.54,0c5.06-2.31,10.74-3,15.7-5.16c4.36-1.9,7.88-5.92,9.9-10.65
		c0.2-0.46,0.03-1.08,0.03-1.62"/>
	<path class="st0" d="M653.48,474.62c-0.48-4.06-3.73-2.24-5.43-2.02c-3.27,0.44-1.41,3.49-0.97,4.69
		c2.92,7.81,9.33,12.02,16.78,14.7c3.06,1.1,6.64-3.13,7.09-7.55c0.7-6.96-0.91-13.4-3.82-19.64c-1.69-3.62-3.03-7.35-1.65-11.44"/>
	<path class="st0" d="M522.09,180.22c4.82,4.7,10.95,2.97,16.33,2.49c6.77-0.6,13.5,1.12,20.19-0.31"/>
	<path class="st0" d="M694.36,870.16c-10.9,2.27-21.79,4.66-32.73,6.71c-2.09,0.39-2.99,1.75-4.34,2.83"/>
	<path class="st0" d="M697.09,582.57c-9.53,0.29-18.87-1.92-28.35-2.13c-2.24-0.05-5.23-1.13-6.44,1.63
		c-1.22,2.8,1.57,4.23,3.17,5.95c2.71,2.94,7.28,3.89,8.72,8.18"/>
	<path class="st0" d="M663.83,1070.52c-1.95,3.92,0.72,7.58,0.64,11.45c-0.26,11.99-0.09,23.99-0.09,35.98"/>
	<path class="st0" d="M626.22,537.87c4.45,10.29,11.23,19.15,17.45,28.35c4.73,6.99,12.4,10.22,19.07,14.72"/>
	<path class="st0" d="M459.39,948.94c-11.56,1.27-22.81,3.88-33.8,7.63"/>
	<path class="st0" d="M630.58,952.75c-8.25,2.18-16.9,2.3-25.11,4.82c-1.99,0.61-4.33,0.09-6.51,0.09"/>
	<path class="st0" d="M431.04,384.67c-3.26-0.36-4.34,1.69-5.54,4.32c-2.64,5.79-5.19,11.64-9.65,16.47
		c-2.09,2.26-3.75,4.71-7.17,4.83"/>
	<path class="st0" d="M688.37,996.92c-10.73,2.85-21.5,5.51-32.71,5.45"/>
	<path class="st0" d="M491.01,1017.09c-7.05,1.18-13.48,4.26-20.16,6.57c-10.19,3.52-20.18,7.58-30.54,10.6"/>
	<path class="st0" d="M721.08,463.72c-7.06,4.9-15.25,5.77-23.45,6.51c-2.57,0.23-5.35,0.24-4.63-3.78"/>
	<path class="st0" d="M576.6,549.86c-0.58,7.62-6.51,10.83-12.05,14.08c-3.21,1.89-6.78,3.64-10.85,2.82"/>
	<path class="st0" d="M484.47,900.96c-1.6-4.58-6.06-2.26-8.81-2.88c-5.71-1.29-11.91-0.39-17.9-0.39"/>
	<path class="st0" d="M545.53,173.68c-6.53-0.72-13.98-0.43-18.78,2.64c-7.29,4.67-15.05,4.72-22.65,6.62"/>
	<path class="st0" d="M662.74,1103.77c-8.3,0.63-16.39-1.08-24.53-2.18"/>
	<path class="st0" d="M684.01,958.75c-11.78,1.17-23.6,1.86-35.44,2.16c-1.95,0.05-4.13,0.59-5.45-1.62"/>
	<path class="st0" d="M459.39,1102.68c-5.56-0.09-10.93,1.15-16.38,2.05c-2.79,0.46-5.99,0.96-8.7-0.96"/>
	<path class="st0" d="M664.92,603.56c2.11-0.24,2.19-2.39,3.33-3.48c2.38-2.27,4.59-4.09,8.74-2.43c6.36,2.54,13.1,4.37,20.1,4.55"
		/>
	<path class="st0" d="M661.38,444.09c0.81,3.77,2.44,7.35,5.79,9.14c3.89,2.08,6.26,4.96,8.19,8.81c4.28,8.53,4.68,8.54,14.65,6.59
		c0.53-0.1,1.09-0.01,1.63-0.01"/>
	<path class="st0" d="M386.33,439.73c1.83-5.72,0.36-12.21,4.33-17.47c3.86-5.11,5.8-11.27,8.64-16.94
		c0.93-1.86,1.84-3.63,3.43-4.79c1.74-1.27,5.48,0.54,5.29,2.66c-0.24,2.77,0.88,5.63,0.02,8.16c-2.68,7.89-6.26,15.41-13.06,20.66
		c-1.78,1.37-3.67,3.4-6.47,2.81"/>
	<path class="st0" d="M534.08,576.03c-2.64,6.15-6.07,11.77-12.04,15.19c-2.13,1.22-2.17,3.6-3.77,4.98"/>
	<path class="st0" d="M659.47,1025.26c7.09,2,14.17,4,21.26,6"/>
	<path class="st0" d="M658.93,1002.91c-1.56,4.36,0.55,8.7,0.08,13.09c-0.29,2.75-0.09,5.54-1.17,8.17"/>
	<path class="st0" d="M644.75,995.82c-6.91,0.73-13.81,1.45-20.72,2.18"/>
	<path class="st0" d="M456.66,897.15c-6.37,0.01-12.74-0.15-19.08,0.55"/>
	<path class="st0" d="M614.22,883.52c-6.26-0.31-11.96,1.6-17.45,4.36c-0.18,0.09-0.36,0.18-0.55,0.27
		c0.09,0.09,0.18,0.18,0.27,0.27"/>
	<path class="st0" d="M571.15,999.91c-6.36,0.26-11.64,3.79-17.45,5.72"/>
	<path class="st0" d="M479.02,1101.05c-6.31-1.87-12.35,0.84-19.34,0.59c2.18,5.89-0.85,10.98-0.28,16.31"/>
	<path class="st0" d="M642.57,1060.16c3.2,3.11,6.89,4.67,11.4,5.67c7.99,1.77,15.68,4.87,23.49,7.41"/>
	<path class="st0" d="M646.93,472.44c-2.41-2.41-4.25-5.25-3.16-8.69c0.66-2.05,1.73-4.26,4.79-4.48c3.94-0.28,5.72,2.28,7,5.03
		c1.48,3.16,3.02,6.87-2.08,8.68"/>
	<path class="st0" d="M479.56,981.1c-5.45,1.27-10.9,2.54-16.36,3.82"/>
	<path class="st0" d="M545.53,580.94c-2.06,5.5-6.75,9.74-7.63,15.81"/>
	<path class="st0" d="M585.87,303.44c-5.29,2.13-10.99,0.27-16.36,1.64"/>
	<path class="st0" d="M493.19,931.49c8.99-0.07,16.73,3.87,24.54,7.62c1.06,0.51,2.18,0.92,3.27,1.37"/>
	<path class="st0" d="M462.11,985.47c-5.14,0.37-9.9,2.21-14.72,3.82"/>
	<path class="st0" d="M532.44,1079.78c0.07,1.53-0.36,3.18,1.14,4.4c-4.15,3.74-9.25,3.2-14.22,3.23"/>
	<path class="st0" d="M505.73,934.76c-1.58,6.27-6.99,5.23-11.45,6"/>
</g>
</svg>
