<?xml version="1.0" encoding="utf-8"?>
<!-- Generator: Adobe Illustrator 25.4.1, SVG Export Plug-In . SVG Version: 6.00 Build 0)  -->
<svg version="1.1" id="Layer_1" xmlns="http://www.w3.org/2000/svg" xmlns:xlink="http://www.w3.org/1999/xlink" x="0px" y="0px"
	 viewBox="0 0 1117 1117" style="enable-background:new 0 0 1117 1117;" xml:space="preserve">
<style type="text/css">
	.st0{fill:none;stroke:#000000;stroke-width:2;stroke-linecap:round;stroke-linejoin:round;stroke-miterlimit:10;}
</style>
<g>
	<path class="st0" d="M660.4,896.18c-1.26-9.45-1.4-18.83-0.27-28.4c0.65-5.54,1.61-11.17,1.42-16.88
		c-0.47-14.1,1.62-28.03,3.05-42.01c0.57-5.59,1.15-11.22,1.39-16.89c1.07-25.09,0.93-50.18,0.92-75.28
		c0-6.36,0.17-12.82-0.27-19.07c-0.76-10.75-0.82-21.68-3.91-32.25c-0.98-3.35,0-7.24-0.18-10.86c-0.36-7.22-3.24-12.86-9.1-17.62
		c-5.56-4.51-9.85-10.48-14.42-16.11c-9.09-11.2-18.69-21.99-28.26-32.79c-15.02-16.95-31.71-32.28-47.35-48.62
		c-12.7-13.26-27.89-23.42-42.16-34.7c-9.84-7.78-19.19-16.14-28.59-24.37c-13.79-12.08-28.88-22.36-43.32-33.52
		c-3.96-3.06-9.33-2.43-14.11-2.74c-11.56-0.74-22.7,1.89-33.81,4.78c-9.45,2.46-19.02,4.51-28.88,4.41
		c-6.28-0.06-12.38,1.52-18.5,2.41c-12.9,1.88-25.53,3.5-38.77,2.24c-18.79-1.8-37.75-2.57-56.69-0.4
		c-7.01,0.8-14.14-0.19-21.25-0.03c-18.16,0.43-36.35-0.08-54.51,0.21c-14.04,0.22-28,1.89-41.99,3.05
		c-8.01,0.66-16.05,1.04-23.96,2.41c-6,1.04-12.19,0.65-18.07,3.04c-2.71,1.1-5.76,1.83-9.32,0.47c-2.58-0.99-6.08,1.34-8.04,4.07
		c-6.23,8.69-7.8,18.86-6.28,28.85c1.5,9.85,9.72,14.4,18.8,16.95c9.45,2.65,19.23,2.61,28.9,3.18c10.02,0.59,19.98,1.73,29.98,2.58
		c4.6,0.39,5.33-0.46,6.07-5.2c1.66-10.58,1.2-20.88-2.1-31.15c-0.77-2.4-0.68-5.47,0.4-8.13"/>
	<path class="st0" d="M275.5,683.45c-5.53,11.75-8.34,24.06-7.63,37.09c0.7,12.84,8.02,21.67,17.38,29.53
		c6.91,5.8,14.97,8.8,23.52,9.54c9.43,0.82,18.41,3.64,27.75,4.84c10.19,1.31,20.35,2.05,30.57,2.41
		c9.48,0.33,18.65,0.77,27.94,4.04c7.29,2.57,15.26,4.17,23.29,4.92c11.17,1.04,19.7-1.97,25.09-12.18"/>
	<path class="st0" d="M477.22,574.36c9.13-2.99,15.02-8.85,16.94-18.54c1.37-6.86,2.99-13.61,2.93-20.74
		c-0.02-2.25-0.69-3.35-1.92-4.32c-7.5-5.91-15.03-10.54-25.65-7.95c-6.64,1.62-13.67,1.32-20.81-1.51
		c-4.92-1.96-11.12-1.78-16.74-2.62c-17-2.53-34.18-2.74-51.26-4.24c-7.28-0.64-14.56,0.15-21.82,1.47
		c-7.01,1.28-13.86,3.09-20.72,4.94c-0.8,0.22-1.97,0.52-2.71-0.49"/>
	<path class="st0" d="M69.42,511.09c-10.68,0.66-20.71,4.16-29.25,10.1c-5.58,3.88-6.71,11.59-7.7,18.29
		c-0.62,4.2-1.17,9.05,2.14,12.45c4.8,4.93,10.16,9.43,17.37,10.41c10.14,1.39,20.39,2.03,30.5,3.52c7.63,1.12,15.4,1.16,22.94,3.01
		c2.01,0.49,4.1-0.06,5.98-1.04"/>
	<path class="st0" d="M450.51,686.73c-3.44,0.7-6.03-1.51-8.08-3.38c-9.98-9.05-22.36-14.29-33.44-21.58
		c-1.33-0.88-4.06-2.69-5.95,0.38c-1.24,2.02-3.02,0.52-4.3-0.03c-10.76-4.63-21.33-9.75-32.22-14.04
		c-14.36-5.66-28.15-12.74-41.1-20.76c-7.4-4.59-13.56-4.33-20.45-2.66c-12.74,3.09-23.31-2.1-33.79-7.83
		c-3.44-1.88-6.8-3.85-7.92-8.6c-0.7-3.01-1.15-5.27,0.79-7.69"/>
	<path class="st0" d="M287.5,477.27c-1.38,2-0.55,4.12,0.06,5.98c2.5,7.65,0.33,15.08-1.37,22.33c-0.89,3.81-2.12,7.64-3.04,11.51
		c-0.51,2.15-1.25,2.46-3.83,2.39c-10.34-0.28-20.74-2.04-31.08,0.29c-1.38,0.31-2.9,0.09-4.35,0.04
		c-17.11-0.67-34.17,0.59-51.24,1.26c-7.62,0.3-15.18,2.07-22.9,2.08c-3.88,0.01-7.74,0.3-11.45-1.15"/>
	<path class="st0" d="M528.47,765.82c-5.95-0.37-9.34-5.14-13.57-8.26c-16.2-11.94-30.21-26.25-41.81-42.62
		c-3.48-4.9-6.89-9.41-11.84-13.06c-3.31,1.67-6.76,0.58-9.59-1.07c-9.84-5.72-20.57-7.71-31.67-8.68
		c-5.11-0.44-9.99-2.44-15.27-2.19c-8.04,0.38-12.63,4.16-8.54,13.31c5.42,12.13,13.47,20.08,25.4,25.05
		c2.9,1.21,6.53,2.65,6.59,6.97"/>
	<path class="st0" d="M110.04,533.45c-1.35,3.7-1.72,7.72-2.21,11.49c-0.98,7.59,1.62,15.01,3.68,22.3
		c0.43,1.53,2.18,2.31,4.26,2.29c5.09-0.06,10.18,0.54,15.26,0.42c18.74-0.42,37.42,1.28,56.15,1.45
		c8.12,0.08,16.36,0.58,24.54,0.71c14.72,0.24,29.45-0.29,44.15,0.24c5.99,0.22,12.15,1.15,17.96,0.36
		c5.86-0.79,12.42-1.85,17.33-0.52c7.3,1.99,11.84-1.87,15.63-5.05c3.43-2.87,6.79-6.8,9.65-10.75c4.71-6.5,10.22-12.48,14.51-19.23
		c2.93-4.6,5.52-9.8,5.06-15.72"/>
	<path class="st0" d="M553.55,814.91c-9.3-0.74-17.84,2.95-26.71,4.67c-19.11,3.72-38.02,8.44-57.81,7.54
		c-5.72-0.26-9.92-1.7-13.04-6.23c-1.78-2.58-3.97-3.59-7.06-4.55c-11.93-3.67-23.34-8.93-32.66-17.37
		c-6.65-6.01-13.24-12.19-18.77-19.42c-1.92-2.51-2.71-4.82-2.6-7.73"/>
	<path class="st0" d="M475.04,620.18c0.53-3.2-2.2-2.71-3.83-3.24c-7.98-2.56-16.35-3.33-24.5-5.07
		c-10.51-2.25-21.14-3.82-31.7-5.56c-6.32-1.04-12.98-1.64-19.58-1.47c-10.65,0.28-21.13-2.62-31.63-2.83
		c-8.75-0.17-12.41-2.47-14.07-11.2c-0.72-3.81-2.65-8.02-3.92-12.08"/>
	<path class="st0" d="M264.6,614.18c-11.15,5.92-14.73,16.4-16.25,27.83c-0.69,5.19-2.15,10.3-0.34,15.88
		c1.39,4.28,3.64,7.08,7.36,8.55c4.35,1.71,8.14,4.18,10.78,7.8c6.17,8.45,15.58,10.87,24.66,13.42
		c10.25,2.87,20.87,4.03,31.56,4.72c4.9,0.32,9.81,0.7,14.73,0.94c3.62,0.17,7.01-0.51,10.36-1.69"/>
	<path class="st0" d="M620.06,1014c11,3.24,22.04,6.33,33.26,8.73c2.16,0.46,3,1.11,2.31,3.85c-1.77,7.11-1.61,14.72-1.31,21.77
		c0.47,11.24-0.08,22.66,2.53,33.9c0.98,4.23,1.45,8.99,1.37,13.57"/>
	<path class="st0" d="M460.86,701.45c0-1.82-0.15-3.72-1.66-4.88c-7.24-5.55-8.39-14.55-12.64-21.78
		c-6.8-11.57-9.46-24.07-10.89-37.15c-0.58-5.27-2.49-10.4-2.07-15.83c0.21-2.64-1.72-2.14-3.27-2.18"/>
	<path class="st0" d="M307.67,568.36c1.25,1.77,3.39,2.43,4.88,3.84c5.98,5.68,5.9,10.04-0.14,15.61
		c-6.85,6.32-15.54,10.01-24.9,11.67c-3.12,0.55-6.23,1.16-9.32,1.98c-4.49,1.18-9.08-0.57-13.65-1.6
		c-1.25-2.85-0.43-5.19,2.24-6.95"/>
	<path class="st0" d="M398.71,727.64c-2.37,4.13-5.56,7.75-5.58,13.09c-0.02,4.54,1.71,6.98,5.5,9.4
		c10.21,6.51,21.83,9.47,32.84,13.93c2.8,1.13,6.48-0.8,9.22,1.76"/>
	<path class="st0" d="M465.77,846.55c-1.21,2.73-0.6,5.41-0.04,8.19c1.24,6.13,1.84,12.4,2.97,18.5c2.26,12.13,0.08,24.08-0.5,36.02
		c-0.46,9.47,0.2,19.01-0.99,28.35c-1.26,9.86-0.16,19.7-1.03,29.47c-1.08,12.03-0.88,24.23-4.15,36.03
		c-0.71,2.58-0.44,5.43-0.62,8.16"/>
	<path class="st0" d="M500.12,1023.82c-13.48,3.51-26.97,7.01-40.69,10.58c1.41,27.98-0.27,55.6-0.74,83.24"/>
	<path class="st0" d="M354.01,676.91c-1.07,2.6-3.32,4.44-4.4,7.08c-2.39,5.86-1.65,10.78,2.78,15.27
		c4.39,4.44,9.83,7.43,15.26,10.36c8.87,4.8,17.82,9.44,26.7,14.21c7.76,4.16,15.61,8.01,23.9,11.15c4.11,1.56,8.41-0.52,11.35,1.18
		c3.12,1.8,5.14,5.78,8.93,7.26c0.79,0.31,1.8,0.04,2.71,0.04"/>
	<path class="st0" d="M283.68,518.18c0.55,0.18,1.09,0.52,1.64,0.52c16.36-0.02,32.69,1.82,49.07,1.11"/>
	<path class="st0" d="M509.93,961.64c-10.4-0.7-20.78-1.39-31.11-3.05c-4.05-0.65-8.26-1.71-12.5-1.32"/>
	<path class="st0" d="M658.22,899.45c2.97,5.56-0.44,10.92-0.7,16.36c-0.42,8.73-3.8,17.25-2.02,26.19"/>
	<path class="st0" d="M653.32,981.27c-1.07,7.3-0.07,14.65,0.83,21.78c0.83,6.61,0.5,13.12,0.81,19.67"/>
	<path class="st0" d="M696.39,939.82c-12.88-2.03-25.61,0.3-38.11,2.49c-8.55,1.5-17.25,2.75-25.7,5.07
		c-1.6,0.44-2.61,1.37-3.79,2.26"/>
	<path class="st0" d="M506.66,840.55c-8.41,1.14-16.79,2.47-25.08,4.35c-4.86,1.1-9.81,0.37-14.72,0.55
		c-1.86,0.07-2.87-1.22-3.23-2.73c-1.18-5.01-3.7-9.96-1.14-15.26"/>
	<path class="st0" d="M358.91,483.27c-6.17,10.65-14.26,19.94-21.23,30.02c-1.42,2.06-3.87,3.97-2.22,7.07"/>
	<path class="st0" d="M217.44,534.82c4.59,10.46,5.25,21.08,1.4,31.92c-0.42,1.19-0.4,2.53-0.58,3.81"/>
	<path class="st0" d="M653.32,944.73c0.54,8.56,1.03,17.09-0.46,25.65c-0.55,3.18-0.09,6.53-0.09,9.8"/>
	<path class="st0" d="M353.46,601.64c-8.53,5.77-16.84,11.84-26.12,16.47c-2.5,1.25-5.6,1.98-7.14,4.8"/>
	<path class="st0" d="M465.77,706.91c-3.18,4.58-6.55,9.15-7.57,14.74c-1.32,7.23-7.92,10.39-11.79,15.61
		c-2.78,3.74-5.41,5.91-3.26,11.22c1.39,3.44,0.27,7.89,0.26,11.89c0,1.51-0.19,3.14,2.18,2.73"/>
	<path class="st0" d="M678.4,891.55c-14.01,5.58-28.74,8.83-43.07,13.37c-3.63,1.15-5.99,5.13-10.36,4.63"/>
	<path class="st0" d="M277.14,478.36c-0.32,4.66-2.52,8.91-2.8,13.63c-0.47,7.97,0.4,14.88,9.88,16.91"/>
	<path class="st0" d="M294.58,573.82c-0.7,1.42-1.23,2.73-2.64,3.92c-6.6,5.51-14.35,9.22-21.32,14.12
		c-1.93,1.36-3.12,1.63-3.57-1.12"/>
	<path class="st0" d="M681.67,1036.91c0.35-3.38-1.41-5.29-4.35-6.57c-6.64-2.89-13.35-5.41-20.73-5.43"/>
	<path class="st0" d="M660.95,1117.64c-1.39-7.02,0.7-14.4-2.31-21.44c-9.69,1.23-19.5,0.95-29.31-0.11"/>
	<path class="st0" d="M441.24,894.55c10.79,2.92,21.81,1.24,32.71,1.52c3.79,0.1,7.15,2,10.9,1.75"/>
	<path class="st0" d="M437.97,953.45c8.92,2.51,18.16,2.3,27.26,3.27"/>
	<path class="st0" d="M624.97,936c-8.53,0.57-16.66,2.74-24.53,6"/>
	<path class="st0" d="M485.94,1063.64c-11.86-6.14-24.65-3.14-37.07-3.83c-0.75-0.04-1.63,0.36-2.18-0.54"/>
	<path class="st0" d="M494.67,1098c-8.18,0.09-16.36,0.18-24.53,0.27"/>
	<path class="st0" d="M490.31,990c-0.23,0.62,0.55,1.79-0.55,1.87c-8.18,0.56-16.11,4.43-24.53,1.95"/>
	<path class="st0" d="M555.73,993.27c-7.97-1.14-16.02,0.92-23.99-0.55"/>
	<path class="st0" d="M461.14,589.09c-2.51,6.71-8.82,9.55-13.9,13.63c-2.42,1.95-5.27,3.45-6.54,6.55"/>
	<path class="st0" d="M675.67,984.55c-2.74-3.35-6.56-3.24-10.36-3.28c-11.01-0.1-21.8-1.54-32.17-5.45"/>
	<path class="st0" d="M587.89,1086c-0.46,3.35,0.63,6.16,4.33,5.3c4.55-1.06,9.52-0.35,13.66-3.12"/>
	<path class="st0" d="M459.77,1013.45c0,4.91-0.01,9.82,0,14.73c0,1.89-0.3,3.84,1.09,5.45"/>
	<path class="st0" d="M515.38,544.91c-5.77-3.88-10.4-9.51-17.45-11.45"/>
	<path class="st0" d="M489.76,921.27c-4.48-2.88-9.49-4-14.72-4.36"/>
	<path class="st0" d="M472.86,1012.91c0.16-2.61-1.8-2.51-3.26-2.12c-8.25,2.19-16.66,2.26-25.09,2.12"/>
	<path class="st0" d="M504.48,1071.82c-4.91-0.18-9.82,0.36-14.72-0.27"/>
	<path class="st0" d="M674.58,1096.91c-4.91-0.2-9.81-1.29-14.72,0"/>
	<path class="st0" d="M209.53,558c-1.62,1.71-3.87,2.83-1.82,6.12c1.06,1.7,0.19,4.61,0.19,6.97"/>
	<path class="st0" d="M443.96,738.55c-3.58-4.17-8.07-3.13-12.54-2.18"/>
</g>
</svg>
