<?xml version="1.0" encoding="utf-8"?>
<!-- Generator: Adobe Illustrator 25.4.1, SVG Export Plug-In . SVG Version: 6.00 Build 0)  -->
<svg version="1.1" id="Layer_1" xmlns="http://www.w3.org/2000/svg" xmlns:xlink="http://www.w3.org/1999/xlink" x="0px" y="0px"
	 viewBox="0 0 1117 1117" style="enable-background:new 0 0 1117 1117;" xml:space="preserve">
<style type="text/css">
	.st0{fill:none;stroke:#000000;stroke-width:2;stroke-linecap:round;stroke-linejoin:round;stroke-miterlimit:10;}
</style>
<g>
	<path class="st0" d="M684.55,562.09c-1.35,3-1.67,5.82,0.49,8.77c1.87,2.55,0.37,5.75-2.95,6.46c-3.87,0.83-7.81,1.32-11.72,1.95
		c-11.51,1.88-23.03,4.21-34,7.91c-11.16,3.76-22.12,8.42-32.6,14.09c-10.22,5.54-20.72,10.63-30.71,16.56
		c-8.45,5.02-16.7,10.42-24.12,17.01c-4.82,4.29-8.84,9.37-13.86,13.42c-7.28,5.87-13.55,12.82-20.48,19.07
		c-1.12,1.01-1.03,2.1-1.06,3.31"/>
	<path class="st0" d="M800.18,588.82c-1.27,5.1-4.54,9.12-7.38,13.35c-6.37,9.47-14.23,17.74-21.48,26.5
		c-5.57,6.73-10.68,13.86-16.17,20.66c-2.78,3.45-5.97,6.57-8.96,9.85c-5.08,5.59-9.69,11.53-13.67,17.98
		c-3.82,6.2-8.62,11.67-13.31,17.22c-4.5,5.31-9.5,10.14-14.05,15.43c-4.81,5.59-10.69,10.21-16.18,15.17
		c-6.03,5.44-12.8,10.23-16.27,18.15c-1.46,3.33-1.57,7.03-3.44,10.14c-2.59,4.3-1.77,9.34-3.16,13.95
		c-2.24,7.44-3.11,15.25-5.78,22.62c-1.45,4-1.31,8.34-1.34,12.53c-0.09,13.1-1.15,26.16-1.31,39.27c-0.13,10.99-0.6,22-0.83,33
		c-0.11,5.34,0.49,10.72,0.47,16.09c0,1,0.51,2,0.78,3"/>
	<path class="st0" d="M601.09,354.55c3.05-1.12,4.15-3.7,4.6-6.55c0.76-4.8,0.75-9.79,2.08-14.41c1.82-6.28,3.61-12.69,7.25-18.3
		c0.48-0.74,1.15-1.46,1.9-1.9c6.53-3.75,12.91-7.82,20.18-10.09c1.02-0.32,2.31-0.59,3.24-0.24c4.17,1.57,8.65,1.76,12.85,3.17
		c7.2,2.41,14.07,5.34,19.93,10.36c2.51,2.15,5.52,3.61,8.68,4.7c1.06,0.37,2.15,0.9,2.99,1.63c6.41,5.62,12.77,11.29,19.66,16.33
		c4.14,3.02,4.14,7.58,4.65,12c1.22,10.61,1.18,21.29,2.16,31.91c0.03,0.36,0,0.73,0,1.09c0.21,14.73,0.87,29.45,0.52,44.18
		c-0.1,4.03,0.6,7.99,0.57,12c-0.01,1.3,0.1,2.61-0.55,3.82"/>
	<path class="st0" d="M383.73,143.86c-7.52,2.51-12.13,7.74-13.58,15.42c-1.88,9.94-3.94,19.85-4.78,29.98
		c-0.67,8.15-0.21,16.18,0.49,24.29c0.47,5.42,0.03,11.02,1.09,16.33c2.3,11.56,1.53,23.43,3.98,34.93
		c1.14,5.33-0.2,10.79,1.07,16.1c1.42,5.94,2.82,11.96,3.11,18.01c0.27,5.52,1.34,10.89,1.85,16.35c0.58,6.2-1.56,11.88-2.82,17.72
		c-1.35,6.23-2.12,12.54-2.9,18.83c-0.92,7.39-1.27,14.86-3.32,22.09c-0.75,2.66-1.18,5.4-1.09,8.18c0.09,2.83-0.45,5.47-1.25,8.22
		c-0.85,2.92-0.76,6.14-0.93,9.24c-0.4,7.56-0.56,15.11-1.56,22.65c-0.59,4.47-1.52,8.87-2.08,13.34c-0.56,4.5-1.95,8.89-2.59,13.38
		c-0.69,4.82-1.34,9.65-2.2,14.45c-1.24,6.93-1.58,13.96-2.05,20.99c-0.44,6.52,0.47,12.92,0.72,19.37
		c0.16,3.92,1.02,7.82,1.57,11.73c0.05,0.37,0.1,0.72,0.23,1.11c1.6,4.59,0.79,9.46,1.59,14.18c0.77,4.57,0.82,9.26,1.18,13.89
		c0.73,9.36,1.58,18.72,2.15,28.09c0.84,13.91,3.15,27.59,6.07,41.17c2.55,11.83,5.76,23.51,8.94,35.2
		c1.7,6.25,2.81,12.6,3.35,19.08c0.42,5.05,1.98,9.94,3.57,14.7c3.75,11.23,7.04,22.64,11.66,33.57c3.7,8.77,8.35,17.1,12.05,25.89
		c1.71,4.07,3.05,8.26,4.77,12.33c4.08,9.68,8.56,19.17,13.14,28.62c3.45,7.11,6.18,14.55,9.42,21.75
		c1.63,3.62,1.19,8.08,4.52,10.96c1.49,8.03,7.16,14.7,7.84,22.92c0.88,10.69,2.75,21.17,4.95,31.64
		c1.62,7.69,3.76,15.29,4.42,23.17c0.12,1.47,0.52,2.91,0.8,4.37"/>
	<path class="st0" d="M532.09,591c-4.09-3.21-4.26-8.01-5.21-12.54c-1.9-9.11-2.1-18.45-4.03-27.56c-1.52-7.14-4.74-13.49-8.5-19.62
		c-1.8-2.94-4.58-4.55-7.9-5.17c-3.69-0.7-7.41-0.93-11.18-0.86c-4.47,0.08-6.26,3.2-7.91,6.57c-2.45,4.99-3.98,10.03-3.68,15.83
		c0.4,7.8,0.07,15.67,1.03,23.44c0.93,7.5,2.1,15.01,3.91,22.33c0.86,3.5,0.05,5.41-2.62,7.13"/>
	<path class="st0" d="M538.09,584.18c-0.55,0.55-1.24,1-1.61,1.65c-3.32,5.79-8.08,10.01-13.93,13.08
		c-1.75,0.92-3.08,2.39-4.87,3.35c-4.92,2.64-10.32,2.68-15.59,3.44c-2.8,0.4-5.69,1.06-8.44,0.74c-5.22-0.61-8.61-3.97-11.58-8.27
		c-2.88-4.17-3.07-9.02-4.81-13.44c-5.84-14.86-9-30.35-11.2-46.09c-0.84-6.02-2.02-12-2.96-18.01
		c-2.99-19.12-7.22-37.98-11.98-56.73c-2.33-9.2-3.24-18.63-3.85-28.08c-0.17-2.64-0.85-5.35-0.43-7.89
		c0.66-4.03-0.94-7.78-0.79-11.75c0.15-3.83-0.88-7.66-1.71-11.46c-0.7-3.2-0.88-6.52-1.14-9.8c-0.31-3.95-1.75-7.75-1.62-11.72
		c0.14-4.46-0.94-9.04,1.06-13.36c0.6-1.31,0.13-2.37-0.5-3.57c-1.01-1.92-1.34-4.03-1.46-6.25c-0.41-7.92-1.22-15.81-1.53-23.73
		c-0.27-6.9,0.05-13.82-0.09-20.72c-0.12-6.18-0.11-12.42-0.91-18.53c-0.74-5.64-1.8-11.23-1.77-16.92
		c0.07-14.03-1.71-27.77-4.76-41.49c-2.3-10.36-3.11-21.05-4.52-31.6c-1.5-11.22-3.77-22.28-8.25-32.7
		c-3.61-8.4-7.64-16.63-11.73-24.81c-1.49-2.98-4.14-5.1-7.02-6.86c-2.24-1.37-4.78-1.86-7.06-0.98c-3,1.16-5.57,0.67-8.22-0.64"/>
	<path class="st0" d="M566.73,809.86c-3.85,0.66-7.66-0.19-11.45-0.5c-11.12-0.9-22.05-0.52-33.03,1.9
		c-12.35,2.72-24.32,6.9-36.78,9.16c-8.17,1.48-16.18,1.18-24.3-0.27c-5.79-1.04-11.48-2.46-17.17-3.89
		c-1.47-0.37-2.91-0.49-4.37,0.01"/>
	<path class="st0" d="M564.27,438.27c2.42,0.43,4.59-0.48,6.52-1.67c9.01-5.52,18.12-10.8,28.08-14.51c1.55-0.58,3.4-0.11,4.8-1.99
		c1.52-2.05,0.08-3.58,0.07-5.28c-0.07-8.03-1.14-16.01-1.87-24c-0.38-4.18-0.5-8.37-0.85-12.54c-0.58-7.03,0.62-14.01,0.25-21
		c-0.06-1.13,0.24-2.54-0.96-3.61c-0.59-0.52-0.97-1.44-1.18-2.39c-1.27-5.69-4.65-10.31-7.83-15.03c-1.31-1.94-2.68-4.05-3.2-6.27
		c-0.82-3.47-3.35-4.7-6.12-5.65c-2.79-0.96-5.71-1.38-8.71-1.44c-11.41-0.23-22.73,1.16-34.09,1.66c-2.06,0.09-3.62,0.8-4.67,2.72
		c-0.71,1.29-1.68,2.49-2.71,3.55c-5.59,5.77-8.64,13.01-11.59,20.25c-0.75,1.84-1.4,3.92-1.67,5.96c-0.13,0.96-0.44,1.9-0.95,2.39
		c-2.4,2.35-1.74,5.11-1.64,7.96c0.33,9.86,2.55,19.46,3.9,29.18c0.19,1.39,0.59,2.78,1.1,4.08c0.48,1.2,0.78,2.36,0.22,3.55
		c-0.86,1.84,0.54,2.94,1.43,4.06c0.72,0.9,0.96,1.55,0.84,2.77c-0.4,4.2,1.05,8.2,1.84,12.26c1.06,5.52,2.04,11.05,2.78,16.63
		c0.73,5.46,1.42,10.94,2.27,16.39c0.58,3.69,1.27,7.42,1.46,11.16c0.35,6.8,0.38,13.54,3.42,19.98c1.26,2.67,0.67,6.15,1.29,9.19
		c0.7,3.37,0.2,7.2,3.22,9.83"/>
	<path class="st0" d="M461.73,516.55c-3.62,1.28-7.47,0.95-11.2,1.53c-5.25,0.82-10.46,1.91-15.79,2.39
		c-8.81,0.78-17.62,1.85-26.46,1.69c-5.48-0.09-10.9,0.67-16.37,0.41c-8.19-0.39-16.4-0.33-24.54-1.39
		c-1.49-0.19-2.93-0.58-4.39-1.01c-1.44-0.42-3.07-0.72-4.61-0.08"/>
	<path class="st0" d="M566.86,734.32c3.27,7.42,10.43,10.14,16.79,13.75c15.03,8.53,31.63,12.48,48.25,16.42
		c10.32,2.45,20.56,5.22,30.81,7.92c0.47,0.12,0.92,0.13,1.38,0.22"/>
	<path class="st0" d="M494.45,479.18c-1.39-0.06-2.68,0.3-3.81,1.1c-1.25,0.88-1.42,2.34-1.01,3.5c0.38,1.07,1.74,1.8,2.9,1.62
		c5.87-0.9,11.86-1.32,16.95-5.09c4.4-3.27,7.68-7.17,8.98-12.59c0.89-3.69-0.31-5.52-4.09-6.57c-6.15-1.7-12.21-0.71-17.97,1.21
		c-7.75,2.59-15,6.41-21.56,11.38c-1.08,0.82-2.28,1.69-2.47,3.25"/>
	<path class="st0" d="M538.09,347.05c-2.69,0.44-4.98,3.03-5.18,5.86c-0.13,1.8,1.56,3.31,4.36,4.1c4.3,1.22,8.39-0.11,12.55-0.83
		c9.47-1.62,18.07-5.65,26.74-9.52c2-0.89,3.49-2.31,4.88-3.86c1.9-2.14,1.53-4.56-1.09-5.65c-3.71-1.55-7.65-2.28-11.7-1.41
		c-2.2,0.48-2.85,1.65-2.46,4.07"/>
	<path class="st0" d="M515.73,361.36c-0.82-0.82-1.99-1.49-2.4-2.48c-2.09-5.03-5.67-8.95-9-13.11c-3.03-3.78-4.47-4.26-9.35-3.02
		c-6.53,1.67-12.06,5.33-18.04,8.12c-9.84,4.59-18.77,10.55-27.77,16.47c-1.7,1.12-3.67,1.52-5.72,1.38"/>
	<path class="st0" d="M660.82,1032c0.79,0.85,1.18,1.56,1.23,2.99c0.36,9.19,0.64,18.44,1.96,27.52c0.75,5.2,1.39,10.41,1.29,15.57
		c-0.1,5.53-0.14,11.11-0.68,16.64c-0.51,5.27-1.31,10.5-0.33,15.83c0.35,1.92-0.13,3.99-0.19,5.99c-0.04,1.15-0.75,0.79-1.37,0.68"
		/>
	<path class="st0" d="M692.73,448.09c-1.94-0.27-3.71,0.11-5.47,1.06c-3.3,1.76-6.56,3.97-10.11,4.78c-4.65,1.06-8.7,3.5-13.29,4.65
		c-4.65,1.17-9.29,2.48-13.94,3.7c-3.84,1.01-7.62,2.25-11.43,3.36c-3.7,1.08-7.45,1.49-11.19,2.19c-2.38,0.44-4.54,1.97-6.86,2.85
		c-0.63,0.24-1.22,0.61-2.18,0.4c-4.61-0.98-9.25,0.19-13.89,0.24c-1.58,0.02-3.06,0.42-4.66-0.26c-1.21-0.51-2.29,0.91-3.52,1.01
		c-10.06,0.82-19.89,3.45-30,3.82c-4.13,0.15-7.66,2.2-10.8,4.27c-4.23,2.78-7.46,6.94-10.17,11.31c-1.61,2.59-0.62,5.32,2.16,6.52
		c1.12,0.49,1.9,1.36,2.72,2.19c6.68,6.75,15.24,9.18,24.28,10.33c5.51,0.7,11.08,0.81,16.63,0.55c5.02-0.23,10.07-0.38,15.01-1.56
		c1.48-0.35,3.08-0.22,4.63-0.31"/>
	<path class="st0" d="M454.64,383.45c0.64,2.02,2.35,2.36,4.09,2.43c4.97,0.21,9.67-1.17,14.16-3.03
		c5.37-2.22,10.57-4.86,15.84-7.31c4.84-2.25,8.42-6.06,11.96-9.86c1.78-1.91,0.95-4.14-1.6-4.85c-2.49-0.69-4.97-0.29-7.35,0.55
		c-1.79,0.63-1.75,2.24-1.65,3.79"/>
	<path class="st0" d="M463.36,566.18c-3.52-0.19-6.93,0.87-9.75,2.57c-6.58,3.96-13.76,6.33-20.77,9.22
		c-7.93,3.27-15.68,6.99-23.46,10.61c-1.65,0.77-3.14,1.92-4.64,2.99c-0.78,0.56-1.38,1.33-1.11,2.43"/>
	<path class="st0" d="M425.18,413.32c-11.08,1.11-21.87,3.8-32.72,6.15c-8.68,1.88-17.41,3.63-25.91,6.28
		c-1.01,0.31-2,0.19-3.01,0.25"/>
	<path class="st0" d="M551.73,522c-2.91,1.73-5.68,3.78-8.77,5.08c-2.49,1.05-3.24,3.01-3.42,5.02c-0.59,6.89-1.18,13.82-1.08,20.72
		c0.1,6.83-0.4,13.64-0.09,20.46c0.14,3.03-0.92,5.97-0.57,9c0.08,0.67-0.31,1.62,0.56,1.88c3.19,0.97,5.56,3.79,8.99,4.09
		c3.57,0.32,7.19,0.16,10.61-0.86c3.18-0.95,6.21-2.3,9.56-2.7c1.47-0.18,2.93-0.92,3.79-2.16c2.26-3.27,4.43-6.49,5.31-10.59
		c1.47-6.89,3.44-13.69,5.41-20.46c0.64-2.21,2.08-4.2,4.33-5.14c0.86-0.36,1.43-0.99,2.13-1.46c3.54-2.37,7.23-3.58,11.49-2.18
		c0.74,0.24,1.62,0.03,2.44,0.03c10.48,0.03,20.97,0.27,31.37-1.58c2.34-0.42,4.84-0.24,6.81,1.58"/>
	<path class="st0" d="M656.73,895.36c0.67,1.33,0.37,2.68,0.32,4.09c-0.31,9.74-0.59,19.47-1.44,29.18
		c-0.52,6.02-0.12,12.01,0.29,18"/>
	<path class="st0" d="M542.45,506.18c1.25,0.86,1.97,2.05,2.18,3.55c0.69,4.99,4.93,7.88,7.17,11.96c0.37,0.66,1.71,0.89,2.66,1.11
		c4.34,1.01,7.22,4.05,10.07,7.12c0.27,0.29,0.57,0.74,0.53,1.08c-0.72,5.56,1.56,10.83,1.5,16.37c-0.06,4.8,0.58,9.63,0.43,14.45
		c-0.14,4.4,0.23,8.75,0.86,13.09c0.17,1.15,0.32,2.3,1.86,2.8c1.12,0.36,2.02,1.38,3.02,2.11"/>
	<path class="st0" d="M694.09,370.36c0.51,1.6-0.01,3.16-0.87,4.33c-2.92,3.94-5.98,7.78-10.04,10.68c-2.83,2.02-4.33,6.4-3.24,9.8
		c0.37,1.17,0.3,2.1,0.07,3.31c-0.43,2.2-0.13,4.52-0.3,6.8c-0.36,4.89-0.49,9.82-0.3,14.72c0.27,6.82-1.26,13.45-1.84,20.17
		c-0.23,2.6-2.08,5.1-3.26,7.58c-1.1,2.31-1.33,4.32-0.68,6.61"/>
	<path class="st0" d="M484.36,602.18c-1.5,2.37-3.51,4.28-5.44,6.28c-8.39,8.7-16.86,17.33-25.05,26.22
		c-4.24,4.6-7.64,9.92-10.89,15.27c-0.84,1.38-1.69,1.75-3.07,1.6"/>
	<path class="st0" d="M470.18,898.64c-4.55-2.12-9.09-1.15-13.76-0.19c1.48,5.01,0.95,10.04,1.72,14.92
		c0.16,0.98,0.12,1.91,0.8,2.76c0.19,0.24,0.6,0.66,0.36,1.34c-1.28,3.73,0.49,7.43,0.3,11.17c-0.02,0.34,0.18,0.9,0.19,1.36
		c0.2,9.18,0.34,18.36,0.57,27.54c0.1,4,0.61,8.01,0.48,12c-0.34,10.27-0.61,20.54-0.51,30.82c0.02,1.76,0.11,3.48,0.56,5.18"/>
	<path class="st0" d="M693,497.18c-1.99,3.96-2.89,8.27-3.79,12.55c-2.24,10.65-6.93,20.03-14.24,28.06
		c-2.33,2.56-5.2,3.99-8.7,1.94c-0.17-0.1-0.41-0.3-0.54-0.26c-5.04,1.83-10-1.49-15-0.26c-1.38,0.34-2.75,0.05-4.1,0.26
		c-4.34,0.67-6.49,3.65-5.96,8.43c0.16,1.46,0.13,2.92,0.24,4.37c0.24,3.05-0.58,5.7-2.74,7.91"/>
	<path class="st0" d="M634.64,983.86c6.05,0.95,12.14,1.42,18.27,1.23c0.64-0.02,1.28,0.04,1.91-0.01c2.68-0.23,2.45-0.24,2.51,2.46
		c0.09,4.73,0.44,9.46,0.78,14.18c0.65,9.04,1.42,18.06,2.96,27.01c0.15,0.87-0.16,1.81-0.25,2.72c-4.61,1.24-30.01-4.46-40.08-9"/>
	<path class="st0" d="M650.45,317.73c-3.05-2.37-6.51-1.4-9.81-1.06c-8.32,0.87-14.67,5.74-20.67,10.94
		c-3.38,2.94-4.85,7.02-4.17,11.66c0.12,0.8,0.02,1.63,0.02,2.45"/>
	<path class="st0" d="M460.09,1006.64c0.82,5.89-0.21,11.84,0.36,17.73c0.09,1.11-1.14,1.47-1.24,1.81
		c1.1,7.48-0.82,14.26-0.55,21.1c0.24,5.97,0.72,11.88,1.97,17.72"/>
	<path class="st0" d="M655.64,947.18c1.11,12.52,0.02,25.11,1.09,37.64"/>
	<path class="st0" d="M618.82,471.55c0.27,2.51-1.23,4.44-2.18,6.55c-3.09,6.85-4.18,14.14-4.61,21.55
		c-0.17,2.93-0.15,5.85-0.83,8.73c-0.13,0.54-0.01,1.06,0.19,1.66c0.64,1.94,0.98,3.98,1.43,5.98"/>
	<path class="st0" d="M475.09,1062.27c-3.41-0.5-6.43,1.08-9.52,2.01c-2,0.6-4.51-0.32-6.02,1.86c1.5,6.13,1.16,12.52,2.13,18.77
		c0.82,5.23,0.54,10.53,0.6,15.81c0.02,1.42-0.56,1.86-1.93,1.94c-4.63,0.24-9.24,1.27-13.91,0.52"/>
	<path class="st0" d="M679.91,945.14c-9.22,0.29-18.39,1.2-27.56,2.23c-4.07,0.46-8.18,0.7-12.27,1.13
		c-6.34,0.66-12.68,1.54-19.09,1.14"/>
	<path class="st0" d="M740.18,462.82c-5.25-2.29-9.32-6.25-13.59-9.87c-2.17-1.84-4.51-3.09-7.12-4.06c-2.45-0.91-4.8-1.95-6.9-3.71
		c-1.9-1.6-4.67-0.75-7.03-1.12c-1.77-0.28-3.64,0.09-5.44-0.09c-2.61-0.27-4.4,0.93-6.03,2.74c-0.32,0.36-0.74,0.63-0.78,1.12
		c-0.49,5.62-2.61,10.97-2.73,16.64c-0.11,4.89,0.78,9.44,4.02,13.42c1.14,1.4,2.82,2.7,2.8,4.85"/>
	<path class="st0" d="M741.27,465.55c4.02,1.56,7.28,4.23,10.04,7.41c2.29,2.63,4.59,5.22,7.15,7.59c2.04,1.89,3.51,4.14,4.98,6.5
		c3.75,6.04,8.05,11.73,11.43,18.02c2.1,3.91,3.69,7.91,4.32,12.3"/>
	<path class="st0" d="M495,1017.41c-6.74,0.67-13.08,3.08-19.65,4.43c-4.8,0.99-9.45,2.8-14.44,2.8"/>
	<path class="st0" d="M761.18,518.05c4.55,0.05,9.09,0.11,13.64,0.12c1,0,2.14,0.11,2.97-0.31c2.07-1.04,3.19,0.47,3.48,1.71
		c1.27,5.5,4.27,10.27,6.11,15.52c1.88,5.35,5.11,10.18,6.25,15.83"/>
	<path class="st0" d="M630.27,1095.68c11.38,2.01,22.88,3.07,34.36,4.23c1.18,0.12,2.36,0.27,3.55,0.41"/>
	<path class="st0" d="M681,888.41c-6.23,1.39-12.36,3.2-18.56,4.71c-9.1,2.22-18.08,4.8-26.99,7.67c-2.7,0.87-5.14,2.33-7.87,3.12
		c-0.92,0.27-1.88,0.24-2.75,0.59"/>
	<path class="st0" d="M491.18,921.55c-4.01-1.21-8.22-0.61-12.27-1.37c-5.19-0.97-10.36-2.04-15.55-2.95
		c-1.13-0.2-2.36-0.73-3.54-0.04"/>
	<path class="st0" d="M390.27,313.09c0.36-1.22,1.53-1.43,2.46-1.9c1.18-0.6,2.61-1.05,3.22-2.22c1.29-2.48,3.67-2.38,5.78-2.66
		c7.17-0.93,14.37-1.61,21.53-2.55c1.84-0.24,3.64-0.16,5.46-0.22"/>
	<path class="st0" d="M603,421.36c1.13,1.35,1.17,3.05,1.33,4.64c0.46,4.47,0.6,9.24-0.76,13.28c-1.78,5.24-1.14,10.46-1.94,15.63
		c-0.79,5.1-1.63,10.18-2.44,15.27c-0.03,0.18,0,0.36,0,0.54"/>
	<path class="st0" d="M520.64,405.55c-2.61,0.53-4.64,2.13-6.53,3.84c-6.03,5.45-12.87,9.96-18.56,15.8
		c-1.3,1.33-2.58,2.65-2.72,4.64"/>
	<path class="st0" d="M518.18,961.36c-4.44-0.57-8.95-0.55-13.35-0.17c-5.21,0.45-10.37,0.5-15.59,0.15
		c-0.52-0.65-0.1-1.44-0.24-2.17"/>
	<path class="st0" d="M677.59,354.55c-0.07,8.36-1.31,16.73,0.12,25.09c0.46,2.68,1.34,5.08,3.56,6.82"/>
	<path class="st0" d="M627.27,392.73c-0.17-0.46,0.36-1.03-0.53-1.4c-6.29-2.57-12.39-5.5-17.73-9.79
		c-2.31-1.86-4.92-0.52-7.37-0.81"/>
	<path class="st0" d="M679.36,400.09c-4.55-0.63-8.42,1.6-12.22,3.38c-4.35,2.04-8.7,4.07-13.14,5.89"/>
	<path class="st0" d="M588.27,544.91c-1.76-4.73-5.29-7.25-10.08-8.51c-2.79-0.74-5.26-2.4-7.64-4.05c-1.59-1.1-3.29-1.57-5.19-1.35
		"/>
	<path class="st0" d="M709.91,547.91c-1.19,0.03-2.02,0.2-3.09,1.27c-5.31,5.33-11.16,9.82-18.69,11.95
		c-3.58,1.01-6.51,0.05-8.37-2.15c-4.44-5.25-8.08-11.12-9.94-17.89"/>
	<path class="st0" d="M487.36,1095c-0.72,0.15-1.45-0.2-2.19,0.26c-6.84,4.25-14.5,5.52-22.35,6.02"/>
	<path class="st0" d="M545.73,999c1.7,0.08,3.26,0.23,4.98,0.92c2.26,0.9,5.03,0.47,7.56,0.74c3.28,0.34,6.55,0.3,9.82-0.02"/>
	<path class="st0" d="M651,317.45c-2.52,8.76-9.34,12.03-17.46,13.63c-0.67,0.13-1.36,0.19-2.04,0.28"/>
	<path class="st0" d="M748.36,440.73c-2.48,5.44-3.99,11.22-5.64,16.94c-0.76,2.64-3.48,4.97-1.73,8.16
		c-2.51,3.21-2.01,7.32-3.27,10.91"/>
	<path class="st0" d="M545.18,414.27c-5.29,0.97-9.91-0.91-14.47-3.25c-2.1-1.08-4.3-2.11-6.81-1.39"/>
	<path class="st0" d="M545.45,498c-0.9,1.84-1.86,3.64-2.22,5.72c-0.22,1.24-0.59,2.38-2.41,2.54c-1.87,0.16-2.03,1.94-1.9,3.46
		c0.3,3.55,0.81,7.09,1.04,10.64c0.16,2.5-0.17,5.05,1.13,7.36"/>
	<path class="st0" d="M412.91,223.91c-4.78-0.35-9.48,0.49-14.18,1.12c-1.48,0.2-2.92,0.5-4.37-0.04c-2.01-0.75-4.06-0.88-5.99,0.04
		c-2.88,1.38-5.82,0.48-8.74,0.52"/>
	<path class="st0" d="M796.36,552.55c0.18,1.58,0.63,3.03,1.91,4.09c3.3,2.72,4.11,6.95,6.27,10.37c0.04,0.07,0.02,0.18,0,0.27
		c-0.93,4.8,2.59,9.64-0.22,14.49c-0.84,1.45-1.42,3.12-1.79,4.86c-0.27,1.25-1.74,2.27-3.14,1.6c-2.14-1.03-4.33-1.01-6.57-1.03
		c-4.21-0.05-8.31-1.36-12.55-1.09"/>
	<path class="st0" d="M634.09,564.41c-6.55,1.41-13.04,3.21-19.65,4.09c-4.54,0.61-9.26-0.12-13.89-0.08
		c-0.98,0.01-1.68-0.59-2.12-0.95c-2.42-2.02-5.19-3.55-7.63-5.47c-2.64-2.08-3.06-5.51-2.43-8.61c0.55-2.69,0.53-5.14-0.37-7.66"/>
	<path class="st0" d="M799.64,517.09c-3.69,0.73-7.45,0.72-11.18,0.79c-2.49,0.05-4.98-0.07-7.36,0.84"/>
	<path class="st0" d="M802.91,587.45c2.74,1.43,5.84,1.27,8.75,1.79c3.02,0.54,5.67,1.78,8.41,2.9c0.46,0.19,0.74,0.15,1.11,0.08"/>
	<path class="st0" d="M485.73,1067.18c-0.44,2.4,1.04,3.01,2.99,3.59c4.11,1.24,8.33,1.52,12.56,1.87c0.91,0.08,1.82,0.26,2.73,0.4"
		/>
	<path class="st0" d="M456.27,898.64c-6.15,0.49-12.17,1.88-18.27,2.73"/>
	<path class="st0" d="M591,1078.36c1.09,2.62,3.62,2.29,5.73,2.71c3.87,0.76,7.78,1.24,11.72,1.38"/>
	<path class="st0" d="M459.27,1066.36c-5.21,0.72-10.22,2.59-15.54,2.8c-0.87,0.03-1.29-0.38-1.91-0.62"/>
	<path class="st0" d="M461.45,1102.91c1.11,4.78,0.08,9.65,0.67,14.45c0.87,0,1.87,0,2.87,0"/>
	<path class="st0" d="M477.55,965.32c-5.33,2.09-10.9,0.93-16.36,1.23"/>
	<path class="st0" d="M397.09,307.09c-2.76-1.85-5.59-1.9-8.75-0.9c-2.52,0.8-5.24,0.95-7.34,2.81"/>
	<path class="st0" d="M483.55,423c-1.82,0.91-3.58,1.97-5.47,2.69c-3.36,1.29-4.85,3.56-4.35,7.12"/>
	<path class="st0" d="M601.91,1053c1.55-0.33,2.73,0.72,4.1,1.06c2.61,0.65,5.28,1.04,7.89,1.69c1.75,0.44,3.62,0.97,3.01,3.52"/>
	<path class="st0" d="M564.95,399c1.05,1.98-0.23,3.53-0.95,5.18c-1.13,2.6-2.99,4.92-3.14,7.91"/>
	<path class="st0" d="M765,568.77c-4.57,0.96-8.92,6.41-8.77,10.77c0.05,1.39,0.55,1.59,1.67,1.23"/>
	<path class="st0" d="M466.09,400.64c-0.31,1.78,0.47,2.59,2.15,3.35c3.32,1.51,7,2.05,10.13,4.02"/>
	<path class="st0" d="M680.73,402c3.4,0.19,6.62,1.61,10.09,1.42c0.52-0.03,1.09,0.67,1.63,1.04"/>
	<path class="st0" d="M472.64,1008.27c0.25-2.25-0.96-2.85-3-3.04c-5.02-0.47-9.81,1.03-14.73,1.47c-1.46,0.13-2.91,0.14-4.37,0.2
		c-1.09,0.05-1.97-0.26-1.91-1.63"/>
	<path class="st0" d="M620.45,932.45c-3.92,0.02-7.86-0.44-11.73,0.55"/>
	<path class="st0" d="M487.91,995.86c-4.77-0.87-9.46,0.26-14.18,0.55"/>
	<path class="st0" d="M759,538.09c-3.59-0.08-7.17-0.06-10.64,1.09"/>
	<path class="st0" d="M771.68,472.64c0.08,0.52,0.25,0.84-0.36,1.42c-3.12,2.99-6.98,5.15-9.6,8.67"/>
	<path class="st0" d="M648.82,390.55c-2.36,0.45-4.75,0.8-7.08,1.4c-1.47,0.38-3.22,0.75-3.01,2.96"/>
	<path class="st0" d="M662.45,1033.64c3.45-0.8,6.49,0.13,9.58,2.11c-1.43,1.26-1.1,2.74-1.13,4.16"/>
	<path class="st0" d="M530.45,396.27c0.16,1.86-0.26,3.07-2.43,3.63c-2.09,0.53-3.66,2.53-6.02,2.64"/>
	<path class="st0" d="M802.64,550.64c-1.45,0.27-2.98,0.35-4.34,0.87c-1.37,0.53-2.57,1.11-3.84-0.06
		c-0.46-0.42-0.86-0.34-1.37-0.01c-1.86,1.16-3.88,1.37-5.99,0.83"/>
	<path class="st0" d="M810.27,568.36c-1.76,0.17-3.46-0.33-5.18-0.55"/>
</g>
</svg>
