<?xml version="1.0" encoding="utf-8"?>
<!-- Generator: Adobe Illustrator 25.4.1, SVG Export Plug-In . SVG Version: 6.00 Build 0)  -->
<svg version="1.1" id="Layer_1" xmlns="http://www.w3.org/2000/svg" xmlns:xlink="http://www.w3.org/1999/xlink" x="0px" y="0px"
	 viewBox="0 0 1117 1117" style="enable-background:new 0 0 1117 1117;" xml:space="preserve">
<style type="text/css">
	.st0{fill:none;stroke:#000000;stroke-width:2;stroke-linecap:round;stroke-linejoin:round;stroke-miterlimit:10;}
</style>
<g>
	<path class="st0" d="M737.19,473.73c-3.28,0.58-5.64,3.04-8.61,4.34c-3.55,1.55-2.66,6.22-3.32,9.58
		c-1.41,7.27-0.19,14.55-0.04,21.59c6.08,1.01,10.41,5.03,15.8,6.16c6.19,1.29,11.47,4.76,17.4,6.69
		c8.11,2.64,15.88,16.21,13.55,26.19c-1.76,7.59-2.29,15.86-3.01,23.86c-1.46,16.19-2.29,32.46-4.73,48.63
		c-2.96,19.63-7.74,38.68-12.61,57.83c-2.44,9.6-7,17.36-12.69,25.11c-8.59,11.72-15.56,24.55-23.33,36.81
		c-6.84,10.78-12.68,21.82-17.73,33.45c-4.5,10.36-8.29,20.88-14.19,30.85c-8.1,13.68-16.05,27.87-19.67,43.88
		c-2.18,9.65-1.13,19.29-1.48,28.94c-0.05,1.31,1.21,1.14,2.14,1.09"/>
	<path class="st0" d="M500.57,641.45c2.56-5.6-0.07-10.93-0.82-16.36c-0.37-2.69-1.35-5.39,1.31-7.69c1.19-1.03,0.79-2.89,0.55-4.3
		c-2.71-15.91-7.3-31.29-12.98-46.39c-3.29-8.74-7.07-17.21-12.11-25.03c-4.36-6.75-4.1-14.44-5.43-21.85
		c-3.16-17.55-7.67-34.98-7.41-52.91c0.16-10.66-0.31-21.79,6.77-31.2c0.75-0.99,1.39-2.33,2.35-3.13
		c9.83-8.21,20.86-13.94,33.78-15.19c1.94-0.19,3.49-1.15,5.43-1.34c10.7-1.05,16.44,5.54,21.87,13.18
		c4.8,6.75,8.15,14.45,13.63,20.72c1.05,1.21,1.32,2.71,1.47,3.88c1.91,15.32,5.76,30.28,6.96,45.78c1.08,14,3.2,27.95,4.25,42.01
		c0.5,6.64,1.64,13.47,4.75,19.64c0.55,1.09,0.56,2.17,0.51,3.29c-0.78,16.93,1.49,33.79,1.2,50.73
		c-0.12,6.94-3.03,11.79-8.26,15.84c-6.94,5.38-15.45,6.28-23.44,8.79c-8.46,2.66-15.5-0.37-22.35-4.5
		c-4.15-2.51-4.63-7.4-5.84-11.46c-0.92-3.11-2.22-5.53-4.55-7.58"/>
	<path class="st0" d="M747.54,516.55c2.09-3.46,1.43-7.39,0.94-10.89c-1.13-7.99-1.59-16.01-1.97-24.02
		c-0.94-19.95-2.4-39.82-8.89-58.87c-2.09-6.13-6.05-11.75-8.17-17.65c-2.56-7.11-6.92-8.97-13-9.61
		c-11.23-1.2-22.45-3.21-33.79-2.15c-5.1,0.48-10.35,0.98-15.21,2.33c-4.71,1.31-9.11,3.84-11.63,8.99
		c-3.52,7.18-6.69,14.49-9.62,21.91c-0.82,2.08-1.76,3.9-3.34,5.43"/>
	<path class="st0" d="M643.96,824.18c-2.07,1.68-4.44,2.3-7.09,2.19c-10.18-0.4-20.4-0.55-30.53-0.64
		c-8.09-0.07-15.98-1.4-23.98-1.48c-2.83-0.03-5.34-1.17-8.17-1.29c-10.9-0.45-21.03,2.91-31.04,6.24
		c-16.22,5.38-32.68,9.24-49.62,11.54c-5.44,0.74-11.01,1.44-16.42,2.93c-3.61,0.99-7.38-0.56-10.86-2.03"/>
	<path class="st0" d="M548,450c2.87-4.71,3.02-10.09,3.17-15.28c0.35-11.55,5.05-20.64,15.43-25.48c13.53-6.31,27.72-10.93,43-10.48
		c1.45,0.04,2.85-0.22,4.39,0.44c11.68,5.01,20.16,12.29,24.87,25.02c4.26,11.52,3.65,22.91,3.97,34.5
		c0.33,12-1.18,24.15,1.24,35.97c3.81,18.64,2.42,37.45,3.41,56.19c0.55,10.35-0.87,20.91,1.97,31.09
		c1.86,6.68,1.26,13.65,4.33,20.44c1.83,4.04,2.06,9.29,4.89,13.39"/>
	<path class="st0" d="M386.63,666c5.26,12.98,8.74,26.54,13.13,39.8c0.76,2.29,2.19,4.35,3.21,6.57c5.11,11.08,10,22.27,15.37,33.22
		c1.93,3.94,4.93,7.37,7.55,10.95c11.61,15.89,23.55,31.59,32.55,49.18c1.82,3.55,4.47,6.28,6.91,9.01
		c2.65,2.96,7.44,1.25,11.25,1.69c14.61,1.71,28.75-1.93,43.09-4.01c17.45-2.53,34.47-8.01,52.31-7.86"/>
	<path class="st0" d="M689.75,427.09c5.99-0.56,11.95,2.72,18.1-0.91c3.52-2.07,6.37-4.14,8.09-7.81c1.9-4.05-1.13-9-7.12-9.71
		c-15.75-1.88-30.85,0.03-44.14,9.71c-0.21,0.15-0.4,0.33-0.54,0.55c-1.22,1.86-4.47,2.65-3.73,5.42c0.92,3.41,4.14,1.86,6.45,2.21"
		/>
	<path class="st0" d="M418.8,592.36c6.05,14.06,11.41,28.37,18.28,42.13c5.76,11.53,11.49,23.18,16.21,35.27
		c2.2,5.62,6.53,10.1,12.39,12.6"/>
	<path class="st0" d="M634.69,621.27c-2.28-7.8-4.93-15.45-8.09-22.95c-1.7-4.03-3.91-7.43-7.14-10.37
		c-3.75-3.41-7.6-4.83-12.6-2.75c-5.13,2.13-8.74,5.04-9.88,10.95c-2,10.34-1.12,20.45,1.18,30.56"/>
	<path class="st0" d="M560.54,627.27c-0.83-1.16-2.7-1.71-2.67-3.27c0.11-8.38-5.16-14.53-8.87-21.22
		c-4.04-7.28-6.46-8.03-14.62-6.6c-9.36,1.64-16.33,6.86-16.76,13.65c-0.37,5.95-0.66,12,0.34,18c0.49,2.97,0.27,6.05-1.57,8.72"/>
	<path class="st0" d="M580.72,422.73c-8.07-0.93-13.25,3.9-17.93,9.33c-2.03,2.36-0.16,4.02,2.12,4.83
		c6.41,2.28,13.23,1.7,19.58,0.84c8.07-1.08,15.94-3.88,22.51-9.41c0.9-0.75,2.27-1.42,3.1-2.37c1.01-1.15,1.57-2.75,1.11-4.31
		c-0.63-2.12-2.47-2.01-4.31-2.28c-2.75-0.4-4.98,1.66-7.64,1.18"/>
	<path class="st0" d="M522.38,585.82c2.11-1,4.13-2.83,6.56-0.57c0.38,0.36,1.14,0.66,1.6,0.53c6.96-1.9,14.47-1.94,20.3-7.48
		c2.91-2.77,3.21-5.84,2.44-8.8c-0.86-3.27-4.26-4.3-7.46-4.96c-8.21-1.7-16.1,0.28-23.35,3.49c-5.81,2.57-11.86,5.07-16.99,9.06"/>
	<path class="st0" d="M605.79,638.18c-4.13-0.33-6.46,2.86-9.23,4.96c-16.29,12.3-28.52,27.81-35.93,46.9
		c-1.68,4.32-2.28,9.05-3.35,13.6c-1.24,5.26-0.65,5.91,4.9,5.45"/>
	<path class="st0" d="M445.51,535.64c-7.32-2.59-25.1,9.58-27.27,16.9c-1.09,3.67,1.83,8.27,6.57,8.62
		c12.12,0.88,23.2-1.97,32.12-10.83c0.27-0.27,0.03-1.06,0.03-1.6"/>
	<path class="st0" d="M470.59,528c-4.89-0.23-9.13-2.51-12.99-5.05c-2.72-1.79-5.03-1.78-7.72-0.94
		c-12.5,3.89-24.57,8.86-36.57,14.07c-7.51,3.26-11.61,7.67-11.61,16.47c-0.01,8.94-2.18,17.8-4.7,26.45"/>
	<path class="st0" d="M699.02,612.55c-2.71-6.09-2.1-12.98-4.83-19.12c-2.33-5.22-4.23-10.56-7.59-15.32
		c-1.59-2.25-3.26-3.12-5.56-2.6c-9.65,2.19-17.47,6.87-21.89,16.28c-1.36,2.89-0.31,6.8-3.75,8.76"/>
	<path class="st0" d="M624.33,1017.82c10.69,0.48,20.37,5.03,30.5,7.76c1.95,0.53,3.44,1.83,3.02,5.36
		c-1.43,12.16-0.09,24.35,1.25,36.53c1.11,10.13,2.98,20.22,2.38,30.54c-0.38,6.52-0.07,13.09-0.07,19.63"/>
	<path class="st0" d="M572.54,568.36c3.9,9.3,5.25,19.33,8.14,28.92c2.8,9.27,6.39,18.25,9.94,27.23c1.32,3.35,8.84,5.16,13.55,3.85
		c3.27-0.91,6.66-1.52,9.78-2.8c3.77-1.55,7.3-1.34,10.93,0.08"/>
	<path class="st0" d="M461.86,900c-0.93,8.57-1.46,17.16-3.13,25.66c-0.83,4.23-0.97,8.76-1.04,13.07
		c-0.36,20.36-2.54,40.74-1.04,61.07c0.62,8.37,0.07,16.8,1.39,25.11"/>
	<path class="st0" d="M606.89,571.09c4.31,0.04,8.39-1.18,12.57-2.01c4.19-0.83,6.82-2.28,7.04-6.72c0.2-4-2.89-8.57-6.53-9.82
		c-6.85-2.36-23.95,5.17-27.26,12"/>
	<path class="st0" d="M419.34,610.36c-8.99,0.34-17.81-1.44-26.72-2.08c-6.44-0.46-8.73,1.78-8.18,6.99
		c1.45,13.47,0.36,26.92-0.54,40.36c-0.12,1.86,0.54,3.39,1.6,4.93c2.73,3.98,2.46,4.45-2.69,5.7"/>
	<path class="st0" d="M466.23,816.55c-2.13,4.22-0.98,8.73-1.03,13.09c-0.21,18.39-2.15,36.69-2.46,55.09
		c-0.08,4.7-1.13,9.42-0.32,14.19"/>
	<path class="st0" d="M497.85,449.18c4.59,2.57,9.5,4.42,14.69,2.9c5.8-1.7,10.78-4.94,14.82-9.67c2.19-2.56,2.63-5.43,1.99-8.21
		c-0.78-3.35-4.35-3.66-6.96-3.74c-16.64-0.48-31.72,4.38-45.25,14.07"/>
	<path class="st0" d="M673.4,892.36c-4.03-0.04-8.25-2.04-10.88,0.05c-2.43,12.46-0.21,23.93-1.96,35.44
		c-0.88,5.78,0.84,11.96,1.39,17.96"/>
	<path class="st0" d="M725.74,510c-0.75,0.96-1.15,2.06-1.08,3.27c0.63,11.12-1.37,22.14-1.23,33.27c0.16,12.01-2.77,23.92-2.01,36
		c0.33,5.21-1.3,9.15-4.05,13.85c-6.21,10.6-15.65,16.35-26.08,20.83c-3.93,1.69-8.55,2.27-13.62,1.17
		c-5.59-1.22-11.65-0.97-17.36-2.56c-1.43-0.4-2.1,0.61-2.72,1.63"/>
	<path class="st0" d="M504.93,680.73c-3.86-1.95-4.7-6.22-6.97-9.36c-4.81-6.64-8.47-8.31-15.9-5.31c-3.6,1.46-7.19,3.22-10.32,5.48
		c-4.7,3.39-6.52,12.44-3.82,17.89c1.26,2.55,0.65,6.65,3.81,7.49c3.98,1.06,8.24,0.82,12.51,0.34c5.4-0.61,9.68-3.72,14.66-5.21
		c4.9-1.47,8.39-4.73,6.59-10.77"/>
	<path class="st0" d="M668.49,566.18c9.66,1.32,19.1,0.38,28.36-2.7c3.13-1.04,5.76-2.7,8.22-4.88c1.47-1.31,1.98-2.79,1.52-4.4
		c-0.57-1.95-2.61-2.45-4.3-2.67c-2.32-0.3-4.75-0.32-7.07-0.03c-11.54,1.43-23.14,2.6-34.35,5.96"/>
	<path class="st0" d="M435.7,649.64c-15.57,5.93-32.12,8.23-47.98,13.09"/>
	<path class="st0" d="M475.49,652.36c0.59,4.15,3.75,2.26,5.42,1.78c7.52-2.12,14.42-5.47,19.3-12.14
		c-9.76-6.39-19.12-2.61-28.54,0.51c-4.6,1.52-8.71,4.04-13.08,6.02"/>
	<path class="st0" d="M681.03,944.18c-6.88-0.22-13.59,0.79-20.39,2.24c2.26,8.53-0.1,16.54-0.63,24.46
		c-0.73,10.94-0.74,21.84-0.66,32.75c0.04,6.25-1.49,12.32-1.27,18.55c0.05,1.37-0.68,2.7-1.59,3.82"/>
	<path class="st0" d="M501.12,642.55c3.77,5.41,4.99,11.48,5.63,17.98c0.43,4.37,0.85,8.72,0.93,13.11
		c0.04,2.35-0.09,4.61-1.63,6.56c-0.13,0.17-0.02,0.53-0.02,0.8c-0.18-0.09-0.36-0.18-0.55-0.27"/>
	<path class="st0" d="M455.87,961.64c-6.85,0.41-13.38-1.87-20.15-2.4c-5.81-0.45-11.47-2.81-17.46-1.42"/>
	<path class="st0" d="M501.66,1031.45c-0.21-6.81-2.02-8.47-8.72-8.76c-11.94-0.51-23.65,1.53-35.11,2.49
		c-1.9,13.18,0.93,25.77,2.4,38.45"/>
	<path class="st0" d="M473.31,1064.73c-4.5-1.28-9.11,0.22-14.3-1.39c2.07,13.08-1.01,25.18-0.66,37.69c7.2,0.32,14.18,1,20.41-3.3"
		/>
	<path class="st0" d="M458.05,490.91c-3.95,2.53-6.94,6.14-10.38,9.24c-7.34,6.6-8.68,14.85-7.06,24.03"/>
	<path class="st0" d="M660.86,894c-5.55-0.73-10.1,2.43-14.63,4.56c-6.6,3.11-13.26,6.17-19.72,9.62"/>
	<path class="st0" d="M561.09,743.45c2.54,8,4.78,16.12,7.78,23.94c1.27,3.31,1.64,6.15,0.4,9.33"/>
	<path class="st0" d="M525.11,963.27c-8.67-3.25-17.94-0.34-26.74-2.63c-1.83-0.48-3.97,0.27-5.97,0.45"/>
	<path class="st0" d="M660.31,1100.18c-9.79-1.3-19.44-3.84-29.44-3.27c-0.91,0.05-1.82,0.18-2.73,0.27"/>
	<path class="st0" d="M488.58,963.27c-6.33-1.18-12.72-0.28-19.08-0.53c-4.18-0.17-8.39,0.33-12.54-0.56"/>
	<path class="st0" d="M660.31,946.91c-8.98,0.57-17.51,3.35-26.14,5.56c-1.53,0.39-2.95,0.14-4.39,0.44"/>
	<path class="st0" d="M621.61,930.55c-8.72,4.73-17.49,9.38-26.12,14.26c-1.32,0.75-2.49,1.01-3.86,1.01"/>
	<path class="st0" d="M456.41,1026c-9.18-0.21-17.8,2.98-26.69,4.48c-0.89,0.15-1.84,0.25-2.75,0.43"/>
	<path class="st0" d="M550.73,751.09c3.63,4,5.53,9.04,8.25,13.59c2.85,4.77,4.29,10.87,10.79,12.72c0.73,0.21,1.43,1.8,1.79,3.12
		c0.41,1.51,1.85,2.49,3.7,2.21"/>
	<path class="st0" d="M396.99,579.82c-4.32,3.8-3.35,9.46-4.74,14.23c-1.2,4.12-4.03,8.42-1.26,13.04"/>
	<path class="st0" d="M709.93,451.09c0.01,1.38-0.07,2.67,1.07,3.84c6.66,6.86,10.42,15.89,16.93,22.88"/>
	<path class="st0" d="M498.94,994.36c-8.69-1.57-17.42-1.42-26.17-0.55"/>
	<path class="st0" d="M431.33,998.73c-0.45,3.8,3.55,4,4.93,4.1c6.53,0.47,12.99,2.39,19.61,1.35"/>
	<path class="st0" d="M658.68,984.55c-8.35,0.56-16.8-1.21-25.08,1.09"/>
	<path class="st0" d="M603.07,1081.64c0.51,3.17-1.44,3.92-3.8,3.2c-5.02-1.52-10.21-2.03-15.29-3.2"/>
	<path class="st0" d="M543.1,995.45c0.28,1.22-0.45,2.37,1.55,3.43c5.25,2.76,10.51,5.15,16.44,5.85"/>
	<path class="st0" d="M659.22,1029.27c5.78-0.15,9.75,4.15,14.69,6.08c1.99,0.78,3.67,2.37,6.03,2.1"/>
	<path class="st0" d="M458.59,1064.73c-6.95,0.55-13.87,1.35-20.72,2.73"/>
	<path class="st0" d="M473.31,920.18c5.83,0.05,10.74,3.45,16.3,4.61c1.34,0.28,3.07,0.3,4.41,1.12"/>
	<path class="st0" d="M653.23,610.36c-4.93,5.49-10.8,9.39-17.96,11.56c-3.15,0.95-6.07,2.78-9.3,3.71"/>
	<path class="st0" d="M452.05,1117.36c0.69-0.38,1.76,1.24,2.16-0.28c1.21-4.67,3.57-9.33,1.11-14.37
		c-6.53,1.19-12.71,1.53-17.98,5.1"/>
	<path class="st0" d="M465.68,898.91c-6.71,0.87-13.45,0.46-20.17,0.55"/>
	<path class="st0" d="M399.17,580.91c0.73,0.73,1.78,1.32,2.13,2.2c2.99,7.5,4.01,8.41,11.5,8.09c2.97-0.12,5.79,0.87,8.73,0.61"/>
	<path class="st0" d="M595.98,1053.27c5.9,1.85,12.63,0.27,17.99,4.36"/>
	<path class="st0" d="M674.49,986.18c-4.87-0.85-9.68-2.5-14.72-1.09"/>
	<path class="st0" d="M503.3,1075.64c-4.18-0.38-8.36-1.21-12.54,0"/>
	<path class="st0" d="M662.77,879.27c-0.43,4.19-0.6,8.38,0.27,12.55"/>
	<path class="st0" d="M464.59,488.73c-1.15,0.83-3,0.02-3.82,1.64c-0.68-0.45-2.35,1.06-2.18-1.09"/>
</g>
</svg>
