<?xml version="1.0" encoding="utf-8"?>
<!-- Generator: Adobe Illustrator 25.4.1, SVG Export Plug-In . SVG Version: 6.00 Build 0)  -->
<svg version="1.1" id="Layer_1" xmlns="http://www.w3.org/2000/svg" xmlns:xlink="http://www.w3.org/1999/xlink" x="0px" y="0px"
	 viewBox="0 0 1117 1117" style="enable-background:new 0 0 1117 1117;" xml:space="preserve">
<style type="text/css">
	.st0{fill:none;stroke:#000000;stroke-width:2;stroke-linecap:round;stroke-linejoin:round;stroke-miterlimit:10;}
</style>
<g>
	<path class="st0" d="M791.52,361.82c-0.47,1.09,1.15,1.87,0.07,3.32c-8.66,11.65-10.92,25.88-15.22,39.24
		c-3.65,11.34-5.75,23.11-7.69,34.87c-1.87,11.35-1.7,22.87-2.39,34.33c-0.85,14.18-0.85,28.35-0.93,42.53
		c-0.05,9.63-0.02,19.32,0.37,28.88c0.43,10.43,0.09,20.76-0.49,31.08c-0.91,16.17-1.11,32.39-2.38,48.5
		c-0.7,8.9-0.99,17.84-1.83,26.74c-1.21,12.77-6.71,23.31-15.22,32.78c-10.85,12.06-23.05,22.99-32.19,36.5
		c-14.59,21.55-28.9,43.26-39.98,66.96c-5.32,11.38-9.98,22.92-13.5,34.95c-2.29,7.83-2.05,15.96-2.8,23.98
		c-0.87,9.29-2.39,18.56-2.96,27.83c-0.54,8.82-1.55,17.88,0.84,26.7"/>
	<path class="st0" d="M378.27,556.46c-4.82,2.98-3.99,8.1-3.02,11.93c1.78,7.06,0.61,12.94-3.51,18.6
		c-5.61,7.7-10.67,15.59-13.26,25.03c-1.57,5.74-2.24,12-0.58,16.83c6.61,19.24,11.76,39.01,19.45,57.84
		c5.41,13.24,13.35,25.32,20.59,37.67c11.12,18.98,22.2,38.01,33.88,56.65c7.08,11.3,15.22,21.95,22.28,33.3
		c4.61,7.41,5.89,15.71,6.95,24.03c0.72,5.63-3.77,9.37-6.53,13.56c-2.79,4.24-6.13,8.11-8.73,12.54
		c-2.23,3.81-4.64,7.38-4.28,12.05c0.12,1.59-0.88,1.84-2.17,1.63"/>
	<path class="st0" d="M556,457.23c-2.72-0.8-5.24-5.84-3.1-8.01c4.4-4.46,3.75-10.5,6.24-15.5c3.63-7.32,8.15-12.16,17.02-12.66
		c6.53-0.36,13-1.94,19.64-2.05c6.26-0.1,12.13,1.8,17.95,3.48c4.95,1.42,6.49,6.58,8.79,10.74c4.9,8.85,6.07,18.34,6.74,28.35
		c1.29,19.45,2.38,38.88,1.83,58.35c-0.34,11.92-2.76,23.68-4.68,35.46c-1.03,6.33-2.2,12.65-2.97,19.05
		c-1.44,11.98-1.42,24.04-2.78,36.04c-0.64,5.59-0.88,11.6-0.9,17.41c-0.01,5.97-1.67,12.26-1.64,18.54
		c0.01,2.54-0.09,5.09-0.27,7.63c-0.86,12.27-10.4,17.17-19.4,22.25c-3.8,2.14-7.98,3.85-12.47,4.5c-7.23,1.05-12.7-3.09-17.85-6.77
		c-4.16-2.97-8.57-5.53-12.68-8.52"/>
	<path class="st0" d="M553.27,457.78c-0.88,6.43,1.45,12.65,1.14,19.08c-0.6,12.39,0.44,24.76-2.5,37.14
		c-1.81,7.64-2.95,15.91-0.34,23.94c0.43,1.31,0.15,2.89,0.05,4.34c-0.77,10.76,0.74,21.46,1.33,32.15
		c0.8,14.54,2.06,29.11,1.7,43.62c-0.33,13.35,1.96,26.51,1.39,39.81c-0.34,7.99-4.55,13.35-10.94,17.44"/>
	<path class="st0" d="M459.5,495.4c1.8,8.32,5.54,15.85,9.17,23.49c5.57,11.72,7.68,24.57,11.15,36.99
		c3.27,11.7,4.95,23.68,7.23,35.53c1.29,6.73,2,13.79,2.21,20.68c0.24,7.84,2.66,15.07,4.83,22.27c1.72,5.7,2.42,10.22-1.21,15.43
		c-3.09,4.42-5.98,7.59-11.3,10.27c-7.4,3.73-14.89,5.99-22.65,6.87c-12.54,1.42-21.83,1.58-25.62-12.87
		c-2.92-11.13-6.79-21.97-9.47-33.21c-2.83-11.87-7.7-23.23-11.14-34.97c-2.94-10.05-4.88-20.47-9.47-29.9
		c-5.12-10.51-7.96-21.88-13.29-32.34c-3.36-6.6-1.13-13.86,3.68-19.43c4.86-5.62,10.19-10.92,15.83-15.77
		c3.04-2.61,7.18-4.19,11.35-4.42c8.95-0.51,18.01-2.79,26.72,1.55c4.54,2.26,7.93,5.82,11.44,9.3"/>
	<path class="st0" d="M789.34,361.28c2.52,0.62,2.3-1.53,2.39-2.73c0.92-12.18-7.49-21.71-19.84-22.3
		c-6.61-0.32-13.24-0.36-19.64,2.09c-3.97,1.52-7.35,3.9-9.72,7.19c-5.72,7.98-12.17,15.42-16.56,24.41
		c-6.42,13.14-13.95,25.74-20.43,38.85c-1.95,3.94-3.35,8.39-4.42,12.76c-0.59,2.38-1.87,4.03-3.37,5.7"/>
	<path class="st0" d="M596.34,847.04c-9.49-0.39-18.45-3.73-27.73-5.32c-7.44-1.27-14.41,0.01-21.3,0.73
		c-14.18,1.49-28.09,5.15-42.01,8.41c-6.01,1.41-11.93,3.38-18.01,4.22c-6.15,0.85-12.3-0.2-17.99-3.11
		c-1.88-0.96-3.1-2.13-2.71-4.39"/>
	<path class="st0" d="M611.61,665.77c-2.77-3.33-1.87-7.34-2.23-11.17c-1.31-13.88-4.37-27.32-12-39.22
		c-5.29-8.26-13.55-7.95-19.63-0.08c-6.15,7.96-9.03,16.62-8.8,26.76c0.22,9.73-0.53,19.51-3.68,28.89"/>
	<path class="st0" d="M681.12,622.7c-3.85-4.68-4.32-10.52-5.08-16.1c-1.21-8.94-4.02-17.15-9.97-23.93
		c-7.67-8.73-20-6.16-23.91,4.87c-4.99,14.09-7.75,28.57-6.53,43.6c0.25,3.09,1.59,6.08,1.05,9.27"/>
	<path class="st0" d="M552.18,448.51c-7.1-7-16.25-7.34-25.05-6.33c-10.23,1.18-20.51,2.38-30.59,5.1
		c-19.17,5.17-29.65,17.56-33.32,36.65c-0.71,3.72-0.24,8.06-3.72,10.92"/>
	<path class="st0" d="M627.96,443.06c3.24-3.21,4.7-7.57,6.38-11.52c4.84-11.41,12.73-17.86,25.24-19.08
		c15.09-1.47,26.68,6.2,37.66,14.56c2.76,2.1,2.97,7.99,3.66,12.25c0.54,3.35-0.09,6.78,2.23,9.85c1.79,2.37-1.41,4.39-1.16,7.05
		c0.49,5.22-0.23,10.56,0.23,15.79c0.75,8.65-2.2,16.57-4.74,24.45c-0.76,2.38-1.43,5.31-1.51,7.2c-0.36,8-3.11,15.5-3.91,23.4
		c-0.8,7.86-0.31,15.67-0.86,23.47c-1.36,19.27-2.74,38.54-4.37,57.79c-1.21,14.3-9.74,23.35-22.34,28.82
		c-6.9,3-13.95,6.61-21.75,5.39c-5.95-0.92-12.86-0.72-14.99-9.07c-0.61-2.4-2.8-5.87-6.84-5.52"/>
	<path class="st0" d="M480.76,659.5c-2.02-8.76-3.48-17.64-6.46-26.2c-2.52-7.24-6.3-13.63-10.97-19.61
		c-2.97-3.8-6.24-3.25-9.84-1.09c-7.02,4.22-9.23,11.26-9.65,18.56c-0.68,11.71-0.71,23.51,3.12,34.88"/>
	<path class="st0" d="M456.23,588.9c-5.9-0.28-9.68,3.3-13.05,7.39c-2.16,2.62-1.11,5.23,2.15,5.97c7.82,1.78,24.79-7.37,27.8-14.99
		c3.33-8.43-3-16.58-12.54-16.08c-12.73,0.67-21.04,8.68-28.86,17.47c-0.27,0.3-0.03,1.06-0.03,1.61"/>
	<path class="st0" d="M582.44,789.25c-0.43,7.47,2.47,13.94,7.45,18.99c12.28,12.45,27.37,20.4,44.09,25.08
		c7.5,2.1,14.7,5.88,22.87,5"/>
	<path class="st0" d="M573.44,570.09c5.11-0.44,10.1-0.41,15.31,0.19c5.1,0.59,10.11-2.96,14.61-5.75c2.9-1.79,5.23-4.54,7.67-7.01
		c1.11-1.12,2.46-2.7,1.56-4.27c-0.78-1.35-2.38-1.99-4.24-2.34c-10.11-1.88-19.57,0.55-28.9,3.95c-3.36,1.22-6.59,2.79-9.81,4.36
		c-1.49,0.73-3.11,1.6-2.74,3.78"/>
	<path class="st0" d="M420.79,616.43c-20.65,4.65-41.6,5.95-62.7,5.45"/>
	<path class="st0" d="M663.4,1035.68c-0.91,8.72-2.09,17.43-2.61,26.18c-0.26,4.39-1.01,8.72-1.43,13.06
		c-0.69,7.09,0.77,14.32-1.41,21.28"/>
	<path class="st0" d="M444.24,901.02c2.35,18.26,4.48,36.56,8.69,54.53c0.11,0.48-0.33,1.08-0.51,1.63"/>
	<path class="st0" d="M523.29,630.6c-4.79,0.39-6.97,3.99-8.67,7.66c-6.39,13.84-9.94,28.2-7.17,43.59
		c0.98,5.46,4.01,8.04,11.48,8.67c6.16,0.52,12.18-1.05,17.94-2.83c5.63-1.73,8.33-8.88,7.22-14.59
		c-1.74-8.92-3.24-17.91-5.64-26.67c-2.02-7.39-5.65-13.89-14.08-15.84"/>
	<path class="st0" d="M573.44,437.61c-0.1,2.75-2.93,3.62-3.97,5.93c-2.04,4.51-1.44,6.67,3.42,6.48c4.18-0.17,8.48,0.24,12.52-0.56
		c5.99-1.19,12.19-1.02,18.04-3.07c2.9-1.02,6.15-1.3,5.98-5.51"/>
	<path class="st0" d="M653.59,903.74c0.73,9.1,2.81,18.11,2.63,27.26c-0.12,6.42,2.01,12.65,1.18,19.08"/>
	<path class="st0" d="M492.76,967.53c-8.77-1.78-17.29-4.72-26.18-5.93c-3.58-0.49-7.13-3.12-10.88-0.87
		c-1,8.7,3.53,16.09,4.64,24.2c0.73,5.3,0.09,10.64,1.27,15.87c0.44,1.92-0.14,4.03,0.61,5.98"/>
	<path class="st0" d="M576.17,1010.05c-14.17-5.73-29.22-6.37-44.16-7.63"/>
	<path class="st0" d="M506.93,585.9c-0.15,4.38,3.51,3.9,5.39,3.12c10-4.11,20.52-7.5,27.85-16.22c1.03-1.22,2.13-2.53,1.64-4.35
		c-0.63-2.32-2.51-2.2-4.35-2.19c-13.95,0.11-26.67,4.11-38.16,12"/>
	<path class="st0" d="M656.86,951.17c0.99,3.78,0.32,7.64,0.55,11.45c0.85,13.87,2.43,27.66,4.22,41.45
		c1.26,9.73,2.95,19.61,0.13,29.42"/>
	<path class="st0" d="M504.75,1032.95c-15.12-0.34-30.13,1.98-45.59,0.96c-0.26,13.1-3.28,25.19-3.82,37.73
		c-0.66,15.29-1.28,30.51-0.9,45.81c0.08,3.37,1.62,2.67,3.43,2.72"/>
	<path class="st0" d="M678.12,524.29c-12.22-1.56-23.3,0.72-32.8,9.17c-1.53,1.37-2.96,2.8-2.48,4.41c0.54,1.83,2.67,2.12,4.74,2.32
		c7.08,0.67,14.16,0.95,21.27,1.13c3.25,0.08,6.1-1.58,9.27-1.22"/>
	<path class="st0" d="M681.39,437.61c-4.18,0-8.38,0.25-12.54-0.05c-8.09-0.58-15.8,1.05-23.45,3.32"/>
	<path class="st0" d="M489.49,657.32c3.33,5.15,2.78,11.3,4.27,16.92c1.05,3.97,3.19,7.27,5.65,10.25c1.98,2.4,5.04,3.06,8.07,1.18"
		/>
	<path class="st0" d="M534.19,459.41c-12.79-2.95-25-0.26-37.07,3.82"/>
	<path class="st0" d="M714.1,470.32c5.96,2.42,11.44,6.68,18.65,2.95c1.78-0.92,4.98,0.87,7.52,1.42c2.52,0.54,4.98,1.59,7.63,0.82"
		/>
	<path class="st0" d="M389.17,523.2c-4.79,5.67-8.1,11.93-7.61,19.63c0.1,1.62-0.28,3.05-1.13,4.36c-3.02,4.66-3.13,9.08,1.12,13.07
		c0.87,0.81,1.23,1.63,1.07,2.75"/>
	<path class="st0" d="M439.87,503.57c-10.12,4.28-20.46,7.66-31.74,9.37c0.24-4.92,0.87-7.64,5.02-7.19"/>
	<path class="st0" d="M486.21,1104.37c-10.18,0.17-20.34,0.86-30.53,0.55"/>
	<path class="st0" d="M677.03,895.02c-7.02,0.45-13.22,3.5-19.64,5.95c-8.1,3.1-16.4,5.71-24.49,8.83
		c-4.09,1.58-7.91,3.85-11.47,6.48"/>
	<path class="st0" d="M702.11,591.35c6.08-0.93,11.86,1.67,18,1.34c3.9-0.21,7.31,3.28,10.89,5.19c6.53,3.48,13.08,6.91,19.62,10.37
		"/>
	<path class="st0" d="M704.29,450.69c6.44,3.58,10.07,10.34,16.3,14.26c3.8,2.39,8.88,2.71,11.5,7"/>
	<path class="st0" d="M472.58,901.56c-14.79-0.42-29.53-1.48-44.17-3.76c-1.58-0.25-2.37-0.59-2.17-2.24"/>
	<path class="st0" d="M632.33,1025.32c14.51,6.35,30.31,8.19,45.33,12.82c2.53,0.78,8.06,3.64,9.19-3.01"/>
	<path class="st0" d="M632.33,987.16c11.34-0.46,22.49,2.12,33.8,2.22c3.06,0.03,5.76-0.64,8.18-2.49"/>
	<path class="st0" d="M469.31,919.55c8.93,1.29,17.88,2.45,26.71,4.36"/>
	<path class="st0" d="M455.68,960.44c-1.34-0.81-1.74-2.89-3.82-2.73c-8.65,0.64-16.96-2.9-25.62-2.17"/>
	<path class="st0" d="M720.65,591.89c-3.13-7.91-11.05-8.57-17.49-11.36c-2.1-0.91-4.53-1.98-7.05-0.91"/>
	<path class="st0" d="M485.12,1008.96c0.2-1.65-0.52-2.22-2.18-2.21c-7.09,0.06-14.18,0.03-21.93,0.03
		c1.02,9.5-1.64,18.28-0.97,27.26"/>
	<path class="st0" d="M520.02,963.71c-8.29-1.51-16.57-3.19-25.08-2.73"/>
	<path class="st0" d="M596.34,1058.03c7.91,2.23,16,0.59,23.99,1.09"/>
	<path class="st0" d="M659.58,1098.37c-2.34,7.17-0.51,14.55-1.09,21.81"/>
	<path class="st0" d="M384.81,589.17c7.18,2.84,14.36,5.71,22.35,4.09"/>
	<path class="st0" d="M441.24,878.66c0.66,5.29,0.91,10.63,2.36,15.84c0.41,1.47-0.27,3.25-0.45,4.88"/>
	<path class="st0" d="M646.5,1094.01c10.52,2.3,20.58,6.77,31.62,6.53c0.75-0.02,1.63,0.36,2.18-0.53"/>
	<path class="st0" d="M622.51,1095.65c6.4,1.94,13.12,1.57,19.63,2.73"/>
	<path class="st0" d="M460.59,1007.87c-6.51-0.59-12.8,0.8-19.08,2.18"/>
	<path class="st0" d="M665.04,948.99c-3.28,2.01-6.9,0.82-10.36,1.06c-5.63,0.4-11.36-0.78-16.9,1.12"/>
	<path class="st0" d="M608.34,938.63c-5.75,0.93-10.94,3.08-15.27,7.09"/>
	<path class="st0" d="M458.41,1035.13c-3.91-0.58-7.52,1.73-11.46,1.18c-0.56-0.08-1.33,1.05-1.08,2.09"/>
	<path class="st0" d="M603.98,1084.2c-4.33,0.89-8.5,2.79-13.08,2.18"/>
</g>
</svg>
