<?xml version="1.0" encoding="utf-8"?>
<!-- Generator: Adobe Illustrator 25.4.1, SVG Export Plug-In . SVG Version: 6.00 Build 0)  -->
<svg version="1.1" id="Layer_1" xmlns="http://www.w3.org/2000/svg" xmlns:xlink="http://www.w3.org/1999/xlink" x="0px" y="0px"
	 viewBox="0 0 1117 1117" style="enable-background:new 0 0 1117 1117;" xml:space="preserve">
<style type="text/css">
	.st0{fill:none;stroke:#000000;stroke-width:2;stroke-linecap:round;stroke-linejoin:round;stroke-miterlimit:10;}
</style>
<g>
	<path class="st0" d="M635.6,761.99c-0.63,5.07,3.77,3.36,6.04,4.26c1.93,0.77,3.41-0.88,3.72-2.64
		c3.16-18.08,11.43-34.49,17.08-51.74c7.12-21.71,15.63-42.93,28.26-62.17c7.98-12.16,10.56-26.14,14.16-39.82
		c4.74-18,3.15-35.71-1.56-53.46c-1.68-6.32-3.78-12.51-6.27-18.44c-4.21-9.98-11.25-18.6-21.24-22.59
		c-7.22-2.88-14.9-5.05-22.19-8.04c-11.87-4.87-24.52-8.31-35.75-14.08c-11.92-6.13-24.26-10.27-36.81-14.14
		c-19.68-6.07-39.83-10.39-59.92-14.9c-8.84-1.98-17.79-2.34-26.71-3.4c-14.98-1.77-29.8-4.62-44.23-9.47
		c-10.41-3.5-20.87-6.75-30.47-12.15c-19.97-11.24-38.91-24.04-52.72-42.63c-8.97-12.07-19.44-22.09-31.77-30.44
		c-3.05-2.07-6.74-2.99-9.39-5.87c-1.26-1.37-3.87-1.32-5.3-0.03c-9.56,8.62-18.29,17.8-21.41,30.99c-1.15,4.85,0.5,9.13,1.18,13.65
		"/>
	<path class="st0" d="M155.29,370.55c5.73-9.62,1.31-11.64-7.08-10.86c-13.65,1.27-27.38,1.75-40.9,4.3
		c-3.14,0.59-5.64,2.54-6.97,4.98c-5.44,10-10.92,20.3-12.38,31.59c-1.32,10.22,1.63,20.32,6.94,29.33c1.07,1.81,1.8,3.65,2.6,5.52"
		/>
	<path class="st0" d="M212.53,502.48c15.71,4.8,29.71,13.26,44.12,20.8c16.72,8.74,33.12,18.09,49.65,27.19
		c2.41,1.32,5.31,2,6.55,4.9"/>
	<path class="st0" d="M612.7,649.68c1.41,6.03,5.04,11.14,7.09,16.9c4.05,11.4,1.89,22.48-2.26,33.23
		c-5.05,13.06-8.46,26.4-9.94,40.35c-0.41,3.87,0.44,7.3,0.75,10.93"/>
	<path class="st0" d="M140.57,439.79c5.69,1.66,11.3,0.02,16.89-0.62c5.65-0.65,10.14,1.5,12.36,6.16c2.33,4.92,3.8,10.1-0.14,15.86
		c-3.99,5.84-8.49,8.66-15.47,8.69c-5.27,0.02-10.26,1.81-15.35,3.44c-6.16,1.98-13.02,2.21-19.53,0.75
		c-8.76-1.97-17.03-5.66-25.67-8c-6.18-1.67-4.66-6.72-5.25-10.5c-0.73-4.68,0.36-9.54,1.56-14.12c1.15-4.38,4.95-5.61,9.73-4.44
		c7.34,1.79,14.88,1.28,22.34,1.06c4.63-0.14,7.29,0.39,8.55,6c0.84,3.76,4.27,7.13,4.54,11.53"/>
	<path class="st0" d="M227.8,356.37c-11.31-5.9-19.21-15.37-26.11-25.66c-10.34-15.41-18.11-13.28-29.02-2.2
		c-6.11,6.2-8.12,14.14-10.86,21.86c-1.31,3.69-1.95,7.65-4.34,10.91"/>
	<path class="st0" d="M434.42,643.69c0.05,4.38,3.6,7.05,5.64,10.24c10.64,16.59,15.47,34.53,13.88,54.08
		c-0.41,5.08-1.42,10.14-1.53,15.27"/>
	<path class="st0" d="M638.87,827.41c3.44,2.57,2.02,6.78,2.4,9.85c1.69,13.84,5.21,27.26,7.73,40.89
		c1.52,8.2,2.34,16.65,2.95,25.04"/>
	<path class="st0" d="M438.24,957.17c0.51,5.31,5.23,7.22,8.81,8.48c9.25,3.25,11.05,9.29,10.47,18.25
		c-0.81,12.5,0.93,25.09,0.68,37.6c-0.29,14.71,0.04,29.46-1.75,44.19c-1.09,9.01-1.35,18.17-2.39,27.23
		c-0.79,6.92-2.44,13.73-2.74,20.72"/>
	<path class="st0" d="M428.43,759.81c4.98,0.39,9.51-1.52,14.18-2.72c4.32-1.11,5.57-0.12,6.02,4.36c0.32,3.2-1.23,6.14-1.1,9.27
		c0.51,12.72,0.9,25.45,1.78,38.15c0.15,2.21-0.2,4.04-0.71,6.01"/>
	<path class="st0" d="M655.23,933.18c2.9,6.23,2.59,13.08,3.73,19.64c1.76,10.08,1.55,20.38,2.87,30.58
		c1.44,11.12,1.71,22.52,3.19,33.74c0.26,1.94-0.34,3.36-2.71,3.28c-1.63-0.06-3.27-0.01-4.91-0.01"/>
	<path class="st0" d="M270.87,363.46c-7.11-8.54-16.93-13.67-25.71-20.05c-4.39-3.19-9.26-1.21-12.42,4.26
		c-5.44,9.45-8.02,19.92-9.65,30.54c-0.5,3.24-1.12,6.4-3.06,8.57c-2.55,2.85-1.55,5.01-0.47,7.78c1.14,2.92,2.97,3.78,6.02,4.51
		c8.49,2.04,17.08,3.35,25.67,4.73"/>
	<path class="st0" d="M409.89,1031.32c1.67,3.02,4.83,3.26,7.64,3.76c11.38,2.03,22.83,2.2,34.34,1.19
		c4.34-0.38,8.72-1.42,13.08-0.05"/>
	<path class="st0" d="M150.38,365.1c0.07,1.65-0.28,3.34,0.32,4.52c8.41,3.62,16.79,6.25,25.26,8.69c4.99,1.44,10.02,2.94,14.82,5.2
		c4.87,2.29,10.32,2.72,15.75,2.3"/>
	<path class="st0" d="M665.04,1020.41c2.76,2.97,2.22,6.93,2.57,10.37c1.2,11.59,2.12,23.24,0.2,34.88
		c-0.22,1.35-0.44,2.63-1.13,3.81"/>
	<path class="st0" d="M476.4,633.33c-1.96,4.18-6.26,4.47-9.84,5.34c-8.74,2.13-17.61,3.75-26.68,3.35
		c-2.92-0.13-5.76,1.74-8.76,0.09c-1.06-0.58-2.31-0.71-3.26-1.68c-11.6-11.82-25.77-20.63-37.62-32.16
		c-0.56-0.54-1.43-0.75-2.48-1.27c3.87-4.56,6.42-9.85,9.04-15.1c0.09-0.18,0.18-0.36,0.27-0.55c0.09,0.09,0.18,0.18,0.27,0.27"/>
	<path class="st0" d="M437.7,810.51c2.7,4.68,7.94,3.76,12.24,5.37c-1.21,15.55,0.29,31.04,0.93,46.4
		c0.55,13.24,0.08,26.58,1.4,39.84c0.75,7.56,1.97,15.22,0.69,22.88"/>
	<path class="st0" d="M170.01,448.51c-0.18,0.18-0.36,0.37-0.55,0.54c-7.88,7.21-17.56,7.02-27.26,6.51
		c-5.09-0.27-9.87,1.1-14.72,2.2c-7.77,1.76-15.64,1.52-23.43,0.45c-4.92-0.67-9.55-0.28-14.19,1.19"/>
	<path class="st0" d="M345.01,417.43c-0.91-0.36-1.87-1.13-2.72-1.03c-12.83,1.52-23.06-5.3-33.8-10.44
		c-5.56-2.66-7.46-1.99-11.54,2.68c-4.46,5.11-7.63,11.94-15.46,13.15"/>
	<path class="st0" d="M440.97,923.1c4.45,0.6,8.61,2.5,13.26,2.46c-0.3,12.95,2.64,25.17,2.05,37.61c-0.11,2.26-0.16,4.46-1.13,6.54
		"/>
	<path class="st0" d="M668.31,1072.2c-1.4,7.75-2.21,15.6-1.55,23.44c0.67,7.93-4.14,15.87,0.12,24c2.7,0,5.33,0,7.97,0"/>
	<path class="st0" d="M197.81,392.35c0.09,1.92,0.16,3.39-2.73,3.35c-10.86-0.15-21.85,0.93-31.67-5.46
		c-1.46-0.95-3.44-1.86-5.4-0.62"/>
	<path class="st0" d="M297.04,409.8c3.37,5.98,7.86,11.16,11.27,17.24c5.68,10.13,23.49,12.32,33.93,5.58
		c1.61-1.04,3.01-1.82,4.94-2.2c4.22-0.84,6.89-6.21,5.47-10.26c-0.73-2.09-2.49-3.34-4.38-3.69c-1.61-0.3-3.33,0.75-3.76,2.61
		c-1.26,5.41-5.82,5.72-9.85,5.88c-7.94,0.31-16.03,0.96-23.46-3.13c-1.22-0.67-2.49,0.6-3.8,0.51"/>
	<path class="st0" d="M490.03,1105.19c-11.54,4.76-23.9,5.98-35.97,8.53c-6.35,1.34-13.08,0.75-19.1,3.74"/>
	<path class="st0" d="M310.12,370c-3.69-1.81-6.86-4.49-10.41-6.45c-9.72-5.37-20.51-7.22-27.58-0.46
		c-5.88,5.62-10.99,12.88-11.82,21.12c-0.62,6.11-3.89,10.61-6.05,15.67c-2.33,5.45-3.51,11.78-8.47,15.92"/>
	<path class="st0" d="M258.87,392.9c9.78,4.2,19.91,7.07,30.53,8.2c3.07,0.33,4.46,3.12,6.54,4.88"/>
	<path class="st0" d="M205.99,433.24c6.14-4.66,5.93-4.49,10.96,1.59c6.17,7.46,13.45,13.32,23.36,15.44
		c3.64,0.78,7.02,2.71,10.93,1.77"/>
	<path class="st0" d="M625.79,1102.19c13.16,2.84,25.55,8.04,38.16,12.54"/>
	<path class="st0" d="M150.93,370.55c-1.99,3.27-1.74,7.16,0.16,9.69c4.94,6.58,6.94,14.57,11.24,21.41
		c3.68,5.85,8.38,10.01,15.3,11.45c2.72,0.57,4.46,3.64,7.64,3.24"/>
	<path class="st0" d="M208.17,380.36c-0.76,6.6-0.29,13.35-3.22,19.65c-2.98,6.4-6.26,12.12-14.21,13.15
		c-1.59,0.21-3.2,1.27-4.37,2.64"/>
	<path class="st0" d="M220.71,386.9c7.01,5.06,15.22,6.05,23.45,6.43c3.95,0.18,7.66,0.35,10.9,2.84"/>
	<path class="st0" d="M172.19,487.22c0.15-3.14,2.44-5.48,2.91-8.7c0.87-6,5.34-7.4,10.1-3.21c4.52,3.98,8.45,8.63,12.61,13.01
		c3.2,3.37,6.35,6.73,10.3,9.36c2.68,1.79,5.33,4.34,2.25,8.08"/>
	<path class="st0" d="M286.68,577.72c-1.28-1.2-0.04-2.14,0.58-2.68c5.61-4.8,11.1-9.82,17.48-13.55c2.41-1.41,4.91-2.66,6.99-4.51
		c2.84-2.53,5.87-2.34,8.72-0.48c10.15,6.61,19.32,14.7,29.58,21.04c13.59,8.4,25.12,19.36,38.05,28.53"/>
	<path class="st0" d="M488.4,1064.57c-7.34,2.99-15.2,3.63-22.92,4.79c-2.71,0.41-5.37,1.36-8.16,1.21"/>
	<path class="st0" d="M686.85,921.73c-14.85,6.08-29.97,11.23-45.77,14.29c-1.5,0.29-2.94,0.14-4.38,0.43"/>
	<path class="st0" d="M451.87,724.37c-2.47,8.37-2.04,17.1-3.28,25.62c-0.26,1.8,0.7,3.28,1.1,4.91"/>
	<path class="st0" d="M691.21,980.61c-9.39,1.57-18.83,2.78-28.35,3.27"/>
	<path class="st0" d="M651.41,904.29c1.93,7.14,1.62,14.61,3.15,21.83c0.42,1.97,0.98,3.95,1.22,5.97"/>
	<path class="st0" d="M338.47,458.32c0.88-0.42,1.3-2.42,2.7-1.07c3.88,3.76,7.83,7.54,7.65,13.61c-0.13,4.38,0.53,8.83-1.09,13.08"
		/>
	<path class="st0" d="M223.44,399.44c-0.07,5.67,4.99,11.65,10.35,12.57c7.22,1.24,14.57,4.41,18.68,9.56
		c5.51,6.89,12.24,12.64,17.37,19.81c0.77,1.08,1.52,2.57,3.21,2.77"/>
	<path class="st0" d="M642.69,1054.21c-0.48,3.4,2,4.56,4.34,6.03c11.88,7.45,25.04,11.87,38.19,16.3c2.48,0.84,5.25,1.03,6.53,3.84
		"/>
	<path class="st0" d="M643.23,766.9c-0.65,6.26-2.1,12.37-3.26,18.54c-0.48,2.53-0.51,5.09-0.01,7.63"/>
	<path class="st0" d="M620.33,1020.41c-6.98-6.94-15.11-11.58-25.08-12.54"/>
	<path class="st0" d="M186.36,416.89c2.28,3.24,5.98,3.08,9.27,3.79c5.91,1.28,11.43,3.11,14.71,8.75"/>
	<path class="st0" d="M691.21,1022.59c-8.01,0.45-15.99-0.53-23.99-0.55"/>
	<path class="st0" d="M476.4,721.65c-10.14,1.34-20.28,2.36-30.54,1.14c-2.87-0.34-5.81-0.05-8.72-0.05"/>
	<path class="st0" d="M255.6,398.9c3.14,3.33,7.31,5.26,7.45,11.44c0.14,6.17,4.78,8.81,12.18,9.19c3.61,0.18,6.11,1.18,6.49,5
		c0.26,2.52,2.44,3.35,3.93,4.23c4.19,2.49,7.48,6.12,11.47,8.69c2.97,1.91,3.84,4.25,4.26,7.24"/>
	<path class="st0" d="M286.68,409.8c-5.72,2.55-10.63-0.85-15.8-2.2c-2.34-0.61-4.58-1.68-7.09-1.07"/>
	<path class="st0" d="M175.46,474.13c-7.58-0.17-14.81,2.61-22.35,2.73"/>
	<path class="st0" d="M414.25,878.66c-4.16,3.54-4.41,4.78-1.06,8.15c3.57,3.59,7.79,6.6,12.57,8.02c3.16,0.93,4.99,2.73,6.44,5.12
		c4.68,7.72,10.55,10.41,19.67,8.7"/>
	<path class="st0" d="M340.11,546.1c-7.95,0.76-14.97,3.58-20.72,9.27"/>
	<path class="st0" d="M623.6,977.89c-0.96,3.48,0.33,5.48,3.8,6.59c4.43,1.42,8.74,3.22,13.1,4.85"/>
	<path class="st0" d="M449.69,863.4c-7.13-0.93-13.29-4.84-20.17-6.54"/>
	<path class="st0" d="M388.08,607.7c-2.78,5.1-6.89,9.31-9.43,14.64c-1.04,2.18-1.57,4.47-2.56,6.62"/>
	<path class="st0" d="M660.13,793.07c-6.95-1.31-13.83-0.33-20.72,0.55"/>
	<path class="st0" d="M564.18,1095.1c-0.36,4.97,4.11,6.72,6.56,9.8c2.27,2.84,6.17,4.69,5.43,9.28"/>
	<path class="st0" d="M352.65,580.99c-3.82,3.63-7.77,7.14-11.39,10.96c-1.77,1.86-4.21,3.76-3.06,7.03"/>
	<path class="st0" d="M587.08,921.19c0.18,0.91-0.56,2.21,0.56,2.69c5.17,2.2,8.93,7.42,15.25,7.13"/>
	<path class="st0" d="M455.14,926.64c6.14-0.43,12,1.44,17.99,2.18"/>
	<path class="st0" d="M645.96,764.72c3.46,0.7,6.97,1.04,10.38,2.12c3.25,1.02,6.06,2.19,6.52,6.06"/>
	<path class="st0" d="M440.42,622.97c-6.06,1.03-12.06,0.98-17.99-0.82"/>
	<path class="st0" d="M663.4,900.2c-9.75,3.43-19.98,4.94-29.99,7.36"/>
	<path class="st0" d="M325.39,437.61c2.91,7.13,9.42,10.91,14.72,15.81"/>
	<path class="st0" d="M491.67,950.08c-5.81,0.45-11.48,3.1-17.45,1.09"/>
	<path class="st0" d="M497.67,801.25c-5.42,2.37-11.23,1.75-16.9,2.18"/>
	<path class="st0" d="M466.05,601.71c-0.81,5.43,1.71,10.97-0.55,16.36"/>
	<path class="st0" d="M579.44,1064.84c4.23,4.83,9.8,7.29,15.81,9"/>
	<path class="st0" d="M623.6,794.16c5.09,0.06,10.18-1.41,15.27,0l2.18,34.89c4.98-1.74,9.8,0.61,14.72,0.58
		c6.85-0.04,6.85,0.06,8.18-6.57"/>
	<path class="st0" d="M360.82,566.81c1.48,5.67-2.98,9.19-4.91,13.63"/>
	<path class="st0" d="M455.14,1071.66c-4.58-0.14-9.15-0.03-13.63,1.09"/>
	<path class="st0" d="M296.49,453.42c0.44-3.42,2.29-6.13,4.77-9.24c5.07,7.59,6.07,15.99,6.67,24.51"/>
	<path class="st0" d="M244.7,452.87c-1.07,4.14-1.78,8.3-0.55,12.54"/>
	<path class="st0" d="M427.88,895.02c0.11-3.53,1.73-5.6,5.44-4.84c1.85,0.38,3.2,1.89,3.8,3.75c0.6,1.86-1.31,2.25-2.15,3.26
		c-0.72,0.86-1.63,1.41-2.73,1.64"/>
	<path class="st0" d="M458.41,973.53c4.83,0.41,8.1,3.55,11.45,6.54"/>
	<path class="st0" d="M469.86,854.67c4.34,1.02,8.53,2.76,13.08,2.73"/>
	<path class="st0" d="M613.79,893.38c-4.01,0.05-7.78-0.76-11.18-3"/>
	<path class="st0" d="M450.78,816.51c4.4-0.7,8.68,1.34,13.08,0.55"/>
	<path class="st0" d="M274.14,430.25c-1.47,0.63-2.58-0.01-3.84-0.78c-3.12-1.9-6.02-1.92-8.15,1.6"/>
	<path class="st0" d="M315.57,446.6c-4.19,1.33-4.8,5.89-7.63,8.45"/>
	<path class="st0" d="M140.57,438.15c-2.38,3.14-5.13,6.03-6.54,9.81"/>
	<path class="st0" d="M482.95,701.48c3.63,0.55,7.27,1.09,10.9,1.64"/>
	<path class="st0" d="M425.16,604.98c3.36,1.13,7.04-0.13,10.36,1.36"/>
</g>
<path class="st0" d="M421.73,301.51"/>
</svg>
