<?xml version="1.0" encoding="utf-8"?>
<!-- Generator: Adobe Illustrator 25.4.1, SVG Export Plug-In . SVG Version: 6.00 Build 0)  -->
<svg version="1.1" id="Layer_1" xmlns="http://www.w3.org/2000/svg" xmlns:xlink="http://www.w3.org/1999/xlink" x="0px" y="0px"
	 viewBox="0 0 1117 1117" style="enable-background:new 0 0 1117 1117;" xml:space="preserve">
<style type="text/css">
	.st0{fill:none;stroke:#000000;stroke-width:2;stroke-linecap:round;stroke-linejoin:round;stroke-miterlimit:10;}
</style>
<g>
	<path class="st0" d="M822.4,402.85c4.11-11.99-0.08-21.86-7.57-31.13c-3.75-4.63-7.29-9.35-12.03-13.07
		c-2.02-1.58-4.19-1.69-5.98-0.45c-8.86,6.17-18.32,11.44-26.29,18.94c-7.23,6.79-12.36,15.24-19.03,22.41
		c-21.2,22.8-46.09,39.57-76.21,48.83c-12.29,3.78-24.72,6.64-37.2,9.36c-7.79,1.69-15.95,1.64-23.95,2.36
		c-10.96,0.99-21.48,4.21-32.16,6.59c-15.41,3.43-30.79,7.08-45.77,12.04c-10.21,3.38-20.53,6.34-30.14,11.67
		c-7.92,4.39-16.92,6.88-25.51,10.01c-8.28,3.02-15.92,7.56-24.48,10c-2.36,0.67-4.62,1.63-7.11,2.14
		c-3.56,0.72-7.04,2.03-9.31,5.33c-3.38,4.92-9.33,7.79-11.84,13.16c-4.45,9.54-7.95,19.53-9.91,29.93
		c-1.36,7.22-3.27,14.43-3.24,21.8c0.05,13.81,3.94,27.01,6.93,40.36c2.77,12.37,9.91,22.47,15.83,33.27
		c11.01,20.1,19.36,41.36,26.22,63.21c3.34,10.64,8.57,20.61,11.04,31.59c0.7,3.1,2.02,6.15,2.51,9.31c0.4,2.53,1.45,4.35,3.87,3.66
		c2.28-0.66,6.67,0.85,6.04-4.22"/>
	<path class="st0" d="M1025.21,433.38c1.19-4.4,4.43-7.78,6-11.99c4.71-12.62,4.92-25.2-0.59-37.6c-2.47-5.56-5.29-10.99-8.18-16.35
		c-2.03-3.78-5.5-4.76-9.73-5.69c-12.63-2.77-25.5-2.64-38.22-4.07c-8.37-0.94-12.81,1.21-7.08,10.83"/>
	<path class="st0" d="M910.17,500.43c-15.71,4.8-29.71,13.26-44.12,20.8c-16.72,8.74-33.12,18.09-49.65,27.19
		c-2.41,1.32-5.31,2-6.55,4.9"/>
	<path class="st0" d="M510,647.64c-1.41,6.03-5.04,11.14-7.09,16.9c-4.05,11.4-1.89,22.48,2.26,33.23
		c5.05,13.06,8.46,26.4,9.94,40.35c0.41,3.87-0.44,7.3-0.75,10.93"/>
	<path class="st0" d="M982.14,437.74c-5.69,1.66-11.3,0.02-16.89-0.62c-5.65-0.65-10.14,1.5-12.36,6.16
		c-2.33,4.92-3.8,10.1,0.14,15.86c3.99,5.84,8.49,8.66,15.47,8.69c5.27,0.02,10.26,1.81,15.35,3.44c6.16,1.98,13.02,2.21,19.53,0.75
		c8.76-1.97,17.03-5.66,25.67-8c6.18-1.67,4.66-6.72,5.25-10.5c0.73-4.68-0.36-9.54-1.56-14.12c-1.15-4.38-4.95-5.61-9.73-4.44
		c-7.34,1.79-14.88,1.28-22.34,1.06c-4.63-0.14-7.32,0.38-8.55,6c-0.78,3.57-3.94,6.88-4.54,10.98"/>
	<path class="st0" d="M863.02,355.63l-7.78,10.59l14.26-17.68l4.32-1.85l8.33,0.93l12.77,6.71c10.07-5.46,17.75-13.44,23.96-22.92
		c2.94-4.48,5.73-9.25,10.49-11.78c2.17-1.15,4.29-3.06,8.18-1.57c10.77,4.13,16.73,11.97,20.59,22.1
		c2.41,6.34,3.73,13.09,7.11,19.07"/>
	<path class="st0" d="M688.28,641.64c-0.05,4.38-3.6,7.05-5.64,10.24c-10.64,16.59-15.47,34.53-13.88,54.08
		c0.41,5.08,1.42,10.14,1.53,15.27"/>
	<path class="st0" d="M483.84,825.37c-3.44,2.57-2.02,6.78-2.4,9.85c-1.69,13.84-5.21,27.26-7.73,40.89
		c-1.52,8.2-2.34,16.65-2.95,25.04"/>
	<path class="st0" d="M684.46,955.12c-0.51,5.31-5.23,7.22-8.81,8.48c-9.25,3.24-11.05,9.29-10.47,18.25
		c0.81,12.5-0.93,25.09-0.68,37.6c0.29,14.71-0.04,29.46,1.75,44.19c1.09,9.01,1.35,18.17,2.39,27.23
		c0.79,6.92,2.44,13.73,2.74,20.72"/>
	<path class="st0" d="M694.28,757.76c-4.98,0.39-9.51-1.52-14.18-2.72c-4.32-1.11-5.57-0.12-6.02,4.36c-0.32,3.2,1.23,6.14,1.1,9.27
		c-0.51,12.72-0.9,25.45-1.78,38.15c-0.15,2.21,0.2,4.04,0.71,6.01"/>
	<path class="st0" d="M467.48,931.13c-2.9,6.23-2.59,13.08-3.73,19.64c-1.76,10.08-1.55,20.38-2.87,30.58
		c-1.44,11.12-1.71,22.52-3.19,33.74c-0.26,1.94,0.34,3.36,2.71,3.28c1.63-0.06,3.27-0.01,4.91-0.01"/>
	<path class="st0" d="M712.81,1029.27c-2.24,3.78-6.41,3.75-9.83,4.22c-12.49,1.7-25.06,2.01-37.6,0.14"/>
	<path class="st0" d="M972.32,363.05c-0.07,1.65,0.28,3.34-0.32,4.52c-8.41,3.62-16.79,6.25-25.26,8.69
		c-4.99,1.44-10.02,2.94-14.82,5.2c-4.87,2.29-10.32,2.72-15.75,2.3"/>
	<path class="st0" d="M457.67,1018.36c-2.76,2.97-2.22,6.93-2.57,10.37c-1.2,11.59-2.12,23.24-0.2,34.88
		c0.22,1.35,0.44,2.63,1.13,3.81"/>
	<path class="st0" d="M725.63,589.57c3.11,4.93,4.84,10.69,9.37,14.99c-6.92,4.04-12.1,9.76-17.67,14.88
		c-7.43,6.82-16.94,11.09-23.17,19.37c-1.07,1.42-3.99,2.41-5.85,2.14c-11.83-1.72-23.98-1.24-35.47-5.28
		c-2.61-0.92-5.27-1.57-6.53-4.39"/>
	<path class="st0" d="M685.01,808.47c-2.69,4.69-7.95,3.74-12.24,5.4c1.21,15.51-0.29,31-0.93,46.36
		c-0.55,13.24-0.08,26.58-1.4,39.84c-0.75,7.56-1.97,15.22-0.69,22.88"/>
	<path class="st0" d="M952.7,446.46c0.18,0.18,0.36,0.37,0.55,0.54c7.88,7.21,17.56,7.05,27.26,6.5c5.11-0.29,9.87,1.1,14.73,2.21
		c7.77,1.78,15.64,1.52,23.43,0.46c4.92-0.67,9.55-0.28,14.19,1.19"/>
	<path class="st0" d="M841.48,420.29c-7.49-1.96-11.3-8.26-15.76-13.67c-3.95-4.79-6.02-5.52-11.49-2.67
		c-5.86,3.04-11.94,5.57-17.96,8.24c-3.21,1.43-6.38,2.17-9.85,2.12c-2.94-0.04-5.96-0.45-8.72,1.07"/>
	<path class="st0" d="M681.74,921.05c-4.45,0.59-8.6,2.53-13.26,2.46c0.3,12.95-2.64,25.17-2.05,37.62
		c0.11,2.26,0.16,4.46,1.13,6.54"/>
	<path class="st0" d="M454.39,1070.16c0.75,5.61,1.9,11.19,1.63,16.9c-0.38,8.06,0.54,16.03,1.6,23.99
		c0.09,0.69,0.79,1.11,0.17,2.25c-1.3,2.39-1.8,5.17-5.59,4.34c-1.39-0.3-2.9-0.05-4.35-0.05"/>
	<path class="st0" d="M964.69,387.58c-1.96-1.25-3.95-0.33-5.4,0.62c-9.82,6.38-20.81,5.3-31.67,5.46
		c-2.89,0.04-2.82-1.43-2.73-3.35"/>
	<path class="st0" d="M825.67,407.75c-3.37,5.98-7.86,11.16-11.27,17.24c-5.68,10.13-23.49,12.32-33.93,5.58
		c-1.61-1.04-3.01-1.82-4.94-2.2c-4.22-0.84-6.89-6.21-5.47-10.26c0.73-2.09,2.49-3.34,4.38-3.69c1.6-0.3,3.33,0.75,3.76,2.61
		c1.26,5.41,5.82,5.72,9.85,5.88c7.94,0.31,16.03,0.96,23.46-3.12c1.22-0.67,2.49,0.6,3.8,0.51"/>
	<path class="st0" d="M876.92,413.75c-4.93-5.05-5.85-12.22-9.39-17.91c-5.75-9.24-5.43-20.74-12.29-29.62
		c-7.23-9.37-14.34-10.64-25.24-7.66c-6.67,1.82-11.29,6.89-17.41,9.4"/>
	<path class="st0" d="M687.74,1115.41c-9.16-3.32-18.95-3.37-28.36-5.39c-8.92-1.92-17.98-3.17-26.43-6.88"/>
	<path class="st0" d="M496.92,1100.14c-13.16,2.84-25.55,8.04-38.16,12.54"/>
	<path class="st0" d="M863.83,390.85c-9.78,4.2-19.91,7.07-30.53,8.2c-3.07,0.33-4.46,3.12-6.54,4.88"/>
	<path class="st0" d="M916.71,431.2c-6.14-4.66-5.93-4.49-10.96,1.59c-6.17,7.46-13.45,13.32-23.36,15.44
		c-3.64,0.78-7.02,2.71-10.93,1.77"/>
	<path class="st0" d="M971.78,368.5c1.99,3.27,1.74,7.16-0.16,9.69c-4.94,6.58-6.94,14.57-11.24,21.41
		c-3.68,5.85-8.38,10.01-15.3,11.45c-2.72,0.57-4.46,3.64-7.64,3.24"/>
	<path class="st0" d="M914.53,378.31c0.76,6.6,0.29,13.35,3.22,19.65c2.98,6.4,6.26,12.12,14.21,13.15c1.59,0.21,3.2,1.27,4.37,2.64
		"/>
	<path class="st0" d="M912.35,503.71c-3.08-3.74-0.44-6.3,2.24-8.09c6.44-4.33,10.99-10.48,16.36-15.83
		c3.31-3.3,5.86-7.6,11.36-8.41c2.66-0.4,4.08-1.42,4.5,2.34c0.44,3.99,2.22,7.72,3.71,11.46"/>
	<path class="st0" d="M836.03,575.67c1.28-1.2,0.04-2.14-0.58-2.68c-5.61-4.8-11.1-9.82-17.48-13.55c-2.41-1.41-4.91-2.66-6.99-4.51
		c-2.84-2.53-5.87-2.34-8.72-0.48c-10.15,6.61-19.32,14.7-29.58,21.04c-13.59,8.4-25.12,19.36-38.05,28.53"/>
	<path class="st0" d="M462.57,791.02c6.95-1.4,13.83-0.21,21.06,0.51c0.96,9.47,1.83,18.88,0.25,28.39
		c-0.8,4.81,0.43,5.53,5.41,4.95c8.77-1.02,17.29-3.63,26.16-3.87"/>
	<path class="st0" d="M634.31,1062.52c7.34,2.99,15.2,3.63,22.92,4.79c2.71,0.41,5.37,1.36,8.16,1.21"/>
	<path class="st0" d="M435.86,919.68c14.85,6.08,29.97,11.23,45.77,14.29c1.5,0.29,2.94,0.14,4.38,0.43"/>
	<path class="st0" d="M670.83,722.33c2.47,8.37,2.04,17.1,3.28,25.62c0.26,1.8-0.7,3.28-1.1,4.91"/>
	<path class="st0" d="M459.85,981.84c-9.52-0.5-18.95-1.7-28.35-3.27"/>
	<path class="st0" d="M471.3,902.24c-1.93,7.14-1.62,14.61-3.15,21.83c-0.42,1.97-0.98,3.95-1.22,5.97"/>
	<path class="st0" d="M784.23,456.27c-0.88-0.42-1.3-2.42-2.7-1.07c-3.88,3.76-7.83,7.54-7.65,13.61c0.13,4.38-0.53,8.83,1.09,13.08
		"/>
	<path class="st0" d="M857.83,414.84c2.48,2.98,6.53,0.53,9.28,2.71c3.04,2.42,6.08,0.67,8.06-1.2c3.97-3.75,8.93-5.01,13.78-6.3
		c4.87-1.3,9.77-6.39,10.32-12.12l3.27-13.08c-8.2,5.06-17.29,6.76-26.71,6.41c-3.37-0.12-5.47,1.91-8.18,2.86"/>
	<path class="st0" d="M480.02,1052.17c0.48,3.4-2,4.56-4.34,6.03c-11.88,7.45-25.04,11.87-38.19,16.3
		c-2.48,0.84-5.25,1.03-6.53,3.84"/>
	<path class="st0" d="M479.47,764.85c0.65,6.26,2.1,12.37,3.26,18.54c0.48,2.53,0.51,5.09,0.01,7.63"/>
	<path class="st0" d="M527.45,1005.82c-9.97,0.96-18.1,5.6-25.08,12.54"/>
	<path class="st0" d="M936.34,414.84c-2.28,3.24-5.98,3.08-9.27,3.79c-5.91,1.28-11.43,3.11-14.71,8.75"/>
	<path class="st0" d="M455.49,1020c-8,0.01-15.98,1-23.99,0.55"/>
	<path class="st0" d="M685.55,720.69c-9.27-0.05-18.51,1.17-27.82,0.09c-3.8-0.44-7.7,0-11.44-1.18"/>
	<path class="st0" d="M858.92,404.48c-6.05-0.59-11.09,3.22-16.88,3.94c-2.21,0.28-4.11,0.52-6.01-0.67"/>
	<path class="st0" d="M947.25,472.09c7.58-0.17,14.81,2.61,22.35,2.73"/>
	<path class="st0" d="M867.1,396.85c-3.14,3.33-7.29,5.26-7.46,11.44c-0.17,6.26-4.34,8.72-11.63,9.17
		c-3.73,0.23-6.14,1.01-7.16,4.99c-0.89,3.45-4.29,4.83-7.05,6.49c-1.38,0.83-2.49,2-3.81,2.73c-8.67,4.79-11.02,13.89-13.68,22.03
		c-1.19,3.63-2.68,8.45-1.55,12.93"/>
	<path class="st0" d="M708.45,876.61c4.16,3.54,4.41,4.78,1.06,8.15c-3.57,3.59-7.79,6.6-12.57,8.02c-3.16,0.93-4.99,2.73-6.44,5.12
		c-4.68,7.72-10.55,10.41-19.67,8.7"/>
	<path class="st0" d="M803.32,553.32c-5.74-5.69-12.77-8.51-20.72-9.27"/>
	<path class="st0" d="M499.1,975.84c0.96,3.48-0.4,5.34-3.78,6.63c-4.27,1.64-8.85,2.46-12.85,4.82"/>
	<path class="st0" d="M693.19,854.81c-6.88,1.7-13.04,5.62-20.17,6.54"/>
	<path class="st0" d="M734.62,605.66c2.78,5.1,6.89,9.31,9.43,14.64c1.04,2.18,1.57,4.47,2.56,6.62"/>
	<path class="st0" d="M481.65,827c-4.98-1.74-9.8,0.61-14.72,0.58c-6.85-0.04-6.85,0.06-8.18-6.57"/>
	<path class="st0" d="M770.06,578.94c3.82,3.63,7.77,7.14,11.39,10.96c1.77,1.86,4.21,3.76,3.06,7.03"/>
	<path class="st0" d="M558.53,1093.05c0.36,4.97-4.11,6.72-6.56,9.8c-2.27,2.84-6.17,4.69-5.43,9.28"/>
	<path class="st0" d="M535.63,919.14c-0.18,0.91,0.56,2.21-0.56,2.69c-5.17,2.2-8.93,7.42-15.25,7.13"/>
	<path class="st0" d="M700.27,620.1c-5.93,1.8-11.93,1.85-17.99,0.82"/>
	<path class="st0" d="M476.75,762.67c-3.46,0.7-6.97,1.04-10.38,2.12c-3.25,1.02-6.06,2.19-6.52,6.06"/>
	<path class="st0" d="M667.56,924.59c-6.14-0.43-12,1.44-17.99,2.18"/>
	<path class="st0" d="M489.29,905.51c-9.9-2.46-20.09-3.79-29.71-7.36"/>
	<path class="st0" d="M797.32,435.56c-2.91,7.13-9.42,10.91-14.72,15.81"/>
	<path class="st0" d="M648.48,949.12c-5.96,2.01-11.64-0.64-17.45-1.09"/>
	<path class="st0" d="M625.04,799.2c5.42,2.37,11.23,1.75,16.9,2.18"/>
	<path class="st0" d="M656.66,599.66c0.81,5.43-1.71,10.97,0.55,16.36"/>
	<path class="st0" d="M543.26,1062.8c-4.23,4.83-9.8,7.29-15.81,9"/>
	<path class="st0" d="M499.1,792.11c-4.91,0.14-9.81-1.51-14.72,0"/>
	<path class="st0" d="M869.83,419.2c-5.26,8.92-13.07,15.6-20.17,22.9"/>
	<path class="st0" d="M761.88,564.77c-1.48,5.67,2.98,9.19,4.91,13.63"/>
	<path class="st0" d="M878.01,450.82c1.07,4.14,1.78,8.3,0.55,12.54"/>
	<path class="st0" d="M667.56,1069.61c4.58-0.14,9.15-0.03,13.63,1.09"/>
	<path class="st0" d="M694.82,892.97c-0.11-3.53-1.73-5.6-5.44-4.84c-1.85,0.38-3.2,1.89-3.8,3.75c-0.6,1.86,1.31,2.25,2.16,3.26
		c0.72,0.86,1.63,1.41,2.73,1.64"/>
	<path class="st0" d="M520.36,888.34c-3.58,1.92-7.34,3.12-11.45,3"/>
	<path class="st0" d="M652.84,852.63c-4.34,1.02-8.53,2.76-13.08,2.73"/>
	<path class="st0" d="M664.29,971.48c-4.83,0.41-8.1,3.55-11.45,6.54"/>
	<path class="st0" d="M671.93,814.46c-4.4-0.7-8.68,1.34-13.08,0.55"/>
	<path class="st0" d="M860.56,429.02c-2.13-3.51-5.03-3.49-8.16-1.6c-1.25,0.75-2.3,1.76-3.84,0.78"/>
	<path class="st0" d="M982.14,436.1c2.38,3.14,5.13,6.03,6.54,9.81"/>
	<path class="st0" d="M639.76,699.43c-3.63,0.55-7.27,1.09-10.9,1.64"/>
	<path class="st0" d="M697.55,602.93c-3.36,1.13-7.04-0.13-10.36,1.36"/>
</g>
<path class="st0" d="M432.84,315.79"/>
<path class="st0" d="M902.5,382.78l-7.59-28.45L902.5,382.78z"/>
</svg>
