<?xml version="1.0" encoding="utf-8"?>
<!-- Generator: Adobe Illustrator 25.4.1, SVG Export Plug-In . SVG Version: 6.00 Build 0)  -->
<svg version="1.1" id="Layer_1" xmlns="http://www.w3.org/2000/svg" xmlns:xlink="http://www.w3.org/1999/xlink" x="0px" y="0px"
	 viewBox="0 0 1117 1117" style="enable-background:new 0 0 1117 1117;" xml:space="preserve">
<style type="text/css">
	.st0{fill:none;stroke:#000000;stroke-width:2;stroke-linecap:round;stroke-linejoin:round;stroke-miterlimit:10;}
</style>
<g>
	<path class="st0" d="M635.05,83.45c-0.95-4.86,1.34-6.75,5.98-7.73c12.89-2.73,25.76-4.33,38.72-0.95
		c10.03,2.61,18.9,7.17,23.94,16.9c0.74,1.43,1.78,3.14,1.11,4.87c-1.89,4.89,0.25,8.34,3.19,12.11c2.98,3.8,3.44,8.84,3.87,13.55
		c1.1,12.08,0.56,24.12-2.14,35.99c-0.67,2.95-0.47,5.78-0.05,8.74c0.89,6.21-0.66,12.39-2.84,17.92
		c-6.74,17.12-9.57,34.72-8.49,52.98c0.47,8.01,2.35,15.9,2.18,24c-0.08,3.99-0.43,7.88-2.26,11.44
		c-3.99,7.76-5.69,16.22-7.96,24.54c-2.46,9.01-5.64,17.81-8.35,26.75c-5.13,16.9-13.1,32.85-16.89,50.18
		c-1.66,7.59-2.76,15.31-4.44,22.89c-2.5,11.26-8.11,21.4-11.98,32.18c-5.39,15.01-9.99,30.23-9.16,46.37
		c0.9,17.45-0.25,34.93,0.97,52.37c0.26,3.77,1.27,7.39,2.36,10.86c2.16,6.93,1.81,13.64,1.23,20.79
		c-0.83,10.28-2.27,20.66-0.86,31.07c1.74,12.76,0.31,25.5-1.14,38.17c-1.08,9.45-1.49,18.94-2.65,28.37
		c-0.68,5.56-2.21,10.75-4.65,15.93c-2.03,4.32-3.97,9.1-1.57,14.72c1.94,4.56,1.01,10.09,0.74,15.17
		c-1.06,20.17-1.76,40.34-1.66,60.55c0.06,12.73,0.46,25.45,0.55,38.18c0.01,1.98,1.06,3.58,1.16,5.45"/>
	<path class="st0" d="M439.33,239.45c-2.29,6-3.66,12.1-2.02,18.5c-9.91,6.29-11.53,16.88-13.66,26.8c-4,18.67-1.2,37.2,2.59,55.61
		c4.44,21.54,9.83,42.87,14.23,64.41c1.64,8.03,2.09,16.5,4.05,24.43c2.03,8.19,2.4,16.4,3.22,24.62
		c1.97,19.77,4.87,39.52,3.49,59.44c-0.75,10.82-3.16,21.46-4.75,32.2c-1.74,11.78-2.4,23.69-4.38,35.45
		c-0.62,3.67-1.67,7.22-2.34,10.88c-2.01,10.99-0.02,21.61,2.34,32.19c2.44,10.93,3.53,22.16,7.5,32.77c1.35,3.62,2.9,6.9,5.48,9.83
		c2.81,3.19,5.73,6.4,6.64,10.85c0.35,1.69,1.22,3.75,2.72,4.27c9.27,3.27,13.82,11.89,19.87,18.35
		c14.6,15.58,31.85,20.85,52.62,19.61c16.15-0.96,31.97-3.93,47.94-5.84c7.46-0.89,14.74-3.36,21.3-7.45
		c2.44-1.52,5.13-2.61,8.16-1.67"/>
	<path class="st0" d="M631.24,685.09c-5.46,3.03-8.21,8.52-12.1,13c-3.86,4.44-4.51,10.28-7.93,14.93
		c-4.42,6-10.29,9.07-17.06,10.75c-14.12,3.49-28.48,5.45-43.06,5.5c-4.97,0.02-9.89,0.72-14.7,1.72
		c-9.84,2.04-19.4,0.91-28.91-1.71"/>
	<path class="st0" d="M657.95,795.82c-0.11,0.75,0.41,1.78-0.55,2.16c-7.73,3.05-14.19,9.03-22.88,9.9
		c-0.59,0.06-1.1,1.03-1.64,1.57c1.9,4.36,1.53,9.09,2.1,13.65c1.16,9.28,2.78,18.48,3.72,27.8c1.6,15.8,4.05,31.53,3.98,47.46
		c-0.01,3.2,0.03,6.37,1.65,9.27"/>
	<path class="st0" d="M463.86,682.36c0.01,3.13,0.19,6.16,0.96,9.3c2.62,10.75,3.07,21.9,5.57,32.7c1.66,7.19,5.94,13.6,6.13,21.27
		c0.03,1.19,0.77,2.7,0.36,3.79c-3.43,9.14,3.29,11.75,9.34,14.74c12.4,6.12,25.6,7.97,39.24,6.8c16.53-1.42,32.85-5.44,49.61-4.06"
		/>
	<path class="st0" d="M556,120c-5.27-8.12-1.08-16.58,9.26-19.14c5.25-1.3,10.53-0.95,15.82-1.05c0.95-0.02,1.96-0.13,2.72,0.56
		c7.51,6.74,16.24,11.96,23.47,19.06c3.56,3.5,3.99,7,3,12.08c-1.37,7.04-1.25,14.53-0.67,21.75c0.55,6.79,5.25,11.42,10.7,15.33
		c6.62,4.76,13.55,8.45,21.84,9.26c5.9,0.58,11.19,3.53,16.9,4.87"/>
	<path class="st0" d="M546.73,539.45c-2.91,1.05-5.82-0.02-8.72-0.02c-21.18,0-42.34,0.4-63.24,4.39c-4.18,0.8-8.36,1.63-12.54,2.45
		"/>
	<path class="st0" d="M587.62,104.73c-2.46,1.01-4.72,2.62-7.63,2.2c-7.03-1.02-11.95,2.4-17.03,6.93
		c-7.23,6.44-12.18,14.64-16.25,22.77c-2.64,5.28-3.15,13.32,2.17,19.41c10.58,12.11,22.99,20.14,39.84,19.09
		c2.32-0.14,4.37-0.48,6.61-1.53c5.14-2.41,10.56-2.35,15.75,0.41"/>
	<path class="st0" d="M538.01,300.55c6.24,21.55,8.97,43.92,15.27,65.45c-1.49,11.33,7.02,17.03,13.72,23.36
		c10.37,9.8,22.27,17.78,33.69,26.31c3.92,2.93,7.64,6.12,10.93,9.79"/>
	<path class="st0" d="M703.2,100.36c-3.81-1.38-6.42-4.52-9.79-6.59c-13.1-8.05-27.25-11.47-42.55-10.33
		c-1.08,0.08-2.2,0.14-3.27-0.01c-14.85-2.06-23.17,6.68-30.01,18.01c-2.65,4.39-3.57,9.34-4.16,14.22
		c-0.33,2.72-1.54,4.53-2.91,6.52"/>
	<path class="st0" d="M455.14,958.91c-2.38,6.21-1.19,12.77-1.44,19.1c-0.64,16.17,0.14,32.36,0.89,48.54"/>
	<path class="st0" d="M552.19,372.55c-4.58,0.14-4.92,4.3-6.5,7.12c-5.76,10.29-12.04,13.91-21.31,11.98
		c-2.72-0.57-5.45-1.11-8.18-1.64c-8.4-1.61-16.78-2.39-25.08,0.54"/>
	<path class="st0" d="M676.49,896.73c-5.37-0.21-9.46,3.32-14.22,4.77c-6.77,2.07-12.72,6.05-19.34,7.06
		c2.64,22.88,4.83,45.13,8.77,67.32c-8.59,1.49-15.79-1.45-23.19-2.79c-3.26-0.59-6.42-1.82-9.82-1.63"/>
	<path class="st0" d="M442.06,895.09c4.68-1.34,9.1,0.54,13.63,1.12c2.11,0.27,3.49,1.37,2.72,3.79
		c-2.01,6.28-1.24,12.76-0.94,19.09c0.37,7.77-0.79,15.31-1.75,22.92c-0.52,4.16-0.76,8.36-1.12,12.54
		c-0.23,2.76,0.71,4.81,3.81,4.32c10.6-1.71,21.11-0.88,31.63,0.59"/>
	<path class="st0" d="M662.31,1059.27c-1.24,5.89-0.2,11.68,0.84,17.45c1.11,6.14,2.15,12.29,2.14,18.55
		c-0.01,7.56,1.77,14.9,2.48,22.36"/>
	<path class="st0" d="M653.59,978.55c-1.34,4.86,0.5,9.56,1.26,14.15c2.18,13.05,1.72,26.45,5.25,39.31
		c0.48,1.76-0.58,3.73,0.57,5.45"/>
	<path class="st0" d="M476.95,760.36c-3.66,6.81-3.52,14.58-5.29,21.86c-2.51,10.31-2.28,21.06-3.36,31.6
		c-0.63,6.11-2.7,11.87-3.5,17.97c-1.49,11.27-2.66,22.59-4.38,33.81c-1.56,10.17-0.25,20.58-3.09,30.57"/>
	<path class="st0" d="M601.25,196.36c8.83-0.46,16.42,3.14,24.01,7.05c11.71,6.04,24.41,10.17,34.98,18.44
		c0.95,0.74,1.11,1.83,2.07,2.32"/>
	<path class="st0" d="M545.64,136.91c-3.37-1.94-5.55-3.92-5.83-8.71c-0.24-4.17-12.16-8.84-17.06-7.62
		c-7.79,1.94-14.98,5.4-21.18,10.43c-3.02,2.45-4.64,6.12-2.29,10.27c0.95,1.68,1.71,3.49,0.57,5.44c-2.39,4.08-3.11,8.43-2.21,13.1
		c0.23,1.18-0.31,2.3-1.06,3.27"/>
	<path class="st0" d="M608.89,1027.09c10.9,2.73,21.77,5.61,32.73,8.12c5.88,1.35,11.84,2.68,17.98,1.7"/>
	<path class="st0" d="M482.95,213.82c-7.16-2.13-13.39-6.33-20.21-9.17c-2.11-0.88-4.12-1.97-4.17-3.93c-0.1-3.6-1.8-5.51-4.37-7.79
		c-2.92-2.6-6.13-2.87-9.41-3.03c-4.58-0.23-9,0.27-12.67-3.78c-1.86-2.05-5.08-0.34-7.46,0.52c-1.89,0.69-3.74,1.98-4.92,3.74
		c-4.87,7.24-7.34,15.26-7.03,23.98c0.09,2.59,1.78,4.49,4.82,4.37"/>
	<path class="st0" d="M630.69,773.45c-5.1-0.22-9.76-2.47-14.73-3.24c-7.5-1.16-15.04-1.93-22.33,1.1c-0.88,0.37-1.47,1.41-2.2,2.13
		"/>
	<path class="st0" d="M474.22,819.27c10.97,9.75,22.86,18.5,32.6,29.55c1.72,1.95,3.3,1.24,5.02,1.54"/>
	<path class="st0" d="M539.1,131.45c-5.09,0.9-10.06-0.96-15.3-0.24c-5.54,0.77-10.21,2.04-14.23,6.15
		c-2.42,2.47-5.73,4.09-8.63,6.09"/>
	<path class="st0" d="M573.45,202.09c-4.72,0.45-9.58,0.36-14.15,1.48c-9.87,2.4-19.05,6.75-26.05,14.21
		c-3.55,3.78-7.24,7.04-11.6,9.68"/>
	<path class="st0" d="M567.45,779.45c1.75-3.54,5.32-2.82,8.19-3.18c4.93-0.62,10.15,0.82,14.7-2.42c1.99,1.44,3.61,3.15,5.96,4.07
		c2.64,1.03,4.68,3.2,4.37,6.43c-0.31,3.17-2.72,4.47-5.41,5.48c-3.67,1.37-7.19,1.37-10.35-1.13c-4.09-3.24-2.18-7.46-1.65-11.43"
		/>
	<path class="st0" d="M498.76,995.45c-10.02,0.9-20.14,0.68-30.01,3.19c-1.86,0.47-3.34,1.34-4.88,2.27"/>
	<path class="st0" d="M553.28,168.55c0.2,11.79,1.59,23.44,4.36,34.91"/>
	<path class="st0" d="M490.03,1024.36c-11.5,2.59-23.16,3.13-34.89,2.73"/>
	<path class="st0" d="M649.23,1012.36c-8.83,1.22-17.49,0.09-26.19-1.52c-3.88-0.72-8,0.11-11.97-0.66"/>
	<path class="st0" d="M537.47,188.45c-4.3,1.15-8.72,1.68-13.07,2.53c-7.14,1.4-12.73-1.95-17.3-6.25
		c-4.41-4.15-6.97-10.12-7.58-16.22c-0.32-3.19-1.12-4.89-4.03-4.8c-4.5,0.14-8.76-0.75-13.1-1.65c-5.08-1.05-9.74,1.29-14.09,3.35
		c-3.63,1.72-7.16,2.19-10.97,2.03"/>
	<path class="st0" d="M511.84,230.73c-8.59-2.79-16.65-0.7-24.52,2.76c-2.45,1.07-4.74,2.51-7.1,3.79"/>
	<path class="st0" d="M434.97,189.27c-8.86,6.8-13.23,16.23-16.24,26.68c-0.88,3.06-0.76,5.21,0.95,7.7
		c4.43,6.48,9.1,12.19,17.41,14.39c4.8,1.27,8.82-0.44,13.13-0.92c3.08-0.34,6.05-1.93,9.29-2.03"/>
	<path class="st0" d="M674.31,1059.82c-9.74-1.79-19.65-2.11-29.42-3.44c-5.01-0.68-9.47,0.91-14.2,1.26"/>
	<path class="st0" d="M503.12,925.64c9.88,7.6,19.73,15.26,29.99,22.36"/>
	<path class="st0" d="M440.42,1087.91c6.05,0.4,12.09,0.91,17.99,2.01c0,8.63-0.28,16.82,0.13,24.99c0.18,3.44-1.6,2.68-3.41,2.73"
		/>
	<path class="st0" d="M545.1,1005.27c6.44,0.04,12.59,2.17,19.07,2.44c3.33,0.14,6.55-0.68,9.82-0.26"/>
	<path class="st0" d="M529.83,1080c-5.09,0.36-10.17,0.77-15.27,1.08c-4.18,0.25-8.36,0.38-12.54,0.56"/>
	<path class="st0" d="M518.38,192c-0.35,9.16,0.39,18.24,1.91,27.27"/>
	<path class="st0" d="M550,1048.91c-8.32,1.21-16.78,0.73-25.09,2.13c-1.49,0.25-2.27,0.68-2.17,2.23"/>
	<path class="st0" d="M438.24,839.45c-0.2,1.15-0.08,2.97,0.58,3.16c10.53,3.12,20.69,8.06,32.13,6.93"/>
	<path class="st0" d="M462.77,168.55c-2.76,6.26-4.65,12.72-4.32,19.63c0.11,2.26-0.96,4.05-1.68,6"/>
	<path class="st0" d="M650.32,1091.45c0.44,2.96-0.67,4.15-3.81,4.45c-7,0.67-13.06-2.8-19.64-3.91"/>
	<path class="st0" d="M459.5,898.91c9.39,2.13,17.42,6.95,25.08,12.55"/>
	<path class="st0" d="M594.16,863.18c9.09,0.55,18.17,1.09,27.26,1.64"/>
	<path class="st0" d="M572.9,854.73c-6.43-0.69-11.85-4.4-17.96-6.12c-1.35-0.38-2.59-0.14-3.85-0.43"/>
	<path class="st0" d="M610.52,967.91c-7.04-1.46-14.17-0.59-21.26-0.82"/>
	<path class="st0" d="M608.89,174.55c-2.48,6.7-1.74,13.83-2.73,20.73"/>
	<path class="st0" d="M632.33,809.45c-7.39,1.63-14.95,2.91-20.17,9.27"/>
	<path class="st0" d="M435.52,1024.91c6.01,0.11,11.91,2.07,17.99,1.09l6,64.91c6.94-0.04,13.3,3.27,20.17,3.49
		c2.89,0.09,6.64,2.39,8.18-2.4"/>
	<path class="st0" d="M672.67,978.55c-5.98-0.8-11.95-1.89-17.99-0.53c-1.6,0.36-2.38-0.71-3.27-1.65"/>
	<path class="st0" d="M642.14,909.27c-5.52,1.6-11.03,3.3-16.9,2.73"/>
	<path class="st0" d="M648.14,788.73c-1.54-0.05-2.51,0.07-3.48-2.09c-1.98-4.43-5.48-7.89-10.7-8.82"/>
	<path class="st0" d="M477.22,221.45c-0.64,4.06-0.2,8.06,0.83,12c2.02,7.75-3.71,14.81-12,14.73"/>
	<path class="st0" d="M628.51,1080.55c-3.13-3.51-11.45-4.15-14.17-1.09"/>
	<path class="st0" d="M661.5,1044c-0.09,4.55-0.18,9.09-0.27,13.64"/>
	<path class="st0" d="M633.42,928.09c-2.84,0.93-5.85,1.22-8.75,1.74c-2.71,0.48-2,1.97-2.15,3.45"/>
	<path class="st0" d="M495.76,207.27c-1.98,3.08-5.25,3.99-8.46,4.88c-2.89,0.8-5.17,1.95-4.9,5.49"/>
	<path class="st0" d="M631.24,998.18c-4.61,0.01-9.24-0.16-13.63,1.64"/>
	<path class="st0" d="M468.77,817.64c1.12-0.17,2.08,0.07,2.73,1.09c0.68-0.45,2.35,1.06,2.18-1.09"/>
</g>
</svg>
