<?xml version="1.0" encoding="utf-8"?>
<!-- Generator: Adobe Illustrator 25.4.1, SVG Export Plug-In . SVG Version: 6.00 Build 0)  -->
<svg version="1.1" id="Layer_1" xmlns="http://www.w3.org/2000/svg" xmlns:xlink="http://www.w3.org/1999/xlink" x="0px" y="0px"
	 viewBox="0 0 1117 1117" style="enable-background:new 0 0 1117 1117;" xml:space="preserve">
<style type="text/css">
	.st0{fill:none;stroke:#000000;stroke-width:2;stroke-linecap:round;stroke-linejoin:round;stroke-miterlimit:10;}
</style>
<g>
	<path class="st0" d="M485.85,83.45c1.08-4.29-1.01-6.77-4.92-7.59c-13.18-2.76-26.47-4.75-39.77-1.08
		c-9.64,2.66-18.51,6.72-23.51,16.28c-0.48,0.92-0.37,2.25-1.59,2.75c4.64,9.03-4.18,14.73-5.8,22.29
		c-2.54,11.81-1.89,23.34-0.61,34.97c0.62,5.65,1.95,10.96,1.33,16.96c-0.71,6.92,1.96,13.99,4.53,20.69
		c6.19,16.18,8.13,33.02,7,50.17c-0.51,7.82-2.2,15.55-2.15,23.46c0.02,4.03,0.51,8.1,2.38,11.38c5.27,9.24,6.16,19.79,9.6,29.56
		c5.56,15.78,9.88,31.95,16.21,47.52c4.29,10.55,7.48,21.68,9.02,33.17c1.71,12.71,5.8,24.77,10.81,36.57
		c7.54,17.78,13.93,35.96,13.01,55.62c-0.82,17.46,0.28,34.93-0.94,52.37c-0.27,3.77-1.27,7.39-2.36,10.86
		c-2.16,6.93-1.77,13.65-1.25,20.79c0.72,9.93,2.24,19.9,0.93,29.99c-1.58,12.18-0.56,24.37,0.93,36.54
		c1.26,10.32,1.8,20.73,2.83,31.08c0.56,5.57,1.46,11.08,4.8,15.87c0.37,0.53,1.16,1.07,1.11,1.58
		c-0.84,8.42,6.67,11.81,10.39,17.48c3.31,5.04,6.74,9.82,9.09,15.67c3.52,8.78,11.5,13.02,20.87,15.6
		c17.41,4.81,35.31,4.18,52.94,6.29c3.84,0.46,7.53,1.61,11.44,1.75c7.27,0.26,14.3-0.9,21.26-2.78"/>
	<path class="st0" d="M685.39,259.64c7.53,4.62,8.81,12.84,10.74,20.22c4.08,15.62,3.55,31.51,1.03,47.42
		c-3.26,20.59-8.85,40.66-12.98,61.06c-2.06,10.16-3.73,20.41-5.86,30.52c-3.39,16.09-4.76,32.28-6.3,48.57
		c-1.22,12.92-2.43,25.77-2.52,38.75c-0.08,11.85,2.33,23.35,4.29,34.89c1.02,6,1.57,12.02,2.26,18.03
		c1.21,10.62,2.27,21.24,4.94,31.64c2.49,9.7,0.58,19.35-1.13,28.89c-1.86,10.42-4.14,20.77-6.53,31.09
		c-1.34,5.78-3.5,11.24-7.53,15.87c-2.9,3.34-5.95,6.64-6.69,11.4c-0.22,1.38-1.44,3.21-2.66,3.73
		c-9.25,3.92-14.03,12.63-20.51,19.35c-9.81,10.18-21.45,15.87-35.05,18.42c-11.56,2.16-22.99-0.03-34.33-1.33
		c-12.97-1.49-26.03-2.9-38.74-6.29c-4.79-1.28-9.33-3.16-13.56-5.59c-2.54-1.46-4.95-1.9-7.69-1.54"/>
	<path class="st0" d="M462.96,795.82c0.67,4.03,4.49,4.03,7.12,5.4c5.83,3.06,11.55,6.42,18.24,7.64c-2.18,4.76-1.68,9.33-2.39,13.7
		c-1.67,10.33-3.47,20.68-4.31,31.09c-1.2,14.9-3.78,29.7-3.39,44.72c0.08,3.2-0.02,6.37-1.64,9.27"/>
	<path class="st0" d="M657.04,682.36c0.93,6.24-1.94,11.95-2.53,17.99c-0.65,6.58-1.75,13.13-2.98,19.63
		c-0.71,3.71-1.69,7.36-3.08,10.97c-2.88,7.47-6.15,14.95-3.61,23.47c0.44,1.49,0.56,4.77-2.5,5.97
		c-8.13,3.21-15.61,7.84-24.52,9.39c-10.06,1.76-20.1,2.13-29.99,0.5c-13.95-2.3-27.86-3.99-42.01-3.39"/>
	<path class="st0" d="M488.58,684.55c-3.28,6.13-1.71,12.77-1.49,19.09c0.65,18.54,1.8,37.07,1.52,55.64
		c-0.06,4.18,0.85,8.42,0.41,12.53c-1.28,12.16,0.47,24.48-2.08,36.56"/>
	<path class="st0" d="M533.28,104.73c-9.29,3.89-15.57,11.62-22.87,18.04c-1.44,1.27-0.79,3.35-0.49,4.85
		c1.37,6.87,1.12,13.83,1.66,20.74c0.69,8.8-3.74,14.76-9.99,19.56c-6.55,5.03-13.68,9.36-22.29,9.87
		c-6.21,0.37-11.51,3.74-17.44,4.95"/>
	<path class="st0" d="M658.13,546c-7.36-0.47-14.53-2.34-21.76-3.54c-7.83-1.31-15.65-2.02-23.49-2.36
		c-11.8-0.51-23.62-1.47-35.44-0.14c-1.06,0.12-2.18-0.32-3.27-0.51"/>
	<path class="st0" d="M567.09,110.73c-0.93-6.65-6.66-7.85-11.48-9.73c-5.04-1.96-10.49-1.12-15.78-1.16
		c-3.12-0.02-4.59,2.55-6.54,4.35c2.42,2.47,5.45,2.84,8.73,2.77c3.84-0.08,7.61-0.13,10.94,2.64c7.27,6.06,13.19,13.16,18.01,21.29
		c2.26,3.8,4.39,7.78,4.68,12.04c0.36,5.29-0.72,10.55-4.72,14.73c-10.72,11.2-23.03,18.58-39.28,17.53
		c-3.91-0.25-7.3-1.82-10.88-2.88c-3.72-1.1-6.89-1.49-8.87,3.05c3.2,6.18,1.59,13.24,2.85,19.92"/>
	<path class="st0" d="M582.9,300.55c-6.16,21.37-10.8,43.2-14.38,65.01c-2.35,14.3-11.87,20.67-20.58,28.74
		c-12.15,11.25-26.87,19.39-38.64,31.16"/>
	<path class="st0" d="M510.39,122.18c-3.17-2.76-3.08-6.8-3.73-10.38c-1.88-10.35-7.53-17.67-15.68-24.25
		c-5.26-4.25-10.41-4.33-16.02-3.98c-4.04,0.25-7.95-0.49-12.01-0.33c-16.22,0.65-30.6,5.6-43.08,16.01
		c-0.61,0.51-1.44,0.75-2.17,1.11"/>
	<path class="st0" d="M665.77,958.91c2.38,6.21,1.19,12.77,1.44,19.1c0.64,16.17-0.14,32.36-0.89,48.54"/>
	<path class="st0" d="M568.72,372.55c4.56-0.2,5.11,4.03,6.39,6.62c4.04,8.15,9.67,13.5,19.23,12.93c3.48-0.21,6.9-1.42,10.37-2.09
		c8.39-1.63,16.78-2.4,25.08,0.54"/>
	<path class="st0" d="M447.69,895.09c2.55,4.83,7.96,4.49,12.05,6.43c6.02,2.86,12.1,5.7,18.22,7.18
		c-2.59,22.74-4.98,44.96-8.71,67.27c8.35,1.21,15.42-1.22,22.61-2.86c3.41-0.78,6.8-1.77,10.35-1.66"/>
	<path class="st0" d="M467.32,978.55c1.11,5.58-0.93,10.92-1.49,16.35c-0.93,8.91-2.13,17.8-2.95,26.73
		c-0.49,5.31-1.74,10.55-2.65,15.83"/>
	<path class="st0" d="M458.59,1059.27c1.29,5.89,0.07,11.67-0.84,17.45c-0.9,5.8-2.2,11.56-2.14,17.46
		c0.07,7.92-1.66,15.64-2.48,23.45"/>
	<path class="st0" d="M643.96,760.36c3.47,6.86,3.53,14.58,5.31,21.85c2.52,10.32,2.15,21.07,3.34,31.61
		c0.69,6.1,2.68,11.88,3.52,17.97c1.54,11.08,2.72,22.21,4.28,33.28c1.23,8.71,1.37,17.47,1.99,26.2c0.13,1.79,1.32,3.15,1.18,4.9"
		/>
	<path class="st0" d="M519.65,196.36c-5.45-1.09-10.73,0.85-15.15,2.96c-14.81,7.06-30.47,12.58-43.83,22.54
		c-0.99,0.74-1.11,1.83-2.08,2.32"/>
	<path class="st0" d="M512.02,1027.09c-10.9,2.73-21.77,5.61-32.73,8.12c-5.88,1.35-11.84,2.68-17.98,1.7l-2.18,21.27
		c10.35-0.95,20.66-3.47,31.08-0.55"/>
	<path class="st0" d="M622.7,138c-0.51-7.15-6.86-8.71-11.43-12.03c-3.96-2.87-8.6-4.11-13.14-5.3c-3.49-0.91-7.19-0.24-10.33,2.05
		c-3.08,2.24-7.67,2.85-6.82,8.77c0.32,2.22-3.24,4.12-5.72,5.41"/>
	<path class="st0" d="M703.38,218.73c4.65-1.67,6.32-4.99,4.84-10.89c-1.12-4.45-2.67-8.81-4.34-13.09
		c-1.91-4.9-5.41-7.85-10.83-8.9c-2.49-0.48-4.69-0.45-5.92,1.32c-2.09,3-5.04,3.22-7.7,2.52c-4.09-1.08-7.75,0.16-10.83,1.96
		c-3.14,1.83-6.86,4.02-6.25,9.1c0.2,1.72-1.9,2.97-3.66,3.82c-4.75,2.32-9.66,4.21-14.26,6.95c-6.34,3.78-14.54,0.72-19.28-4.24"/>
	<path class="st0" d="M554,778.36c-4.14-2.04-8.59-2.5-13.08-2.14c-5.06,0.41-9.23-1.21-13.12-4.36c-4.52-3.65-10.1-2.12-15.24-2.43
		c-7.72-0.47-14.79,3.27-22.35,4.02"/>
	<path class="st0" d="M620.51,143.45c-3.59-1.23-6.79-3.58-9.11-6.14c-6.21-6.84-14.14-6.35-21.96-6.25
		c-2.5,0.03-5.09,0.26-7.63,0.39"/>
	<path class="st0" d="M640.69,237.27c-11.27-8.06-24.01-8.43-37.07-7.09"/>
	<path class="st0" d="M529.47,774.55c-1.09,2.31-3.68,2.49-5.5,3.75c-2.25,1.55-4.12,3.23-3.69,6.06c0.39,2.59,1.99,4.01,4.75,5.12
		c3.77,1.52,7.18,1.82,10.39-0.27c4.68-3.04,3-7.66,2.23-11.93"/>
	<path class="st0" d="M646.68,819.27c-11.92,10.13-23.92,20.18-34.89,31.36"/>
	<path class="st0" d="M663.31,922.91c0.21,10.26,2.18,20.35,2.99,30.55c0.25,3.13-0.09,6.1-4.35,5.42
		c-10.81-1.72-21.51-1.14-32.17,1.13"/>
	<path class="st0" d="M546.91,202.36c6.66-0.38,13.59,0.15,19.5,2.51c7.14,2.85,14.96,5.59,20.2,11.76
		c3.69,4.35,7.89,7.85,12.64,10.83"/>
	<path class="st0" d="M567.63,168.55c-0.06,11.77-1.99,23.33-3.82,34.91"/>
	<path class="st0" d="M665.77,1027.09c-11.73,0.4-23.39-0.14-34.89-2.73"/>
	<path class="st0" d="M509.84,1010.73c-8.83-0.61-17.45,1.45-26.17,2.12c-3.98,0.31-8.02,0.32-11.99-0.49"/>
	<path class="st0" d="M657.04,1000.91c-5.62-3.82-12.22-3.57-18.54-4.31c-4.51-0.53-9.08-0.6-13.62-0.87"/>
	<path class="st0" d="M618.33,925.36c-10.18,7.55-20.35,15.09-30.53,22.64"/>
	<path class="st0" d="M685.94,189.27c9.71,7.02,13.31,17.65,16.98,28.34c1.17,3.41-1.13,5.68-2.45,7.53
		c-4.65,6.5-10.13,12.44-18.9,13.19c-4.05,0.35-8.09-0.33-11.97-1.39c-2.71-0.74-5.33-1.81-8.2-1.84"/>
	<path class="st0" d="M680.49,1087.91c-6.07,0.29-12.09,0.9-17.99,2.01c0,8.62,0.28,16.82-0.13,24.98c-0.18,3.44,1.6,2.68,3.41,2.73
		"/>
	<path class="st0" d="M590.8,1079.45c4.04,2.34,8.56,0.83,12.84,1.47c4.99,0.74,10.17,0,15.24,0.71"/>
	<path class="st0" d="M602.52,192c0.35,9.16-0.28,18.25-1.91,27.27"/>
	<path class="st0" d="M598.16,1053.27c-1.56-4-5.69-2.85-8.19-2.99c-6.37-0.34-12.71-0.97-19.07-1.38"/>
	<path class="st0" d="M678.85,895.09c-7.75-1.8-14.58,1.6-21.19,4.52c-7.41,3.27-15.11,6.31-21.34,11.84
		c-0.15,0.13-0.36,0.19-0.54,0.28c0.09,0.09,0.18,0.18,0.27,0.27"/>
	<path class="st0" d="M576.9,1004.73c-8.86,1.31-17.59,3.96-26.71,2.73"/>
	<path class="st0" d="M658.13,168.55c2.76,6.26,4.65,12.72,4.32,19.63c-0.11,2.26,0.96,4.05,1.68,6"/>
	<path class="st0" d="M526.74,863.18c-9.09,0.55-18.17,1.09-27.26,1.64"/>
	<path class="st0" d="M470.59,1091.45c-0.44,2.96,0.66,4.21,3.81,4.44c6.96,0.51,13.11-2.51,19.63-3.9"/>
	<path class="st0" d="M662.49,898.91c2.12,7.57,0.94,15.26,0.77,22.91c-0.02,1.09-1.24,0.32-1.86,0.55"/>
	<path class="st0" d="M682.12,842.73c-7.53,2.53-15.06,5.08-22.9,6.55"/>
	<path class="st0" d="M569.81,848.18c-6.49,0.18-11.87,4.02-17.94,5.64c-1.26,0.34-2.52,0.79-3.87,0.9"/>
	<path class="st0" d="M531.65,967.09c-7.09,0.23-14.22-0.65-21.26,0.82"/>
	<path class="st0" d="M488.58,809.45c7.47,1.46,14.9,3.01,20.17,9.27"/>
	<path class="st0" d="M681.03,239.45c3.2,6.04,4.13,12.4,2.73,19.09"/>
	<path class="st0" d="M685.39,1024.91c-6.01,0.11-11.91,2.07-17.99,1.09l-6,64.91c-6.92,0.04-13.28,3.39-20.17,3.5
		c-2.9,0.05-6.64,2.38-8.18-2.41"/>
	<path class="st0" d="M469.5,976.36c-0.89,0.94-1.68,2.02-3.27,1.65c-6.04-1.41-12-0.07-17.99,0.54"/>
	<path class="st0" d="M478.77,909.27c5.55,1.5,11.05,3.32,16.9,3.27"/>
	<path class="st0" d="M643.69,221.45c0.73,3.68,0.77,7.58-0.68,10.85c-2.97,6.7,0.63,10.28,5.31,13.7"/>
	<path class="st0" d="M486.94,777.82c-6.19,1.22-9.36,5.77-11.99,10.91"/>
	<path class="st0" d="M506.57,1079.45c0.17-2.08-1.14-2.37-2.72-2.17c-3.86,0.48-7.86,0.25-11.45,2.17"/>
	<path class="st0" d="M498.39,933.27c-0.05-1.54,0.48-3.15-2.17-3.36c-2.94-0.24-5.82-1.18-8.73-1.82"/>
	<path class="st0" d="M503.3,999.82c-4.48-2.33-9.56-0.74-14.17-2.18"/>
	<path class="st0" d="M624.33,138c-3.65,1.95-4.47,5.59-3.07,8.63c1.52,3.27,1.64,6.63,2.52,9.91L650,156l12,5l1.58,6.45
		c-4.05,0.48-7.85-0.22-11.46-2.17c-4.75-2.56-9.99-4.47-15.2-3.06c-3.34,0.9-6.53,1.55-9.87,1.36c-4.06-0.23-5.69,1.51-6.07,5.5
		c-0.7,7.29-3.95,13.64-9.84,17.88c-5.18,3.73-11.2,5.22-17.94,3.57c-3.4-0.83-6.88-1.53-10.32-2.35"/>
	<path class="st0" d="M566.54,813.82c-4.41-0.02-7.73,3.4-11.99,3.82"/>
	<path class="st0" d="M652.14,817.64c-1.12-0.17-2.08,0.07-2.73,1.09c-0.68-0.45-2.35,1.06-2.18-1.09"/>
</g>
<polyline class="st0" points="623,160 623.79,156.55 623,163 "/>
</svg>
