<?xml version="1.0" encoding="utf-8"?>
<!-- Generator: Adobe Illustrator 25.4.1, SVG Export Plug-In . SVG Version: 6.00 Build 0)  -->
<svg version="1.1" id="Layer_1" xmlns="http://www.w3.org/2000/svg" xmlns:xlink="http://www.w3.org/1999/xlink" x="0px" y="0px"
	 viewBox="0 0 1117 1117" style="enable-background:new 0 0 1117 1117;" xml:space="preserve">
<style type="text/css">
	.st0{fill:none;stroke:#000000;stroke-width:2;stroke-linecap:round;stroke-linejoin:round;stroke-miterlimit:10;}
</style>
<g>
	<path class="st0" d="M519.82,419.45c0.33-4.54,0.44-9.16,0.39-13.63c-0.06-6.23-0.58-12.56-1.18-18.82
		c-0.67-6.9-1.36-13.81-1.61-20.73c-0.39-11.08-1.42-22.08-3.36-32.99c-0.83-4.67-2.13-9.25-2.93-13.92
		c-1-5.85-1.04-11.8-0.83-17.72c0.31-8.86,2.83-17.56,2.35-26.45c-0.29-5.4-0.34-10.9-2.35-16.11c-1.07-2.78-0.93-5.79-1.11-8.72
		c-0.55-9.09-0.37-18.19,0.02-27.27c0.47-10.81-1.25-21.29-4.13-31.64c-1.91-6.87-2.37-13.94-3.03-21
		c-0.47-5.11-1.25-10.18-1.87-15.28c-0.65-5.36-1.45-10.71-1.87-16.09c-0.62-7.81-0.59-15.65-1.52-23.47
		c-0.56-4.73-0.51-9.62-0.73-14.43c-0.46-10-1.51-19.87-5.63-29.21c-1.49-3.38-3.23-6.16-6.88-7.34c-0.27-0.09-0.54-0.25-0.82-0.26
		c-8.22-0.42-16.55-1.75-24.51,1.18c-4.27,1.57-7.87,4.24-9.4,9.15c-1.13,3.62-2.36,7.19-2.89,10.94
		c-0.68,4.81-0.59,9.68,0.07,14.44c0.83,5.96,0.01,11.83-0.04,17.74c-0.04,5.85-1.12,11.64-1.05,17.45
		c0.1,8.61-1.53,17.07-1.79,25.64c-0.01,0.48-0.18,1.1-0.18,1.64c-0.11,11.82-0.43,23.64-0.19,35.45
		c0.11,5.36,0.67,10.75,1.43,16.11c0.48,3.39,0.31,6.9,0.63,10.35c1.3,13.88,1.61,27.79,1.4,41.73c-0.12,8.1-0.28,16.19-0.76,24.28
		c-0.32,5.43,0.18,10.9,0.17,16.36c-0.01,5.61-0.27,11.21-1.92,16.63c-0.3,0.98-0.28,1.88,0.05,2.73c2.51,6.51,2.46,13.4,3.37,20.17
		c1.24,9.27,0.51,18.58,1.48,27.84c0.5,4.79,0.55,9.63,0.88,14.45c0.14,2.05,0.07,4,3.24,4.25c1.98,0.15,3.9,1.73,5.73,2.87
		c3.75,2.33,8.17,3.31,11.74,5.98c0.67,0.5,1.28,1.08,1.91,1.63"/>
	<path class="st0" d="M687.27,385.64c-2.18-2.87-1.51-6.36-1.82-9.55c-0.64-6.61-1.08-13.26-1.11-19.9
		c-0.04-10.01,1.43-19.88,3.11-29.74c1.07-6.28,1.39-12.71,1.93-19.08c0.77-8.98,2-17.95,1.7-26.99c-0.1-3-0.45-6-0.51-9
		c-0.19-8.15,1.25-16.18,1.88-24.27c0.43-5.45,0.28-10.99,1.2-16.35c2.13-12.48,1.98-25.14,3.57-37.67
		c1.14-8.99,0.67-18.16,0.74-27.25c0.07-9.37,0.52-18.73,0.77-28.09c0.14-5.02-0.57-10-0.73-15c-0.17-5.08,0.29-10.18,0.47-15.27
		c0.17-4.69-1.7-9.05-2.27-13.63c-0.12-0.98-1.28-1.92-2.11-2.72c-2.26-2.16-3.47-5.14-5.96-7.14c-4.21-3.39-9.08-2.93-13.93-2.69
		c-3.85,0.2-7.4,2.21-11.19,2.36c-8.01,0.32-12.29,5.75-16.64,11.26c-1.78,2.25-1.78,5.04-2.49,7.63
		c-1.51,5.58-3.34,11.07-4.85,16.65c-2.29,8.47-2.91,17.19-3.58,25.9c-0.43,5.55-1.89,10.93-2.84,16.39
		c-1.03,5.88-1.76,11.82-2.85,17.71c-1.17,6.35-2.37,12.7-3.24,19.09c-0.79,5.79-1.18,11.63-1.68,17.45
		c-0.64,7.51-1.95,14.92-2.95,22.37c-1.53,11.37-4.46,22.47-6.07,33.81c-1.31,9.19-3.1,18.29-4.25,27.53
		c-1.31,10.45-1.92,20.96-3.37,31.39c-0.23,1.66-0.65,3.25-1.64,4.64"/>
	<path class="st0" d="M770.45,468.82c1.44,0.38,2.83-0.23,4.06-0.63c4.38-1.41,8.87-2.07,13.39-2.66c3.06-0.4,3.55-0.14,3.51,3.01
		c-0.06,4.91-0.7,9.84-0.45,14.72c0.91,17.94,0.6,35.98,4.05,53.73c0.61,3.13,1.17,6.27,2.3,9.33c0.64,1.73,0.23,4.01-0.19,5.94
		c-2.21,10.14-4.84,20.18-8.2,29.99c-2.28,6.66-4,13.54-7.04,19.92c-1.54,3.23-3.17,6.42-4.91,9.54
		c-5.5,9.86-9.13,20.49-12.83,31.09c-2.26,6.47-5.92,12.32-8.65,18.58c-4.24,9.74-10.7,18.22-15.45,27.6
		c-6.21,12.27-14.24,23.6-19.18,36.49c-4.19,10.91-9.24,21.38-14.85,31.58c-2.62,4.76-6.03,9.07-8.91,13.69
		c-2.6,4.18-5.1,8.43-7.44,12.77c-1.91,3.55-4.77,6.4-7.84,9.05c-6.04,5.22-11.99,10.55-16.96,16.86c-1.5,1.9-2.3,3.81-2.19,6.3
		c0.57,13.18,1.11,26.35,1.14,39.54c0.01,5.65-1.33,11.11-2.16,16.64c-0.94,6.25-1.71,12.54-2.44,18.82
		c-0.12,1.06,0.32,2.18,0.5,3.27"/>
	<path class="st0" d="M382.91,422.45c-4.86,0.94-9.3-0.65-13.62-2.49c-4.5-1.9-8.79-4.36-13.92-4.07c-1.07,0.06-1.36-0.64-1.38-1.62
		c-0.15-7.59-3.04-14.66-4.14-22.08c-0.76-5.14-2.15-10.19-3.2-15.28c-1.13-5.45-2.29-10.89-3.25-16.37
		c-0.75-4.33-0.33-8.73,0.03-13.08c0.14-1.76,0.02-3.45-0.01-5.19c-0.12-6.91-0.63-13.87,0.29-20.72
		c1.8-13.42,2.33-26.88,2.04-40.37c-0.1-4.92-1.4-9.81-1.49-14.73c-0.19-10.9-2.83-21.55-2.86-32.45
		c-0.01-3.72-0.73-7.43-0.28-11.19c0.15-1.25,0.42-2.42,0.9-3.53c1.08-2.52,2.31-4.93,3.12-7.6c0.54-1.79,2.16-3.17,4.44-4
		c4.65-1.69,9.25-3.04,14.23-2.58c4.97,0.46,9.09,2.84,12.8,6.01c0.67,0.57,0.96,1.87,0.51,2.38c-2.49,2.84-1.05,5.78-0.14,8.48
		c1.74,5.17,2.39,10.47,2.97,15.84c0.63,5.84,1.43,11.67,2.45,17.45c1.61,9.15,4.1,18.12,5.76,27.27
		c1.18,6.52,3.28,12.87,4.51,19.39c2.03,10.81,4.46,21.59,4.2,32.72c-0.04,1.74-0.08,3.45-0.26,5.19c-0.36,3.51,1.57,6.61,3.61,8.88
		c4.94,5.5,6.69,11.91,7.25,18.93c0.11,1.37,0.39,2.72,0.52,4.09c0.08,0.81,0.34,1.85-0.04,2.42c-2.3,3.51,0.34,5.66,1.93,8.24
		c3.46,5.59,5.25,11.93,7.66,17.98c3.29,8.23,4.8,16.86,5.42,25.64c0.63,8.98,3.8,17.27,6.68,25.6c2,5.76,3.3,11.69,4.99,17.52
		c0.61,2.1,0.1,4.52,0.1,6.79"/>
	<path class="st0" d="M595.09,57c-1.05,3.94-1.48,7.77,0.18,11.77c0.81,1.96,0.87,4.32,0.87,6.51c0.01,6.19,0.33,12.38-0.72,18.55
		c-0.81,4.75-3.9,7.49-8.76,8.27c-4.05,0.65-7.86-0.2-11.74-0.71c-1.32-0.17-2.66-0.87-3.8-1.61c-2.03-1.33-4.25-1.76-6.57-1.86
		c-3.36-0.14-4.44-1.24-5.23-4.64c-0.82-3.52-0.64-7.11-1.03-10.65c-0.53-4.8-1.07-9.6-0.35-14.46c0.29-1.94,0.63-3.84,1.14-5.72
		c0.37-1.34,0.22-2.79,0.42-4.07c0.5-3.19,2.23-5.81,5.3-7.42c1.92-1,3.98-1.28,6.02-1.57c4.79-0.67,9.63-1.29,14.44-0.77
		c2.7,0.29,5.59,0.51,6.96,3.96c0.73,1.83,2.34,3.42,4.44,4.53c2.41,1.28,3.86,3.9,3.83,6.7c-0.1,10.4,2.1,20.46,4.15,30.54
		c1.71,8.4,1.65,16.88,1.07,25.36c-0.8,11.55-2.48,23-2.58,34.64c-0.09,10.63-0.77,21.27-1.04,31.91
		c-0.13,5.19,0.2,10.37-0.19,15.55c-0.56,7.46-0.13,14.91,0.06,22.36c0.25,10.06,1.39,20.06,2.95,30c0.48,3.08,1.2,6.04,0.46,9.31
		c-0.39,1.73,0.04,4.01,0.44,5.94c0.65,3.21-0.3,6.24-0.7,9.28c-1.6,11.97-3.77,23.85-3.84,36.01c-0.03,5.35-1.83,10.75-1.11,16.07
		c0.65,4.78-0.64,9.23-1.46,13.61c-1.21,6.48-0.98,12.96-1.67,19.41c-0.62,5.81-1.12,11.63-1.65,17.45
		c-0.57,6.27-1.1,12.54-1.64,18.82c-0.29,3.45-0.55,6.91-0.82,10.36c-0.11,1.35,0.25,2.59,0.8,3.83c1.27,2.87,1.22,2.85,4.12,1.51
		c1.46-0.68,3.01-1.12,4.63-1.24"/>
	<path class="st0" d="M558.82,57.55c-1.94-0.31-3.41,0.53-4.63,1.91c-5.03,5.68-7.16,12.49-7.32,19.91
		c-0.11,5.08-0.01,10.18,0.13,15.27c0.14,5-0.69,10.01-1.15,15.01c-0.45,4.95-1.08,9.95-0.46,15c0.3,2.41-0.02,4.91-0.22,7.35
		c-0.79,9.38-1.29,18.78-2.74,28.09c-0.54,3.46-0.28,6.92-0.41,10.37c-0.31,8.07-1.8,15.99-2.6,23.99
		c-0.77,7.66-1.91,15.28-2.97,22.91c-0.39,2.82-1.04,5.6-1.07,8.46c-0.06,4.56-0.06,9.13-0.85,13.63c-0.76,4.3-1.78,8.55-2.7,12.82
		c-0.14,0.64-0.53,0.17-0.81,0.14"/>
	<path class="st0" d="M355.09,416.18c-0.18,6.02,1.45,11.82,2.18,17.73c1.18,9.61,3.74,18.96,4.78,28.62
		c0.78,7.28,1.97,14.54,2.89,21.83c1.92,15.28,4.24,30.52,5.86,45.83c0.72,6.77,1.53,13.57,1.59,20.44
		c0.05,6.1,1.29,12.17,1.45,18.28c0.15,5.79,1,11.48,1.79,17.17c0.9,6.54,1.7,13.08,2.43,19.64c0.16,1.44,0.68,2.88,1.6,4.1"/>
	<path class="st0" d="M385.36,743.73c7.27,1.03,14.45,2.84,21.82,2.94c4.17,0.06,8.35,1,12.57-0.13c1.21-0.33,2.46,0.58,3,2.09
		c2.55,7.07,6.8,13.26,10.69,19.6c4.19,6.82,8.82,13.35,12.55,20.46c1.09,2.07,2.95,3.63,2.96,6.32c0.01,6.22-0.25,12.38-2.5,18.27
		c-3.19,8.34-6.04,16.81-10,24.86c-1.84,3.74-1.95,8.1-2.52,12.23c-0.74,5.44-1.2,10.92-1.98,16.35c-0.36,2.55-0.17,4.81,1.1,7.11
		c4.18,7.56,7.26,15.49,7.67,24.26"/>
	<path class="st0" d="M462.82,118.77c7.11-0.61,14.18,0.07,21.27,0.39c2.46,0.11,3.5-1.05,3.83-3.52c0.73-5.4-0.62-10.71-0.63-16.09
		c-0.01-4.64-0.75-9.27-0.98-13.91c-0.12-2.37-0.25-4.6-1.34-6.85c-1.57-3.25-2.75-4.15-6.34-4.36c-5.2-0.3-10.24,0.7-15.27,1.69
		c-4.45,0.88-8.17,5.57-8.19,10.07c-0.01,1.73,0.08,3.46-0.02,5.18c-0.15,2.5,0.18,4.73,2.15,6.6c0.69,0.66,1.15,1.97,1.08,2.94
		c-0.27,3.57,1.54,6.33,3.03,9.3c1.47,2.91,2.77,5.92,3.04,9.25"/>
	<path class="st0" d="M818.18,275.73c0.26,2.29-0.66,4.06-2.16,5.75c-3.12,3.53-5.64,7.48-7.09,11.99
		c-1.19,3.72-1.33,7.68-0.72,11.43c0.6,3.74,0.19,7.48,0.86,11.22c0.71,3.93,2.31,7.1,5.59,9.2c2,1.28,4.06,2.45,5.97,3.86
		c2.41,1.78,4.9,1.77,7.38,0.34c0.45-0.26,0.63-0.46,0.79-0.87c2.18-5.41,5.98-9.84,9.05-14.7c5.54-8.76,11.35-17.34,17.15-25.93
		c2.43-3.6-0.03-9.91-3.3-11.19c-4.1-1.61-7.61-4.51-12-5.45c-2.27-0.49-4.53-1.08-6.82-1.33c-2.98-0.32-5.79,0.1-8.49,1.8
		c-2.65,1.66-5.25,3.37-8.67,3.75c-3.41,0.38-6.08,3.04-8.68,5.12c-6.64,5.31-13.26,10.72-19.34,16.65
		c-5.02,4.9-9.21,10.65-13.46,16.27c-1.05,1.39-2,2.94-3.3,4.06c-4.57,3.91-6.76,9.18-7.47,14.78c-0.85,6.72-3.74,12.52-6.35,18.55
		c-2.17,5.01-4.87,9.89-5.23,15.52c-0.32,5.08-3,9.43-4.39,14.18c-1.59,5.44-4.89,9.84-8.7,13.92c-6.15,6.58-10.21,14.5-14.56,22.3
		c-5.63,10.09-11.52,20.05-16.76,30.35c-2.23,4.38-4.74,8.69-5.83,13.6c-0.22,0.98-0.83,2.18-1.63,2.67
		c-2.36,1.43-1.92,3.63-1.53,5.51c1.83,8.84,2.51,17.72,1.88,26.74c-0.39,5.62-0.38,11.27-0.59,16.91
		c-0.13,3.37-0.35,6.73-0.54,10.09"/>
	<path class="st0" d="M534.55,302.45c-2.68,3.02-1.77,6.73-1.53,10.08c0.38,5.12-0.44,10.05-1.23,15
		c-1.13,7.08-1.61,14.18-0.47,21.27c0.62,3.81,0.86,7.64,1.3,11.46c0.7,6.08,1.52,12.14,1.73,18.27c0.04,1.07,0.07,2.19,0.2,3.28"/>
	<path class="st0" d="M685.64,388.64c1.24,1.41,1.56,3.13,1.63,4.91c0.44,10.77,1.6,21.48,2.78,32.18c0.66,5.99,0.78,12.01,1.33,18
		c0.59,6.45,2.56,12.56,4.94,18.53c0.38,0.96,1.41,1.66,2.13,2.47"/>
	<path class="st0" d="M608.73,338.45c-1.98,2.11-1.67,4.81-1.9,7.36c-1.34,14.97-0.65,30.04-2.37,45.01
		c-0.63,5.48-0.28,11.08-0.35,16.63c-0.02,1.48,0.14,3.03-0.58,4.35c-1.08,1.97,0.12,3.84,0.02,5.74
		c-0.35,6.73-0.72,13.45-1.09,20.18"/>
	<path class="st0" d="M361.64,244.91c2.28-0.05,4.55,0.05,6.83-0.48c1.82-0.42,2.73-1.44,2.96-3.07c1.03-7.11,1-14.14-1.58-21.01
		c-0.72-1.92-1.85-2.99-3.85-2.69c-3.56,0.54-7.13,1.1-10.63,1.92c-4,0.93-5.67,4.35-4.01,9.21c1.42,4.13,2.26,8.55,5.3,12.09
		c1.41,1.64,2.71,3.18,4.71,4.03"/>
	<path class="st0" d="M552.82,244.23c7.98,2.06,16.26,2.3,24.28,4.18c4.48,1.05,8.86,2.35,13.06,4.18c2.09,0.91,4.26,2.17,4.34,4.86
		c0.09,2.83-1.04,5.16-3.49,6.84c-2.99,2.04-6.4,2.75-9.84,3.2c-5.8,0.76-11.63,1.23-17.45,1.82"/>
	<path class="st0" d="M689.18,105.82c0.96,2.95,0.94,5.96,0.56,9c-0.8,6.31-1.37,12.65-4.07,18.56c-1.58,3.46-4.52,5.74-9.58,5.26
		c-5.44-0.51-10.49-1.8-15.28-4.43c-4.18-2.3-7.19-5.57-9.91-9.5c-3.57-5.16-2.75-10.21-1.35-15.64c0.4-1.56,0.64-3.25,0.92-4.88
		c0.85-5.01,2.74-8.76,10.08-9.83c7.9-1.14,15.72-0.83,23.45,1.12c5,1.26,6.95,5.2,5.19,10.07"/>
	<path class="st0" d="M663.55,1029.27c-0.69,1.66-0.74,3.45-0.78,5.18c-0.26,10.36-0.37,20.73-0.59,31.09
		c-0.17,8-0.71,15.99-0.56,24c0.18,9.27,0.2,18.55,0.29,27.82"/>
	<path class="st0" d="M378.55,612.27c2.22,3,2.36,6.69,2.89,10.11c1.14,7.29,3.43,14.3,4.71,21.53c1.53,8.64,3.55,17.15,5.78,25.63
		c0.5,1.89,0.37,3.67-0.29,5.46"/>
	<path class="st0" d="M442.09,899.18c0.48,6.49,3.36,12.31,5.6,18.22c2.89,7.61,4.85,15.42,6.97,23.23
		c1.53,5.64,1.79,11.37,1.95,17.19c0.42,14.82,0.05,29.64,0.22,44.46c0.06,5.64,0.15,11.27,0.29,16.91
		c0.03,1.09,0.34,2.18,0.52,3.27"/>
	<path class="st0" d="M828.82,329.45c1.58,1.04,1.83,2.44,1.09,4.09c-3.61,8.07-3.69,16.98-5.98,25.37
		c-1.5,5.47-2.71,11.02-3.56,16.63c-0.27,1.82-0.8,3.64-0.76,5.45c0.05,2.31-0.76,4.11-2.24,5.73"/>
	<path class="st0" d="M400.64,545.18c-1.45,2.11-0.19,3.71,1.11,5.17c4.8,5.37,11.02,8.5,17.73,10.59
		c6.1,1.91,12.36,3.28,18.52,4.98c5.18,1.43,10.27,3.1,14.19,7.08"/>
	<path class="st0" d="M494.73,855.27c-1.15-2.24-0.98-4.68-1.11-7.09c-0.34-6.24-0.21-12.6-2.49-18.53
		c-2.32-6.05-6.42-10.03-13.29-11.05c-3.98-0.59-7.69-0.2-11.47,0.66"/>
	<path class="st0" d="M478.09,507c-0.1-1.78,1.09-3.69-1.06-5.23c-2.48-1.78-5.26-1.97-7.93-1.51c-5.92,1.01-10.59,4.51-14.72,8.67
		c-5.07,5.1-8.79,11.09-10.91,17.99c-0.7,2.27-1.36,4.66,1.34,6.27"/>
	<path class="st0" d="M658.36,895.64c0.58,1.49,0.8,3.01,0.85,4.64c0.36,11.47,0.72,22.93,1.8,34.37
		c1.39,14.68,1.94,29.41,1.76,44.18c-0.17,14.18,0.11,28.36,0.24,42.54c0.02,2.06-0.14,4.06-0.84,6"/>
	<path class="st0" d="M402.82,699.55c0.21,4.16,1.85,7.96,3.35,11.7c4.15,10.36,8.23,20.75,13.03,30.84
		c0.63,1.32,1.09,2.64,1.07,4.1"/>
	<path class="st0" d="M670.64,268.64c-3.17-2.01-6.8-2.3-10.37-2.69c-4.91-0.55-9.73-0.46-14.48,1.53
		c-4.66,1.95-6.66,5.99-8.96,9.89c-0.04,0.07,0.03,0.19-0.01,0.27c-0.96,2.09-3.14,4.61-1.73,6.41c1.9,2.42,5.38,3.19,8.55,3.37
		c4.54,0.25,9.09,0.17,13.64,0.48c4.67,0.32,9.3,0.74,13.89,1.53c2.81,0.49,5.46-0.36,8.19-0.33"/>
	<path class="st0" d="M467.73,736.09c0.32,1.65-0.39,2.53-1.89,3.32c-4.98,2.61-10.49,3.21-15.85,4.26
		c-6.49,1.27-13.06,2.17-19.63,3.01c-2.56,0.33-5.22-0.16-7.63,1.15"/>
	<path class="st0" d="M450.82,393c-1.85,3.41-0.54,6.96-0.18,10.35c0.8,7.5,1.51,15.04,3.44,22.38c1.16,4.44,2.19,8.91,3.29,13.36
		c0.62,2.52-0.23,4.47-2.73,5.99c-2.07,1.26-3.74,3.1-5.32,4.77c-2.89,3.05-6.13,3.73-9.95,3.43c-0.72-0.06-1.45-0.01-2.18-0.01"/>
	<path class="st0" d="M416.73,621.14c3.71-2.96,4.52-5.07,3-7.77c-1.07-1.9-2.99-2.92-4.67-4.03c-8.73-5.76-18.04-6.71-27.78-2.78
		c-2.11,0.85-4.3,1.62-6.25,2.77c-2.28,1.34-4.19,3.2-6.05,5.11c-0.92,0.95-0.54,1.98-0.53,3.02"/>
	<path class="st0" d="M531.82,252.82c3.23,6.76,3.64,14,3.22,21.27c-0.4,6.79-1.2,13.57-2.98,20.18c-0.16,0.61-0.2,1.22,0.06,1.62
		c1.17,1.78,1.81,3.76,2.4,5.76c0.39,1.3,1.75,1.28,2.54,2.12c2.6,2.78,4.37,6.14,6.75,9.07c0.82,1.01,1.33,2.24,2.73,2.75
		c1.3,0.48,0.71,1.74,0.83,2.7"/>
	<path class="st0" d="M456.55,1023.82c1.36,3.36,0.17,6.76-0.09,10.08c-0.65,8.47-1.77,16.91-2.61,25.37
		c-0.16,1.61,0.15,3.27,0.24,4.91"/>
	<path class="st0" d="M486.55,269.18c0.15-0.81-0.01-1.61,0.21-2.47c0.73-2.82-1.53-5.06-4.28-4.01
		c-6.59,2.51-13.16,5.2-18.28,10.32c-2.9,2.91-2.22,4.89,1.59,6.58c3.33,1.47,6.64,1.39,10.12,1.07c8.53-0.78,17.07-1.31,25.63-1.53
		"/>
	<path class="st0" d="M624.55,1017c12.01,2.08,23.7,5.17,34.96,9.98c3.44,1.47,6.95,2.81,10.32,4.47"/>
	<path class="st0" d="M512.45,646.64c0,0.73,0,1.45,0,2.27c4.67,0.97,9.44,1.17,14.18,1.54c7.71,0.6,15.48-0.03,23.18,0.96"/>
	<path class="st0" d="M788.45,371.73c-0.23-1.5,0.32-2.2,1.91-1.91c6.98,1.26,14.05,2.37,18.8,8.48c2.23,2.87,4.85,5.33,7.39,7.89
		c1.99,2,1.32,4.47,0.69,6.52c-0.73,2.36-1.36,4.94-3.17,6.84c-1.2,1.26-0.59,3.01-1.53,4.44c-1.16,1.76-1.85,3.78-3.3,5.45
		c-1.5,1.72-1.77,4.18-2.66,6.28c-3.13,7.39-6.61,14.63-9.63,22.05c-1.3,3.19-2.95,6.4-1.95,10.08"/>
	<path class="st0" d="M649.36,169.91c2.86-0.52,5.51,0.6,7.86,1.74c5.55,2.69,11.16,2.67,16.96,1.53c4.19-0.83,8.37-1.72,12.55-2.58
		"/>
	<path class="st0" d="M661.64,944.18c-8.64,1.45-17.28,2.87-25.91,4.38c-2.93,0.51-5.82,1.25-8.73,1.89"/>
	<path class="st0" d="M389.45,674.45c1.71,0.22,2.77,1.25,3.56,2.72c0.65,1.22,1.3,2.43,2.12,3.58c4.78,6.75,12.33,7.54,19.43,8.85
		c6.06,1.11,12.32,1.14,18.52,0.94"/>
	<path class="st0" d="M468.27,1063.36c-5.14-0.76-10.02,0.91-15.37,1.06c0.94,2.07,0.93,3.64,0.93,5.21
		c-0.01,8.55,0,17.09-0.02,25.64c0,1.31,0.06,2.59,0.56,3.82"/>
	<path class="st0" d="M478.64,957.55c3.16-0.21,6.12,1.01,9.27,1.2c8.01,0.47,16,0.27,24.01,0.03"/>
	<path class="st0" d="M425.86,954.95c2.24,1.43,4.84,0.66,7.25,1.1c6.11,1.11,12.33,1.65,18.53,2.27c2.16,0.22,4.36-0.01,6.54,0.04
		c3.28,0.07,6.57-0.29,9.83,0.48c0.83,0.19,1.97,0.51,2.71-0.49"/>
	<path class="st0" d="M357.82,372c4-0.4,7.44-2.3,10.9-4.1c4.9-2.55,9.4-5.66,13.38-9.52c3.3-3.2,2.75-7.28-1.6-9.63
		c-6.6-3.57-13.06-2.92-19.67-0.46c-1.89,0.7-4.27,0.82-4.64,3.54"/>
	<path class="st0" d="M420.55,618c6.95,1.75,9.7,5.9,9.07,13.1c-0.21,2.41-0.52,4.79-1.21,7.07c-0.52,1.7-1.23,3.64-3.76,3.15"/>
	<path class="st0" d="M672.82,892.23c-4.98,0.31-9.79,0.87-14.55,2.92c-2.31,1-5.21,1.4-7.8,2.16c-6.63,1.95-13.19,4.15-19.1,7.87"
		/>
	<path class="st0" d="M481.36,1095.82c-6.67-0.19-13.13,1.32-19.64,2.42c-2.16,0.36-4.55,0.35-6.48,1.01
		c-3.97,1.36-8.16,0.86-12.05,2.16"/>
	<path class="st0" d="M601.09,334.91c3.09-0.19,6.09-0.15,7.64,3.27c5,1.71,8.85,5.37,13.36,7.91c4.38,2.48,8,5.75,10.67,10.07
		c0.61,0.98,0.85,1.93,0.79,3.02"/>
	<path class="st0" d="M597.27,347.73c-1.21-0.34-2.4-0.46-3.55,0.27c-5.55,3.54-11.66,6.19-16.65,10.63
		c-1.91,1.7-4.48,2.79-4.9,5.74"/>
	<path class="st0" d="M635.73,1095.14c1.07,0.65,2.2,0.14,3.27,0.1c7.49-0.28,14.88,1.31,22.37,1.13"/>
	<path class="st0" d="M428.45,700.23c-4.49,0.54-8.91-0.34-13.37-0.63c-3.9-0.25-7.75-1.66-11.74-0.37
		c-1.34,0.43-2.39-1.09-4.09-0.9c-4.32,0.49-8.68,1.54-13.07,0.65c-1.6-0.33-3.45-0.41-4.1-2.43"/>
	<path class="st0" d="M509.73,338.59c-1.13-0.02-1.8,0.77-2.45,1.51c-5.36,6.18-11.52,11.63-16.39,18.25
		c-0.82,1.11-1.37,2.32-2.03,3.56c-0.59,0-1.31,0-2.04,0"/>
	<path class="st0" d="M685.64,1097.73c-1.27,0.43-2.54,0.07-3.82,0.06c-6.66-0.08-13.27-0.82-19.91-1.15"/>
	<path class="st0" d="M586.91,151.36c-4.79-0.27-8.97,1.91-13.37,3.25c-3.43,1.04-6.9,1.93-10.36,2.88"/>
	<path class="st0" d="M481.36,1018.09c-4.09-0.06-7.73,1.96-11.71,2.59c-2.72,0.43-5.43,1.26-8.21,1.48
		c-3.51,0.28-6.8,1.48-10.06,2.56c-4.69,1.54-9.51,2.8-13.94,5.1"/>
	<path class="st0" d="M485.45,164.18c-4.41-2.76-9.26-1.72-13.9-1.24c-2.55,0.27-5.41,0.27-7.65,2.05"/>
	<path class="st0" d="M435.27,1002.55c1.16,0.75,2.49,1.14,3.82,1.06c5.84-0.32,11.63,0.64,17.46,0.58"/>
	<path class="st0" d="M456.27,649.36c2.62-0.12,4.91,0.28,7.15,2.11c4.31,3.51,9.43,5.79,14.4,8.24c0.83,0.41,1.75,0.7,2.72,0.56"/>
	<path class="st0" d="M641.18,981c6.93,1.4,13.97,1.47,21,1.64"/>
	<path class="st0" d="M468.27,916.09c0.55,0,1.38-0.23,1.59,0.03c3.23,4.08,8.3,4.38,12.61,6.19c2.35,0.99,4.89,1.5,7.34,2.23"/>
	<path class="st0" d="M534,381.95c0.9-0.09,1.52,0.38,1.33,1.22c-0.75,3.26,0.34,6.39,0.66,9.54c0.34,3.4-0.24,6.74-0.06,10.22
		c-5.02,1.31-10.12,2.29-15.29,2.87"/>
	<path class="st0" d="M394.64,576.95c-1.97,0.52-3.97,0.68-6,0.69c-6.56,0.01-13.12-0.12-19.65,1c-2.08,0.35-4.35-0.36-6.53-0.59"/>
	<path class="st0" d="M379.91,288.14c-6.19,1.2-12.24,2.97-18.27,4.78c-1.17,0.35-2.31,0.76-3.55,0.4"/>
	<path class="st0" d="M634.64,744.27c-3.92-0.18-6.94,2.29-10.36,3.56c-2.94,1.09-5.42,3.17-8.46,4.07"/>
	<path class="st0" d="M553.64,384.27c-3.48,0.73-6.73-0.75-10.09-1.05c-2.63-0.24-5.23-1.02-7.91-0.59"/>
	<path class="st0" d="M769.91,366.41c-4.58,0.37-9.01,1.41-13.38,2.83c-1.37,0.45-2.84,0.84-4.35,0.58"/>
	<path class="st0" d="M453,1065c-4.91,0.3-9.64,1.64-14.43,2.56c-0.98,0.19-2.05,0.2-3.02,0.57"/>
	<path class="st0" d="M453,1100.73c0.43,3.27,0.32,6.54,0.04,9.82c-0.2,2.26-0.04,4.54-0.04,6.81"/>
	<path class="st0" d="M379.91,445.91c0,3.56,0.3,3.72,4.09,3.3c3.49-0.38,6.68-1.56,9.82-3.03"/>
	<path class="st0" d="M495.27,499.64c-4.79-0.1-9.42,0.45-13.66,2.97c-0.86,0.51-1.98,0.58-2.98,0.85"/>
	<path class="st0" d="M619.36,932.05c-5.9-0.09-10.97,2.26-15.84,5.28c-0.66,0.41-0.84,0.76-0.79,1.4"/>
	<path class="st0" d="M594.82,417c-1.33,1.58-1.63,3.42-1.68,5.45c-0.1,3.37-0.5,6.73-0.77,10.09"/>
	<path class="st0" d="M695.18,382.64c-1.38-0.28-2.5,0.44-3.53,1.12c-2.23,1.47-4.51,2.93-6.71,4.39c-3.21,2.15-6.51,4.24-9.65,6.52
		c-1.66,1.2-3.12,2.69-4.66,4.06c-0.65,0.58-1.38,0.7-2.18,0.41"/>
	<path class="st0" d="M404.05,420.27c0.54,1.21-0.41,1.95-0.98,2.71c-2.1,2.79-4.07,5.68-6.5,8.22c-1.27,1.33-2.25,2.89-2.07,4.89"
		/>
	<path class="st0" d="M479.73,556.09c-0.46,2.09,0.89,2.96,2.44,3.84c3.75,2.14,7.81,3.31,12.01,4.07"/>
	<path class="st0" d="M771.68,412.64c0.59,2.24,0.14,4.54,0.54,6.84c0.49,2.8,1.45,5.17,3.14,7.34"/>
	<path class="st0" d="M792.82,450c0.5,2.86-0.5,5.62-0.65,8.45c-0.1,1.89-0.04,3.66,0.38,5.46"/>
	<path class="st0" d="M398.45,685.36c-0.52,2.15-0.33,4.25,0.55,6.27c0.87,2.01,1.66,4.03,1.63,6.27"/>
	<path class="st0" d="M628.09,396.55c-3.28,0.03-6.56-0.11-9.82-0.51c-0.97-0.12-2.29-0.49-2.72,1.05"/>
	<path class="st0" d="M455.18,899.18c-4.16-1.07-8.32-0.6-12.55-0.49c-3.42,0.09-6.91,0.86-10.36,0.08"/>
	<path class="st0" d="M792.27,432c-3.9,0.39-7.9-0.69-11.73,0.82"/>
	<path class="st0" d="M483.55,992.32c-3.82-0.09-7.64-0.18-11.45-0.27"/>
	<path class="st0" d="M797.45,448.09c-1.49,0.06-3.03-0.29-4.14,1.33c-0.69,1.02-1.91-0.03-2.98,0.2c-2.69,0.6-5.4,1.03-7.89,2.28
		c-1.03,0.52-2.13,0.65-3.27,0.55"/>
	<path class="st0" d="M561.82,303c-0.19,6.22,0.6,7.44,6,9.27"/>
	<path class="st0" d="M558.27,1000.36c-3.16,0.16-6.13-0.26-8.47-2.72c-0.64-0.67-1.63-0.45-2.44-0.69"/>
	<path class="st0" d="M483.55,1071.55c3.92,1.66,8.38,0.67,12.27,2.45"/>
	<path class="st0" d="M672.27,942.41c-3.36,0.5-6.73,1-10.09,1.5"/>
	<path class="st0" d="M663.27,983.18c3.78,0.25,7.55,0.6,11.18,1.77"/>
	<path class="st0" d="M545.18,741.55c0.24,1.43-0.18,2.45-1.63,3.01c-2.56,1-4.78,2.84-7.64,3.12"/>
</g>
</svg>
