<?xml version="1.0" encoding="utf-8"?>
<!-- Generator: Adobe Illustrator 25.4.1, SVG Export Plug-In . SVG Version: 6.00 Build 0)  -->
<svg version="1.1" id="Layer_1" xmlns="http://www.w3.org/2000/svg" xmlns:xlink="http://www.w3.org/1999/xlink" x="0px" y="0px"
	 viewBox="0 0 1117 1117" style="enable-background:new 0 0 1117 1117;" xml:space="preserve">
<style type="text/css">
	.st0{fill:none;stroke:#000000;stroke-width:2;stroke-linecap:round;stroke-linejoin:round;stroke-miterlimit:10;}
</style>
<g>
	<g>
		<path class="st0" d="M511.48,337.93c-2.41-7.07-2.41-14.53-3.16-21.82c-1.29-12.6-2.95-25.12-4.97-37.61
			c-2.61-16.19-6.48-32.15-8.35-48.5c-2.27-19.89-4.1-39.84-8.48-59.47c-3.4-15.22-3.83-30.96-6.63-46.32
			c-1.45-7.97-3.84-15.77-6.37-23.32c-2.66-7.94-8.23-14.25-18.18-15.06c-4.49-0.37-9.05-1.82-13.63-2.6c-5.7-0.97-9.9,1.13-13.65,5
			c-6.19,6.4-8.17,14.3-8.17,22.9c0,15.45-0.06,30.89,0.01,46.34c0.08,18.41,1.57,36.73,2.95,55.09c0.81,10.88,1.8,21.82,2.83,32.66
			c1.61,16.93,0.93,33.86,2.1,50.72c1.01,14.57,2.58,29.17,4.95,43.67c1.75,10.7,2.54,21.72,0.36,32.69
			c-1,5.06,1.24,10.72-2.84,15.24"/>
		<path class="st0" d="M659.77,451.87c1.14-10.12,3.42-20.02,5.36-30c1.74-8.96,2.46-18.01,2.75-27.23c0.25-7.9,1.47-15.95,1.82-24
			c0.21-4.9,0.73-9.81,1.04-14.72c0.59-9.17,0.41-18.45,3.67-27.29c0.59-1.6,0.74-3.98-0.04-5.35c-2.13-3.75-1.6-7.67-1.46-11.52
			c0.64-17.47-1.25-34.88-1.21-52.34c0.04-16.26,2.42-32.35,3.11-48.53c0.49-11.4,1.35-22.79,0.62-34.36
			c-0.99-15.77-1.89-31.59-2.62-47.4c-0.34-7.27-1.17-14.5-1.14-21.81c0.02-4.61,1.43-8.98,1.31-13.63
			c-0.16-6.33-1.96-12.15-3.96-17.98c-1.45-4.21-5.1-6.55-8.76-8.06c-8.26-3.41-17.03-1.44-25.56-1.05
			c-2.98,0.14-5.49,3.12-6.42,5.87c-2.69,7.94-5.04,15.89-5.78,24.47c-1.59,18.53-0.98,37.2-4.04,55.65
			c-1.73,10.43-2.27,21.06-3.4,31.6c-0.79,7.4-3.19,14.47-4.54,21.77c-1.49,8.03-1.94,16.07-1.27,24.01
			c0.86,10.09-0.06,20.02-0.86,29.99c-0.14,1.67,0.03,5.05-3.68,4.37"/>
		<path class="st0" d="M738.28,611.61c3.44-4.38,2.24-9.84,3.12-14.75c3.4-18.9,3.96-38.12,5.49-57.23
			c1.18-14.82,3.62-29.45,5.42-44.17c1.73-14.19,3.23-28.4,5.6-42.51c1.65-9.81,3.41-19.61,4.88-29.44
			c2.8-18.7,7.44-37.04,10.92-55.61c1.15-6.14,2.98-12.26,0.61-18.55c-0.36-0.96-0.21-2.19-0.03-3.25
			c2.63-14.67-1.09-29.09-1.81-43.61c-0.52-10.46,0.36-20.72,1.09-31.09c1.08-15.27,4.46-30.44,3.18-45.77
			c-0.52-6.22-1.94-13.35-9.05-16.33c-9.05-3.79-17.76-3.33-25.6,3.23c-0.67,0.56-1.63,1.31-1.05,2.15
			c3.51,5.09-0.25,9.61-1.26,14.17c-1.77,7.94-1.49,16.1-3.15,24.02c-3.05,14.55-5.81,29.17-9.37,43.59
			c-2.93,11.89-4.49,23.97-6.42,36.01c-0.09,0.53-0.1,1.11,0,1.63c1.6,7.96-1,14.36-5.8,20.87c-4.79,6.51-5.41,14.67-4.02,22.75
			c0.28,1.61-0.3,3.02-1.09,4.36c-7.84,13.33-13.2,27.51-14.14,43.07c-0.81,13.38-6.96,25.33-10.09,38.1
			c-1.03,4.2-1.38,8.46-2.49,12.6"/>
		<path class="st0" d="M327.75,468.23c-0.87,1.75-0.61,3.63-0.52,5.45c0.75,15.48-0.95,30.89-1.28,46.34
			c-0.15,7.29-1.2,14.79-3.32,21.75c-2.47,8.09-0.69,15.37,1.27,22.97c3.44,13.33,7.51,26.45,12.62,39.22
			c3.08,7.7,8.19,14.42,10.89,22.36c4.84,14.21,10.99,27.89,17.46,41.42c1.89,3.96,4.18,7.74,6.52,11.45
			c8.36,13.23,15.46,27.16,22.74,40.97c5.57,10.56,9.07,22.13,14.84,32.65c6.68,12.18,14.68,23.54,21.88,35.39
			c4.01,6.6,10.88,10.55,16.41,15.72c7.5,7.01,8.93,14.47,7.98,24.71c-1.35,14.55-1.51,29.44,1.05,44.14
			c1.31,7.52,3.38,15.07,2.3,22.88"/>
		<path class="st0" d="M518.56,71.87c-3.23,3.26-1.58,7.68-2.5,11.5c-3.15,13-5.04,26.41-3.29,39.72
			c1.71,13.08,1.11,26.27,3.04,39.28c0.24,1.6-0.01,3.27,0.04,4.9c0.46,14.54-0.53,29.07,0.89,43.63
			c1.03,10.48-0.42,21.13-1.63,31.58c-1.24,10.72-3.46,21.5-2.76,32.17c0.62,9.44,3.1,18.9,3.82,28.39
			c0.81,10.67,2.78,21.33,1.43,32.17c-0.44,3.54,0.84,7.57,1.9,10.75c1.49,4.49,1.12,8.99,1.48,13.24
			c1.44,17.27,2.75,34.54,4.64,51.77c0.35,3.18-0.74,6.01-3.14,8.1c-8.76-1.11-8.77-8.05-8.68-14.1c0.2-14.03-1.39-27.96-1.47-41.98
			c-0.04-7.39,0.05-15.03-1.94-22.35"/>
		<path class="st0" d="M521.84,72.42c-4.37-1.94-5.88-5.98-3.21-9.77c2.59-3.68,6.8-5.91,8.93-10.27c0.67-1.37,4.44-1.56,6.83-1.7
			c5.87-0.32,11.68,0.47,17.44,1.6c0.77,0.15,1.77,0.5,2.14,1.09c3.67,5.8,11.16,7.74,14.23,14.14c2.57,5.36,3.42,11.04,3.25,16.91
			c-0.35,12.4,1.3,24.74,1.36,37.07c0.05,10.99,1.28,21.82,1.99,32.71c1.07,16.4,2.42,32.81,4.92,49.06
			c1.84,11.95,2.91,23.95,3.71,36c0.11,1.72,0.89,3.38,0.97,4.91c0.25,4.89,2.2,9.21,0.57,14.83c-3.49,12.08-1.78,24.69,1.17,36.96
			c0.39,1.64,1.42,0.88,2.23,1.08"/>
		<path class="st0" d="M695.21,750.09c-1.5,7.27-6.11,13.04-9.98,18.97c-5.18,7.95-10.63,15.86-14.74,24.27
			c-2.79,5.7-1.27,12.93,0.66,19.47c3.14,10.63,8.6,20.39,11.45,31.07c2.47,9.24,3.03,18.79,3.31,28.33
			c0.03,0.9,0.17,1.77-0.47,2.76c-5.75,8.96-7,19.45-9.94,29.39c-3.68,12.45-9.06,24.38-11.87,37.11
			c-1.02,4.64-1.79,9.32-1.76,14.16c0.1,16.72,0.4,33.45-0.47,50.16"/>
		<path class="st0" d="M606.61,264.87c-1.31,10.04-0.57,19.92,0.47,30.02c1.25,12.05,1.36,24.46-1.82,36.49
			c-2.83,10.71-3.88,21.71-4.29,32.71c-0.51,13.83-2.38,27.56-2.41,41.43c-0.01,5.25,1.2,10.59-0.4,15.81"/>
		<path class="st0" d="M429.15,107.31c-1.64,8.57-0.08,16.93,2.29,25.05c2.21,7.57,8.45,10.64,16.22,8.13
			c9.35-3.01,17.58-7.68,21.89-17.34c2.06-4.62-0.15-8.92-0.84-13.07c-2.06-12.48-6.52-14.24-17.76-14.25
			c-5.13,0-10.19,0.32-15.27,1.07c-5.96,0.89-7.83,3.61-6.26,9.87"/>
		<path class="st0" d="M655.41,115.49c3.72-8.38,7.61-16.67,7.7-26.17c0.04-4.53-1.72-7.84-5.55-9.75
			c-6.34-3.15-13.27-3.94-20.11-2.63c-4.04,0.77-5.1,4.83-5.46,8.57c-0.88,9.25-0.87,18.57-2.14,27.81
			c-0.88,6.38,2.14,8.83,8.65,7.61c3.62-0.68,7.3-0.82,10.9-0.44c3.69,0.39,5.58-0.83,6.01-4.45"/>
		<path class="st0" d="M323.39,449.69c0.77-4.22-1.06-7.77-2.69-11.47c-5.98-13.54-11.44-27.31-18.53-40.35
			c-0.69-1.27-0.84-2.87-1.12-4.34c-1.84-9.45-3.18-19.02-5.59-28.31c-2.4-9.23-5.34-18.78-5.8-27.87
			c-0.65-12.93-9.7-20.15-14.91-29.88c-3.31-6.18-6.87-12.33-11.75-17.62c-2.34-2.53,0.13-8.76,3.72-10.79
			c6.11-3.45,12.21-6.48,19.6-6.84c2.95-0.15,5.3,0.45,7.62,1.44c21.32,9.1,37.02,24.65,51.03,42.77c5.6,7.24,9.68,14.38,11.1,23.14
			c1.11,6.88,5.36,12.46,7.4,18.99c1.25,4.01,2.02,8.1,3.25,12c2.38,7.56,4.04,15.66,9.59,21.87c11.61,12.97,18.6,28.8,27.4,43.53
			c5.92,9.91,9.89,20.7,15.62,30.64c1.09,1.89,0.54,3.9,0.09,6c-2.4,11.34-2.3,22.91-1.4,34.31c0.41,5.24-0.11,10.66,1.34,15.83"/>
		<path class="st0" d="M559.45,60.97c-1.15,3.44,0.78,6.54,1.1,9.81c0.73,7.51-0.9,14.89-1.26,22.35c-0.19,3.98-1.76,7.6-7.48,7.27
			c-4.15-0.24-7.63,3.25-11.97,3.79c-2.76,0.34-5.61,0.8-8.17,0.27c-6.66-1.38-9.35-4.97-9.18-12.95
			c0.16-7.63-1.39-15.34,1.33-22.97c0.88-2.47,1.11-5.95-0.9-8.65"/>
		<path class="st0" d="M438.97,291.04c6.06,1.79,12.06-0.29,17.96-0.83c5.48-0.51,10.93-0.49,16.38-0.83
			c1.45-0.09,2.86,0.26,4.39-0.45c7.89-3.64,6.81-2.94,3.8-9.34c-4.33-9.24-11.96-14.17-25.69-11.13
			c-3.32,0.73-6.66,2.56-10.31,1.87"/>
		<path class="st0" d="M566.54,246.33c-11.84,2.23-24.08,2.51-35.43,7.12c-3.11,1.26-7.02,1.73-7.13,6.51
			c-0.13,5.02,3.32,6.73,7.13,8.17c5.26,1.99,10.93,1.62,16.37,2.64c2.64,0.49,5.46,0.05,8.16,0.64"/>
		<path class="st0" d="M583.99,305.22c1.45,1.55,1.7,3.43,1.65,5.45c-0.25,9.34,0.15,18.62,2.08,27.82
			c0.55,2.61,0.51,5.51,0.01,8.15c-2.51,13.35-2.79,26.92-4.5,40.33c-0.78,6.1-0.44,12.01-1.01,17.9
			c5.41,0.96,10.02,2.49,14.85,2.85"/>
		<path class="st0" d="M432.42,390.81c-0.3,1.72-1.76,2.86-1.72,4.91c0.31,15.89-2.93,31.54-3.44,47.42
			c-0.26,8.12-1.92,16.59-7.37,23.45"/>
		<path class="st0" d="M618.33,280.68c0.55,0.36,0.75,1.13,1.64,1.11c8.57-0.26,17.11,0.1,25.62,1.06c0.9,0.1,1.85,0.17,2.72-0.02
			c2.7-0.59,6.1-0.92,6.93-3.83c0.85-3-1.46-4.85-4.1-6.63c-4.03-2.73-8.63-4.25-12.7-6.84c-1.58-1.01-3.52-1.82-6.04-0.28
			c-3.11,1.9-0.13,3.91-0.98,5.62"/>
		<path class="st0" d="M455.32,1031.41c-0.09,1.31,0.65,2.44,0.59,3.82c-0.84,20.92,1.15,41.79,1.04,62.69"/>
		<path class="st0" d="M301.03,278.5c-0.74,2.53,0.72,4.23,2.17,6.01c5.71,7.01,8.82,14.72,6.63,23.99
			c-0.49,2.07,0.01,4.35-0.09,6.52c-0.44,10.17-10.41,18.51-20.16,16.9"/>
		<path class="st0" d="M739.91,614.88c-4.48,6.59-3.73,14.6-5.78,21.87c-3.18,11.26-4.65,22.98-7.71,34.32
			c-0.44,1.64-2.36,4.73,1.5,5.69"/>
		<path class="st0" d="M717.56,544.55c1.23,4.58-0.23,7.39-4.2,10.56c-8.35,6.66-18.13,8.87-27.98,11.19
			c-7.04,1.66-13.74,3.89-19.61,8.23"/>
		<path class="st0" d="M653.77,820.96c-4.91-0.15-9.5-1.72-14.79-0.26c-8.19,2.26-11.32,7.68-13.02,14.98
			c-1.05,4.5-1.19,9.05-1.09,13.63c0.07,2.84-0.19,5.63-1.63,8.18"/>
		<path class="st0" d="M444.42,894.02c5.32-0.4,10.37,0.73,14.62,2.17c0.8,17-1.13,33.3-2.63,49.62"/>
		<path class="st0" d="M670.13,533.65c3.09,1.72,5.07,1.85,4.67-2.73c-0.95-10.86-14.37-26.76-24.86-28.81
			c-3.58-0.7-7.39-0.5-9.8,3.19"/>
		<path class="st0" d="M715.38,701.57c-0.76,7.45-4.8,13.78-7.09,20.72c-2.82,8.54-7.94,16.17-9.81,25.08"/>
		<path class="st0" d="M651.05,740.28c6.48,4.17,14.06,4.67,21.29,5.81c6.82,1.08,13.65,2.81,20.69,2.38
			c10.55-0.64,21.21,1.23,31.66-2.06c3.02-0.95,6.61,0.18,9.77-1.23"/>
		<path class="st0" d="M744.27,617.61c-6.05-7.44-14.43-11.06-23.46-11.73c-7-0.51-14.04,1.79-19.6,6.83
			c-4.4,3.99-4.4,4.82-0.56,9.81c0.47,0.61,0.77,1.35,0.56,2.17"/>
		<path class="st0" d="M455.32,985.61c1.19,11.25,0.19,22.54,0.57,33.8c0.1,3.11-0.81,6.36,1.07,9.27"/>
		<path class="st0" d="M639.05,1019.41c7.14,3.15,14.91,3.96,22.43,5.29c-0.6,6.39,0.55,11.98,1.03,17.6
			c0.67,7.8,2.64,15.54,1.07,23.44"/>
		<path class="st0" d="M469.5,171.64c-2.72-0.3-5.28,0.41-7.62,1.66c-7.13,3.81-14.43,3-21.82,1.08c-2.71-0.7-5.45-1.28-8.18-1.92"
			/>
		<path class="st0" d="M456.96,946.9c-1.43,1.81-1.08,3.94-1.08,6c-0.01,10.54-0.01,21.08-0.01,31.62"/>
		<path class="st0" d="M493.49,951.81c-6,0.25-11.58-2.15-17.45-2.71c-10.64-1.01-20.92-4.34-31.62-4.92"/>
		<path class="st0" d="M605.25,650.86c-9.93,1.69-19.95,1.79-29.99,1.65c-2.59-0.04-5.24-0.33-7.63,1.08"/>
		<path class="st0" d="M494.58,1018.87c-16.32,1.85-31.48,7.55-46.34,14.17"/>
		<path class="st0" d="M726.28,677.58c-4.57,10.1-13.74,13.15-23.46,13.94c-6.47,0.53-13.04,1.36-19.61,0.78"/>
		<path class="st0" d="M649.41,1065.21c5.1,0.46,10.42-1.18,15.27,1.43c-1.48,11.26,0.4,22.42-1.1,33.46"/>
		<path class="st0" d="M638.51,958.9c-11.14,3.23-22.54,0.96-33.8,1.64"/>
		<path class="st0" d="M693.02,956.72c-10.16,1.29-20.28,2.91-30.53,3.27"/>
		<path class="st0" d="M761.72,352.65c-6.36-4.54-13.22-5.57-20.74-3.33c-3.12,0.93-5.67,2.12-6.51,5.52
			c-0.32,1.3-1.26,1.13-2.19,1.09"/>
		<path class="st0" d="M609.61,338.47c-0.44,2.49,1.19,3.9,2.71,5.47c6.01,6.21,12.89,11.68,16.93,19.6
			c0.62,1.22,1.83,0.26,2.71,0.55"/>
		<path class="st0" d="M329.38,371.73c-7.32,0.86-14.46,2.02-19.67,8.14c-2.49,2.93-5.41,5.49-8.14,8.21"/>
		<path class="st0" d="M734.19,356.46c0.27,1.76,1.16,3.23,2.47,4.34c6.93,5.92,14.25,11.19,23.43,13.1"/>
		<path class="st0" d="M762.26,417.52c-7.12,0.1-12.73,4.94-19.57,6.27c-2.8,0.54-5.52,0.36-8.23,0.82"/>
		<path class="st0" d="M697.39,619.79c-9.88,4.12-12.24,17.13-4.36,23.99"/>
		<path class="st0" d="M460.23,896.74c9.23,2.62,18.54,5.01,26.71,10.36"/>
		<path class="st0" d="M483.67,1096.83c-16.05-0.19-31.97,2.1-47.98,2.7c-0.9,0.03-1.82-0.34-2.72-0.52"/>
		<path class="st0" d="M736.09,699.11c-2.17,1.47-4.6,1.41-7.09,1.39c-10.37-0.08-20.79-0.45-31.05,1.2
			c-3.16,0.51-6.14,1.19-9.29,0.41"/>
		<path class="st0" d="M516.38,336.84c-4.16-0.15-6.64,3.07-9.82,4.9c-8.16,4.7-16.6,9.06-21.81,17.45"/>
		<path class="st0" d="M545.82,364.64c-6.38-6.65-14.61-10.61-22.38-15.22c-0.54-0.32-1.43-0.04-2.16-0.04"/>
		<path class="st0" d="M554,159.65c-6.54-2.18-13.05-4.48-19.65-6.45c-1.45-0.43-3.24,0.27-4.88,0.46"/>
		<path class="st0" d="M675.03,1103.37c-4.5-2.08-9.53-2.04-14.23-2.97c-7.3-1.45-14.75-2.85-22.29-3.03"/>
		<path class="st0" d="M654.32,169.46c-0.12-1.3,0.63-2.88-1.63-3.31c-6.56-1.25-13.09-2.52-19.63,0.03"/>
		<path class="st0" d="M515.84,416.98c-1.53,2.38-1.59,5.2-0.97,7.6c1.33,5.09,0.78,10.2,0.97,15.3"/>
		<path class="st0" d="M758.99,295.4c-7.55-1.4-14.62-4.78-22.35-5.45"/>
		<path class="st0" d="M659.22,649.23c0.87,3.05-2.27,2.31-3.37,3.13c-5.63,4.18-11.48,8.15-18.43,9.95"/>
		<path class="st0" d="M666.86,394.63c-7.23,2.8-14.19,6.15-20.72,10.36"/>
		<path class="st0" d="M754.09,578.35c-0.09,3.46-2.88,2.38-4.34,2.08c-9.04-1.85-18.24-0.23-27.28-1.53"/>
		<path class="st0" d="M315.75,464.96c9.2,1.01,18.28,2.69,27.25,4.94c1.81,0.45,3.55,1.14,5.46,1.06"/>
		<path class="st0" d="M456.41,1099.01c0,6.72,0,13.45,0,20.17"/>
		<path class="st0" d="M682.12,1004.69c-10.18,0.2-20.31,2.04-30.53,1.09"/>
		<path class="st0" d="M647.77,918.55c-6.08,4.26-13.23,5.67-20.17,7.63"/>
		<path class="st0" d="M476.04,982.88c-9.99,1.12-20.07,1.46-29.98,3.27c-0.37,0.07-0.73,0.18-1.09,0.27
			c0.09,0.09,0.18,0.18,0.27,0.27"/>
		<path class="st0" d="M661.95,1025.41c6.71,1.16,13.08,3.32,19.08,6.54"/>
		<path class="st0" d="M665.22,1066.84c6.54-0.32,12.56,2.93,19.08,2.73"/>
		<path class="st0" d="M661.95,446.42c2.49,0.17,3.34,2.48,4.87,3.85c4.08,3.66,8.56,5.91,14.21,4.87"/>
		<path class="st0" d="M582.9,384.27c-4.27-0.12-8.39,0.98-12.52,1.74c-1.88,0.34-3.63,0.52-5.47,0.17"/>
		<path class="st0" d="M425.34,385.36c6.09,2.93,11.55,6.81,16.96,10.83c2.64,1.96,4.67,5.28,8.66,4.99"/>
		<path class="st0" d="M660.86,1006.87c-0.2,5.81,0.49,11.66-0.55,17.45"/>
		<path class="st0" d="M365.91,371.73c-5.8-0.25-11.02-3.48-16.9-3.27"/>
		<path class="st0" d="M724.65,448.05c5.04,3.36,10.75,2.73,16.36,2.73"/>
		<path class="st0" d="M665.77,1102.83c-1.2,5.42-0.23,10.91-0.55,16.36"/>
		<path class="st0" d="M661.4,959.99c-5.45-0.44-10.9,1.44-16.36,0"/>
		<path class="st0" d="M516.38,939.27c-5.74-2.05-10.82-6.23-17.45-5.45"/>
		<path class="st0" d="M503.3,753.91c-6.12-2.35-11.61-6.15-17.99-7.91"/>
		<path class="st0" d="M713.74,422.43c1.86,3.15,3.95,6.08,6.46,8.8c2.12,2.3,4.14,5.04,3.35,8.65"/>
		<path class="st0" d="M586.17,297.58c-3.33,8.72-9.78,15.04-16.36,21.26"/>
		<path class="st0" d="M505.48,398.44c-5.09,0-10.18,0-15.27,0"/>
		<path class="st0" d="M523.47,419.16c2.77,4.76,1.41,10.25,2.73,15.27"/>
		<path class="st0" d="M346.28,414.8c-0.06,4.79,0.75,9.79-3.27,13.63"/>
		<path class="st0" d="M621.06,501.48c6.59,0.72,13.67-0.26,18.81,5.45"/>
		<path class="st0" d="M637.96,560.36c-4.02,3.65-9.18,4.34-14.17,5.45"/>
		<path class="st0" d="M320.12,449.69c6.54,1.64,13.08,3.27,19.63,4.91"/>
		<path class="st0" d="M633.05,1073.39c-3.09,0.55-6.16,1.29-9.27,1.57c-2.27,0.2-1.45,1.67-1.63,2.79"/>
		<path class="st0" d="M684.85,900.56c-7.45,0.07-14.9-1.29-22.35,0"/>
		<path class="st0" d="M325.57,452.42c-0.43,4.36,1.62,8.72,0,13.08"/>
		<path class="st0" d="M647.23,993.79c-4.36,0-8.72,0-13.08,0"/>
		<path class="st0" d="M719.19,687.39c2.35,4.39-1.97,7.88-1.64,11.99"/>
		<path class="st0" d="M750.81,219.62c-3.48,1.44-3.04,4.9-3.76,7.65c-1.37,5.19-0.74,10.56-0.44,15.79
			c0.21,3.65,9.24,5.6,12.33,2.69c4.8-4.53,7.11-10.5,8.15-16.86c0.59-3.56-0.32-6.35-4.81-7.21c-3.64-0.7-7.15-2.06-10.93-2.05"/>
	</g>
</g>
</svg>
