<?xml version="1.0" encoding="utf-8"?>
<!-- Generator: Adobe Illustrator 25.4.1, SVG Export Plug-In . SVG Version: 6.00 Build 0)  -->
<svg version="1.1" id="Layer_1" xmlns="http://www.w3.org/2000/svg" xmlns:xlink="http://www.w3.org/1999/xlink" x="0px" y="0px"
	 viewBox="0 0 1117 1117" style="enable-background:new 0 0 1117 1117;" xml:space="preserve">
<style type="text/css">
	.st0{fill:none;stroke:#000000;stroke-width:2;stroke-linecap:round;stroke-linejoin:round;stroke-miterlimit:10;}
</style>
<g>
	<g>
		<path class="st0" d="M771.82,316.66c-6.8-1.44-12.58,2.95-19.08,3.44c-0.82,0.06-2.05,2.35-2.1,3.65
			c-0.49,11.75-5.81,22.21-8.97,33.21c-6.89,23.99-13.78,47.99-20.58,72.01c-0.8,2.83-1.61,5.32,1.55,7.74
			c3.59,2.75,4.52,7.58,6.41,11.44c8.77,17.92,18.66,35.43,23.62,54.97c4.05,15.93,7.57,32,11.55,47.95
			c1.89,7.57,3.51,15.22,4.14,22.92c0.66,8.14-1.71,16.11-5.35,23.39c-7.34,14.69-16.02,28.68-22.85,43.64
			c-10.55,23.1-21.31,46.07-30.93,69.63c-9.16,22.44-18.56,44.94-30.52,66.23c-4.27,7.6-8.45,15.44-11.08,23.89"/>
		<path class="st0" d="M620.18,292.68c-1.29,0.2-2.53-0.12-2.13-1.62c2.59-9.84,2.94-20.01,4.11-30.02
			c1.25-10.69,1.59-21.49,3.43-32.15c0.85-4.91,2.9-9.4,4.17-14.16c1.58-5.91,2.31-11.87,2.48-18c0.32-11.64,1.33-23.26,1.51-34.89
			c0.46-29.97-2.31-59.63-9.16-88.88c-2.1-8.98-3.74-18.08-4.99-27.24c-2.16-15.83-13.76-26.02-28.88-25.63
			c-12.54,0.32-25.08,10.8-27.86,22.89c-3.22,14.01-4.77,28.17-5.57,42.52c-0.68,12.04-2.7,24-4.24,35.99
			c-0.35,2.73-0.5,5.44-0.52,8.18c-0.14,19.99,0.84,40.03-1.19,59.96c-1.46,14.37-1.49,28.87-4.62,43.12
			c-1.75,7.95-1.36,16.33-2.22,24.51c-0.89,8.45-2.8,16.69-4.1,25.04c-1.64,10.62-4.35,21.08-6.34,31.66
			c-0.5,2.66-1.67,5.04-2.26,7.62"/>
		<path class="st0" d="M752.18,319.39c-2.12-4.22,0.54-8.16,1.3-11.95c4.01-19.86,5.39-40.08,8.75-59.97
			c3.7-21.89,7.2-43.85,14.76-65.01c4.35-12.16,5.77-25.35,8.69-38.01c3.98-17.27,8.96-34.3,11.77-51.85
			c1.19-7.43,2.99-14.92,0.46-22.33c-1.72-5.05-4.91-8.77-10.24-11.05c-13.26-5.68-28.13,0.86-35.5,15.39
			c-8.49,16.75-16.36,33.8-21.74,51.82c-5.21,17.47-9.88,35.11-16.02,52.27c-2.7,7.55-6.91,14.57-10.07,21.93
			c-6.77,15.76-13.61,31.39-15.81,48.94c-2.22,17.65-8.35,34.67-13.28,51.84c-1.6,5.55-3.41,11.05-4.83,16.65
			c-0.58,2.27-1.58,4.02-3.34,5.43"/>
		<path class="st0" d="M507.82,456.23c-0.27-9.58,4.64-18.01,6.24-27.22c0.75-4.35,1.68-8.75,2.42-13.14
			c0.46-2.69-0.11-5.03-2.56-7.19c-3.15-2.79-5.69-6.32-8.26-9.72c-4.83-6.4-10.67-11.42-17.35-15.98
			c-9.45-6.44-17.35-14.93-25.79-22.68c-1.83-1.68-3.42-2.88-6.61-1.29c-7.12,3.56-14.74,6.02-21.79,9.89
			c-5.05,2.77-8.32,6.27-9.28,12.08c-0.84,5.12-2.73,10.02-4.9,14.71c-6.74,14.59-6.06,30.45-8.03,45.83
			c-1.41,11.02-1.87,22.16-2.84,33.24c-0.9,10.18-0.95,20.37,0.09,30.52c0.45,4.35,2.82,8.16,4.84,12"/>
		<path class="st0" d="M403.09,471.5c-1.71,0.7-2.3,2.18-2.73,3.81c-5.11,19.38-13.48,37.56-20.64,56.19
			c-2.32,6.02-4.64,12.03-7.17,17.96c-5.11,11.98-3.84,24.26-1.6,36.52c3.61,19.82,11.53,38.3,17.68,57.34
			c5.43,16.81,12.25,33.12,17.12,50.09c1.16,4.02,2.88,5.52,7.19,4.99c5.9-0.74,11.56,1.84,17.44,2.08"/>
		<path class="st0" d="M588,38.35c-1.72,0.92-3.72-0.45-5.47,0.79c-2.34,1.66-6.2,1.07-7.09,4.93c-1.29,5.61-4.26,11.07-0.57,16.93
			c2.12,3.37,4.68,6.58,5.02,10.87c0.11,1.4,1.18,2.79,2.66,3.24c6.21,1.89,12.55,3.38,19.07,2.69c4.93-0.52,6.23-4.85,6.4-8.66
			c0.34-7.45,0.93-15.03-1.48-22.35c-1.93-5.86-5.38-7.88-13.09-8.29c-1.6-0.09-4.8,2.07-4.92-2.06"/>
		<path class="st0" d="M720,435.52c-2.29,1.81-2.88,4.53-3.83,7.08c-5.73,15.48-8.22,31.48-8.26,47.98
			c-0.02,7.9-2.66,15.53-3.26,23.44c-0.82,10.73-2.37,21.39-2.77,32.17c-0.2,5.35,1.77,9.93,3.38,14.72"/>
		<path class="st0" d="M408.55,527.11c0.14,11.22-0.96,22.54,3.76,33.28c1.69,3.85,3.61,7.52,6.09,10.86
			c6.26,8.45,7.52,18.75,10.21,28.41c6.54,23.5,13.81,46.75,21.88,69.77c1.92,5.47,5.32,10.64,4.43,16.88"/>
		<path class="st0" d="M692.73,410.44c0.22,14.21-3.75,27.54-9.44,40.27c-2.87,6.43-7.48,11.76-15.63,12.79
			c-3.7,0.47-7.55,2.99-9.14,6.44c-2.98,6.48-8.11,11.51-11.07,17.92"/>
		<path class="st0" d="M610.91,358.64c1.4,3.54-0.41,6.92-0.47,10.36c-0.35,19.54-4.94,38.73-4.55,58.34
			c0.07,3.44-1.56,6.88-1.99,10.37c-0.25,2.04-0.86,4.5,1.55,5.99"/>
		<path class="st0" d="M551.45,388.63c-4.86-0.52-6.63,3.21-7.52,6.57c-4.83,18.22-11.83,36.1-9.47,55.59
			c0.39,3.2,0.71,6.03,3.9,7.62"/>
		<path class="st0" d="M422.73,683.03c10.82-1.57,21.3,0.26,31.62,3.31c2.25,0.66,3.18,2.85,3.8,4.88
			c6.37,20.93,12,42.06,17.48,63.23c0.23,0.9-0.46,1.98,0.55,2.72"/>
		<path class="st0" d="M578.18,408.26c0.69,3.59-0.34,6.99-2.26,9.76c-7.34,10.63-12.16,22.69-19.34,33.46
			c-2.8,4.19-3.63,9.95-4.42,15.14c-0.57,3.81-1.79,7.53-1.8,11.42"/>
		<path class="st0" d="M722.73,262.69c4.69,1.23,9.49,0.69,14.17,0.42c5.11-0.3,7.76-4.93,7.64-11.87
			c-0.08-4.77-2.51-6.44-8.16-7.74c-9.55-2.2-18.63,0.13-27.84,1.75"/>
		<path class="st0" d="M664.91,1031.41c-0.55,8.54-1.47,17.08-1.56,25.62c-0.23,20.71-0.07,41.43-0.07,62.15"/>
		<path class="st0" d="M427.64,455.14c-1.59,11.96-1.85,24.09-8.6,34.97c-6.03,9.71,1.96,20.85,9.16,24.96
			c0.73,0.42,1.07-0.7,1.62-1.05"/>
		<path class="st0" d="M449.45,791.52c3.63,12.48-2.24,23.5-5.55,34.87c-1.05,3.62-3.14,6.95-4.83,10.38
			c-1.54,3.11-2.43,6.32-2.78,9.81c-0.67,6.57-1.51,13.14-2.78,19.61c-0.48,2.43-1.18,5.43-0.23,7c4.73,7.85,7.15,16.38,9.14,25.18
			c2.57,11.41,7.71,22.02,10.87,33.27c3,10.7,5.42,21.42,5,32.72c-0.43,11.43-0.09,22.89-0.1,34.34c0,2.37,0.17,4.77-0.54,7.09"/>
		<path class="st0" d="M645.82,488.13c4.01-0.84,2.36,2.76,2.05,3.49c-6.27,14.58-10.01,30.26-18.95,43.68
			c-2.63,3.94-4.92,8.07-6.55,12.54"/>
		<path class="st0" d="M634.36,705.93c-9.1,9.91-21.22,15.59-32.18,22.9c-6,4-12.04,7.94-17.98,12.03
			c-1.94,1.33-4.97,1.97-4.39,5.42"/>
		<path class="st0" d="M666,800.79c2.24-0.3,2.45,1.18,2.14,2.72c-0.37,1.85-0.99,3.66-1.61,5.46c-4.28,12.57-2.15,25.47-1.4,38.15
			c0.56,9.53-1.43,18.57-2.34,27.83c-0.58,5.99-2.23,11.89-1.71,17.98c0.24,2.8-0.7,3.71-3.76,4.57
			c-8.7,2.44-17.77,4.31-25.15,10.15"/>
		<path class="st0" d="M409.64,699.39c0.5,7.22,4.16,13.35,7.2,19.57c4.83,9.89,8.96,19.98,11.92,30.58
			c0.51,1.82,0.5,3.63,0.52,5.46"/>
		<path class="st0" d="M496.91,857.49c-2.41-1.49-1.52-3.9-1.62-6c-0.3-6.23-0.64-12.49-2.25-18.52
			c-2.92-10.89-13.23-15.56-24.76-12.01"/>
		<path class="st0" d="M618.27,293.22c-2.2,19.75-4.92,39.47-3.03,60.29c-6.96,5.4-14.98,9.06-24.52,8.95"/>
		<path class="st0" d="M647.45,397.35c0.2,4.18-1.93,7.83-3.44,11.38c-4.25,10.01-9.24,19.72-14.04,29.5
			c-1.96,4.01-4.53,7.15-9.8,6.61c-3.79-0.38-7.63,1.36-11.45-0.06"/>
		<path class="st0" d="M523.64,357.01c1.66,0.67,3.33,1.33,4.71,1.89c-2.72,15.09-6.61,29.68-9.53,44.47
			c-0.49,2.51-1.17,4.82-2.28,7.07"/>
		<path class="st0" d="M663.82,859.13c-6.92-1.84-13.48,1-20.17,1.77c-7.52,0.86-14.93,2.74-22.38,4.24
			c-2.03,0.41-3.8,1.48-5.46,2.71"/>
		<path class="st0" d="M659.45,897.83c0.55,4.54,1.55,9.09,1.55,13.63c-0.02,11.33,0.99,22.57,2.27,33.8"/>
		<path class="st0" d="M608.18,241.43c-0.62-0.23-1.59,0.55-1.9-0.55c-1.05-3.75-4.25-5.06-7.39-5.32
			c-5.54-0.46-10.12-3.69-15.77-4.27c-6.69-0.7-13.13-1.08-19.67,0.33"/>
		<path class="st0" d="M664.91,985.61c-1.2,11.25-0.19,22.54-0.57,33.8c-0.1,3.11,0.81,6.36-1.07,9.27"/>
		<path class="st0" d="M416.18,782.8c7.85,1.49,15.64,3.31,23.42,5.07c17.58,3.98,35.2,7.66,52.95,10.74"/>
		<path class="st0" d="M420,616.52c-2.03-7.55-7.28-11.67-14.74-12.43c-7.48-0.76-14.96-0.49-20.21,6.41
			c-0.73,0.96-0.32,1.85-0.51,2.76"/>
		<path class="st0" d="M457.64,1025.95c1.9,6.24,0.12,12.52-0.78,18.5c-2.67,17.8-1.69,35.64-1.94,53.46
			c-0.1,7.09,0.13,14.19-0.56,21.26"/>
		<path class="st0" d="M662.18,355.37c-3.04,2.79-3.4,6.68-4.38,10.35c-2.64,9.89-6.96,19.29-8.71,29.44"/>
		<path class="st0" d="M579.27,870.3c-4.97,3.67-10.6,6.29-15.78,9.6c-8.31,5.3-15.27,12.29-22.4,19.02"/>
		<path class="st0" d="M662.73,946.36c2.23,12.65,1.57,25.42,1.64,38.16"/>
		<path class="st0" d="M400.36,539.1c-4,2.18-8.02,4.32-11.99,6.55c-6.42,3.62-8.95,10.4-6.59,16.91c0.98,2.7,3.02,2.1,4.95,2.17"/>
		<path class="st0" d="M625.64,1018.87c15.95,1.97,30.87,7.26,45.27,14.17"/>
		<path class="st0" d="M606.27,241.97c-0.91,4.41-4.69,4.71-7.91,4.81c-8.72,0.25-17.46,0.04-26.18,0.65"/>
		<path class="st0" d="M673.09,944.18c-9.64,1.64-19.24,3.52-28.92,4.81c-5.33,0.71-10.4,2.66-15.81,2.82"/>
		<path class="st0" d="M533.45,324.3c-2.85,7.93-2.04,16.43-3.76,24.55c-0.66,3.11-0.74,6.35-2.24,9.26"/>
		<path class="st0" d="M447.82,852.04c-5.69,1.41-11.3-0.34-16.9-0.72c-9.78-0.66-19.33,0.45-28.92,1.81"/>
		<path class="st0" d="M422.73,647.59c-9.32-0.94-18.6-2.19-27.81-3.88c-1.72-0.32-3.28-0.71-4.92,0.07"/>
		<path class="st0" d="M568.36,653.05c-5.05,7.12-9.94,14.35-15.21,21.31c-2.52,3.32-3.43,7.54-4.97,11.4"/>
		<path class="st0" d="M507.27,430.06c-2.41-2.16-5.72-2.72-8.27-4.8c-1.51-1.23-4.15-1.26-5.85-0.02c-1.99,1.45-0.59,3.36-0.27,5.4
			c1.41,8.96,3.82,17.71,5.12,26.68"/>
		<path class="st0" d="M472.91,959.99c-9.68,0.8-19.3-0.15-28.91-1.12c-5.65-0.57-11.28-1.43-16.91-2.15"/>
		<path class="st0" d="M483.27,958.9c1.32,2.21,3.5,1.62,5.45,1.62c8,0.03,16,0.01,24,0.01"/>
		<path class="st0" d="M482.73,1097.37c-9.07-0.25-17.74,2.78-26.73,3.27"/>
		<path class="st0" d="M448.91,753.91c-5.75,2.56-12.15,2-18.02,2.26c-5.79,0.26-11.62,0.94-17.42,1.22
			c-4.15,0.2-8.45-0.4-12.56,0.88"/>
		<path class="st0" d="M687.82,1099.55c-10.91-0.55-21.84-0.81-32.72-1.75c-5.84-0.51-11.6-1.64-17.46-0.43"/>
		<path class="st0" d="M615.82,300.31c-8.81,5.47-14.88,13.33-19.64,22.35"/>
		<path class="st0" d="M514.91,632.87c-7.59-2.8-15.62-3.69-23.45-5.45"/>
		<path class="st0" d="M725.45,343.65c-6.94,6.08-14.91,10.72-22.36,16.08"/>
		<path class="st0" d="M518.73,315.57c7.78,6.05,17.46,7.98,26.19,11.98c3.77,1.73,7.63,3.29,11.45,4.92"/>
		<path class="st0" d="M470.73,917.46c5.73,5.7,13.65,6.21,20.73,8.72"/>
		<path class="st0" d="M405.82,696.66c-7.12,1.09-14.17-0.82-21.27-0.55"/>
		<path class="st0" d="M481.64,1019.96c-12.34,3.2-25.17,4.33-37.14,9.14c-1.82,0.73-3.51,1.77-5.4,2.31"/>
		<path class="st0" d="M750.55,316.66c-4.34-1.12-8.05,1.26-11.98,2.25c-2.82,0.71-5.47,2.11-8.2,3.2"/>
		<path class="st0" d="M643.64,982.88c9.45,0.91,18.91,1.84,28.37,2.69c1.1,0.1,2.08,0.1,2.72,1.13"/>
		<path class="st0" d="M438,1004.69c9.83,0.15,19.58,2.14,29.45,1.09"/>
		<path class="st0" d="M667.64,330.84c-3.24,3.89-2.18,9-3.74,13.39c-0.69,1.94-0.86,4.04-2.26,5.7"/>
		<path class="st0" d="M458.18,1006.87c0.2,5.81-0.49,11.66,0.55,17.45"/>
		<path class="st0" d="M453.82,1066.84c-5.57,0.22-10.87,2.03-16.36,2.73"/>
		<path class="st0" d="M556.91,351.56c-3.76-1.57-7.74-2.73-10.89-5.47c-1.62-1.4-3.48-1.65-5.47-1.62"/>
		<path class="st0" d="M620.18,933.82c-6.16,0.43-11.9,1.9-16.36,6.54"/>
		<path class="st0" d="M430.91,757.18c4.11,8.76,6.73,18.22,12.53,26.18c0.92,1.26,1.15,2.79,1.11,4.35"/>
		<path class="st0" d="M529.09,359.73c5.27,0.93,10.41,2.62,15.82,2.73"/>
		<path class="st0" d="M459.27,599.62c-0.89,6.54,1.23,11.84,6.55,15.81"/>
		<path class="st0" d="M494.73,659.04c-5.52,4.56-10.56,9.55-14.18,15.81"/>
		<path class="st0" d="M633.27,399.53c2.42-3.97,6.59-1.99,9.85-2.54c6.81-1.15,13.79-1.27,20.7-1.82"/>
		<path class="st0" d="M680.73,854.22c-4.51,2.05-9.29,2.91-14.18,3.27"/>
		<path class="st0" d="M615.82,999.24c-4.58-0.13-9.05-0.85-13.36-2.45"/>
		<path class="st0" d="M465.27,647.05c-4.73-0.73-9.45-1.45-14.18-2.18"/>
		<path class="st0" d="M445.64,722.28c-4.37,0.08-8.75-0.28-13.09,0.55"/>
		<path class="st0" d="M432,616.52c-1.13,1.17-2.59,0.58-3.81,0.49c-5.23-0.39-10.1,0.68-14.73,3.06"/>
		<path class="st0" d="M496.91,683.03c-5.45,0.36-10.91,0.73-16.36,1.09"/>
		<path class="st0" d="M673.09,894.02c-3.91-0.58-7.53,1.81-11.45,1.09"/>
		<path class="st0" d="M653.45,352.65c0.29-2.01-0.75-4.27,1.35-6.57c8.35,4.31,11.19,13.84,18.28,19.11"/>
		<path class="st0" d="M487.09,1073.93c3.58-0.25,6.95,0.81,10.36,1.64"/>
		<path class="st0" d="M662.18,313.39c-0.21,2.79,1.26,4.94,2.72,7.09c1.56,2.31,3.21,4.55,2.77,7.64
			c-0.14,1.02,0.16,1.72,1.55,2.29c2.76,1.14,4.4,3.89,6.59,5.88"/>
		<path class="st0" d="M604.91,1085.38c-0.18-1.13,0.63-2.57-1.63-2.81c-2.12-0.22-3.95,1.09-6.01,0.63"/>
		<path class="st0" d="M468.55,1064.66c-4.1,1.28-8.44-0.16-12.55,1.09"/>
		<path class="st0" d="M768.55,76.78c-7.74,2.16-8.73,9.03-11.02,15.23c-1.55,4.2-0.14,8.08,0.25,12.02
			c0.29,2.87,3.57,4.25,5.85,4.19c5.15-0.12,9.62,2.18,14.08,3.76c3.5,1.24,3.87-0.22,5.03-2.21c5.12-8.81,3-18.06,0.85-26.94
			c-1.1-4.54-6.69-4.73-10.7-6c-1.16-0.37-2.53-0.06-3.8-0.06"/>
	</g>
</g>
</svg>
