<?xml version="1.0" encoding="utf-8"?>
<!-- Generator: Adobe Illustrator 25.4.1, SVG Export Plug-In . SVG Version: 6.00 Build 0)  -->
<svg version="1.1" id="Layer_1" xmlns="http://www.w3.org/2000/svg" xmlns:xlink="http://www.w3.org/1999/xlink" x="0px" y="0px"
	 viewBox="0 0 1117 1117" style="enable-background:new 0 0 1117 1117;" xml:space="preserve">
<style type="text/css">
	.st0{fill:none;stroke:#000000;stroke-width:2;stroke-linecap:round;stroke-linejoin:round;stroke-miterlimit:10;}
</style>
<g>
	<path class="st0" d="M676.99,677.29c-1.18,1.85-1.31,3.93-1.07,5.99c1.07,9.06,0.64,18.18,0.92,27.27
		c0.52,16.7,0.81,33.47-0.02,50.14c-1.06,21.46-1.01,42.99-4.05,64.36c-1.69,11.88-0.25,23.97-0.35,35.96
		c-0.06,6.51,0.32,13.13-0.89,19.63"/>
	<path class="st0" d="M640.46,869.2c-0.12,4.23,3.85,3.97,6.06,4.74c7.48,2.62,15.14,4.8,22.87,6.59c3.52,0.81,3.82,2.19,2.72,5.04
		c-1.16,3-0.99,6.29-0.44,9.24c1.4,7.48-0.24,15.1,0.73,22.34c1.94,14.59-3.73,27.44-6.82,40.94c-2.46,10.75-4.54,21.59-4.4,32.7"/>
	<path class="st0" d="M362.96,447.22c3-1.11,6.03-1.45,9.27-1.15c10.7,0.99,21.51,0.52,32.16,2.24c6.55,1.06,13.22,3.57,19.6,2.94
		c10.03-0.98,19.7,0.91,29.45,1.66c9,0.7,17.83,0.89,26.73-0.25"/>
	<path class="st0" d="M1072.25,454.31c-7.5-3.21-15.54-3.67-23.44-3.67c-11.63-0.01-23.26,1.36-34.89,1.39
		c-14.92,0.05-29.8,0.88-44.71,1.19"/>
	<path class="st0" d="M258.83,449.95c-9.79-1.23-19.64-0.68-29.44-0.42c-10.92,0.28-21.83,1.24-32.73,2.47
		c-11.24,1.26-22.49,2.57-33.77,3.55c-11.27,0.98-22.44,3.14-33.81,3.09c-2.12-0.01-4.07,0.39-6,1.13"/>
	<path class="st0" d="M478,678.93c-9.58,0.05-18.93-1.72-28.39-2.99c-10.59-1.42-21.41-1.65-32.13-2.47
		c-23.62-1.8-47.28,1.53-70.86-0.17c-15.81-1.14-31.71,0.25-47.44-2.04c-4.39-0.64-8.73,1.6-13.09,0.03"/>
	<path class="st0" d="M462.19,773.25c-0.36,2.91-0.97,5.81-1.05,8.72c-0.29,11.08-0.5,22.17-0.56,33.26
		c-0.07,13.11-1.21,26.18-1.45,39.26c-0.15,8.34,0.68,16.73-0.25,25.07c-1.51,13.61-2.36,27.31-3.34,40.92
		c-1.13,15.68-2.78,31.46-1.3,47.43c1.2,12.94,1,26.15-0.23,39.22"/>
	<path class="st0" d="M676.45,532.27c2.54,8.08,1.19,16.35,0.93,24.53c-0.04,1.37-0.35,2.93-0.35,4.37
		c0.02,25.26-0.04,50.52-0.58,75.78c-0.04,1.89,0.3,3.84-1.09,5.45"/>
	<path class="st0" d="M502.53,541.54c-6.35-3.27-12.83-6.03-20.17-6.02c-3.11,0-4.18,0.32-4.06,4.39
		c0.38,12.71,0.87,25.48-1.31,38.17c-1.04,6.09-1.68,12.35-1.63,18.52c0.14,17.96-2.62,35.66-4.52,53.42
		c-1.01,9.44-0.86,18.99-2.66,28.36"/>
	<path class="st0" d="M968.12,453.22c-9.22,1.37-18.54,1.79-27.81,2.06c-15.43,0.44-30.89,0.18-46.34,0.06
		c-2.55-0.02-5.09,0.83-7.63,0.06"/>
	<path class="st0" d="M1048.81,711.64c-7.18-10.57-12.28-22.09-15.84-34.34c-0.51-1.74-1.65-2.82-3.79-2.77
		c-12.92,0.28-25.81-0.22-38.71-0.93c-8.89-0.49-17.77-1.28-26.71-1.33c-18.19-0.1-36.33,1.24-54.52,1.41
		c-6.48,0.06-13.24-0.4-19.66,1.87c-1.23,0.44-2.72-1.01-4.33-1.03c-18.93-0.31-37.84,0.16-56.69,1.81
		c-6.18,0.54-12.7-0.55-18.55,2.6"/>
	<path class="st0" d="M219.03,672.93c-10.86,1.44-21.74,2.04-32.71,2.32c-20,0.52-40.02,0.63-59.99,2.35
		c-6.08,0.52-12.29,2.19-18.52,0.78"/>
	<path class="st0" d="M439.29,71.59c-1.93,9.78-1.05,19.63-0.5,29.44c0.74,13.46,1.24,26.96,2.84,40.33
		c1.61,13.43,2.82,26.87,3.67,40.36"/>
	<path class="st0" d="M676.45,453.22c0.75,1.95,0.54,3.99,0.54,6c0.01,19.99-0.01,39.98,0.03,59.97c0,2.38-0.29,4.75,0.73,7.12
		c0.9,2.09-0.02,4.6-1.88,5.3c-6,2.26-10.19,6.94-15.29,10.37c-1.38,0.93-2.66,2.77-4.83,2.29"/>
	<path class="st0" d="M673.72,300.57c0.71,4.33,1.08,8.69,1.1,13.08c0.09,17.46,0.01,34.9,1.33,52.36
		c0.62,8.21-0.58,16.73-0.09,25.05c0.49,8.37-0.32,16.77,0.93,25.09"/>
	<path class="st0" d="M664.45,5.62c-0.05,6.99,0.27,13.83,1.87,20.79c0.99,4.32,0.49,9.51-0.39,14.07
		c-1.8,9.32-0.17,18.57-0.4,27.83c-0.18,7.45-0.33,14.91-0.38,22.35c-0.12,15.08-0.37,30.15,0.68,45.27
		c0.75,10.84,0.72,21.8,1.33,32.69c0.63,11.44,1.11,22.9,1.66,34.35"/>
	<path class="st0" d="M588.13,1050.75c-2.8,1.43-5.14-0.63-7.61-1.18c-7.95-1.78-16.02-0.82-24.02-1.4
		c-8.86-0.64-17.81-0.07-26.7-0.69"/>
	<path class="st0" d="M806.75,676.75c-5.34,1.56-10.87,2.18-16.35,2.11c-23.28-0.33-46.52,1.08-69.79,1.09
		c-11.81,0.01-23.68,1.05-35.44-1.01c-0.53-0.09-1.11,0.09-1.63-0.03c-7.09-1.66-7.21-1.67-7.06-9.25
		c0.16-8.18-0.67-16.38,0.51-24.53"/>
	<path class="st0" d="M606.12,808.14c-0.43,3.42,1.57,3.75,4.36,3.88c8.59,0.39,17.06-1.11,25.62-1.35
		c7.62-0.21,15.25-0.96,22.9-0.89"/>
	<path class="st0" d="M113.27,646.76c-2,10-4.01,19.99-5.99,29.99c-0.49,2.46-1.96,3.3-4.37,3.3c-16.95-0.02-33.9-0.35-50.69-2.84
		c-10.15-1.51-20.38-1.53-30.55-2.56c-4.42-0.45-8.57-1.42-12.53-3.35c-1.76-0.86-3.6-0.71-5.45-0.54"/>
	<path class="st0" d="M455.64,1009.31c0.08,8.42,1.47,16.76,1.86,25.09c0.4,8.44,1.92,17.16-0.75,25.62
		c-0.16,0.5-0.04,1.09-0.02,1.63c0.52,10.39-0.69,20.72-1.09,31.08"/>
	<path class="st0" d="M479.09,513.74c-12.92,0.4-25.52,3.12-38.16,5.46c-5.05,0.94-10.04,2.37-15.27,1.63"/>
	<path class="st0" d="M668.27,204.07c0.81,14.38,2.02,28.73,3.03,43.09c1.23,17.41,3.48,34.8,2.97,52.32"/>
	<path class="st0" d="M384.23,66.68c6.68,1.08,13.49,1.22,20.18,1.43c17.48,0.56,34.77,2.08,51.79,6.2"/>
	<path class="st0" d="M1118.05,675.11c-19.45,0.73-38.89,1.68-58.34,2.05c-6.7,0.13-13.51,0.06-20.19-1.44
		c-1.91-0.43-4.03-0.27-5.98,0.47"/>
	<path class="st0" d="M660.64,36.7c-12.54,7.63-24.45,16.28-37.57,22.99c-3.04,1.56-5.55,4.21-8.21,6.47
		c-2.53,2.13-2.46,5.23-2.74,8.16"/>
	<path class="st0" d="M496.53,1014.22c-4.52-3.45-9.95-4.03-15.27-4.27c-7.82-0.35-15.65-0.92-23.42-1.46
		c-13.28-0.92-26.53-1.15-39.82-1.44c-4.75-0.1-9.53-0.83-14.18-2.09"/>
	<path class="st0" d="M922.87,623.86c-3.12,2.96-1.81,6.56-1.03,9.8c4.05,16.78,6.99,33.79,10.29,50.72
		c0.32,1.62-0.67,3.39,0.55,4.91"/>
	<path class="st0" d="M468.73,679.47c-1.7,12.3-2.6,24.69-3.19,37.08c-0.87,18.57-2.18,37.1-3.9,55.61"/>
	<path class="st0" d="M180.87,629.32c0.68,15.19,4.68,30.01,4.91,45.25"/>
	<path class="st0" d="M475.82,180.63c-17.23-0.23-34.23,1.91-51.27,4.22c-7.88,1.07-15.97,2.58-23.97,0.14"/>
	<path class="st0" d="M660.09,992.41c0,7.16-1.6,14.16-2.28,21.25c-1.29,13.45-0.84,26.9-0.99,40.35c-0.02,2.01,0.2,4.05-0.54,6"/>
	<path class="st0" d="M400.04,33.97c0.1,1.31-0.13,2.35,1.57,3.37c11.73,7.04,23.85,13.35,36.09,19.44c3,1.49,3.84,2.99,2.75,6.1
		c-0.85,2.44-1.15,5.07-1.7,7.61"/>
	<path class="st0" d="M448.56,6.71c-1.76,15.36-4.06,30.63-6.95,45.82c-0.35,1.85-1.47,3.16-1.77,4.88"/>
	<path class="st0" d="M633.38,663.12c0.24,4.52-2.26,4.16-5.46,3.32c-6.14-1.61-12.3-3.21-18.54-4.32
		c-4.47-0.8-9.07-0.81-13.61-1.18"/>
	<path class="st0" d="M243.02,672.39c9.07,1.2,18.19,0.62,27.25,0.36c3.8-0.11,7.72-0.62,11.43-0.15c2.28,0.29,3.79-0.12,3.73-1.85
		c-0.42-11.72,2.74-23.19,2.29-34.9"/>
	<path class="st0" d="M415.85,850.66c13.82,3.09,27.76,5.12,41.98,4.36"/>
	<path class="st0" d="M457.28,699.1c-12.89,4.97-24.2-1.9-35.92-5.14c-1.35-0.37-3.28-0.03-4.43-1.4"/>
	<path class="st0" d="M816.56,698.01c0.24-7.33-3.39-13.39-7.21-19c-7.43-10.91-15.16-21.58-18.87-34.45
		c-0.44-1.53-1.61-2.11-2.12-3.29c-2.38,0.01-2.89,1.99-3.96,3.31"/>
	<path class="st0" d="M444.2,183.35c-0.09,5.27,0.1,10.56-0.34,15.8c-0.57,6.74-0.25,13.46-0.16,20.18
		c0.16,12.37,0.78,24.72,1.53,37.08c1.32,21.82,3.8,43.46,8.24,64.87"/>
	<path class="st0" d="M296.99,470.12c-0.9,12.03-1.82,24.06-3.74,36c-0.18,1.12-1.07,1.7-1.17,2.71"/>
	<path class="st0" d="M618.66,671.84c-12.77,1.5-25.45-0.46-38.16-1.09"/>
	<path class="st0" d="M1066.53,463.03c7.36-6.53,9.25-15.68,11.7-24.54c1.28-4.63,1.41-9.41,1.07-14.16c-0.25-3.4-1.1-6.64-5.4-7.09
		"/>
	<path class="st0" d="M640.46,687.65c2.03,3.7,5.32,4.44,9.27,4.41c17.45-0.14,34.9,0.07,52.34-0.5c1.25-0.04,2.54-1.36,3.81-0.1"/>
	<path class="st0" d="M442.01,207.34c-10.1-1.36-20.02,0.77-29.96,1.86c-2.02,0.22-4.16-1.33-6.02,0.33"/>
	<path class="st0" d="M704.8,195.89c-7.87,0.19-15.19,3.23-22.86,4.56c-10.9,1.89-21.62,4.8-32.75,5.25
		c-1.88,0.08-3.47,1.57-5.45,1.1"/>
	<path class="st0" d="M701.52,138.1c-7.32,0.18-14.46,1.99-21.8,2.4c-4.34,0.24-8.71,0.83-13.1,0.87"/>
	<path class="st0" d="M675.9,417.78c0.92,5.43-0.39,10.87,0.4,16.38c0.85,5.9,0.51,11.97,0.7,17.97l209.9,4.36
		c0.36,6,0.73,11.99,1.09,17.99"/>
	<path class="st0" d="M889.61,676.2c-0.38,1.67,0.28,3,1.65,3.79c9.06,5.24,7.39,13.68,6.49,21.83c-0.37,3.39-2.86,6.04-3.78,9.27"
		/>
	<path class="st0" d="M768.58,549.72c-1.96,9.57-1.05,19.25-1.05,28.9c0,1.26-0.67,2.69,0.51,3.82"/>
	<path class="st0" d="M360.24,417.24c5.48,2.17,6.51,4.06,5.43,10.35c-0.38,2.21-0.74,4.52-1.68,6.52
		c-2.09,4.43-1.74,9.03-1.57,13.66"/>
	<path class="st0" d="M458.37,1092.73c-9.64,1.38-19.44,1.69-28.9,4.33c-2.34,0.65-4.7-0.53-7.08-0.51"/>
	<path class="st0" d="M40.21,610.78c-2.87,10.37-3.67,21.14-6,31.62"/>
	<path class="st0" d="M454.55,920.99c-5.29-1.17-9.64,2.51-14.71,2.82c-5.58,0.34-11.11,1.09-16.63-0.37"/>
	<path class="st0" d="M308.99,651.12c-0.03,1.38,0.14,2.32,1.57,3.36c6.96,5.06,8.85,12.46,8.8,20.63
		c-0.06,9.83-0.2,19.66,1.08,29.44"/>
	<path class="st0" d="M567.41,968.42c-10.4,2.49-20.9,3.96-31.62,3.27"/>
	<path class="st0" d="M583.76,1006.59c-10.54-1.82-21.08-3.63-31.62-5.45"/>
	<path class="st0" d="M293.18,417.78c-0.55,5.63-1.26,11.26-1.58,16.9c-0.26,4.53-0.05,9.08-0.05,13.63"/>
	<path class="st0" d="M485.63,623.86c-6.56-4.54-14.25-1.7-21.28-3.2c-0.8-0.17-1.84,0.58-2.7,1.03c-4.17,2.2-8.47,2.62-13.11,1.72
		c-1.87-0.36-4.06-0.67-5.98,0.44"/>
	<path class="st0" d="M675.9,368.17c-10.36,0.23-20.68,1.71-31.08,1.09"/>
	<path class="st0" d="M663.91,76.49c-10.42,5.15-22.39,7.26-31.08,15.81"/>
	<path class="st0" d="M657.36,1061.65c-0.95,8.18-0.72,16.34-0.05,24.54c0.52,6.35,2.75,12.6,1.14,19.08"/>
	<path class="st0" d="M673.72,883.37c10.57,2.29,20.76,5.71,30.53,10.36"/>
	<path class="st0" d="M42.94,487.02c-3.15-4.88-1.86-10.56-2.57-15.83c-1.51-11.08-2.59-22.22-4.61-33.22
		c-0.6-3.28-0.46-7.81-5.9-7.65"/>
	<path class="st0" d="M428.39,769.16c9.23,3.05,18.88,2.36,28.36,2.87c5.74,0.31,11.13,2.59,16.89,2.31"/>
	<path class="st0" d="M586.49,1088.36c0.56,1.26,0.47,2.89,2.73,2.77c8.35-0.45,16.74,0.63,25.08-0.59"/>
	<path class="st0" d="M537.97,804.32c-9.81-0.55-19.63-1.09-29.44-1.64"/>
	<path class="st0" d="M15.68,490.84c3.27,7.09,6.42,14.23,9.88,21.23c1.16,2.34,1.77,4.58,1.57,7.12"/>
	<path class="st0" d="M261.56,448.86c5.63,0,11.27,0,16.9,0c4.18,0,8.36,0,12.54,0"/>
	<path class="st0" d="M1079.34,647.31c4.27,6.44,6.92,13.4,6.53,21.26c-0.24,4.78,0.41,9.48,1.1,14.18"/>
	<path class="st0" d="M969.76,454.31c2.84,10.14,6.09,20.14,9.81,29.99"/>
	<path class="st0" d="M406.58,671.84c0.32-6.77-1.71-13.04-4.43-19.05c-1.53-3.37-3.6-6.62-8.11-6.57"/>
	<path class="st0" d="M475.82,259.68c-6.93-0.19-13.55,1.53-20.18,3.23c-2.65,0.68-5.36,1.41-8.17,1.13"/>
	<path class="st0" d="M675.9,751.44c-9.25-0.93-18.42-3.11-27.8-1.64"/>
	<path class="st0" d="M452.37,377.44c-7.87,5.6-17.55,6.63-26.2,10.28c-1.75,0.74-3.93,0.4-3.24-2.64"/>
	<path class="st0" d="M1029.73,674.02c0.67-3.4-1.68-5.9-2.83-8.68c-1.79-4.34-4.34-8.36-6.41-12.6c-1.31-2.68-2.89-3.65-5.48-1.62"
		/>
	<path class="st0" d="M64.2,650.03c0.26,9.67-3.97,18.46-5.65,27.77c-1.19,6.62-0.4,13.13-0.89,19.66"/>
	<path class="st0" d="M656.27,1017.49c-9.06-1.48-18.08-3.21-27.26-3.82"/>
	<path class="st0" d="M3.68,456.49c11.43,0.95,22.87,1.69,34.35,1.64l83.96,0.55c-1.74-11.97-5.13-23.43-10.36-34.35"/>
	<path class="st0" d="M880.35,612.96c-6.47-7.67-7.05-18.28-13.08-26.17"/>
	<path class="st0" d="M515.07,170.27c-7.43-1.13-14.91-0.25-22.35-0.57c-2-0.09-4.08,0.59-6-0.52"/>
	<path class="st0" d="M471.46,229.69c-4.8,0.35-9.24-1.15-13.62-2.76c-4.25-1.56-8.57-2.38-13.1-2.15"/>
	<path class="st0" d="M700.43,652.21c-12.66-3.63-24.39-10.07-37.61-12.08c-4.92-0.75-9.49-0.64-13.91,1.72"/>
	<path class="st0" d="M213.04,458.13c-2.8,5.79-1.3,11.98-1.61,17.99c-0.16,3.08-0.03,6.18-0.03,9.27"/>
	<path class="st0" d="M829.64,458.67c0.73,7.3-1.25,14.25-2.76,21.26c-0.32,1.5-1.07,2.91,0.03,4.37"/>
	<path class="st0" d="M644.83,495.74c-8.48,2.13-17.67,1.97-25.08,7.63"/>
	<path class="st0" d="M636.1,586.79c-6.18-0.36-12.36-0.77-18.54-1.07c-2.23-0.11-4.52-0.23-6.54,1.07"/>
	<path class="st0" d="M378.23,419.96c-2.88,8.59-7.69,16.39-10.36,25.08"/>
	<path class="st0" d="M701.52,508.28c-5.36,9.09-13.95,14.3-22.9,19.08"/>
	<path class="st0" d="M1074.98,452.67c4.98,1.93,10.19,0.67,15.26,1.14c7.65,0.71,15.31,1.53,22.87,2.84
		c1.83,0.32,3.3-0.58,4.94-0.17"/>
	<path class="st0" d="M957.76,674.02c1.04,5.63,3.65,10.78,5.12,16.3c0.69,2.58,1.4,5.03,1.43,7.69"/>
	<path class="st0" d="M687.35,1111.26c-6.54-1.09-13.18-1.79-19.6-3.38c-6.28-1.56-8.12-2.6-7.67,6.11
		c0.05,0.91,0.01,1.82,0.01,2.73"/>
	<path class="st0" d="M478,317.47c-8.41-1.21-15.94,1.77-23.44,4.91l23.75,217.54"/>
	<path class="st0" d="M246.29,648.94c-0.81,8.11-3,15.98-4.36,23.99"/>
	<path class="st0" d="M863.45,552.99c-0.21,3.83,0.2,7.62-0.95,11.49c-1.12,3.77,0.34,7.68,1.5,11.41"/>
	<path class="st0" d="M690.62,254.23c-5.07-0.9-9.09,2.96-14.17,3.04c-2.83,0.04-5.86-0.24-8.72,0.27
		c-7.18,1.28-14.25,2.95-20.72,6.5"/>
	<path class="st0" d="M455.1,1093.82c1.93,7.35,1.4,14.88,1.64,22.35"/>
	<path class="st0" d="M544.51,597.69c8.54-0.31,16.48,4,25.08,3.27"/>
	<path class="st0" d="M501.99,511.01c-3.63-2.71-7.28,0.04-10.9,0.14c-3.65,0.1-7.27,1.32-10.91,2.04"/>
	<path class="st0" d="M465.46,148.46c-2.8-2.16-6.16-2.03-9.25-1.53c-4.19,0.68-8.45-0.19-12.56,0.98"/>
	<path class="st0" d="M1013.37,575.34c-5.97,0.24-4-5.17-4.6-7.7c-1.05-4.37-2.32-7.98-6.3-10.29"/>
	<path class="st0" d="M241.39,673.48c-7.09-1.59-14.17,0.55-21.26,0"/>
	<path class="st0" d="M687.35,19.25c-7.29,0.16-13.98,3.61-21.26,3.82"/>
	<path class="st0" d="M295.9,570.44c7.06,4.9,8.14,12.55,9.27,20.17"/>
	<path class="st0" d="M698.25,754.71c-4.54,0.9-8.7-1.31-13.05-1.89c-2.73-0.37-5.46-0.64-8.21-0.83"/>
	<path class="st0" d="M1030.82,619.5c-0.68,0.45-1.44-0.5-2.36,0.98c-2.21,3.56-3.8,7.39-5.79,11.03c-1.56,2.86-0.42,4.11,2.7,3.8"
		/>
	<path class="st0" d="M456.74,35.61c6.91,3.45,13.81,6.91,20.72,10.36"/>
	<path class="st0" d="M624.11,775.43c-4.88-0.84-9.81-0.49-14.72-0.55c-2.37-0.03-4.77,0.17-7.09-0.54"/>
	<path class="st0" d="M883.07,434.14c-0.63,5.28,2.48,9.98,2.37,15.27c-0.04,1.69,0.06,3.64,0.36,5.45"/>
	<path class="st0" d="M607.21,687.11c5.82,1.35,11.63,1.34,17.45,0.01c1.14-0.26,2.22,0.13,3.27,0.54"/>
	<path class="st0" d="M162.88,442.86c7.65,2.6,7.79,9.73,9.16,15.84c1.24,5.5,0.63,11.24,0.65,16.88"/>
	<path class="st0" d="M104.54,680.56c1.61,4.26-0.84,8.32-0.6,12.54c0.17,3.01,0.63,5.34,4.42,4.9"/>
	<path class="st0" d="M283.91,673.48c-0.9,3.95-0.38,8.04-1.5,12.03c-0.69,2.46-0.92,5.92,3.68,5.41"/>
	<path class="st0" d="M139.44,515.92c0,4,0.07,8-0.02,11.99c-0.08,3.28,0.66,6.04,3.84,7.63"/>
	<path class="st0" d="M442.01,60.14c7.02,2.22,13.56,5.56,20.17,8.72"/>
	<path class="st0" d="M986.11,585.7c1.45,6.47-0.71,13.23,1.64,19.63"/>
	<path class="st0" d="M77.83,475.57c-0.82,1.64-0.72,3.23-0.02,4.91c2.05,4.89,4.02,9.81,6.01,14.71"/>
	<path class="st0" d="M639.37,409.06c-6.76-1.53-12.81-5.19-19.63-6.54"/>
	<path class="st0" d="M522.7,265.13c4.66,6.24,11.42,7.37,18.54,7.63"/>
	<path class="st0" d="M676.99,367.63c6.35,0.59,12.83-1.22,19.08,1.09"/>
	<path class="st0" d="M891.25,674.02c0.41-2.59,0.76-4.99-0.45-7.68c-2.58-5.75-2.84-6.07-9.37-4.32"/>
	<path class="st0" d="M707.52,660.66c3.45,5.61,4.95,11.86,6,18.26"/>
	<path class="st0" d="M565.23,875.74c-4.33,0.51-8.43,1.9-12.54,3.26c-2.35,0.78-4.72,0.74-7.08,0.01"/>
	<path class="st0" d="M591.4,418.87c-4.42-1.18-8.72,0.48-13.08,0.69c-1.78,0.09-3.65,0.15-5.46,0.4"/>
	<path class="st0" d="M992.66,486.48c-0.18,6.18-0.36,12.36-0.55,18.54"/>
	<path class="st0" d="M624.65,897c-6-0.36-11.99-0.73-17.99-1.09"/>
	<path class="st0" d="M158.24,590.88c4.09,3.81,0.93,7.85,0.17,11.7c-0.39,2-2.03,3.73-1.54,6.02"/>
	<path class="st0" d="M644.28,954.79c-6.04-1.11-11.93,2.39-17.99,0.55"/>
	<path class="st0" d="M879.26,524.64c-0.04,3.7,2.18,6.78,2.98,10.3c0.9,3.98,1.15,7.64,0.29,11.51"/>
	<path class="st0" d="M557.59,796.14c-6.44-0.92-12.67-2.56-18.54-5.45"/>
	<path class="st0" d="M1067.89,510.46c3.89-1.2,6.09,0.16,4.76,3.21c-1.2,2.74-0.77,6.16-3.61,8.32c-1.38,1.05-1.24,3.09-1.15,4.83"
		/>
	<path class="st0" d="M466.55,725.81c5.85,0.89,10.56,5.71,16.9,4.91"/>
	<path class="st0" d="M675.36,1074.19c-6-1.6-11.99,0.52-17.99,0"/>
	<path class="st0" d="M361.33,497.38c1.44,3.82-0.86,7.25-1.16,10.9c-0.15,1.85-1.02,3.64,0.07,5.46"/>
	<path class="st0" d="M499.8,123.93c-5.45,0.18-10.9,0.36-16.36,0.55"/>
	<path class="st0" d="M529.79,113.57c5.45,1.27,10.9,2.54,16.36,3.82"/>
	<path class="st0" d="M685.17,415.6c-8.73,0.82-17.34,2.81-26.17,2.73"/>
	<path class="st0" d="M580.49,473.39c-5.53-0.88-10.88,1.11-16.36,1.09"/>
	<path class="st0" d="M644.28,1099.27c-0.61,3.52,2.35,3.41,4.35,4.38c3.83,1.85,8.74,0.21,12,3.79"/>
	<path class="st0" d="M911.97,479.93c-1.14,0.93-0.11,2.28-0.57,3.26c-2.5,5.25-1.13,9.19,3.84,12.01"/>
	<path class="st0" d="M639.37,247.68c-4.97,1.6-10.08,2.35-15.27,2.73"/>
	<path class="st0" d="M586.49,907.36c0.37,0.91,0.74,1.81,1.17,2.87c4.05-1.4,8.29-0.28,12.46-0.69"/>
	<path class="st0" d="M665,23.61c-4.37,1.22-8.03,3.6-11.52,6.46c-1.17,0.96-0.87,1.82-1.02,2.81"/>
	<path class="st0" d="M485.63,387.25c3.65,4.04,9.12,3.94,13.71,5.8c0.89,0.36,2.21,2.35,3.74,0.74"/>
	<path class="st0" d="M828.01,436.32c2.79,6.88,2.06,14.11,2.18,21.26"/>
	<path class="st0" d="M408.21,674.02c-0.29,5.04,0.73,9.78,3.27,14.17"/>
	<path class="st0" d="M262.92,433.87c1.84,4.81-0.69,9.1-2.08,13.3c-1.38,4.16-1.98,8.42-3.1,12.6"/>
	<path class="st0" d="M620.84,124.47c-6.94-4.08-9.42-3.89-14.17,1.09"/>
	<path class="st0" d="M255.56,607.51c0.32,5.5-0.5,10.92-1.09,16.36"/>
	<path class="st0" d="M216.31,663.12c3.96,4.96,2.81,11.41,4.94,16.89c1.15,2.96,0.76,7.13,5.42,7.65"/>
	<path class="st0" d="M644.83,1054.56c-0.44,2.98,1.95,3.15,3.82,3.81c6.9,2.43,14.14,3.42,21.25,4.94c0.77,0.16,1.46,0.7,2.19,1.06
		"/>
	<path class="st0" d="M665.54,141.92c-4.73-0.04-9.47,0.25-14.17-0.55"/>
	<path class="st0" d="M620.84,736.72c3.18-0.43,6.11,1.14,9.27,1.16c2.12,0.02,3.11,1.55,2.73,3.74"/>
	<path class="st0" d="M965.4,439.04c1.27,4.72,2.54,9.45,3.82,14.17"/>
	<path class="st0" d="M243.02,582.16c-2.69,4-5.36,8-1.64,12.81"/>
	<path class="st0" d="M832.92,632.59c3.26,3.88,6.17,7.94,7.09,13.08"/>
	<path class="st0" d="M456.19,1038.21c-2.73-0.47-4.81,1.15-7.09,2.17c-1.89,0.84-3.62,2.79-5.99,1.1"/>
	<path class="st0" d="M289.36,463.03c0.79-4.33,1.14-8.69,1.09-13.08l71.42-1.64c-1.42,7.37-5.15,14.09-5.78,21.78
		c-0.14,1.69,0.27,4.31-1.31,6.02"/>
	<path class="st0" d="M680.26,65.05c-4.59,1.94-7.84,6.36-13.08,7.09"/>
	<path class="st0" d="M600.12,247.68c-3.9,2.2-8.5,1.17-12.54,2.73"/>
	<path class="st0" d="M689.53,615.14c-4.14,1.2-8.36,0.24-12.54,0.55"/>
	<path class="st0" d="M715.7,681.65c0.75,4.63,3.3,8.24,6.54,11.45"/>
	<path class="st0" d="M745.68,446.13c-0.31,4.02,2.15,7.91,0.55,11.99"/>
	<path class="st0" d="M462.73,290.21c-4.54,0.55-9.09,1.09-13.63,1.64"/>
	<path class="st0" d="M608.84,468.48c-3.86,0.27-8.29-3.52-11.45,1.64"/>
	<path class="st0" d="M685.17,298.93c-6.61-0.25-13.05,1.49-19.63,1.64"/>
	<path class="st0" d="M78.37,545.9c-0.01,3.46,0.14,6.93-0.55,10.36"/>
	<path class="st0" d="M257.2,503.92c-3.14,7.14-1.4,9.18,4.91,10.9"/>
	<path class="st0" d="M661.18,35.06c-0.18,4,2.88,1.5,4.36,2.18"/>
</g>
</svg>
