<?xml version="1.0" encoding="utf-8"?>
<!-- Generator: Adobe Illustrator 25.4.1, SVG Export Plug-In . SVG Version: 6.00 Build 0)  -->
<svg version="1.1" id="Layer_1" xmlns="http://www.w3.org/2000/svg" xmlns:xlink="http://www.w3.org/1999/xlink" x="0px" y="0px"
	 viewBox="0 0 1117 1117" style="enable-background:new 0 0 1117 1117;" xml:space="preserve">
<style type="text/css">
	.st0{fill:none;stroke:#000000;stroke-width:2;stroke-linecap:round;stroke-linejoin:round;stroke-miterlimit:10;}
</style>
<g>
	<path class="st0" d="M463.5,489.06c4.18-11.27,8.92-22.37,12.4-33.84c4.64-15.26,10.12-30.19,15.46-45.19
		c3.04-8.54,4.5-17.42,6.46-26.19c2.22-9.9,4.38-19.84,7.8-29.38c1.33-3.7,4.71-6.42,7.48-9.33c15.72-16.5,31.08-33.36,49.59-46.92
		c2.05-1.5,3.64-3.62,5.49-5.41c16.47-15.95,32.63-32.27,51.28-45.75c5.54-4.01,11.25-7.88,17.95-9.89c0.72-0.22,0.73-0.97,0.28-1.6
		"/>
	<path class="st0" d="M573.08,390.93c8.83-1.74,15.98-7.16,23.31-11.66c12.28-7.55,25.47-13.12,38.4-19.19
		c7.96-3.75,15.46-8.17,22.68-12.93c8.99-5.93,18.78-7.08,28.99-8.14c10.36-1.08,20.82-1.17,31.09-3.15c5.27-1.01,7.31,0.53,8.19,6
		c2.77,17.15-2.54,31.53-14.71,43.64c-0.97,0.96-2.26,1.05-3.34,1.51c-12.29,5.25-24.67,10.29-37.03,15.37
		c-3.11,1.28-5.72,0.48-7.61-2.19c-5.09-7.17-9.04-14.76-8.2-23.97"/>
	<path class="st0" d="M434.6,745.85c5.01-2.04,4.76-7.1,5.24-10.93c1.1-8.75,4.68-17.04,5.37-25.62c0.98-12.2,4.59-23.83,6.04-35.92
		c1.63-13.64,2.61-27.37,4.98-40.96c1.46-8.37,1.72-17.01,1.32-25.59c-0.09-1.98-0.59-4.08,0.5-5.99"/>
	<path class="st0" d="M544.73,363.67c5.68,1.05,11.15,2.95,16.84,4.1c4.72,0.95,8.18-0.55,10.86-3.12
		c15.93-15.32,33.79-28.78,47.39-46.34c9.52-12.29,19.28-24.51,26.41-38.55c4.19-8.26,2.71-16.14-0.18-24.01
		c-2.32-6.33-5.37-12.39-8.1-18.57"/>
	<path class="st0" d="M494.03,1046.79c0.97-2.08,1.12-4.27,1.11-6.54c-0.05-13.99,0.05-27.99-0.07-41.98
		c-0.03-3.82,0.2-8.01-1.24-11.36c-2.25-5.22,0.05-8.92,3.02-11.99c13.95-14.45,23.11-32.22,34.23-48.63
		c3.36-4.97,4.63-10.99,6.75-16.48c1.64-4.23,4.21-6.88,7.51-7.83c8.72-2.51,16.36-8.14,25.08-9.66c7-1.22,11.91-5.52,17.88-8.11
		c16.05-6.98,30.78-16.14,43.12-28.77"/>
	<path class="st0" d="M552.91,631.9c2.55,3.22,1,6.85,1.23,10.35c0.58,9.09,0.91,18.2,1.92,27.28c0.81,7.28,1.68,14.41,4.45,21.26
		c2.16,5.34,4.63,6.39,9.29,3.23c6.38-4.32,11.22-9.98,14.8-16.85c1.62-3.11,3.44-6.44,6.05-8.61c3.53-2.95,6.17-6.04,7.62-10.47
		c1.01-3.07,4.18-4.82,5.99-7.6c5.12-7.85,10.55-15.59,16.46-22.8c5.87-7.15,7.12-16.14,11.75-23.63c0.24-0.39,0.06-1.07,0.03-1.62
		c-1.17-16.75,4.75-31.86,10.93-46.88c7.32-17.78,19.51-32.2,32.07-46.42c6.52-7.39,13.38-14.24,21.27-20.19
		c7.66-5.78,14.6-10.13,25.25-6.21c12.36,4.54,22.57,15.54,21.49,28.63c-0.93,11.27-4.32,21.99-13.32,30.12
		c-2.24,2.02-3.89,5.61-3.74,8.6c0.39,7.62-3.58,13.62-6.15,20.19c-4.38,11.2-7.71,22.74-11.08,34.29
		c-3.09,10.57-7.44,20.78-11.35,31.1c-0.48,1.27-1.16,2.42-1.01,4.1c5.91,2.78,11.92,5.66,17.98,8.44c2.66,1.22,4.47,0.71,4.35-2.71
		"/>
	<path class="st0" d="M561.09,622.09c3.94-3.73,1.74-8.75,2.58-13.11c1.41-7.32-1.25-14.98,1.24-22.32
		c-4.96-11.1-2.8-23.65-7.08-34.9c-1.28-3.35-3.13-6.16-6.55-7.62c-2.46-1.06-3.16-3.08-2.69-5.45c1.13-5.7,1.34-11.18-0.38-16.97
		c-1.09-3.67,0.1-7.96-0.26-11.93c-1.13-12.53-1.41-25.51-6.82-36.92c-3.51-7.4-1.48-12.05,2.46-17.64
		c9.02-12.81,13.76-27.5,17.38-42.52c1.46-6.07,3.91-11.83,5.01-17.97c1.04-5.8,2.35-11.66-0.02-17.43
		c-1.1-2.69-1.06-5.42-1.05-8.19"/>
	<path class="st0" d="M429.15,646.62c3.5-0.31,2,2.37,2.14,3.82c1,10.51,0.88,21.08,1.09,31.62c0.26,13.27-0.02,26.54,1.01,39.81
		c0.43,5.58-1.8,11.23-0.92,16.88c2.21,14.16-2.96,27.6-3.83,41.44c-0.62,9.82-3.08,19.3-4.94,28.89"/>
	<path class="st0" d="M616.15,494.52c16.1-5.27,24.59-18.55,33.25-31.63c3.7-5.59,7.96-10.95,10.75-16.97
		c3.96-8.54,11.08-11.22,19.25-11.82c16.18-1.19,31.64-5.23,46.88-10.44c9.45-3.23,16.39-15.69,14.69-26.18
		c-0.53-3.29-2.52-4.98-5.96-5.52c-6.58-1.04-13.1-2.44-19.63-3.78c-1.45-0.3-3.21-0.27-3.82-2.15"/>
	<path class="st0" d="M573.08,430.73c-0.57,10.77,3.59,19.69,10.94,27.22c3.5,3.59,7.71,4.1,12.53,2.28
		c8.25-3.12,15.97-7.42,24.06-10.74c13.59-5.58,21.76-16.72,30.99-26.94c5.44-6.03,9.96-12.72,14.17-19.63"/>
	<path class="st0" d="M425.34,811.82c-1.86,9.39-1.96,18.83-1.14,28.35c0.69,8.03,2.04,16,2.53,24c0.25,4.05,1.16,7.96,1.52,11.96
		c1.29,14.28-0.15,29.15,6.48,42.48c4.76,9.58,4.82,20,6.94,30.05c0.1,0.48-0.33,1.08-0.45,1.43c-6.02,2.54-12.09-1.85-18.05,0.47"
		/>
	<path class="st0" d="M586.71,647.17c4.11-3.87,4.3-9.13,4.85-14.18c0.34-3.06,0.6-6.25,0.45-9.25c-0.41-7.96,3.47-12.4,10.51-14.71
		c9.34-3.07,18.31-6.78,25.63-13.63c0.73-0.68,1.61-1.24,2.71-1.1"/>
	<path class="st0" d="M550.18,525.59c2.74-1.06,3.78-3.47,4.32-6.01c1.83-8.52,3.95-16.19,10.6-23.21
		c9.13-9.64,14.9-22.12,21.07-34.02c0.3-0.58,0.72-1.09,1.08-1.64"/>
	<path class="st0" d="M720.28,483.61c-9.38,14.9-16.61,30.81-22.37,47.43c-1.32,3.8-2.18,7.73-3.59,11.53
		c-1.08,2.93-0.5,6.3,2.97,8.77c4.62,3.29,10.38,4.77,14.26,9.15"/>
	<path class="st0" d="M565.45,586.65c10.6-2.26,16.9-9.94,21.66-18.62c6.21-11.3,14.11-21.54,20-33.06
		c1.71-3.33,1.69-6.75,3.06-9.92c3-6.98,4.36-14.4,5.32-21.83c0.55-4.29,0.77-8.55-3.56-12.15c-4.59-3.81-6.35-9.7-7.23-15.64"/>
	<path class="st0" d="M431.06,646.08c0.03-13.46,2.16-26.88,1.27-40.34c-0.42-6.38-1.77-12.68-0.45-19.09"/>
	<path class="st0" d="M609.61,532.13c6.98,0.12,12.37-3.81,17.98-7.11c6.6-3.89,13.05-8.05,19.65-11.95
		c6.52-3.85,16.05-2.58,21.79,2.7"/>
	<path class="st0" d="M728.46,551.22c2.12,1.6,4,2.93,5.14,5.91c2.14,5.59,8.2,8.03,12.24,12.15c8.15,8.32,18.53,14.03,26.33,22.41
		c-1.68,7.92-6.03,11.85-13.63,14.35c-9.88,3.24-19.35,2.7-28.96,0.65c-3.64-0.78-8.04,1.29-10.93-2.58"/>
	<path class="st0" d="M694.66,733.31c5.05,11.01,2.69,21.93-1.79,32.1c-10.62,24.11-24.3,46.49-40.75,67.11
		c-3.29,4.13-5.7,9.04-10.34,12.01"/>
	<path class="st0" d="M615.06,1061.51c6.18,0.18,12.37,0.74,18.53,0.46c10.75-0.48,21.43,1.26,32.17,0.64
		c1.82-0.11,3.05,0.96,2.66,2.7c-0.73,3.24-1.58,6.85,1.78,8.58c3.46,1.79,7.53,2.45,11.38,3.37c1.38,0.33,2.97,0.28,4.35-0.49"/>
	<path class="st0" d="M459.68,600.83c-3.66,0.01-2.25-2.87-2.09-4.35c1.25-11.25,3.59-22.35,3.36-33.82
		c-0.1-4.9,0.75-9.63-2.91-13.63"/>
	<path class="st0" d="M449.32,951.38c-2.28-0.5-3.91,1.43-5.86,1.09c-1.07,11.38,0.89,22.04,2.2,32.69
		c0.61,4.91,0.94,9.83,1.48,14.74"/>
	<path class="st0" d="M624.88,863.06c3.33,2.24,3.61,6.12,3.64,9.27c0.06,8.56,2.72,16.7,3.32,25.09
		c0.69,9.61,3.69,18.79,4.53,28.34c0.08,0.93,0.69,1.82,1.05,2.73"/>
	<path class="st0" d="M654.32,776.38c6.43-7.91,13.13-15.51,21.21-21.87c5.3-4.17,9.18-9.77,13.1-15.23c1.37-1.9,2.35-3.97,4.34-5.5
		c2.15-1.66,2.79-4.55,2.14-6.98c-1.36-5.04-2.27-10.1-2.05-15.29c0.39-9.31-1.54-18.48-1.22-27.81
		c0.38-10.91,1.87-21.58,4.37-32.18c0.83-3.51-0.65-7.39,1.18-10.88"/>
	<path class="st0" d="M448.78,1002.63c-0.16,6.11,0.6,12.1,2.17,17.99c0.09,0.34,0.04,0.73,0.01,1.09
		c-0.84,10.47,1.07,20.77,2.35,31.06c0.95,7.64-0.23,15.61,3.1,22.92"/>
	<path class="st0" d="M430.24,885.42c7.79-0.58,14.26-4.87,21.24-7.68c2.47-0.99,4.66-2.69,7.12-3.73c5.85-2.47,8.92-0.16,8.16,5.96
		"/>
	<path class="st0" d="M645.59,973.19c-1.83,4.78,1.37,8.45,2.72,12.54c3.08,9.31,6.72,18.46,7.69,28.34
		c0.08,0.79,0.96,1.51,1.35,2.08c3.85-0.34,7.5-0.95,11.13-0.86c1.89,0.05,3.62-0.7,4.81-1.39c2.55-1.49,4.98-3.98,3.85-7.43
		c-1.4-4.28-4.83-5.83-9.2-5.48"/>
	<path class="st0" d="M636.32,930.12c3,6.77,2.58,14.23,4.25,21.29c1.3,5.5,1.69,11.23,2.24,16.88c0.23,2.34,1.57,4.07,3.34,4.23
		c7.7,0.7,14.98,4.19,22.89,3.39"/>
	<path class="st0" d="M671.22,1075.69c-0.82,4.64,0.74,9.17,1.38,13.59c1.04,7.07,1.27,13.84-0.24,20.77
		c-0.26,1.2,0.13,2.53,0.22,3.81"/>
	<path class="st0" d="M418.79,1004.27c-0.47-1.89,0.54-3.2,2.18-3.2c7.27,0,14.35-1.27,21.85-0.44c14.95,1.66,28.7,6.55,42.48,11.81
		"/>
	<path class="st0" d="M433.51,586.65c-4.26-1.28-2.71-5.64-1.94-6.94c4.11-6.94,5.01-15.78,12.26-20.91
		c2.1-1.49,4.49-2.62,6.42-3.99c7.25-5.17,13.8-11.3,14.87-21.03c0.1-0.9,0.41-2.22-0.05-2.66c-3.99-3.83-1.75-8.46-1.44-12.59
		c0.67-9.1,0.17-18.18,0.41-27.27"/>
	<path class="st0" d="M484.76,557.76c-4.5-0.49-5.81,3.74-7.42,6.14c-4.1,6.11-7.17,12.91-10.54,19.5
		c-1.02,1.98-1.28,4.13,0.51,5.98"/>
	<path class="st0" d="M713.2,498.88c2.13,0.82,4.42,0.16,6.53,0.6c7.29,1.52,13.23,4.91,15.83,12.48c0.99,2.88,2.46,5.32,5.99,5.46"
		/>
	<path class="st0" d="M661.4,702.23c2.89-3.57,7.22-2.83,10.92-3.13c6.5-0.52,13.07-0.15,19.62-0.15"/>
	<path class="st0" d="M580.72,855.98c-0.49,8.94,1.82,17.76,1.15,26.72c-0.07,0.88,0.67,1.81,1.03,2.72"/>
	<path class="st0" d="M682.12,1028.8c-5.37,2.52-11.02,3.1-16.91,2.81c-2.89-0.14-4.32,2-3.77,4.81c1.32,6.75,2.52,13.56,4.54,20.11
		c0.59,1.92,0.55,3.69,0.87,5.52"/>
	<path class="st0" d="M633.6,855.43c5.06,5.44,8.62,11.6,9.87,19.07c0.68,4.04-0.53,6.11-4.96,7.1"/>
	<path class="st0" d="M552.09,616.64c3.17,4.67,9.22,5.69,12.5,10.75c3.35,5.18,8.51,9.24,12.97,13.66
		c6.09,6.03,13.28,10.86,20.6,15.39"/>
	<path class="st0" d="M561.63,782.38c5.83,7.94,9.86,17.26,17.99,23.45c1.33,1.01,2.39,2.49,4.37,2.17"/>
	<path class="st0" d="M618.33,1078.14c6.03,0.99,11.81,2.78,17.47,5.13c3.28,1.36,6.76,2.84,10.34,0.6"/>
	<path class="st0" d="M586.17,968.01c3.89-3.87,8.65-6.25,13.58-8.55c4.41-2.06,8.41-4.99,12.59-7.53"/>
	<path class="st0" d="M683.76,786.19c9.6,4.71,17.25,12.13,25.62,18.54"/>
	<path class="st0" d="M453.14,1113.31c3.51,0.19,4.16-3.12,4.17-4.91c0.02-6.18,1.47-12.57-1.58-19.09
		c6.98-1.18,13.92-2.36,20.86-3.53"/>
	<path class="st0" d="M693.57,700.05c8.45-0.79,16.13,2.39,23.99,4.63"/>
	<path class="st0" d="M631.96,1003.18c5.67,8.68,14.05,11.7,23.99,11.45"/>
	<path class="st0" d="M633.05,733.85c9.84-0.75,18.07,4.19,26.71,7.63"/>
	<path class="st0" d="M490.76,730.04c2.79,6.33,7.43,11.4,11.37,16.96c1.32,1.86,3.4,3.68,2.81,6.48"/>
	<path class="st0" d="M404.07,804.73c6.85-0.28,12.89,3.02,18.99,5.17c7.93,2.8,15.64,5.96,24.08,6.86c0.4,0.04,0.73,0.69,1.09,1.05
		"/>
	<path class="st0" d="M537.1,852.71c0.03,6.27,3.46,11.58,5,17.42c0.19,0.73,0.34,1.46,0.45,2.21"/>
	<path class="st0" d="M537.65,1070.78c-5.26,2.19-10.05,5.54-15.81,6.55c-1.3,0.23-1.09,1.27-1.09,2.18"/>
	<path class="st0" d="M514.2,1050.61c4.84-0.3,8.66-3.08,12.48-5.54c2.74-1.76,2.62-4.17-0.49-5.9"/>
	<path class="st0" d="M653.23,1067.51c0.05,1.54-0.49,3.21,2.18,3.33c4.18,0.19,8.28,1.59,12.54,1.03"/>
	<path class="st0" d="M486.94,809.09c5.77,0.56,10.4,4.97,16.36,4.91"/>
	<path class="st0" d="M521.83,468.89c5.4,0.21,10.68-0.43,15.81-2.18"/>
	<path class="st0" d="M428.06,889.23c-3.27-0.26-6.02,0.48-8.22,3.24c-2.18,2.73-2.25,4.74,1.13,6.31"/>
	<path class="st0" d="M555.64,637.9c4.95,1.59,6.07,6.97,9.69,9.96c1.09,0.9,2.2,1.79,3.39,2.58"/>
	<path class="st0" d="M490.21,915.4c4.9,0.64,9.8,0.85,14.72,0.27"/>
	<path class="st0" d="M711.29,562.12c3.18-3.67,11.56-10.3,14.45-11.45"/>
	<path class="st0" d="M659.77,423.64c-1.59,6.01,1.69,9.78,6,13.08"/>
	<path class="st0" d="M448.78,484.7c4.91,1.82,9.87,3.49,14.68,5.54c1.38,0.59,2.6,0.17,3.85,0.46"/>
	<path class="st0" d="M658.13,1016.81c0.04,5.57-0.5,11.28,3.82,15.81"/>
	<path class="st0" d="M635.78,778.56c-1.32,4.78-2.26,9.55,0.55,14.17"/>
	<path class="st0" d="M453.14,1046.25c1.57-0.73,3.26-0.41,4.9-0.57c3.26-0.31,5.77-1.48,5.45-5.43"/>
	<path class="st0" d="M562.18,985.19c5.7,0.58,8.12-3.06,9.81-7.63"/>
	<path class="st0" d="M612.34,885.42c5.81,0.97,10.64-2.11,15.81-3.82"/>
	<path class="st0" d="M694.66,606.01c3.82,1.36,7.63,2.73,11.45,4.09"/>
	<path class="st0" d="M629.78,831.99c4.94,3.05,7.46,8.54,11.99,11.99"/>
	<path class="st0" d="M592.16,923.58c4.07,0.8,7.68,2.79,11.45,4.36"/>
	<path class="st0" d="M472.22,1023.35c4.06,0.68,7.72,2.28,10.9,4.91"/>
	<path class="st0" d="M632.51,854.34c2.58-3.75,7.01-5.76,9.27-9.81"/>
	<path class="st0" d="M549.09,543.04c-1.38,2.8-3.53,5.24-3.34,8.73c0.11,1.93-1.54,2.31-3.2,2.18"/>
	<path class="st0" d="M626.51,933.39c3.78-0.68,6.74-3.3,10.36-4.36"/>
	<path class="st0" d="M458.59,513.6c4.72,0,9.45,0,14.17,0"/>
	<path class="st0" d="M552.37,553.94c1.64,0,3.27,0,4.91,0"/>
</g>
</svg>
