<?xml version="1.0" encoding="utf-8"?>
<!-- Generator: Adobe Illustrator 25.4.1, SVG Export Plug-In . SVG Version: 6.00 Build 0)  -->
<svg version="1.1" id="Layer_1" xmlns="http://www.w3.org/2000/svg" xmlns:xlink="http://www.w3.org/1999/xlink" x="0px" y="0px"
	 viewBox="0 0 1117 1117" style="enable-background:new 0 0 1117 1117;" xml:space="preserve">
<style type="text/css">
	.st0{fill:none;stroke:#000000;stroke-width:2;stroke-linecap:round;stroke-linejoin:round;stroke-miterlimit:10;}
</style>
<g>
	<path class="st0" d="M625.83,699.71c-2.21-5.8-1.86-12-2.63-18c-1.02-8.01-2.26-16.01-3.64-23.93c-0.98-5.63-2.14-11.37-2.73-16.98
		c-1.03-9.66-4.16-18.63-6.87-27.76c-2.77-9.31-5.79-18.61-9.09-27.67c-2.57-7.06-3.98-15.12-9.83-20.98
		c-1.91-1.91-1.66-5.21-1.79-8.07c-0.45-9.31,1.99-18.5,1.12-27.8c-1.26-13.52-2.06-27.06-5.2-40.4
		c-1.49-6.34-2.62-12.77-4.49-19.06c-1.33-4.48,1.21-8.98,1.03-13.6c-0.83-21.63,4.68-42.14,12.14-62.08
		c3.14-8.39,5.46-17.07,9.22-25.33c2.19-4.82,2.19-12.24,0.04-17.11c-5.02-11.36-7.44-23.39-10.88-35.11
		c-3.64-12.41-8.22-24.4-12.67-36.49c-3.58-9.74-7.82-19.19-12.75-28.25c-5.18-9.51-9.02-19.53-12.86-29.55
		c-4.23-11.06-10.62-21.1-14.76-32.15c-6.31-16.8-12.35-33.69-20.77-49.59c-1.04-1.97-1.62-4.28-3.81-5.45"/>
	<path class="st0" d="M342.34,409.13c-0.33-1.04,0.96-2.48-1.62-2.83c-11.31-1.54-21.81-6.11-32.7-9.27
		c-8.1-2.35-16.33-4.41-24.03-8.04c-7.11-3.35-14.67-1.19-21.14,0.85c-13.4,4.23-27.42,6.28-40.44,11.68
		c-15.73,6.52-32.66,9.17-48.55,15.19c-4.9,1.86-9.74,3.92-14.08,6.71c-6.13,3.94-7.35,13.19-3.24,23.29
		c1.43,3.52,1.62,5.7-1.66,8.32c-4.87,3.88-4.24,10.12-3.63,15.13c1.14,9.47,3.05,18.89,8.36,27.36
		c6.12,9.75,15.61,13.74,25.69,17.47c8.21,3.04,16.74,2.29,25.07,3.46c9.92,1.39,14.38-3.61,18.05-11.17
		c2.6-5.37,5.18-10.63,3.34-16.93c-0.54-1.84-0.08-3.97-0.08-5.97"/>
	<path class="st0" d="M342.34,591.77c-3.15-3.27-7.23-4.6-11.42-6.09c-14.21-5.04-27.58-12.07-41.47-17.9
		c-10.4-4.37-20.87-8.55-31.61-12.03c-3.1-1-6.82-1.47-9.18-0.31c-14.69,7.23-30.67,10.63-45.82,16.35
		c-7.88,2.98-14.94,7.67-20.46,14.9c-5.71,7.47-6.52,14.71-3.64,23.08c0.57,1.67,2.64,4.28-1.59,4.35"/>
	<path class="st0" d="M397.4,369.88c-0.45-1.34-0.89-2.67-1.45-4.34c-9.15-0.36-17.08,2.51-23.72,9.71
		c-5.77,6.26-11.68,12.33-16.86,19.13c-7.64,10.05-9.14,21.22-7.06,33.29c4.18,24.23,13.15,46.86,22.94,69.22
		c0.58,1.33,0.96,2.82,2.15,3.83c7.08,6.04,7.28,14.71,8.72,22.9c0.22,1.27,0.37,2.54,0.55,3.82"/>
	<path class="st0" d="M459.55,870.36c2.37-5.53,1.3-11.33,0.59-16.87c-0.4-3.13-0.28-6.21-0.56-9.3c-0.06-0.71,0.71-1.66,0.45-2.15
		c-4.89-9.06-2.88-19.42-5.61-29.02c-2.72-9.56-6.91-18.43-10.17-27.7c-1.92-5.46-6.64-8.6-10.9-11.97
		c-15.02-11.9-29.75-24.21-45.36-35.28c-10.5-7.44-18.76-17.03-27.39-26.08c-11.93-12.5-24.03-25.18-32.42-40.64
		c-1.85-3.41-3.44-6.99-3.79-10.9c-0.41-4.49-4.55-4.76-7.19-5.83c-17.16-6.98-33.1-16.09-48.48-26.29
		c-3.27-2.17-4.4-2.93-1.38-7.34c6.3-9.19,8.19-20.31,6.61-31.37c-0.65-4.54-0.03-9.96-4.12-13.66"/>
	<path class="st0" d="M398.49,650.1c1.34-4.07,1.94-8.25,2.23-12.54c0.74-10.94,1.85-21.83,5.93-32.18
		c2.59-6.58,3.2-12.77-1.51-19.15c-7.73-10.48-10.7-23.11-14.21-35.38c-1.92-6.69-4.98-13.06-5.65-20.14
		c-0.11-1.16-1-3.97-3.68-2.19c-2.02,1.34-4-0.27-6-0.01"/>
	<path class="st0" d="M521.16,372.06c-5.99-8.25-10.61-17.12-12.55-27.26c-3.58-18.73-5.95-37.57-5.52-56.7
		c0.07-3.07-1.12-5.68-3.49-8.39c-3.03-3.48-3.09-8.89-4.59-13.42c-3.3-9.93-7.38-19.57-9.43-29.95
		c-1.29-6.53-2.94-12.96-3.13-19.66c-0.31-11.5-1.73-22.91-2.86-34.33c-0.22-2.19-0.3-4.38-0.36-6.56
		c-0.04-1.65-0.62-2.34-2.23-2.18"/>
	<path class="st0" d="M263.28,424.39c0.06,7.62-1.19,15.07-3.3,22.34c-3.23,11.13-11.36,16.94-22.85,18.17
		c-6.57,0.7-13.09,0.7-19.64,0.94c-19,0.7-37.23-3.15-55.05-9.33c-1.89-0.66-4.42-0.24-5.47-2.68"/>
	<path class="st0" d="M545.69,355.7c-7.1,0.41-12.05,4.9-16.86,9.31c-11,10.11-15.73,23.54-19.11,37.58
		c-2.09,8.7-4.51,17.37-5.87,26.19c-1.29,8.35-2.72,16.69-4.09,25.04c-0.37,2.27,0.99,3.63,1.22,5.47"/>
	<path class="st0" d="M449.19,861.09c3.79,2.92,5.17,8.3,10.33,9.91c0.93,0.29,1.1,2.01,1.1,3.17c0.01,5.27,2.04,10.16,0.4,15.92
		c-1.63,5.71-0.96,12.26-1.33,18.44c-0.47,7.8-0.75,15.63-1.07,23.44c-0.54,13.1-0.82,26.21-2.34,39.25
		c-0.24,2.06,1.32,3.57,1.64,5.45"/>
	<path class="st0" d="M264.37,623.39c-2.66-3-6.31-2.02-9.24-1.5c-16.81,3.03-33.77,4.01-50.71,2.91
		c-9.11-0.59-18.32-2.84-25.09-10.14"/>
	<path class="st0" d="M444.83,500.18c-10.04,3.74-20.59,5.25-31.06,7.15c-4.62,0.84-9.03,1.44-13.66,0
		c-3.86-1.2-5.45-4.07-2.62-6.51c5.58-4.81,11.41-9.51,18.48-12c2.13-0.75,4.58-0.03,6.83,1.8c-1.64,4.8-5.71,6.06-10.13,6.83"/>
	<path class="st0" d="M349.42,583.04c-11.19-5.01-22.02-10.55-31.1-19.05c-6.01-5.62-13.45-9.71-17.96-16.93
		c-0.88-1.42-2.04-2.48-3.81-2.16c-10.87,1.97-21.28-0.89-31.6-3.38c-16.48-3.98-30.39-12.94-43.09-23.9"/>
	<path class="st0" d="M373.41,549.79c-2.42,8.28-9.08,13.95-13.08,21.27c-3.34,6.1-8,11.31-12.72,16.18
		c-5.23,5.41-7.57,11.24-5.68,18.12c2.04,7.42,0.13,14.3-1.29,21.29c-2.44,12.03-7.53,22.73-16.85,31.09"/>
	<path class="st0" d="M484.63,477.82c-13.26-15.48-31.15-24.96-47.45-36.5c-1.28-0.9-2.61-1.68-3.84-2.71
		c-2.96-2.49-6.14-3.29-9.23-0.05"/>
	<path class="st0" d="M457.92,1038.82c0.72-4.4-0.19-8.85-0.77-13.05c-1.58-11.3-0.38-22.57-0.85-33.83
		c-0.21-4.97-0.23-9.96,1.62-14.72"/>
	<path class="st0" d="M377.23,515.44c-5.93,1.29-11.05-1.87-16.3-3.44c-12.31-3.68-23.65-9.7-34.36-16.79
		c-1.92-1.27-3.83-3.07-4.33-5.41c-0.89-4.21-3.95-4.46-7.16-4.31c-13.21,0.61-25.41-2.9-37.07-8.76
		c-6.76-3.39-14.1-5.58-20.21-10.31c-2.23-1.72-4.12-3.57-5.41-6.05"/>
	<path class="st0" d="M459.55,1041.55c-1.61,1.97-1.13,4.33-1.06,6.54c0.41,13.76-0.09,27.43-3.31,40.89
		c-0.31,1.29-0.72,2.55-1.08,3.82"/>
	<path class="st0" d="M552.23,453.83c-10.84-0.04-21.53,1.12-32.19,3.15c-4.24,0.81-8.71,0.08-13.09,1.1
		c-3.52,0.82-6.64,1.8-9.27,4.44c-10.21,10.24-15.99,23.16-21.69,36.05c-3.33,7.52-7.63,14.66-9.41,22.85
		c-0.38,1.77-1.6,3.31-3.21,4.37"/>
	<path class="st0" d="M456.28,517.62c-0.09-1.79,0.32-3.49-1.56-5c-1.97-1.58-3.16-4.1-5.02-5.87c-6.02-5.76-4.3-13.86-6.45-20.77
		c-1.01-3.23-1.06-6.87-3.9-9.22c-2.89-2.39-0.84-5.98-2.59-8.82c-4.07-6.6-7.49-13.58-9.39-21.19c-0.66-2.66-2.91-4.45-3.87-7.07
		c-3.58-9.72-4.2-20.04-6.47-30.01c-2.57-11.29-4.36-22.86-9.88-33.22c-3.43-6.45-6.44-6.91-13.03-3.33
		c-8.09,4.39-15.95,8.99-22.39,15.78c-5.22,5.51-6.25,12.03-5.98,19.13c0.09,2.2,1.3,3.58,2.76,4.91"/>
	<path class="st0" d="M520.07,521.98c-9.29,5.99-13.89,15.34-18.01,25.07c-3.25,7.69-4.27,16.21-8.71,23.45"/>
	<path class="st0" d="M437.2,473.46c-10.32-0.19-20.62-0.29-30.27,4.35c-6.64,3.19-12.13,7.85-17.12,13.15
		c-0.36,0.39-0.05,1.41-0.05,2.14"/>
	<path class="st0" d="M617.66,824.56c-1.12-6.6,2.77-10.7,7.72-13.48c3.76-2.11,3.83-4.6,3.87-8.32c0.19-15.5-6.47-30.21-5.04-45.8
		c0.8-8.72,2.85-17.43,2.03-26.16c-0.88-9.27-0.41-18.58-1.49-27.82"/>
	<path class="st0" d="M514.61,128.9c1.56,4.26-1.13,5.89-4.33,7.69c-9.91,5.58-19,12.18-26.27,21.15
		c-3.85,4.75-3.33,10.68-5.38,15.87"/>
	<path class="st0" d="M432.29,772.22c8.45-14.48,16.02-29.48,25.04-43.64c0.33-0.52,0.04-1.43,0.04-2.15"/>
	<path class="st0" d="M408.85,384.6c-12.25,2.45-22.6,8.91-32,16.56c-4.34,3.54-6.49,9.54-8.3,15.07c-1.94,5.93,1.71,10.61,4.4,15.2
		c5,8.52,12.51,15.12,18.45,22.95"/>
	<path class="st0" d="M401.76,696.99c-3.13-12.77-3.12-25.71-2.23-38.71c0.13-1.91,0.34-3.72,1.14-5.45"/>
	<path class="st0" d="M625.29,1070.44c-0.91-0.73-1.71-1.71-2.74-2.13c-3.88-1.58-5.01-3.96-2.71-7.68
		c1.93-3.13,8.61-6.26,10.89-4.87c2.54,1.55,2.58,3.81,1.72,6.53c-1.24,3.94-4.96,5.8-6.93,8.85c-2.41,3.73-5.52,6.13-8.91,8.62
		c-9.08,6.66-19.46,6.83-30.02,6.57c-1.47-0.04-1.89-1.67-3.27-1.44"/>
	<path class="st0" d="M572.4,731.88c0.99-7.37,4.3-14.08,6.19-21.21c1.78-6.7,3.86-13.25,4.17-20.22"/>
	<path class="st0" d="M653.64,1105.88c2.2-4.4,1.55-9.26,0.82-13.58c-0.75-4.43-0.78-8.77-0.75-13.13c0.03-4.72-0.18-9.3-2.26-13.63
		"/>
	<path class="st0" d="M510.25,641.92c-1.55-13.53-0.03-26.39,6.3-38.83c2.28-4.48,3.64-9.58,6.24-14.05"/>
	<path class="st0" d="M456.28,834.92c-7.47-2.22-13.08-7.65-19.58-11.52c-6.92-4.11-13.53-8.77-18.03-15.74"/>
	<path class="st0" d="M655.82,1117.87c-0.07-10.15,2.64-12.13-11.99-12.03c-5.22,0.03-10.18-1.78-15.25-2.76
		c-2.62-0.51-5.1-0.82-7.65,0.07"/>
	<path class="st0" d="M500.99,799.48c-9.99,6.56-21.12,10.16-32.71,12.54"/>
	<path class="st0" d="M438.29,568.6c-7.36-1.66-14.14-5-21.26-7.37c-3.65-1.22-7.27-2.53-10.91-3.81"/>
	<path class="st0" d="M317.8,512.17c2.89,3.01-0.47,5.5-1.33,7.53c-3.23,7.6-8.04,14.38-14.54,19.66c-1.79,1.46-3.23,3-4.31,4.97"/>
	<path class="st0" d="M604.03,743.87c-5.85,1.93-7.9,7.14-10.35,12c-2.71,5.36-3.97,11.22-5.73,16.9"/>
	<path class="st0" d="M548.96,1041.55c-3.37,0.45-6.24-1.25-9.26-2.21c-5.39-1.71-10.65-3.95-16.13-5.27
		c-2.49-0.6-2.47-1.69-2.42-3.43"/>
	<path class="st0" d="M432.29,668.64c-7.47-8.36-18.06-11.09-27.84-15.18c-5.44-2.28-10.79-5.09-16.87-5.54"/>
	<path class="st0" d="M521.7,910.16c-5.13,0.36-5.43-4.02-6.44-7.12c-2.07-6.37-3.46-12.95-4.46-19.59"/>
	<path class="st0" d="M659.09,780.95c-7.09,6.36-14.26,12.63-21.22,19.13c-2.3,2.15-4.7,3.9-7.68,4.86l22.35,259.51
		c4.37-0.74,8.16-2.91,11.98-4.94c2.3-1.22,4.27-2.88,3.83-5.96"/>
	<path class="st0" d="M420.3,434.75c-7.99,5.2-15.78,10.68-23.47,16.32c-4.96,3.64-8.94,8.43-14.15,11.75"/>
	<path class="st0" d="M455.73,971.76c-8.04-3.22-15.3-7.93-22.86-12.05c-1.66-0.9-4.04-1.57-3.85-4.3"/>
	<path class="st0" d="M477,1101.52c-11.62-2.15-22.05-7.28-32.13-13.14c-5.09-2.96-9.91-6.39-14.71-9.82
		c-1.41-1.01-2.67-1.79-4.4-1.58"/>
	<path class="st0" d="M517.34,596.67c-2.48-1.16-3.96-3.17-5.54-5.39c-6.39-9.03-13.34-17.51-23.33-23.01
		c-7.01-3.86-8.57-11.82-12.57-17.94"/>
	<path class="st0" d="M486.26,1055.18c-0.68-2.32-2.37-3.76-4.36-4.9c-12.51-7.16-25.5-12.54-40.35-12.1
		c-3.28,0.1-6.02,1.01-8.72,2.55"/>
	<path class="st0" d="M652,687.72c-6.24,6.73-14.76,9.38-22.94,12.44c-6.1,2.28-12.4,4.25-19.04,4.46"/>
	<path class="st0" d="M604.03,798.94c-7.01,5.73-14.44,10.77-22.86,14.26c-0.99,0.41-1.85,0.28-2.76,0.46"/>
	<path class="st0" d="M641.64,995.21c-4.51,1.09-9.1,0.65-13.62,0.44c-3.84-0.18-7.64-0.17-11.45,0.1"/>
	<path class="st0" d="M484.08,966.31c-1.24-8.32-6.43-14.77-10.45-21.76c-0.66-1.15-1.07-2.09-1-3.32"/>
	<path class="st0" d="M625.29,1009.38c-6.34,3.45-11.87,8.02-17.44,12.55c-2.32,1.89-4.51,3.92-7.64,4.35"/>
	<path class="st0" d="M624.47,577.86c-3.26,2.66-7.06,3.59-11.18,3.54c-4.14-0.05-8.14,0.64-11.99,2.18"/>
	<path class="st0" d="M322.16,487.64c6.21-2.82,11.15-7.11,15.33-12.49c1.73-2.23,2.56-4.41,2.12-7.13"/>
	<path class="st0" d="M487.9,547.06c-4.76-0.19-8.94,2.57-13.58,2.83c-5.6-10.95-9.23-22.91-18.46-32.54
		c-5.75,7.02-10.71,13.72-11.57,22.63"/>
	<path class="st0" d="M660.73,929.78c-5.11,0.51-10.18,1.44-15.3-0.44c-1.76-0.65-3.96-0.1-5.96-0.1"/>
	<path class="st0" d="M455.73,613.57c-3.28-4.67-7.04-8.87-11.39-12.6c-2.36-2.02-5.14-3.99-5.51-7.57"/>
	<path class="st0" d="M472.64,976.67c-7.86-1.95-15.65,1.6-23.43,0.43c-4.23-0.64-8.33-1.29-12.56-0.43"/>
	<path class="st0" d="M529.88,622.3c-4.73-3.11-6.1-8.35-8.1-13.12c-0.96-2.29-1.84-4.47-3.89-5.97"/>
	<path class="st0" d="M509.71,756.41c-5.22,1.51-10.21-0.35-15.26-1.15c-1.96-0.31-3.97-1.66-4.37,1.69"/>
	<path class="st0" d="M662.36,995.75c-6.54,0-13.08,0-19.63,0"/>
	<path class="st0" d="M522.79,269.56c-7.95,1.06-15.08,3.73-20.17,10.36"/>
	<path class="st0" d="M598.03,581.41c-4.28,2.37-9.27,0-13.68,2.06c-1.08,0.51-2.35,0.46-2.94,1.75"/>
	<path class="st0" d="M624.74,714.43c-5.33-0.54-10.54,0.67-15.81,1.09"/>
	<path class="st0" d="M535.88,819.11c-8.13,1.35-8.61,5.9-7.09,12.54"/>
	<path class="st0" d="M554.41,690.99c-7.17,1.15-10.53,5.94-11.99,12.54"/>
	<path class="st0" d="M599.12,863.82c-5.12-0.83-10.13,1.67-15.27,0.55"/>
	<path class="st0" d="M649.82,845.82c-4.91,3.63-9.81,7.27-14.72,10.9"/>
	<path class="st0" d="M497.17,1002.84c-3.04-1.06-6.18-0.35-9.27-0.53c-1.87-0.11-3.86,0.39-5.45-1.1"/>
	<path class="st0" d="M473.18,549.79c-3.82,3.65-8.57,4.71-13.63,4.91"/>
	<path class="st0" d="M638.37,928.69c-4.36,1.06-8.72,0.52-13.08,0"/>
	<path class="st0" d="M422.48,548.15c-4.36-1.11-8.72-1.07-13.08,0"/>
	<path class="st0" d="M454.1,1094.43c-3.7,7.66-3.14,15.52-1.09,23.44"/>
	<path class="st0" d="M495.53,716.07c-4.37,0.07-7.33,2.83-10.36,5.45"/>
	<path class="st0" d="M521.7,929.24c0.58,2.4-1.89,1.76-2.71,2.74c-1.81,2.14-4.92,3.49-4.37,7.08"/>
</g>
</svg>
