<?xml version="1.0" encoding="utf-8"?>
<!-- Generator: Adobe Illustrator 25.4.1, SVG Export Plug-In . SVG Version: 6.00 Build 0)  -->
<svg version="1.1" id="Layer_1" xmlns="http://www.w3.org/2000/svg" xmlns:xlink="http://www.w3.org/1999/xlink" x="0px" y="0px"
	 viewBox="0 0 1117 1117" style="enable-background:new 0 0 1117 1117;" xml:space="preserve">
<style type="text/css">
	.st0{fill:none;stroke:#000000;stroke-width:2;stroke-linecap:round;stroke-linejoin:round;stroke-miterlimit:10;}
</style>
<g>
	<path class="st0" d="M1010.17,572.04c-1.05-0.4-2.11-0.7-3.27-0.55c-21,2.66-42.16,2.97-63.25,4.27
		c-10.33,0.64-20.71,0.2-31.07,0.53c-12.35,0.4-24.76,1.21-37.07-0.97c-18.79-3.34-37.98-3.31-56.75-7.38
		c-12.97-2.81-26.49-3.05-39.74-4.67c-8.03-0.98-16.17-1.4-23.99-3.77"/>
	<path class="st0" d="M496.06,613.48c5.44,5.17,10.12,10.98,14.78,16.85c5.33,6.71,13.43,10.45,19.01,16.95
		c10.33,12.02,25.62,13.7,39.32,18.34c10.73,3.63,22.17,5.04,33.27,7.48c7.22,1.59,15.21,0.94,22.82-0.2"/>
	<path class="st0" d="M578.38,464.1c-7.56-0.34-13.84-4.06-20.17-7.64c-10.07-5.69-20.46-10.83-29.99-17.44
		c-7.81-5.42-16.87-4.6-25.63-4.79c-4.34-0.1-8.69,1.17-13.06,1.68c-6.47,0.76-9.01,6.41-11.38,11.6c-1,2.19-1.56,4.49-3.9,5.69"/>
	<path class="st0" d="M673.79,193.68c1.54,4.43-0.27,8.74-0.61,13.08c-0.97,12.35-1.32,24.71-1.59,37.08
		c-0.23,10.54-0.72,21.1-1.3,31.61c-0.83,15.08-2.08,30.14-1.9,45.26c0.07,6.55,0.28,13.14,1.23,19.6c0.42,2.83-0.26,5.14-0.73,7.66
		"/>
	<path class="st0" d="M400.11,235.12c10.46,0.06,19.75,4.69,29.39,7.79c5.29,1.7,11.06,2.13,16.42,5.13
		c-3.43,4.89-0.47,9.61-0.53,14.34c-0.18,14.81,1.94,29.46,3.01,44.18c0.59,8.03,2.26,15.93,2.35,23.97
		c0.03,2.64,1.94,4.92,1.15,7.63"/>
	<path class="st0" d="M462.26,409.03c3.75,8.91,4.68,18.55,7.09,27.81c1.42,5.46,1.29,11.24,4.18,16.46
		c0.96,1.73-0.02,4.65-0.39,6.98c-1.67,10.49-2.04,21.16-1.35,31.61c0.92,14.02,0.48,28,0.81,42c0.03,1.41,0.25,2.69,1.11,3.82"/>
	<path class="st0" d="M446.45,101c-2.51,8.08-0.55,16.36-0.95,24.54c-1.88,38.32-1.19,76.68-1.2,115.03c0,1.94-0.32,3.72-1.12,5.45"
		/>
	<path class="st0" d="M930.57,401.4c1.8,3.64,0.34,7.62,1.32,11.53c0.97,3.89,1.04,8.28,1.43,12.6
		c17.28,2.92,34.14,7.88,51.25,11.75c16.37,3.7,32.34,8.76,48.51,13.16c21.25,5.78,43.01,8.64,64.86,10.97
		c6.03,0.64,12,1.78,18,2.69"/>
	<path class="st0" d="M668.34,63.38c0.84,10.23,2.51,20.37,3.57,30.56c0.56,5.39,1.38,10.82,1.42,16.33
		c0.11,15.47,2.41,30.86,2.01,46.34c-0.26,9.99-1.35,19.97-0.99,29.99c0.06,1.83-0.33,3.7,0.54,5.45"/>
	<path class="st0" d="M471.52,540.97c2.99,6.04,2.19,12.72,3.22,19.09c3,18.53,7.36,36.51,19.13,51.78"/>
	<path class="st0" d="M1115.66,664.18c0.79-2.54-1.02-2.14-2.45-2.18c-6.36-0.18-12.72-0.37-19.08-0.54
		c-17.67-0.49-35.29-1.17-52.91-3.03c-13.32-1.41-26.83-1.36-40.33-0.4c-11.21,0.8-22.52,0.16-33.79,0.16"/>
	<path class="st0" d="M813.9,681.63c3.29,0.75,3.4-2.28,3.68-3.84c0.9-4.96,1.61-9.91,3.29-14.73c0.93-2.65-0.84-3.94-3.71-3.81
		c-7.97,0.36-15.82,1.67-23.42,3.93c-10.92,3.26-22.2,4.61-33.27,7.04c-11.52,2.53-23.26,2.36-34.91,3.06
		c-2.83,0.17-5.2,2.74-8.17,1.26"/>
	<path class="st0" d="M451.9,339.25c1.89,4.36,1.4,9.12,2,13.65c2.06,15.65,3.58,31.37,6.73,46.86c0.33,1.64,1.19,3.04,2.18,4.36"/>
	<path class="st0" d="M670.52,364.87c-2.15,10.22-0.75,20.46,0.7,30.51c2.13,14.77,4.26,29.58,7.5,44.18
		c0.59,2.67,1.37,5.29,2.17,7.91c2.56,8.29,8.99,8.97,15.8,8.43c9.63-0.77,17.69-5.71,26.28-9.53c8.01-3.56,17.02-4.83,25.49-7.42
		c3.46-1.06,7.56-0.1,10.55-3.8c5.08,9.45,8.75,19.29,16.18,26.78"/>
	<path class="st0" d="M932.21,424.84c-12.05-0.45-24.01-2-36-3.02c-9.89-0.84-19.89-1.67-29.99-0.45c-8.06,0.97-16.33,0.2-24.51,0.2
		"/>
	<path class="st0" d="M922.94,650.01c1.31,0.77,0.27,2.19,0.99,3.33c1.72,2.74,0.13,3.82-2.63,3.75
		c-6.18-0.17-12.42,0.11-18.51-0.72c-3.59-0.49-6.93,0.4-10.38,0.18c-19.28-1.26-38.51,1.18-57.8,0.8
		c-4.55-0.09-10.04-1.55-14.17,2.47"/>
	<path class="st0" d="M724.49,59.02c-18.14,1.57-36.36,1.9-54.54,2.99c-6.29,0.38-13.04,2.88-19.39-0.72
		c-0.83-0.47-2.23,0.8-3.5,0.46"/>
	<path class="st0" d="M455.17,6.68c-0.28,8.11-1.72,16.03-3.04,24.03c-1.02,6.2-0.33,12.72-1.32,19.04
		c-1.33,8.51-1.76,17.12-2.99,25.66c-0.74,5.13-1.84,10.44-1.39,15.77c0.24,2.79,0.01,5.55-1.08,8.18"/>
	<path class="st0" d="M661.8,8.32c0.96,11.3,2.12,22.57,3.59,33.83c0.84,6.46,2.25,12.98,1.86,19.6"/>
	<path class="st0" d="M933.84,426.48c-1.05,6.94,0.18,13.93,0.91,20.68c0.78,7.18-0.09,14.22,0.96,21.3c-1.32,0-2.14,0-2.96,0"/>
	<path class="st0" d="M666.43,621.11c1.06,2.51-0.58,4.22-2.45,4.18c-2.39-0.05-4.23,1.46-6.55,1.3
		c-9.23-0.65-18.19,1.54-27.27,2.61c-9.68,1.14-17.01-3.69-22.77-10.91c-1.25-1.57-1.47-4.41,0.42-6.45"/>
	<path class="st0" d="M498.24,387.77c-10.86,2.89-20.13,9.13-30.04,14.07c-5.38,2.68-8.03,8.48-13.58,10.73"/>
	<path class="st0" d="M574.02,122.26c5.19,1.52,10.38,1.77,15.82,1.23c6.3-0.62,12.71-0.14,19.07-0.14"/>
	<path class="st0" d="M643.8,329.44c-10.65-0.92-21.05,1.93-31.62,2.18"/>
	<path class="st0" d="M483.52,48.12c-9.04-1.52-18.12-2.63-27.26-3.31c-1.47-0.11-2.91-0.69-4.36-1.05"/>
	<path class="st0" d="M1076.14,632.01c-1.55,13.41-4.8,26.52-7.09,39.8"/>
	<path class="st0" d="M545.67,61.2c-9.48-0.34-18.78-3.03-28.35-2.18"/>
	<path class="st0" d="M1071.23,446.11c-5.61,0.99-4.12,6.08-4.7,9.31c-1.37,7.52-1.51,15.25-2.49,22.85
		c-0.26,1.98,0.16,5.31-3.71,4.92"/>
	<path class="st0" d="M1016.71,441.2c-1.3,0.12-2.77-0.59-3.32,1.62c-2.43,9.68-4.28,19.43-4.31,29.45"/>
	<path class="st0" d="M747.94,598.21c2,8.9,4,17.81,6,26.71"/>
	<path class="st0" d="M708.68,647.28c3.05,8.81,5.73,17.72,8.18,26.71"/>
	<path class="st0" d="M518.96,596.3c-7.15,6.77-16.53,10.3-24,16.61c-2.47,2.09-5.11,3.98-7.61,6.02c-2.23,1.82-3.24,4.17-2.73,7.08
		"/>
	<path class="st0" d="M642.71,292.36c10.81,4.8,22.3,5.03,33.8,4.76c1.34-0.03,4.57,0.99,4.37-2.58"/>
	<path class="st0" d="M559.3,368.69c-0.18,1.27,0.11,3.1-0.62,3.73c-6.39,5.48-7.89,14.02-13.01,20.26"/>
	<path class="st0" d="M699.41,425.93c-13.16-1.2-26.11,2.49-39.25,1.64"/>
	<path class="st0" d="M721.77,448.83c1.09,5.27,1.83,10.65,3.42,15.76c0.77,2.46-0.57,4.41-0.15,6.59"/>
	<path class="st0" d="M498.78,86.28c-7.27,0.59-14.59,0.36-21.81,1.64"/>
	<path class="st0" d="M896.77,426.48c-1.45,4.91-3.13,9.76-4.29,14.74c-0.85,3.63-2.1,7.53,1.02,10.89"/>
	<path class="st0" d="M748.48,414.48c5.33,5.96,7.33,13.6,10.36,20.72l82.32-12.54c0.87,10.93,2.16,21.79,6,32.17"/>
	<path class="st0" d="M1029.8,638.56c3.22,0.45,3.58,3.07,3.76,5.46c0.34,4.62,1.61,9.07,2.24,13.63"/>
	<path class="st0" d="M469.89,328.34c-0.01,7.71-6.64,8.66-11.5,9.51c-6.55,1.15-13.18,1.82-19.57,3.84"/>
	<path class="st0" d="M870.6,469c-3.81,5.45-0.64,10.92,0.06,16.35c0.19,1.45,1.12,2.8,1.03,4.37"/>
	<path class="st0" d="M721.77,614.02c-0.32,4.54,0.61,8.9,2.24,13.06c0.88,2.23,0.46,4.37,0.48,6.57"/>
	<path class="st0" d="M664.52,261.29c-6.36-2.09-12.72-4.18-19.08-6.27"/>
	<path class="st0" d="M930.57,678.36c-1.98-7.09-2.62-14.56-6-21.26l41.98,2.18c-0.7,4.51-3.22,8.2-5.5,11.97
		c-1.56,2.59-2.92,5.17-3.22,8.21"/>
	<path class="st0" d="M460.62,245.48c0,1.36,0,2.73,0,4.09c-5.07,2.58-9.78-1.09-14.72-0.82"/>
	<path class="st0" d="M511.87,292.91c-5.52,4.27-12.22,3.51-18.54,4.36"/>
	<path class="st0" d="M649.26,358.88c13.33,3.47,26.85,6.02,40.34,8.72"/>
	<path class="st0" d="M464.98,180.05c0.73,3.64-1.11,4.49-4.36,4.41c-6.31-0.17-12.15-2.99-18.54-2.95
		c-1.71,0.01-3.64-0.07-5.45-0.37"/>
	<path class="st0" d="M776.83,516.98c0.47,7.18,3.87,12.94,8.72,17.99"/>
	<path class="st0" d="M536.4,205.95c-3.09,2.27-6.08,4.7-9.31,6.76c-1.98,1.26-4.32,2.32-6.51,0.06"/>
	<path class="st0" d="M829.71,641.01c-1.67,5.48-5.61,10.12-6,16.08"/>
	<path class="st0" d="M1073.41,594.4c-0.55,5.45-1.09,10.9-1.64,16.36"/>
	<path class="st0" d="M582.74,325.07c-5.58,0.43-11.48-0.02-15.27,5.45"/>
	<path class="st0" d="M880.96,640.19c0.31,5,1.71,9.92,1.09,14.99"/>
	<path class="st0" d="M484.06,531.7c-7.77,7.61-17.97,10.24-27.8,13.63"/>
	<path class="st0" d="M718.5,431.93c0.27,5.09,1.93,9.87,3.27,14.72"/>
	<path class="st0" d="M750.66,655.46c1.54,10.57,3.42,21.04,8.72,30.53"/>
	<path class="st0" d="M629.08,676.17c1.29,4.78,4.6,8.93,4.36,14.17"/>
	<path class="st0" d="M689.05,191.5c-9.27,0.47-18.48,1.97-27.8,1.64"/>
	<path class="st0" d="M949.11,632.56c2.27,3.9,3.61,8.11,4.36,12.54"/>
	<path class="st0" d="M826.99,596.58c-0.43,4.21,1.24,8.32,0.55,12.54"/>
	<path class="st0" d="M454.62,96.09c0,1.48,0,2.95,0,5.06c-3.3-0.47-6.01-0.86-8.72-1.25"/>
	<path class="st0" d="M929.48,595.49c1.37,3.97,4.19,7.47,3.82,11.99"/>
	<path class="st0" d="M806.27,474.46c-0.18-2.36-0.49-4.72-0.51-7.09c-0.02-2.29-1.63-1.45-2.76-1.64"/>
	<path class="st0" d="M1042.88,518.07c0.68,3.87,2.94,7.37,2.73,11.45"/>
	<path class="st0" d="M978,622.2c-1.42,3.91-4.88,6.94-4.91,11.45"/>
	<path class="st0" d="M673.24,136.98c-5.41-1.42-11.68-0.34-15.81-5.45"/>
	<path class="st0" d="M664.52,93.37c-4.76-0.06-9.38,1.58-14.17,1.09"/>
	<path class="st0" d="M674.33,4.5c-3.35,0.07-6.8-0.48-9.81,1.64"/>
	<path class="st0" d="M792.64,630.38c-0.04,4.31-0.58,8.75,3.27,11.99"/>
	<path class="st0" d="M670.52,364.87l-7.09-21.26c2.56,5.63,7.65,6.92,13.08,7.63"/>
	<path class="st0" d="M1108.3,500.62c-0.62,3.14,1.06,6.14,0.55,9.27"/>
	<path class="st0" d="M625.27,670.72c0.27,3.84,2,4.92,6.01,4.54c4.12-0.39,8.38,1,12.53,1.28c9.24,0.63,18.61,1.19,27.78,0.94
		c14.54-0.39,29.17-1.19,43.63-3.46c0.68-0.11,1.45,0.33,2.17,0.51"/>
</g>
</svg>
