<?xml version="1.0" encoding="utf-8"?>
<!-- Generator: Adobe Illustrator 25.4.1, SVG Export Plug-In . SVG Version: 6.00 Build 0)  -->
<svg version="1.1" id="Layer_1" xmlns="http://www.w3.org/2000/svg" xmlns:xlink="http://www.w3.org/1999/xlink" x="0px" y="0px"
	 viewBox="0 0 1117 1117" style="enable-background:new 0 0 1117 1117;" xml:space="preserve">
<style type="text/css">
	.st0{fill:none;stroke:#000000;stroke-width:2;stroke-linecap:round;stroke-linejoin:round;stroke-miterlimit:10;}
</style>
<g>
	<path class="st0" d="M746.18,388.99c-10.33-3.04-20.61-6.22-31.09-8.73c-10.41-2.49-21.06-3.49-31.65-4.17
		c-11.24-0.72-21.9-3.73-32.7-6.23c-25.57-5.91-50.41-4.56-74.16,7.2c-9.87,4.88-19.98,9.95-28.12,17.15
		c-6.99,6.18-15.35,12.43-16.59,23.14c-0.11,0.99-0.44,1.65-1.15,2.17c-5.28,3.83-4.23,8.61-2.19,13.65
		c5.62,13.85,8.02,28.53,10.86,43.08c2.13,10.88,4.91,21.65,6.02,32.7c0.75,7.43,1.34,14.89,1.64,22.35
		c0.82,20.91,0.75,41.88,3.38,62.69c0.84,6.6,2.86,13.05,3.67,19.65c1.56,12.76,1.3,25.47-3.82,37.57c-0.51,1.2-0.19,2.23-0.46,3.31
		"/>
	<path class="st0" d="M526.36,423.34c-3.93-2.96-5.13-7.83-8.11-11.5c-9.21-11.32-21.53-18.1-34.47-23.85
		c-9.4-4.18-18.52-8.94-28.84-11.15c-16.37-3.52-32.41-3.12-48.6,0.63c-6.07,1.41-12.34,1.95-18.53,2.79
		c-5.31,0.73-10.42,2.08-15.27,4.38"/>
	<path class="st0" d="M403.64,496.94c-7.83-2.6-15.04-1.22-21.83,3.26c-2.44,1.61-2.71,3.84-2.79,6.56
		c-0.27,9.77,4.47,17.97,7.6,26.76c5.59,15.72,12.94,30.75,17.68,46.81c2.6,8.8,3.42,17.86,5.36,26.74
		c1.67,7.69,1.51,16.21,9.26,21.27"/>
	<path class="st0" d="M821.18,680.67c-6.91,1.6-14.01,1.87-20.97,2.94c-7.48,1.14-15.36,1.03-22.34,4.28
		c-4.59,2.14-9.13,1.18-13.7,1.48c-8.21,0.56-15.27,4.75-22.92,7.08c-11.68,3.57-21.72,10.2-31.53,17.07
		c-4.85,3.4-5.85,9.19-6.82,15.1c-2.74,16.69-1.75,33.45-2.04,50.19c-0.02,0.91-0.68,1.82-1.05,2.73"/>
	<path class="st0" d="M410.73,728.1c-2.78-4.18-3.79-10.44-2.66-17.33c-9.44-1.83-18.71-4.6-28.43-5.02
		c-15.41-0.67-30.6-2.97-45.86-5.2c-15.7-2.3-31.24-6.56-47.43-5.3c-4.66,0.36-9.52-0.62-14.14-1.62c-2.7-0.58-5.12-0.21-7.66,0.13"
		/>
	<path class="st0" d="M730.91,500.76c5.99-0.74,6.97-0.13,5.89,5.43c-1.07,5.47-1.09,10.92-0.89,16.37c0.1,2.7-0.37,5.59-1.41,7.51
		c-2.15,3.99-3.22,8.17-3.47,12.4c-0.53,9.07-3.14,17.69-5.16,26.4c-1.51,6.52-1.63,13.12-2.51,19.67
		c-1.29,9.57-4.48,18.5-8.32,27.23c-3.46,7.86-4.81,16.1-5.41,24.56"/>
	<path class="st0" d="M408.55,711.2c5.61,0.31,9.92,2.8,13.71,7.02c5.17,5.75,10.86,11.03,15.21,17.51
		c4.11,6.12,5.12,13.12,5.99,20.18c0.85,6.91,1.84,13.88,2.42,20.74c1.08,12.81,0.35,25.78,0.3,38.68
		c-0.06,15.99-2.71,31.88-0.73,48c1.45,11.87,1.13,23.95,1.43,35.96c0.6,24.18,2.24,48.34,3.02,72.52
		c0.29,8.88,3.15,17.33,3.45,26.16c0.03,0.93,1.02,1.82,1.57,2.73"/>
	<path class="st0" d="M681.82,915.1c4.02-0.35,7.87,0.21,11.63,2.13c-1.85,6.13-1.96,12.33-1.83,18.58
		c0.29,14.09-1.37,28.03-3.03,42.01c-0.66,5.54-2.04,11.16-1.34,16.88c0.29,2.33-0.03,4.62-1.61,6.54"/>
	<path class="st0" d="M748.36,390.63c10.38,3.78,20.27,8.65,29.4,14.8c11.67,7.85,25.05,11.77,37.71,17.32
		c12.09,5.3,24.42,10.04,36.5,15.37c9.28,4.09,18.74,7.13,28.93,7.57"/>
	<path class="st0" d="M696,847.5c-1.84,7.16-1.83,14.52-2.09,21.81c-0.36,9.98-0.27,19.99-0.02,29.98
		c0.14,5.75-0.76,11.31-1.71,16.9"/>
	<path class="st0" d="M154.36,430.97c-1.64-0.33-3.22-0.97-4.92-0.02c-2.86,1.59-6.15,1.77-9.27,2.13
		c-12.35,1.43-24.58,3.64-37.07,4.16c-5.18,0.22-10.75,0.44-15.83,2.46"/>
	<path class="st0" d="M454.36,1055.76c-18.02,5.09-36.46,6.64-55.09,6.51c-2.94-0.02-5.73,1.88-8.73,0.58"/>
	<path class="st0" d="M261.27,691.57c-6.05,1.55-11.99-0.6-17.99-0.75c-8.54-0.22-17.09-1.18-25.64-0.81c-6.02,0.26-12-1.7-18-0.07"
		/>
	<path class="st0" d="M967.09,675.22c-1.37-0.31-2.17-2-3.82-1.63c-10.66,2.42-21.48,1.1-32.18,0.92
		c-12.29-0.21-24.35,1.89-36.54,2.55c-2.23,0.12-4.04-0.18-6.01-0.74"/>
	<path class="st0" d="M260.18,416.25c-15.38,2.25-30.76,4.1-46.36,4.54c-11.84,0.34-23.5,3.29-34.85,6.57
		c-6.04,1.74-12.06,1.61-18.07,2.45c-3.07,0.43-4.48-0.72-3.35-4.32c1.78-5.71,2.78-11.67,4.57-17.38c0.59-1.86,0.93-3.61,0.97-5.49
		"/>
	<path class="st0" d="M684,956.53c-18.76,2.53-37.32,6.1-55.64,10.9"/>
	<path class="st0" d="M37.09,671.4c2.71,2.78,6.49,3.34,9.81,3.12c11.35-0.76,21.9,2.91,32.75,5c3.54,0.68,6.93,1.76,10.35,2.79"/>
	<path class="st0" d="M123.27,700.3c0.48-6.23,4.29-11.43,5.06-17.75c12.12,2.47,24.04,2.09,35.84,3.12
		c10.73,0.93,21.43,2.06,32.19,2.66c1.92,0.11,3,1.18,2.73,3.25c-0.35,2.74,1.22,5.06,1.64,7.63"/>
	<path class="st0" d="M1059.82,669.77c-6.08,1.6-12.34,2.27-18.54,2.09c-23.35-0.66-46.53,2.42-69.82,2.82
		c-1.9,0.03-4.1-0.36-3.82,2.73"/>
	<path class="st0" d="M446.73,776.08c13.97,0.97,27.77,3.15,41.43,6.09c1.7,0.37,3.83,0.75,4.93,2.63"/>
	<path class="st0" d="M687.27,1004.51c-2.88,6.8-2.75,14.2-4.25,21.29c-2.67,12.64-4.95,25.38-6.85,38.15
		c-2.03,13.63-5.51,26.93-8.53,40.33c-0.69,3.05-1.14,6.13-1.09,9.27"/>
	<path class="st0" d="M604.36,1064.48c3.57,0.1,6.15,2.63,9.27,3.82c9.14,3.49,18.65,4.58,28.37,4.36c2.18-0.05,4.36-0.01,6.55-0.01
		"/>
	<path class="st0" d="M317.45,362.28c-1.25,6.52-4.53,12.48-5.43,19.09c-0.96,7.06-4.14,13.9-2.21,21.26"/>
	<path class="st0" d="M747.82,380.27c-0.8,13.88-2.63,27.47-9.75,39.84c-1.72,2.99-3.29,5.41-7.16,4.87"/>
	<path class="st0" d="M861.27,680.67c-6.23-1.45-12.34,0.68-18.54,0.77c-5.23,0.08-10.59-0.26-15.83,0.83
		c-1.39,0.29-3.06-0.07-2.72,2.21"/>
	<path class="st0" d="M674.18,753.18c-10.71-0.06-21.13,2.26-31.62,3.9c-1.84,0.29-3.64,0.36-5.47,0.46"/>
	<path class="st0" d="M700.91,783.16c-0.11,12.28-3.05,24.29-3.54,36.53c-0.11,2.73-0.18,5.45-0.28,8.18L696,847.5"/>
	<path class="st0" d="M986.73,423.34c-0.73,4.95-2.39,9.62-3.82,14.34c-2.21,7.28-4.18,15.24-3.3,23.28
		c0.22,1.98,0.03,3.99,0.03,5.99"/>
	<path class="st0" d="M84,701.39c4.46-7.59,6.25-13.12,5.96-19.37c5.11-1.62,10.68-1.29,15.82-0.57c4.96,0.7,9.84,0.69,14.76,0.83
		c2.5,0.07,4.89,0.4,7.09,1.66"/>
	<path class="st0" d="M400.91,880.21c10.32,2.04,19.85,6.65,29.92,9.53c1.7,0.49,4.37-0.44,5.53,1.92"/>
	<path class="st0" d="M453.27,1003.42c2.42,6.73,2.16,13.74,2.18,20.72c0.02,9.45,0.33,18.91-0.08,28.35
		c-0.5,11.53,1.77,22.87,1.72,34.35"/>
	<path class="st0" d="M821.45,427.16c-1.12,4.4,0.98,8.38,1.66,12.54c1.19,7.28,2.52,14.54,3.79,21.81"/>
	<path class="st0" d="M693.82,917.28c8.32,0.72,15.79,4.72,23.97,6.16c3.45,0.6,7.03,1.32,10.39,2.57"/>
	<path class="st0" d="M520.36,972.89c-11.34-2.96-22.91-1.14-34.36-1.64"/>
	<path class="st0" d="M735.27,794.61c-11.34-0.38-22.61-1.53-33.82-3.27"/>
	<path class="st0" d="M513.27,752.09c-9.15,0.07-18.29,0.13-27.3-2.06c-1.78-0.43-4.29-1.13-5.97,0.97"/>
	<path class="st0" d="M492,1090.11c-8.73,4.36-17.47,8.69-26.17,13.1c-2.26,1.15-4.54,2.07-7.1,2.16"/>
	<path class="st0" d="M352.36,350.83c5.09,8,10.14,16.02,15.3,23.97c1.87,2.88,3.4,5.83,3.79,9.28
		c-61.64,18.54-61.64,18.54-61.64,18.54"/>
	<path class="st0" d="M708,1070.48c-14.52-1.58-29.23-0.85-43.65-3.73c-2.8-0.56-5.83-0.25-8.71,0.46"/>
	<path class="st0" d="M679.64,994.7c1.49,5.66,6,8.09,10.92,9.77c9.3,3.16,18.67,6.11,26.71,12.04"/>
	<path class="st0" d="M1018.36,658.86c-0.95,13.36,3.21,26.44,2.16,39.8c-0.11,1.45,0.63,3.03-0.52,4.36"/>
	<path class="st0" d="M948,463.68c2.65,10.01,3.22,20.24,3.27,30.53"/>
	<path class="st0" d="M1062,670.86c1.85,8.47,5.66,16.29,8.29,24.5c0.38,1.17,0.17,2.23,0.44,3.3"/>
	<path class="st0" d="M700.36,1034.5c-8.17-0.77-16.34,0.74-24.57-0.38c-3.94-0.54-7.86-1.64-11.98-1.34
		c-3.83,0.28-7.71-0.01-11.45,1.18"/>
	<path class="st0" d="M812.73,652.32c3.01,9.24,7.54,17.99,8.81,27.79c0.1,0.81,1.37,1.46,2.1,2.19"/>
	<path class="st0" d="M174.55,454.96c-0.77,4.98,2.23,8.25,4.74,12.1c3.67,5.61,6.14,12,11.08,16.79"/>
	<path class="st0" d="M3.27,666.49c4.52-2.07,8.62,0.91,12.45,1.98c6.18,1.74,12.51,2.34,18.64,4.01"/>
	<path class="st0" d="M447.27,798.43c4.55,0,9.1,0.13,13.64-0.03c5.07-0.18,10.05-0.05,14.73,2.21"/>
	<path class="st0" d="M766.36,661.59c4.45-0.97,6.37-3.65,5.45-8.18c-1.27-6.2-4.11-8.62-9.81-8.45c-0.18,0-0.36,0-0.55,0
		c0.36-0.28,0.46-0.18,0.27,0.27c-2.46,5.77-1.83,11.03,3.05,15.21c2.3,1.97,1.81,5.04,3.71,7.19c4.2,4.75,8.55,9.31,13.72,12.99
		c1.53,1.09,3.51,1.59,3.79,3.85"/>
	<path class="st0" d="M483.27,987.07c-6.64,5.52-13.97,9.56-22.32,12.13c-6.46,1.99-12.59,5.07-19.13,6.98
		c-1.81,0.53-3.63,0.5-5.46,0.52"/>
	<path class="st0" d="M483.27,1017.6c-11.21,2.38-22.51,1.82-33.82,1.09"/>
	<path class="st0" d="M645.27,419.52c2.55,6.36,5.73,12.56,7.39,19.14c0.92,3.64,2.44,3.87,5.16,3.75"/>
	<path class="st0" d="M260.18,394.45c-2.79,8.06-0.1,16.09,0.81,23.96c0.95,8.18,2.17,16.32,2.46,24.56"/>
	<path class="st0" d="M260.99,418.4l46.1-11.96c0.12,7.92-0.59,15.68-5.54,22.29c-0.68,0.91-0.08,1.57-0.46,2.24"/>
	<path class="st0" d="M690.55,926c-8.51-0.97-16.69,1.93-25.09,2.18"/>
	<path class="st0" d="M631.64,1008.33c-8.38,0.36-16.5,2.16-24.55,4.36"/>
	<path class="st0" d="M135.82,657.77c-2.18,8.18-4.36,16.36-6.55,24.53"/>
	<path class="st0" d="M753.82,640.33c-4.45-0.18-5.29,2.03-4.42,6.01c1.44,6.63,5.02,10.22,11.51,10.89"/>
	<path class="st0" d="M922.36,504.03c-0.21-6.6,0.65-13.24-2.01-19.7c-0.76-1.84-1.3-2.25-2.9-2.11"/>
	<path class="st0" d="M1117.09,662.68c-18.84,0.39-37.1,5.04-55.74,7.42c-8.02-15.83-8.26-16.68-5.89-21.59
		c0.91,0.55,1.82,1.09,2.73,1.63"/>
	<path class="st0" d="M680.73,779.89c15.25,0.54,30.14,3.2,44.73,7.63"/>
	<path class="st0" d="M126.55,646.87c0.3,3.35,0.09,6.74-1.17,9.78c-1.91,4.62-2.27,9.35-2.1,14.21"/>
	<path class="st0" d="M258,667.58c-2.34,8.57,1.63,16.28,4.07,23.91c2.48,7.76,4.56,15.41,4.93,23.52"/>
	<path class="st0" d="M667.64,842.05c11.25,0.82,22.18,3.66,33.27,5.44c4.9,0.79,9.82,1.46,14.73,2.19"/>
	<path class="st0" d="M257.45,466.41c-2.21,1.32-2.12,3.69-1.53,5.42c2.12,6.23,3.06,12.63,3.72,19.12"/>
	<path class="st0" d="M28.36,439.7c-1.32,3.54-3.15,5.47-7.63,5.68c-6.01,0.28-12.01,0-18.01,0.32"/>
	<path class="st0" d="M854.73,478.95c-0.57,8.2,2.21,15.61,5.45,22.9"/>
	<path class="st0" d="M577.64,1091.47c-8.1,1.7-16.34,2.22-24.55,3"/>
	<path class="st0" d="M445.09,873.67c-4.34,1.14-7.86-2.08-12-2.23c-5.19-0.18-10.28,0.27-15.27,1.68"/>
	<path class="st0" d="M884.18,448.42c-1.24,4.93,2.08,9.32,1.67,14.18c-0.25,2.99,0.2,6.28-4.4,5.99"/>
	<path class="st0" d="M466.91,845.32c-6.18,0-12.37,0.12-18.54-0.04c-5.5-0.14-10.94,0.26-16.36,1.13"/>
	<path class="st0" d="M838.91,645.78c3.27,7.27,6.55,14.54,9.82,21.81"/>
	<path class="st0" d="M491.45,955.17c-4.32,3.54-9.82,4.58-14.79,6.67c-2.18,0.91-4.11,2.42-6.48,2.87"/>
	<path class="st0" d="M1060.36,497.49c-1.85,4.63-5.81,7.64-8.74,11.44c-2.63,3.4-5.06,6.82-4.35,11.46"/>
	<path class="st0" d="M406.36,688.3c-1.43,7.09,0.49,14.17,0,21.26"/>
	<path class="st0" d="M80.73,573.81c-5.09,1.41-8.6,5.03-11.97,8.75c-3.19,3.52-5.84,7.61-10.94,8.7"/>
	<path class="st0" d="M556.36,1019.23c-7.1,0.24-13.71,3.13-20.73,3.82"/>
	<path class="st0" d="M444.55,774.99c-6.7,1.18-13.46,0.25-20.18,0.55"/>
	<path class="st0" d="M213.82,408.08c-1.83,5,0.93,9.5,1.76,14.15c0.9,5.01,3.08,9.77,4.12,14.77c0.62,2.96,0.11,6.16,0.11,9.24"/>
	<path class="st0" d="M510,1059.58c-0.84,1.97-2.14,3.36-4.36,3.83c-5.02,1.06-9.41,4.29-14.73,4.35"/>
	<path class="st0" d="M643.64,894.93c-5.11,2.29-10.65,3.38-15.77,5.57c-2.45,1.05-4.01-0.89-6.05-0.66"/>
	<path class="st0" d="M478.91,1087.38c-4.69,1.24-9.48,0.6-14.17,0.36c-2.02-0.11-3.73-0.27-5.46,0.73"/>
	<path class="st0" d="M336.55,454.96c0.24,7.24,3.54,13.75,4.91,20.72"/>
	<path class="st0" d="M542.18,821.33c-6.36,0.18-12.73,0.36-19.09,0.55"/>
	<path class="st0" d="M372,428.79c-1.51,1.3-2.54,2.73-2.79,4.9c-0.52,4.57-1.39,9.09-2.12,13.64"/>
	<path class="st0" d="M493.09,876.39c-3.45,0.91-7.08,1.43-10.32,2.83c-3.59,1.56-5.99,1.38-7.41-2.56"/>
	<path class="st0" d="M884.18,678.49c-6.58-0.97-13.05,0.95-19.64,0.72c-3.01-0.11-3.05,3.53-3.19,5.83
		c-0.27,4.71-0.08,9.45-0.08,14.17"/>
	<path class="st0" d="M454.91,1119c2.73,0.54,4-0.6,3.24-3.26c-2.61-9.17,0.61-18.18-0.12-28.12c-6.21-0.63-13.12-0.5-20.03,0.85"/>
	<path class="st0" d="M520.91,1075.39c-0.74,1.73,1.14,2.8,1.16,4.39c-4.4,6.05-10.69,9.16-17.53,11.42"/>
	<path class="st0" d="M1064.73,579.26c1.2,6.15,0.23,12.36,0.55,18.54"/>
	<path class="st0" d="M679.64,801.7c-6.65-0.25-13.13,1.14-19.64,2.18"/>
	<path class="st0" d="M922.36,595.35c-4.64,5.25-2.93,11.67-3.27,17.72"/>
	<path class="st0" d="M91.09,611.43c-3.32,4.37-4.1,9.78-5.91,14.75c-0.45,1.24-0.89,3.65,2.09,3.24"/>
	<path class="st0" d="M880.91,427.16c-4.28,1.78-2.54,5.87-1.9,8.1c1.14,4.03,0.38,9.56,4.24,11.81c3.25,1.9,7.86,1.15,11.86,1.81
		c18.34,3.04,36.87,4.76,55.11,8.64c8.2,1.75,16.74,2.92,25.06,3.19c22.7,0.72,45.45,0.29,68.17,0.16c1.82-0.01,3.64,1.61,5.45,0.09
		"/>
	<path class="st0" d="M200.73,671.95c0,0.55,0.23,1.37-0.03,1.59c-4.99,4.09-4.06,9.43-3.24,14.76"/>
	<path class="st0" d="M1024.91,616.34c0.35,3.27,1.22,6.45,1.19,9.81c-0.03,3.02-0.51,5.59-2.83,7.63"/>
	<path class="st0" d="M169.09,610.89c-4.49,6.16-9.56,11.94-12.55,19.08"/>
	<path class="st0" d="M999.82,511.66c-1.49,5.72-1.62,11.61-2.18,17.45"/>
	<path class="st0" d="M1021.64,464.77c-0.5,5.66-0.45,11.4-2.18,16.9"/>
	<path class="st0" d="M1102.91,443.51c-2.49,7.94-0.08,16-0.38,23.99c-0.08,2.07-0.08,4.03-0.71,5.99"/>
	<path class="st0" d="M238.91,558.55c0.23,5.78,1.06,11.4,4.36,16.36"/>
	<path class="st0" d="M950.18,675.22c1.47,5.35-0.85,11.21,2.18,16.36"/>
	<path class="st0" d="M898.36,662.13c-7.58,8.25-14.26,17.07-18.03,27.79c-0.66,1.89-0.84,3.64,0.03,5.46"/>
	<path class="st0" d="M572.18,792.43c4.08,5.03,9.23,9.21,12,15.27"/>
	<path class="st0" d="M847.64,544.37c-5.26,0.74-9.49,3.92-14.18,6.01c-0.71,0.32-1.06,1.93-2.19,0.53"/>
	<path class="st0" d="M881.45,586.35c-2.19,5.27-5.23,10.18-6.55,15.81"/>
	<path class="st0" d="M300,639.24c-1.91,5.46-2.67,10.77,2.18,15.27"/>
	<path class="st0" d="M959.45,664.31c-5.22,1.26-9.86,3.07-9.27,9.81"/>
	<path class="st0" d="M157.09,429.34c-3.29,5.16-4.08,10.97-4.36,16.9"/>
	<path class="st0" d="M442.91,944.54c-5.51,0.58-10.6,2.72-15.82,4.36"/>
	<path class="st0" d="M1084.91,472.41c-3.09,4.72-6.18,9.45-9.27,14.17"/>
	<path class="st0" d="M36,429.88c-1.06,1.73-2.23,2.95-0.77,5.58c1.26,2.27,1.8,5.29,2.41,8.05l48.55-4.91
		c0-0.55,0.09-1.11-0.01-1.63c-1.87-9.18-3.93-18.33-3.26-27.81"/>
	<path class="st0" d="M1048.36,475.68c0-4.54,0-9.09,0-13.63l54.55-1.64c4.75-0.04,9.54,0.32,14.18-1.09"/>
	<path class="st0" d="M128.73,488.76c0.85,5.26,2.33,10.34,4.36,15.27"/>
	<path class="st0" d="M317.45,521.47c-0.36,3.3,0.32,6.17,2.67,8.77c2.25,2.5,4.05,5.4,6.06,8.13"/>
	<path class="st0" d="M492,993.61c-4.65,1.55-9.34,3-13.64,5.45"/>
	<path class="st0" d="M346.91,611.43c-2.92,4.15-2.52,8.57-1.09,13.08"/>
	<path class="st0" d="M58.36,526.93c-0.94,4.73-3.38,8.83-5.45,13.08"/>
	<path class="st0" d="M212.73,641.42c-4.94,2.71-5.89,8.87-10.36,11.99"/>
	<path class="st0" d="M499.09,801.43c-4.23,0.5-8.3-1.59-12.55-0.82"/>
	<path class="st0" d="M500.18,865.49c-3.68,3.01-8.07,3.31-12.55,3.27"/>
	<path class="st0" d="M1032,552.01c-2.12,4,2.12,8,0,11.99"/>
	<path class="st0" d="M46.91,662.13c-4.1,2.55-8.32,4.67-11.08,9.17c-1.86,3.04-2.89,5.97-3.11,9.37"/>
	<path class="st0" d="M520.36,921.64c-4.31,0.31-9.46-3.21-12.55,2.73"/>
	<path class="st0" d="M98.18,670.86c-2.37,0.33-4.47,0.2-5.19,3.76c-0.43,2.14-0.16,4.58-1.36,6.6"/>
	<path class="st0" d="M1111.09,652.32c-0.59,3.73,1.68,7.17,1.09,10.9"/>
	<path class="st0" d="M581.45,951.08c1.03,3.63,2.62,7.03,4.36,10.36"/>
	<path class="st0" d="M959.45,662.13c0.47,4.03,3.89,6.88,4.36,10.9"/>
</g>
</svg>
