<?xml version="1.0" encoding="utf-8"?>
<!-- Generator: Adobe Illustrator 25.4.1, SVG Export Plug-In . SVG Version: 6.00 Build 0)  -->
<svg version="1.1" id="Layer_1" xmlns="http://www.w3.org/2000/svg" xmlns:xlink="http://www.w3.org/1999/xlink" x="0px" y="0px"
	 viewBox="0 0 1117 1117" style="enable-background:new 0 0 1117 1117;" xml:space="preserve">
<style type="text/css">
	.st0{fill:none;stroke:#000000;stroke-width:2;stroke-linecap:round;stroke-linejoin:round;stroke-miterlimit:10;}
</style>
<g>
	<path class="st0" d="M240.3,445.48c9.33,1.11,17.85-2.51,26.08-5.69c10.4-4.03,20.6-8.62,30.98-12.77
		c8.81-3.52,17.54-7.75,26.39-11.45c8.62-3.6,16.56-8.3,24.56-13.07c17.25-10.3,35.99-16.83,55.53-21.45
		c13.5-3.2,27.28-3.58,40.92-5.34c8.18-1.05,16.01-3.55,24-5.42c31.16-7.28,60.42-3.32,87.87,13.97
		c10.02,6.31,19.12,13.41,27.11,22.01c1.41,1.52,2.57,3.47,3.25,5.43c1.51,4.41,1.47,9.45,6.54,12.1c1.28,0.67,1.15,3.41,0.53,4.73
		c-8.2,17.3-9.82,36.26-14.16,54.54c-4.34,18.32-5.97,36.86-6.59,55.62c-0.63,18.91-0.59,37.92-3.28,56.68
		c-1.56,10.9-4.79,21.5-4.35,32.73c0.31,8.12,1.55,15.89,4.46,23.45c0.6,1.55,1.44,3.11,1.12,4.9"/>
	<path class="st0" d="M819.29,429.67c-5.51-6.27-6.13-14.21-6.24-21.81c-0.05-3.56-1.27-3.8-3.58-4.36
		c-23.67-5.76-46.84-13.12-69.79-21.24c-7.75-2.74-15.98-3.09-24-4.23c-7.11-1.01-13.99-3.18-21.24-3.47
		c-19.09-0.76-36.97,3.28-54.02,11.95c-12.32,6.26-25.1,11.59-34.88,21.87c-2.72,2.86-5.15,5.93-6.95,9.36
		c-1.16,2.21-2.33,4.13-4.47,5.4"/>
	<path class="st0" d="M702.07,628.66c6.85-5.02,7.6-12.89,8.58-20.19c2.36-17.55,6.69-34.41,13.67-50.73
		c5.42-12.68,10.61-25.49,15.04-38.59c0.87-2.58,1.36-5.2,1.84-7.73c1.45-7.64-2.94-13.25-10.77-14.7
		c-5.32-0.99-10.58-0.61-15.81,0.56"/>
	<path class="st0" d="M335.16,685.36c3.61,3.71,8.86,4.31,13.07,4.08c13.55-0.75,25.01,5.43,37.06,9.62
		c8.13,2.83,15.27,7.71,22.34,12.53c6.2,4.23,8.97,10.11,10.12,17.89c2.45,16.55,1.63,33.09,1.93,49.65
		c0.02,0.91,0.34,1.82,0.52,2.73"/>
	<path class="st0" d="M862.9,669.55c0.91,7.65-2.83,14.49-4.01,21.78c-0.19,1.14-2.23,2.15-4.67,2.51
		c-17.75,2.65-35.77,1.16-53.54,4.82c-15.53,3.2-31.32,5.87-47.36,6.45c-13.65,0.49-27.28,1.88-40.82,6.63
		c0.09,4.15,0.08,8.54-0.57,12.88c-0.32,2.12-0.41,4.04-3.32,3.54"/>
	<path class="st0" d="M382.04,502.72c3.06,2.01,2.63,5.78,2.47,8.16c-0.72,10.69,3.56,20.44,4.74,30.6
		c1.54,13.28,6.42,25.8,7.07,39.2c0.69,14.05,5.13,27.14,11.13,39.9c2.53,5.37,2.81,11.82,3.48,17.89"/>
	<path class="st0" d="M711.88,712.07c-4.26-0.11-7.96,1.02-10.92,4.34c-5.99,6.73-13.52,11.99-18.08,20.13
		c-2.92,5.22-4.84,10.47-5.39,16.41c-1.35,14.52-3.35,28.98-3.25,43.62c0.1,14.92,0.27,29.82,1.56,44.71
		c0.96,11.09-0.35,22.21-1.6,33.24c-0.73,6.38-0.39,12.73-0.45,19.09c-0.24,26.03-2.49,51.96-3.23,77.96
		c-0.24,8.52-2.06,16.75-3.38,25.07c-2.73,17.2-2.08,34.51-2.14,51.8c-0.01,2.37,0.17,4.77-0.54,7.09"/>
	<path class="st0" d="M236.48,448.2c-6.14-1.02-12.07,0.96-17.96,1.84c-20.03,3.01-40.08,5.9-60.03,9.44
		c-4.58,0.81-9.42,0.86-14.15,1.25"/>
	<path class="st0" d="M427.29,917.61c2.08,5.3,1.67,10.85,1.62,16.36c-0.13,14.81,1.12,29.5,3.06,44.19
		c0.71,5.34,1.95,10.8,1.34,16.33c-0.26,2.34,0.04,4.62,1.61,6.54"/>
	<path class="st0" d="M424.57,847.82c1.81,6.79,1.79,13.8,2.07,20.72c0.41,10.16,0.2,20.35,0.07,30.53
		c-0.07,5.72,0.14,11.36,1.67,16.9"/>
	<path class="st0" d="M1080.98,445.48c-7.28-4.32-15.59-3.13-23.45-4.33c-15.54-2.36-31.28-2.61-46.91-4.04
		c-13.6-1.25-26.87-3.97-40.32-5.77c-1.42-0.19-2.9-0.72-4.36-0.04"/>
	<path class="st0" d="M139.98,461.29c-40.53,0-81.05,0-122.43,0c2.13-6.95,1.46-13.29,0.3-19.63"/>
	<path class="st0" d="M919.6,673.91c1.43,1.9,3.32,3.68,3.71,6.01c0.44,2.65,0.69,5.6-0.03,8.12c-1.27,4.46-5,1.43-7.51,1.57
		c-17.99,1.01-36.04,0.71-53.97,2.8c-0.88,0.1-1.81-0.33-2.72-0.51"/>
	<path class="st0" d="M232.12,677.18c-5.69,1.63-11.36-0.04-16.88-0.74c-8.74-1.1-17.44-1.43-26.19-1.44
		c-8.54-0.01-17.08,0.01-25.62-0.01c-2.05-0.01-4.21,0.44-6-1.08"/>
	<path class="st0" d="M666.09,1056.63c7.72,0.72,15.15,3.03,22.87,4.03c10.37,1.35,20.69,2.06,31.1,1.97c2.03-0.02,4.12-0.35,6,0.81
		"/>
	<path class="st0" d="M492.17,967.22c-7.44-0.86-14.51-3.57-21.83-4.76c-11.23-1.83-22.28-4.98-33.78-5.05"/>
	<path class="st0" d="M161.79,660.83c-0.34,4.85-4.99,8.08-4.91,13.08c-1.59-0.2-2.17,1.77-3.82,1.66
		c-12.54-0.78-25.11-1.13-37.61-2.32c-10.19-0.97-20.36-1.11-30.54-0.92c-8.43,0.16-16.72-1.23-25.08-1.7"/>
	<path class="st0" d="M1087.52,680.45c-0.28-3.05-0.57-6.1-2.67-7.71c-18.62,2.69-36.91,4.28-54.58,9.35"/>
	<path class="st0" d="M674.81,776.41c-16.07,1.22-32.1,2.64-47.44,8.15c-0.64,0.23-1.44,0.03-2.17,0.03"/>
	<path class="st0" d="M439.83,1035.91c0.45,8.13,2.67,15.97,3.86,23.98c2.28,15.29,5.53,30.37,9.6,45.3
		c0.92,3.36,0.7,7.22,0.98,10.86"/>
	<path class="st0" d="M904.33,422.03c-6.33-2.63-13.1-1.22-19.64-2.11c-17.86-2.44-35.68-5.08-53.41-8.31
		c-4.74-0.87-9.3-2.62-13.66-4.81c-1.15-0.58-2.31-1.93-3.8-0.57"/>
	<path class="st0" d="M516.16,1064.26c-6.44,2.64-12.52,6.01-19.6,7.23c-8.37,1.44-16.71,1.45-25.1,1.49"/>
	<path class="st0" d="M803.47,360.97c-1.33,5.9,3.19,10.34,3.91,15.8c1.16,8.73,4.3,17.19,3.72,26.18"/>
	<path class="st0" d="M721.15,881.08c-5.34-0.84-9.87,1.93-14.71,3.29c-6.42,1.8-12.53,4.55-19.03,6.21
		c-1.88,0.48-3.69,0.53-5.51,0.86"/>
	<path class="st0" d="M439.83,915.43c-9.88-0.86-18.63,3.52-27.81,5.96c-7.37,1.96-14.63,4.5-22.34,4.94"/>
	<path class="st0" d="M298.63,428.03c0.62,2.18,0.52,4.28,0.07,6.56c-1.98,9.96-3.71,19.98-5.52,29.97"/>
	<path class="st0" d="M354.24,662.46c-0.52,5.17-4.49,8.01-7.61,11.47c-3.58,3.96-8.36,6.46-12.08,10.28
		c-2.4,2.47-5.78,1.29-8.65,0.81c-8.32-1.38-16.68-3.09-25.09-2.8c-13.51,0.46-26.96-0.48-40.32-1.77
		c-6.54-0.63-13.07-1.9-19.65-1.52c-4.68,0.27-7.38-0.56-9.54-5.44c-2.07-4.68-6.21-8.51-10.64-11.57"/>
	<path class="st0" d="M661.73,1105.15c-2.97,0.21-5.6-0.82-8.19-2.16c-7.43-3.86-14.84-7.75-22.38-11.39
		c-1.8-0.87-3.68-2.21-5.96-1.71"/>
	<path class="st0" d="M642.64,750.78c-12.06-0.9-23.91,2.9-35.98,1.64"/>
	<path class="st0" d="M419.12,783.49c1.51,13.62,3.36,27.2,4.5,40.88c0.63,7.45,0.48,14.95,1.49,22.36"/>
	<path class="st0" d="M1036.27,703.35c-0.14-3.4-2.38-5.88-3.78-8.74c-0.93-1.9-1.83-3.93-2.13-5.99c-0.35-2.37,0.26-6.24-1.28-6.78
		c-3.3-1.15-7.35-1.45-10.76-0.67c-6.35,1.46-12.77,1.27-19.13,1.87c-2.52,0.24-5.03,1.17-7.62,0.68"/>
	<path class="st0" d="M372.78,391.5c2.98,7.41,3.12,15.64,6.59,22.88c2.1,4.38,2.76,10.16,9.22,10.92"/>
	<path class="st0" d="M635.01,971.58c-9.45,0.26-18.9-0.43-28.36,0.42c-2.11,0.19-3.85,1.59-5.99,1.21"/>
	<path class="st0" d="M768.04,348.98c-0.11,3.72-2.56,6.37-4.39,9.25c-5.41,8.54-11.5,16.67-15.24,26.19"/>
	<path class="st0" d="M133.98,425.85c2.84,10.69,5.32,21.51,8.48,32.08c1.41,4.72,4.85,8.85,4.06,14.26"/>
	<path class="st0" d="M172.69,463.47c-2.8,10.73-2.71,21.79-3.82,32.71"/>
	<path class="st0" d="M418.57,791.13c-7.27,2.32-14.86,2.47-22.36,3.22c-3.25,0.33-6.57-0.17-9.81,0.59"/>
	<path class="st0" d="M949.04,456.92c-1.38,0.29-2.43-0.53-3.54,2.06c-3.9,9.08-9.12,17.56-15.54,25.2"/>
	<path class="st0" d="M446.38,754.05c11.86-0.36,23.44,1.48,34.89,4.36"/>
	<path class="st0" d="M102.91,660.83c-0.77,12.73-3.27,25.34-2.72,38.16c0.07,1.62-0.73,3.59,1.63,4.36"/>
	<path class="st0" d="M659.55,1055c2.21-0.24,4.14,0.55,5.88,1.26c-0.7,10.54-1.38,20.72-2.06,30.9"/>
	<path class="st0" d="M307.9,651.01c-1.65,8.46-5.81,16.11-7.86,24.48c-0.46,1.87-0.54,3.68-0.86,5.51"/>
	<path class="st0" d="M433.29,1004.29c2.68,9.64,3.81,19.54,4.91,29.44"/>
	<path class="st0" d="M440.38,993.39c0.72,3.2-0.42,5.15-3.18,7.21c-5.49,4.1-12.05,5.43-18.1,8.01c-5.4,2.3-10.73,4.69-15.79,7.68"
		/>
	<path class="st0" d="M670.99,1019.01c-11.67,0.81-23.32,1-34.89-1.09"/>
	<path class="st0" d="M464.91,1066.99c-12.9,0.91-25.83,1.58-38.7,2.86c-4.19,0.42-8.45-0.27-12.55,0.96"/>
	<path class="st0" d="M454.01,842.37c-9.23,0.55-18.19,2.81-27.27,4.28c-7.61,1.23-15.16,2.91-22.88,3.36"/>
	<path class="st0" d="M703.71,873.45c-2.87,0.7-5.64-0.65-8.1-1.36c-3.92-1.13-7.5-1.02-10.94,0.38c-3.13,1.27-6.19,0.88-9.31,0.98"
		/>
	<path class="st0" d="M467.64,1034.28c-6.46-3.19-13.15-1.35-19.61-0.42c-8.92,1.28-17.83,0.63-26.73,0.96"/>
	<path class="st0" d="M644.83,984.67c-2.39-0.34-4.38,0.4-6.46,2.7c7.01,8.68,17.47,10.75,27.18,14.2"/>
	<path class="st0" d="M1036.27,410.04c2.23,0.82,1.81,2.76,1.6,4.36c-1.94,14.32-4.34,28.56-8.19,42.52
		c-0.41,1.48-0.46,2.9-0.5,4.37"/>
	<path class="st0" d="M1084.79,428.58c1.02,6.32-0.56,11.86-3.68,17.52c-4.84,8.8-8.9,18.05-9.95,28.27"/>
	<path class="st0" d="M1118.05,666.28c-6.9-0.57-12.98,2.97-19.59,4.02c-4.18,0.66-8.59,1.23-12.57,3.07"/>
	<path class="st0" d="M673.17,798.21c-5.27,0.87-10.48,0.99-15.83,0.12c-4.04-0.65-8.11,0.31-11.43,3.15"/>
	<path class="st0" d="M359.69,657.01c-1.31-2.13,0.16-4.01,0.51-6c0.44-2.5,0.12-5.21-2.22-6.39c-1.62-0.82-3.34,0.76-4.88,1.98
		c-6.83,5.44-6.43,11.76,1.14,15.32c2.22-0.51,3.39-2.39,4.9-3.82"/>
	<path class="st0" d="M859.63,490.73c3.46-1.52,1.13-4.78,2-7.15c1.39-3.79,1.39-8.03,2.79-11.97c0.81-2.28,0.33-4.88-2.61-5.96"/>
	<path class="st0" d="M860.17,392.59c2.22,8.83,0.06,17.47-1.07,26.17c-0.99,7.62-1.83,15.26-2.74,22.9"/>
	<path class="st0" d="M983.93,656.46c2.36,8.9,4.72,17.81,7.09,26.71"/>
	<path class="st0" d="M567.41,1094.8c-8.25-0.42-16.38-1.79-24.53-3"/>
	<path class="st0" d="M957.22,405.13c2,7.63,3.7,15.36,6.09,22.87c2,6.28,4.17,12.44,4.27,19.11"/>
	<path class="st0" d="M359.69,657.55c6.36-0.1,12.84-7.05,11.93-13.07c-0.37-2.46-1.37-4.95-4.84-3.28"/>
	<path class="st0" d="M513.98,1013.02c-8.31-1.74-16.46-4.42-25.08-4.36"/>
	<path class="st0" d="M475.27,419.58c-2.54,6.63-5.19,13.23-7.55,19.93c-0.5,1.42-0.66,2.73-2.26,3.24"/>
	<path class="st0" d="M629.01,953.05c-0.35,3.98,2.79,4.45,5.45,5.46c5.41,2.05,10.94,3.84,15.81,7.08"/>
	<path class="st0" d="M430.02,925.79c8.53-0.18,16.76,1.86,25.08,3.27"/>
	<path class="st0" d="M644.83,875.63c-1.19,4.61-2.72,5.35-7.63,3.82c-3.92-1.22-7.72-3.05-11.99-2.73"/>
	<path class="st0" d="M475.82,895.26c3.69,1.12,7.36,2.24,10.93,3.76c3.84,1.64,7.88,2.42,11.97,0.6"/>
	<path class="st0" d="M687.89,846.73c-4.74-2.65-9.82-0.46-14.74-0.87c-6.46-0.55-13.1-0.92-19.61,0.33"/>
	<path class="st0" d="M265.92,481.46c0.25,7.4-2.83,13.97-5.18,20.72"/>
	<path class="st0" d="M1041.18,574.69c5.45,1.92,8.63,6.61,12.49,10.4c2.53,2.48,4.42,5.66,8.22,6.5"/>
	<path class="st0" d="M993.75,648.83c-0.38,3.43,0.8,6.65,1.75,9.78c1.1,3.63,1.56,7.22,1.52,10.94"/>
	<path class="st0" d="M281.73,644.47c-1.85,7.97-6.67,14.7-9.27,22.35"/>
	<path class="st0" d="M855.81,694.63c1.22,6.06-2.61,11.44-2.37,17.45c0.07,1.67-0.06,3.64-0.36,5.44"/>
	<path class="st0" d="M610.48,1057.72c-0.26,3.55,1.97,5.01,4.9,6.01c4.73,1.61,9.29,3.73,14.18,4.89"/>
	<path class="st0" d="M439.29,780.22c-14.07,0.83-27.99,2.56-41.43,7.09"/>
	<path class="st0" d="M682.44,1089.34c-5.63-3.75-12.06-1.39-18.02-1.85c-6.59-0.51-13.42,0.17-20.15,0.24
		c-0.91,0.01-1.98-0.49-2.73,0.52"/>
	<path class="st0" d="M239.2,427.48c1.08,0.08,1.86-0.33,2.33,1.6c1.48,6.07-0.65,11.72-2.6,16.84c-3.03,7.98-5.05,15.67-3.01,24.09
		"/>
	<path class="st0" d="M1118.05,443.84c-0.35,1.03,1.06,2.73-1.63,2.8c-6.05,0.16-11.99-0.85-17.99-1.23
		c-4.11-0.26-6.24-2.93-6.55-7.02"/>
	<path class="st0" d="M66.38,648.29c1.03,5.21-0.88,9.75-3.27,14.18c-1.3,2.4-2.5,4.84-2.73,7.63l-60.45-1.56"/>
	<path class="st0" d="M714.61,690.27c0.44,6.74-1.13,13.43-0.55,20.17"/>
	<path class="st0" d="M60.93,498.9c2.61,4.7,6.42,8.47,9.86,12.5c1.97,2.3,2.96,4.7,2.68,7.67"/>
	<path class="st0" d="M951.77,612.3c4.18,4.9,7.94,10.05,11.04,15.73c0.87,1.6,0.73,2.95,0.95,4.44"/>
	<path class="st0" d="M1029.18,611.76c2.29,4.54,4.64,9.04,5.5,14.17c0.32,1.93,1.75,4-1.68,4.37"/>
	<path class="st0" d="M880.89,557.24c0.87,5.58,0.14,10.91-2.78,15.78c-0.81,1.35-0.2,2.59-0.49,3.85"/>
	<path class="st0" d="M201.04,482c-2.43,6.52-3.14,13.27-2.73,20.17"/>
	<path class="st0" d="M422.93,827.65c-6.51-0.56-12.8,0.78-19.08,2.18"/>
	<path class="st0" d="M599.03,1077.35c-0.52,2.45-0.39,4.25,2.09,6.12c4.73,3.58,9.49,6.79,15.36,8.05"/>
	<path class="st0" d="M162.33,663.55c6.86,3.19,9.15,8.16,7.87,15.85c-0.76,4.58-0.9,9.41-1.33,14.13"/>
	<path class="st0" d="M783.3,456.92c0.56,6.65-3.17,12.3-4.36,18.54"/>
	<path class="st0" d="M440.92,801.48c6.21,1.96,12.93,0.33,19.08,2.73"/>
	<path class="st0" d="M748.96,429.67c0.72,1.09,2.19,1.52,2.23,3.27c0.14,5.56,1.44,10.96,2.68,16.36"/>
	<path class="st0" d="M675.9,775.86c5.82,0,11.63,0,17.45,0"/>
	<path class="st0" d="M99.09,467.28c0.73,5.63,1.45,11.27,2.18,16.9"/>
	<path class="st0" d="M565.23,1019.56c6.66,0.91,13.19,2.43,19.63,4.36"/>
	<path class="st0" d="M238.11,585.59c3.71,4.05,4.14,9.72,6.93,14.27c0.54,0.88,1.21,1.39,1.79,2.09"/>
	<path class="st0" d="M627.92,993.39c5.58,2.14,10.94,4.91,16.9,6"/>
	<path class="st0" d="M56.02,580.14c-1.63,5.37,0.54,10.99-1.09,16.36"/>
	<path class="st0" d="M581.58,821.66c5.42,1.23,10.91,0.21,16.36,0.55"/>
	<path class="st0" d="M693.89,949.78c-4.98-3.23-11.11-3.03-16.36-5.45"/>
	<path class="st0" d="M548.87,791.67c-3.76,5.77-9.46,10.06-12.54,16.36"/>
	<path class="st0" d="M907.61,640.11c0,0.55-0.22,1.42,0.03,1.59c4.79,3.2,6.07,9.43,10.87,12.59"/>
	<path class="st0" d="M259.38,681.54c-0.86,5.43,1.07,10.95-0.55,16.36"/>
	<path class="st0" d="M95.82,619.12c-2.47,5.88-1.48,11.52,2.73,15.54"/>
	<path class="st0" d="M661.73,1089.34c1,4.69,1.34,9.33,0.72,14.2c-0.4,3.13,2.46,6.29,0.93,9.8c-0.46,1.05-0.74,2.17-1.11,3.26"/>
	<path class="st0" d="M991.56,490.18c-0.88,5.36-3.83,10.23-3.82,15.81"/>
	<path class="st0" d="M3.14,456.92c0.55,1.94,1.12,3.48,3.82,3.36c3.44-0.15,6.9,1.11,10.35-0.09"/>
	<path class="st0" d="M88.73,550.7c1.83,5.09-1.59,10.18,0,15.27"/>
	<path class="st0" d="M236.48,679.91c1.1,3.34,2.23,6.65,3.76,9.84c0.98,2.05,1.68,4.4-1.04,5.97"/>
	<path class="st0" d="M667.72,1002.66c4.98,1.82,9.86,4,15.27,4.36"/>
	<path class="st0" d="M198.86,595.95c3.71,4.59,2.5,10.05,2.73,15.27"/>
	<path class="st0" d="M273.01,545.25c3.94-0.47,7.29,1.37,10.27,3.4c1.96,1.33,4.05,2.11,6.08,3.15"/>
	<path class="st0" d="M35.85,472.19c2.24,5.44,6.13,9.85,9.27,14.72"/>
	<path class="st0" d="M923.29,688.05l68.82-3.23c1.64,4.72,3.27,9.45,4.91,14.17"/>
	<path class="st0" d="M774.58,624.3c1.32-4.87,2.25-9.68-2.18-13.63"/>
	<path class="st0" d="M820.38,641.2c3.42,5.02,1.29,9.37-1.64,13.63"/>
	<path class="st0" d="M612.11,925.79c-0.47-4.05-0.8-4.55-4.9-4.28c-2.73,0.18-5.44,0.52-8.18,0.47"/>
	<path class="st0" d="M802.66,522.89c1.34,2.9-0.49,4.94-1.91,7.09c-1.93,2.92-4.06,5.69-6.54,8.18"/>
	<path class="st0" d="M121.17,514.17c1.78,4.2,0.9,8.78,1.91,13.08"/>
	<path class="st0" d="M72.38,462.38c0,4.36,0,8.72,0,13.08"/>
	<path class="st0" d="M1061.35,527.25c1.33,4.67,3.98,8.73,6,13.08"/>
	<path class="st0" d="M1028.64,681c-0.69-3.06-0.51-6.38-3.23-8.77c-1.15-1.01-2.02-1.52-3.31-0.5"/>
	<path class="st0" d="M1083.7,671.73c-1.29-5.48-6.28-6.56-10.36-8.72"/>
	<path class="st0" d="M619.75,865.27c3.49,2.88,7.44,4.28,11.99,3.82"/>
	<path class="st0" d="M634.47,800.94c-4.36,0.27-8.72,0.55-13.08,0.82"/>
	<path class="st0" d="M153.88,604.67c1.3-1.8,2.52-3.46,2.57-5.99c0.06-2.89-1.47-2.82-3.39-2.73"/>
	<path class="st0" d="M906.52,407.86c1.82,4.54-1.22,8.68-1.09,13.08l60.52,10.36"/>
	<path class="st0" d="M538.51,949.78c0.39,4.37-1.61,7.95-3.82,11.45"/>
	<path class="st0" d="M995.65,446.57c0.51,4.17,0.05,8.45,1.36,12.54"/>
	<path class="st0" d="M18.95,461.83c-0.52,3.62-1.49,7.21-0.55,10.9"/>
	<path class="st0" d="M372.78,378.42c0.13,3.48-0.55,7.04,1.09,10.36"/>
	<path class="st0" d="M312.26,598.67c-5.65-0.56-5.81,4.37-7.63,7.63"/>
</g>
<line class="st0" x1="1081.12" y1="446.1" x2="1098.43" y2="445.41"/>
</svg>
